<svg width="177" height="176" viewBox="0 0 177 176" fill="none" version="1.1" xmlns:xlink="http://www.w3.org/1999/xlink"
   xmlns="http://www.w3.org/2000/svg" xmlns:svg="http://www.w3.org/2000/svg">
   <g fill="#FFD11A">
      <path
         d="M13.0996 75.7889L15.8451 84.2386H24.7296L17.5419 89.4608L20.2873 97.9105L13.0996 92.6883L5.91187 97.9105L8.65734 89.4608L1.4696 84.2386H10.3541L13.0996 75.7889Z" />
      <path
         d="M23.3496 38.0013L26.0951 46.451H34.9796L27.7919 51.6732L30.5373 60.1229L23.3496 54.9007L16.1619 60.1229L18.9073 51.6732L11.7196 46.451H20.6041L23.3496 38.0013Z" />
      <path
         d="M51.0098 10.2915L53.7552 18.7412H62.6398L55.452 23.9634L58.1975 32.4131L51.0098 27.1909L43.822 32.4131L46.5675 23.9634L39.3798 18.7412H48.2643L51.0098 10.2915Z" />
      <path
         d="M89 0.283691L91.7455 8.73339H100.63L93.4423 13.9556L96.1877 22.4053L89 17.1831L81.8123 22.4053L84.5577 13.9556L77.37 8.73339H86.2545L89 0.283691Z" />
      <path
         d="M126.334 10.2915L129.079 18.7412H137.964L130.776 23.9634L133.522 32.4131L126.334 27.1909L119.146 32.4131L121.892 23.9634L114.704 18.7412H123.589L126.334 10.2915Z" />
      <path
         d="M154.18 38.0013L156.925 46.451H165.81L158.622 51.6732L161.367 60.1229L154.18 54.9007L146.992 60.1229L149.737 51.6732L142.55 46.451H151.434L154.18 38.0013Z" />
      <path
         d="M163.854 75.7889L166.599 84.2386H175.484L168.296 89.4608L171.041 97.9105L163.854 92.6883L156.666 97.9105L159.411 89.4608L152.224 84.2386H161.108L163.854 75.7889Z" />
      <path
         d="M154.18 113.577L156.925 122.027H165.81L158.622 127.249L161.367 135.699L154.18 130.477L146.992 135.699L149.737 127.249L142.55 122.027H151.434L154.18 113.577Z" />
      <path
         d="M126.334 141.287L129.079 149.736H137.964L130.776 154.959L133.522 163.408L126.334 158.186L119.146 163.408L121.892 154.959L114.704 149.736H123.589L126.334 141.287Z" />
      <path
         d="M89 151.259L91.7455 159.709H100.63L93.4423 164.931L96.1877 173.381L89 168.159L81.8123 173.381L84.5577 164.931L77.37 159.709H86.2545L89 151.259Z" />
      <path
         d="M51.0098 141.287L53.7552 149.736H62.6398L55.452 154.959L58.1975 163.408L51.0098 158.186L43.822 163.408L46.5675 154.959L39.3798 149.736H48.2643L51.0098 141.287Z" />
      <path
         d="M23.3496 113.577L26.0951 122.027H34.9796L27.7919 127.249L30.5373 135.699L23.3496 130.477L16.1619 135.699L18.9073 127.249L11.7196 122.027H20.6041L23.3496 113.577Z" />
   </g>
   <g>
      <circle cx="75.302322" cy="88" r="26.802324" fill="#a96afe" />
      <circle cx="101.69768" cy="88" r="26.802324" fill="#ff9575" />
      <path fill="#6a6af4"
         d="m 88.5,64.666745 c 8.123371,4.604535 13.60465,13.328836 13.60465,23.333254 0,10.004418 -5.481395,18.728601 -13.60465,23.333141 C 80.376744,106.7286 74.895349,98.004417 74.895349,87.999999 74.895349,77.995581 80.376628,69.27128 88.5,64.666745 Z" />
   </g>
</svg>