<svg width="72" height="72" viewBox="0 0 72 72" fill="none" xmlns="http://www.w3.org/2000/svg">
<rect width="72" height="72" rx="36" fill="#ECECFE"/>
<path d="M34.875 42.8958V46.0208C34.875 48.6097 30.6777 50.7083 25.5 50.7083C20.3223 50.7083 16.125 48.6097 16.125 46.0208V42.8958C16.125 45.4847 20.3223 47.5833 25.5 47.5833C30.6777 47.5833 34.875 45.4847 34.875 42.8958ZM16.125 48.1042C16.125 50.693 20.3223 52.7917 25.5 52.7917C30.6777 52.7917 34.875 50.693 34.875 48.1042V51.2292C34.875 53.818 30.6777 55.9167 25.5 55.9167C20.3223 55.9167 16.125 53.818 16.125 51.2292V48.1042ZM25.5 45.5C20.3223 45.5 16.125 43.4013 16.125 40.8125C16.125 38.2237 20.3223 36.125 25.5 36.125C30.6777 36.125 34.875 38.2237 34.875 40.8125C34.875 43.4013 30.6777 45.5 25.5 45.5Z" fill="#6A6AF4"/>
<path d="M56.875 42.8958V46.0208C56.875 48.6097 52.6777 50.7083 47.5 50.7083C42.3223 50.7083 38.125 48.6097 38.125 46.0208V42.8958C38.125 45.4847 42.3223 47.5833 47.5 47.5833C52.6777 47.5833 56.875 45.4847 56.875 42.8958ZM38.125 48.1042C38.125 50.693 42.3223 52.7917 47.5 52.7917C52.6777 52.7917 56.875 50.693 56.875 48.1042V51.2292C56.875 53.818 52.6777 55.9167 47.5 55.9167C42.3223 55.9167 38.125 53.818 38.125 51.2292V48.1042ZM47.5 45.5C42.3223 45.5 38.125 43.4013 38.125 40.8125C38.125 38.2237 42.3223 36.125 47.5 36.125C52.6777 36.125 56.875 38.2237 56.875 40.8125C56.875 43.4013 52.6777 45.5 47.5 45.5Z" fill="#6A6AF4"/>
<path d="M45.875 21.8958V25.0208C45.875 27.6097 41.6777 29.7083 36.5 29.7083C31.3223 29.7083 27.125 27.6097 27.125 25.0208V21.8958C27.125 24.4847 31.3223 26.5833 36.5 26.5833C41.6777 26.5833 45.875 24.4847 45.875 21.8958ZM27.125 27.1042C27.125 29.693 31.3223 31.7917 36.5 31.7917C41.6777 31.7917 45.875 29.693 45.875 27.1042V30.2292C45.875 32.818 41.6777 34.9167 36.5 34.9167C31.3223 34.9167 27.125 32.818 27.125 30.2292V27.1042ZM36.5 24.5C31.3223 24.5 27.125 22.4013 27.125 19.8125C27.125 17.2237 31.3223 15.125 36.5 15.125C41.6777 15.125 45.875 17.2237 45.875 19.8125C45.875 22.4013 41.6777 24.5 36.5 24.5Z" fill="#6A6AF4"/>
</svg>
