<svg width="72" height="72" viewBox="0 0 72 72" fill="none" xmlns="http://www.w3.org/2000/svg">
<rect width="72" height="72" rx="36" fill="#ECECFE"/>
<path d="M26.9963 45.2474C27.5969 43.5481 29.2175 42.3307 31.1224 42.3307C33.0273 42.3307 34.6479 43.5481 35.2485 45.2474H50.0807V48.1641H35.2485C34.6479 49.8633 33.0273 51.0807 31.1224 51.0807C29.2175 51.0807 27.5969 49.8633 26.9963 48.1641H20.9141V45.2474H26.9963ZM35.7463 35.0391C36.3469 33.3398 37.9675 32.1224 39.8724 32.1224C41.7773 32.1224 43.3979 33.3398 43.9985 35.0391H50.0807V37.9557H43.9985C43.3979 39.655 41.7773 40.8724 39.8724 40.8724C37.9675 40.8724 36.3469 39.655 35.7463 37.9557H20.9141V35.0391H35.7463ZM26.9963 24.8307C27.5969 23.1315 29.2175 21.9141 31.1224 21.9141C33.0273 21.9141 34.6479 23.1315 35.2485 24.8307H50.0807V27.7474H35.2485C34.6479 29.4466 33.0273 30.6641 31.1224 30.6641C29.2175 30.6641 27.5969 29.4466 26.9963 27.7474H20.9141V24.8307H26.9963Z" fill="#6A6AF4"/>
</svg>
