<svg width="25" height="25" viewBox="0 0 25 25" fill="none" xmlns="http://www.w3.org/2000/svg">
<path d="M13.5404 21.875V23.9583H11.457V21.875H3.1237C2.54841 21.875 2.08203 21.4086 2.08203 20.8333V4.16667C2.08203 3.59138 2.54841 3.125 3.1237 3.125H9.3737C10.6182 3.125 11.7353 3.67057 12.4987 4.5356C13.2621 3.67057 14.3792 3.125 15.6237 3.125H21.8737C22.449 3.125 22.9154 3.59138 22.9154 4.16667V20.8333C22.9154 21.4086 22.449 21.875 21.8737 21.875H13.5404ZM20.832 19.7917V5.20833H15.6237C14.4731 5.20833 13.5404 6.14107 13.5404 7.29167V19.7917H20.832ZM11.457 19.7917V7.29167C11.457 6.14107 10.5243 5.20833 9.3737 5.20833H4.16536V19.7917H11.457Z" fill="#6A6AF4"/>
</svg>
