<svg width="25" height="25" viewBox="0 0 25 25" fill="none" xmlns="http://www.w3.org/2000/svg">
<path fill-rule="evenodd" clip-rule="evenodd" d="M20.8333 2.08333C21.4083 2.08333 21.875 2.54999 21.875 3.12499V7.03854L19.7917 9.12187V4.16666H5.20833V20.8333H19.7917V17.9604L21.875 15.8771V21.875C21.875 22.45 21.4083 22.9167 20.8333 22.9167H4.16667C3.59167 22.9167 3.125 22.45 3.125 21.875V3.12499C3.125 2.54999 3.59167 2.08333 4.16667 2.08333H20.8333ZM22.6854 9.17499L24.1583 10.6479L16.0562 18.75L14.5813 18.7479L14.5833 17.2771L22.6854 9.17499ZM13.5417 12.5V14.5833H8.33333V12.5H13.5417ZM16.6667 8.33333V10.4167H8.33333V8.33333H16.6667Z" fill="#6A6AF4"/>
</svg>
