<svg width="17" height="22" viewBox="0 0 17 22" fill="none" xmlns="http://www.w3.org/2000/svg">
<path fill-rule="evenodd" clip-rule="evenodd" d="M6.39016 16.75H7.45996V11.5416H9.54329V16.75H10.6131C10.7506 15.4979 11.3891 14.4646 12.4256 13.3364C12.5433 13.2093 13.2922 12.4333 13.3808 12.3229C15.4262 9.76754 15.1536 6.06693 12.7559 3.83883C10.3582 1.61073 6.64755 1.60993 4.24887 3.83701C1.85019 6.06409 1.57605 9.76458 3.62037 12.3208C3.70996 12.4323 4.461 13.2093 4.57662 13.3354C5.61412 14.4646 6.25266 15.4979 6.39016 16.75ZM6.41829 18.8333V19.875H10.585V18.8333H6.41829ZM1.99537 13.625C-0.732154 10.2172 -0.367922 5.28211 2.83035 2.31166C6.02863 -0.658786 10.9771 -0.657993 14.1744 2.31348C17.3718 5.28495 17.7344 10.2201 15.0058 13.6271C14.36 14.4312 12.6683 15.7083 12.6683 17.2708V19.875C12.6683 21.0256 11.7356 21.9583 10.585 21.9583H6.41829C5.2677 21.9583 4.33496 21.0256 4.33496 19.875V17.2708C4.33496 15.7083 2.64225 14.4312 1.99537 13.625Z" fill="#6A6AF4"/>
</svg>
