<svg width="25" height="25" viewBox="0 0 25 25" fill="none" xmlns="http://www.w3.org/2000/svg">
<path fill-rule="evenodd" clip-rule="evenodd" d="M20.8308 3.125V17.7083C20.8304 19.5941 19.5635 21.2445 17.7419 21.7323C15.9203 22.22 13.9982 21.4236 13.0555 19.7903C12.1128 18.1571 12.3845 16.0943 13.718 14.761C15.0516 13.4276 17.1144 13.1561 18.7475 14.099V5.20833H9.37249V17.7083C9.37207 19.5941 8.10516 21.2445 6.28356 21.7323C4.46197 22.22 2.53986 21.4236 1.59715 19.7903C0.654452 18.1571 0.926198 16.0943 2.25971 14.761C3.59323 13.4276 5.65604 13.1561 7.28916 14.099V3.125H20.8308ZM5.20583 15.625C4.05523 15.625 3.12249 16.5577 3.12249 17.7083C3.12249 18.8589 4.05523 19.7917 5.20583 19.7917C6.35642 19.7917 7.28916 18.8589 7.28916 17.7083C7.28916 16.5577 6.35642 15.625 5.20583 15.625ZM16.6642 15.625C15.5136 15.625 14.5808 16.5577 14.5808 17.7083C14.5808 18.8589 15.5136 19.7917 16.6642 19.7917C17.8148 19.7917 18.7475 18.8589 18.7475 17.7083C18.7475 16.5577 17.8148 15.625 16.6642 15.625Z" fill="#6A6AF4"/>
</svg>
