<svg width="25" height="25" viewBox="0 0 25 25" fill="none" xmlns="http://www.w3.org/2000/svg">
<path fill-rule="evenodd" clip-rule="evenodd" d="M20.8347 3.125V17.7083C20.8343 19.5941 19.5674 21.2445 17.7458 21.7323C15.9242 22.22 14.0021 21.4236 13.0594 19.7903C12.1167 18.1571 12.3884 16.0943 13.722 14.761C15.0555 13.4276 17.1183 13.1561 18.7514 14.099V5.20833H9.3764V17.7083C9.37598 19.5941 8.10906 21.2445 6.28747 21.7323C4.46587 22.22 2.54376 21.4236 1.60106 19.7903C0.658358 18.1571 0.930104 16.0943 2.26362 14.761C3.59714 13.4276 5.65994 13.1561 7.29307 14.099V3.125H20.8347ZM5.20973 15.625C4.05914 15.625 3.1264 16.5577 3.1264 17.7083C3.1264 18.8589 4.05914 19.7917 5.20973 19.7917C6.36033 19.7917 7.29307 18.8589 7.29307 17.7083C7.29307 16.5577 6.36033 15.625 5.20973 15.625ZM16.6681 15.625C15.5175 15.625 14.5847 16.5577 14.5847 17.7083C14.5847 18.8589 15.5175 19.7917 16.6681 19.7917C17.8187 19.7917 18.7514 18.8589 18.7514 17.7083C18.7514 16.5577 17.8187 15.625 16.6681 15.625Z" fill="#6A6AF4"/>
</svg>
