<svg width="25" height="25" viewBox="0 0 25 25" fill="none" xmlns="http://www.w3.org/2000/svg">
<path fill-rule="evenodd" clip-rule="evenodd" d="M19.2734 10.4167L23.8568 21.875H21.612L20.3609 18.75H16.1005L14.8516 21.875H12.6078L17.1901 10.4167H19.2734ZM10.4193 2.08333V4.16666H16.6693V6.24999H14.6193C13.8158 8.66883 12.5333 10.9011 10.8484 12.8135C11.5998 13.484 12.4148 14.0795 13.2818 14.5917L12.4995 16.5479C11.3802 15.9131 10.3334 15.1583 9.3776 14.2969C7.51675 15.981 5.31306 17.2419 2.91823 17.9927L2.3599 15.9833C4.41181 15.3291 6.30263 14.2493 7.90885 12.8146C6.71999 11.4687 5.72975 9.95965 4.96823 8.33333H7.30156C7.88214 9.40505 8.5783 10.41 9.3776 11.3302C10.6798 9.82927 11.706 8.10969 12.4089 6.25104L2.08594 6.24999V4.16666H8.33594V2.08333H10.4193ZM18.2318 13.4219L16.9328 16.6667H19.5286L18.2318 13.4219Z" fill="#6A6AF4"/>
</svg>
