<svg width="22" height="20" viewBox="0 0 22 20" fill="none" xmlns="http://www.w3.org/2000/svg">
<path fill-rule="evenodd" clip-rule="evenodd" d="M17.2695 8.41671L21.8529 19.875H19.6081L18.357 16.75H14.0966L12.8477 19.875H10.6039L15.1862 8.41671H17.2695ZM8.41536 0.083374V2.16671H14.6654V4.25004H12.6154C11.8118 6.66887 10.5294 8.9011 8.84453 10.8136C9.59589 11.484 10.4109 12.0795 11.2779 12.5917L10.4956 14.548C9.37632 13.9132 8.32953 13.1584 7.3737 12.2969C5.51285 13.981 3.30916 15.2419 0.914323 15.9927L0.35599 13.9834C2.4079 13.3291 4.29872 12.2493 5.90495 10.8146C4.71608 9.46873 3.72585 7.95969 2.96432 6.33337H5.29766C5.87823 7.4051 6.57439 8.41005 7.3737 9.33025C8.67589 7.82931 9.70214 6.10973 10.4049 4.25108L0.0820312 4.25004V2.16671H6.33203V0.083374H8.41536ZM16.2279 11.4219L14.9289 14.6667H17.5247L16.2279 11.4219Z" fill="#6A6AF4"/>
</svg>
