<svg width="24" height="24" viewBox="0 0 24 24" fill="none" xmlns="http://www.w3.org/2000/svg">
<path d="M6.34421 14.7278L3.51578 17.5563L7.05131 21.0918L20.4864 7.65678L16.9508 4.12125L14.8295 6.24257L16.2437 7.65678L14.8295 9.071L13.4153 7.65678L11.294 9.7781L13.4153 11.8994L12.0011 13.3136L9.87974 11.1923L7.75842 13.3136L9.17263 14.7278L7.75842 16.142L6.34421 14.7278ZM17.6579 1.99993L22.6077 6.94968C22.9982 7.3402 22.9982 7.97336 22.6077 8.36389L7.75842 23.2131C7.3679 23.6036 6.73473 23.6036 6.34421 23.2131L1.39446 18.2634C1.00393 17.8728 1.00393 17.2397 1.39446 16.8492L16.2437 1.99993C16.6342 1.6094 17.2674 1.6094 17.6579 1.99993Z" fill="#000091"/>
</svg>
