<svg width="30" height="29" viewBox="0 0 30 29" fill="none" xmlns="http://www.w3.org/2000/svg">
  <path fill="black" d="M25.6179 9.83813L25.2892 10.5924C25.0486 11.1445 24.2849 11.1445 24.0442 10.5924L23.7155 9.83813C23.1295 8.49328 22.0741 7.42253 20.757 6.83676L19.7441 6.38628C19.1965 6.14269 19.1965 5.34573 19.7441 5.10215L20.7003 4.67684C22.0513 4.076 23.1257 2.96563 23.7015 1.57509L24.0392 0.760025C24.2745 0.191971 25.059 0.191971 25.2942 0.760025L25.6318 1.57509C26.2078 2.96563 27.2822 4.076 28.6331 4.67684L29.5893 5.10215C30.137 5.34573 30.137 6.14269 29.5893 6.38628L28.5765 6.83676C27.2594 7.42253 26.2039 8.49328 25.6179 9.83813ZM14.0001 1.66732C6.63628 1.66732 0.666748 7.63685 0.666748 15.0007C0.666748 18.6825 2.15913 22.0159 4.57199 24.4288L0.666748 28.334H14.0001C21.3638 28.334 27.3334 22.3644 27.3334 15.0007C27.3334 14.464 27.3017 13.9343 27.2398 13.4132L24.5917 13.7276C24.6413 14.1445 24.6667 14.5693 24.6667 15.0007C24.6667 20.8917 19.8911 25.6673 14.0001 25.6673H7.10466L8.34323 24.4288L6.45761 22.5432C4.4684 20.5539 3.33341 17.8705 3.33341 15.0007C3.33341 9.10961 8.10904 4.33399 14.0001 4.33399C14.9226 4.33399 15.8158 4.45079 16.6667 4.66971L17.3311 2.08715C16.265 1.81284 15.1486 1.66732 14.0001 1.66732ZM10.0001 11.0007H7.33342V19.0007H10.0001V11.0007ZM20.6667 11.0007H18.0001V19.0007H20.6667V11.0007ZM15.3334 7.00065H12.6667V23.0007H15.3334V7.00065Z" />
</svg>