<svg width="32" height="32" viewBox="0 0 32 32" fill="none" xmlns="http://www.w3.org/2000/svg">
  <path fill="black" d="M25.3333 25.3345V13.0661L16 5.70348L6.66667 13.0661V25.3345H25.3333ZM28 26.6678C28 27.4042 27.4031 28.0011 26.6667 28.0011H5.33333C4.59696 28.0011 4 27.4042 4 26.6678V12.4197C4 12.0115 4.18703 11.6257 4.50753 11.3729L15.1743 2.95838C15.6584 2.57637 16.3416 2.57637 16.8257 2.95838L27.4924 11.3729C27.8129 11.6257 28 12.0115 28 12.4197V26.6678ZM9.33333 16.0011H12C12 18.2103 13.7908 20.0011 16 20.0011C18.2092 20.0011 20 18.2103 20 16.0011H22.6667C22.6667 19.683 19.6819 22.6678 16 22.6678C12.3181 22.6678 9.33333 19.683 9.33333 16.0011Z" />
</svg>