<svg width="32" height="32" viewBox="0 0 32 32" fill="none" xmlns="http://www.w3.org/2000/svg">
  <path fill="black" d="M28 26.668H30.6667V29.3346H1.33337V26.668H4.00004V4.0013C4.00004 3.26493 4.597 2.66797 5.33337 2.66797H26.6667C27.4031 2.66797 28 3.26493 28 4.0013V26.668ZM25.3334 26.668V5.33464H6.66671V26.668H25.3334ZM10.6667 14.668H14.6667V17.3346H10.6667V14.668ZM10.6667 9.33463H14.6667V12.0013H10.6667V9.33463ZM10.6667 20.0013H14.6667V22.668H10.6667V20.0013ZM17.3334 20.0013H21.3334V22.668H17.3334V20.0013ZM17.3334 14.668H21.3334V17.3346H17.3334V14.668ZM17.3334 9.33463H21.3334V12.0013H17.3334V9.33463Z" />
</svg>