<svg width="32" height="32" viewBox="0 0 32 32" fill="none" xmlns="http://www.w3.org/2000/svg">
  <path fill="black" d="M7.68384 22.6667H17.4441C17.3713 23.1003 17.3334 23.5457 17.3334 24C17.3334 24.4543 17.3713 24.8997 17.4441 25.3333H8.60615L2.66675 30V5.33333C2.66675 4.59696 3.26371 4 4.00008 4H28.0001C28.7365 4 29.3334 4.59696 29.3334 5.33333V17.0703C28.5235 16.6017 27.6239 16.2712 26.6667 16.1107V6.66667H5.33341V24.5135L7.68384 22.6667ZM31.933 28.714L29.9283 26.7093C30.3975 25.9153 30.6667 24.9891 30.6667 24C30.6667 21.0545 28.2789 18.6667 25.3334 18.6667C22.3879 18.6667 20.0001 21.0545 20.0001 24C20.0001 26.9455 22.3879 29.3333 25.3334 29.3333C26.3225 29.3333 27.2487 29.0641 28.0427 28.5949L30.0474 30.5996L31.933 28.714ZM28.0001 24C28.0001 25.4728 26.8062 26.6667 25.3334 26.6667C23.8606 26.6667 22.6667 25.4728 22.6667 24C22.6667 22.5272 23.8606 21.3333 25.3334 21.3333C26.8062 21.3333 28.0001 22.5272 28.0001 24Z" />
</svg>