<svg width="32" height="32" viewBox="0 0 32 32" fill="none" xmlns="http://www.w3.org/2000/svg">
  <path fill="black" d="M4.21492 5.95833C7.44686 2.7264 12.5963 2.58067 16.0011 5.52113C19.4038 2.58067 24.5533 2.7264 27.7851 5.95833C31.0113 9.18448 31.1622 14.3213 28.2381 17.7263L17.8857 28.1144C16.8915 29.1084 15.3079 29.1536 14.2603 28.2499L14.1145 28.1144L3.76196 17.7263C0.837791 14.3213 0.988778 9.18448 4.21492 5.95833ZM6.10053 7.84395C3.82433 10.1201 3.75931 13.7701 5.90544 16.1249L6.10053 16.3292L16.0001 26.2287L23.0702 19.1567L18.357 14.4436L16.9429 15.8579C15.3807 17.4199 12.8481 17.4199 11.286 15.8579C9.7239 14.2957 9.7239 11.7631 11.286 10.201L14.0875 7.39764C11.804 5.56951 8.49443 5.65324 6.30488 7.64884L6.10053 7.84395ZM17.4142 11.6152C17.9349 11.0945 18.7791 11.0945 19.2998 11.6152L24.9558 17.2711L25.8995 16.3292C28.2426 13.9861 28.2426 10.1871 25.8995 7.84395C23.6233 5.56775 19.9733 5.50272 17.6186 7.64884L17.4142 7.84395L13.1716 12.0866C12.6881 12.5701 12.6536 13.3326 13.068 13.8559L13.1716 13.9723C13.6551 14.4557 14.4175 14.4903 14.9409 14.0759L15.0573 13.9723L17.4142 11.6152Z" />
</svg>