<svg width="26" height="30" viewBox="0 0 26 30" fill="none" xmlns="http://www.w3.org/2000/svg">
  <path fill="black" d="M13.3337 26.9992H20.0004V29.6659H4.00042V26.9992H10.6671V25.6C6.27585 25.164 2.51134 22.5975 0.421875 18.9488L2.73758 17.6255C4.5761 20.836 8.03565 22.9992 12.0004 22.9992C17.8915 22.9992 22.6671 18.2235 22.6671 12.3325C22.6671 8.36768 20.504 4.90813 17.2935 3.06961L18.6168 0.753906C22.6299 3.05205 25.3337 7.37648 25.3337 12.3325C25.3337 19.2463 20.0715 24.9311 13.3337 25.6V26.9992ZM12.0004 21.6659C6.84577 21.6659 2.66709 17.4871 2.66709 12.3325C2.66709 7.1778 6.84577 2.99912 12.0004 2.99912C17.1551 2.99912 21.3337 7.1778 21.3337 12.3325C21.3337 17.4871 17.1551 21.6659 12.0004 21.6659ZM12.0004 18.9992C15.6823 18.9992 18.6671 16.0144 18.6671 12.3325C18.6671 8.65056 15.6823 5.66579 12.0004 5.66579C8.31853 5.66579 5.33376 8.65056 5.33376 12.3325C5.33376 16.0144 8.31853 18.9992 12.0004 18.9992Z" />
</svg>