<svg width="32" height="32" viewBox="0 0 32 32" fill="none" xmlns="http://www.w3.org/2000/svg">
  <path fill="black" d="M8.00972 9.73033C8.00331 9.599 8.00006 9.46685 8.00006 9.33399C8.00006 4.91571 11.5818 1.33399 16.0001 1.33399C17.7996 1.33399 19.4637 1.92968 20.8009 2.93408L19.1993 5.06625C18.3081 4.39681 17.2022 4.00065 16.0001 4.00065C15.632 4.00065 15.2724 4.03796 14.9252 4.10901C12.4949 4.60633 10.6668 6.75667 10.6668 9.33399C10.6668 12.0448 12.6891 14.2832 15.3074 14.6228C16.672 12.7453 18.7401 11.6124 20.9281 11.3781C21.8396 11.2804 22.7724 11.3391 23.6848 11.564C24.4009 11.7404 25.1041 12.0194 25.7734 12.4059C29.5998 14.6151 30.9108 19.5077 28.7017 23.334C26.4925 27.1604 21.5998 28.4714 17.7734 26.2622C17.1041 25.8758 16.511 25.4064 16.0001 24.8745C15.4893 25.4064 14.8961 25.8759 14.2266 26.2624C10.4003 28.4715 5.50762 27.1605 3.29847 23.3341C1.08934 19.5078 2.40034 14.6151 6.22668 12.4059C6.89599 12.0195 7.599 11.7406 8.31506 11.5641C8.15046 10.9959 8.04716 10.4017 8.01282 9.78905L8.00972 9.73033ZM9.53314 14.0444C8.8582 14.1325 8.18859 14.3524 7.56002 14.7153C5.00912 16.1881 4.13512 19.45 5.60788 22.0008C7.08064 24.5517 10.3425 25.4257 12.8934 23.9529C13.7362 23.4664 14.3933 22.7873 14.845 22.0039C15.6573 20.5949 15.8044 18.8528 15.1533 17.2899C14.641 17.2359 14.143 17.1336 13.6642 16.9876C13.6038 16.9692 13.5437 16.95 13.4838 16.9303C11.8833 16.4003 10.5067 15.3787 9.53314 14.0444ZM17.5392 22.5797C17.953 23.1201 18.4782 23.59 19.1068 23.9529C21.6577 25.4256 24.9194 24.5516 26.3922 22.0007C27.0582 20.8473 27.2444 19.5485 27.0125 18.3355C26.7318 16.8657 25.8376 15.5219 24.4401 14.7149C23.5972 14.2284 22.6806 13.9988 21.7764 13.9993C20.1501 14.0004 18.568 14.7441 17.5398 16.0895C17.6882 16.4227 17.8118 16.7616 17.9116 17.1043C17.97 17.3053 18.0202 17.5076 18.0624 17.7107C18.0804 17.7977 18.0969 17.8848 18.112 17.9721C18.3829 19.5429 18.173 21.1488 17.5392 22.5797ZM24.77 9.33399C25.1548 9.77935 25.4748 10.2856 25.7156 10.8381L26.0442 11.5924C26.2849 12.1445 27.0486 12.1445 27.2892 11.5924L27.618 10.8381C28.204 9.49328 29.2594 8.42253 30.5765 7.83676L31.5893 7.38628C32.137 7.14269 32.137 6.34573 31.5893 6.10214L30.6332 5.67684C29.2822 5.076 28.2078 3.96563 27.6318 2.57509L27.2942 1.76003C27.059 1.19197 26.2745 1.19197 26.0392 1.76003L25.7016 2.57509C25.5954 2.83157 25.4722 3.07852 25.3334 3.31449C24.72 4.35789 23.8021 5.18683 22.7004 5.67684L21.7441 6.10214C21.1965 6.34573 21.1965 7.14269 21.7441 7.38628L22.757 7.83676C23.5329 8.18187 24.2181 8.69532 24.77 9.33399Z" />
</svg>