<svg width="30" height="30" viewBox="0 0 30 30" fill="none" xmlns="http://www.w3.org/2000/svg">
  <path fill="black" d="M10 5C10 6.38071 8.88071 7.5 7.5 7.5C6.11929 7.5 5 6.38071 5 5C5 3.61929 6.11929 2.5 7.5 2.5C8.88071 2.5 10 3.61929 10 5ZM6.25 20V27.5H3.75V12.5C3.75 10.4289 5.42894 8.75 7.5 8.75C8.52574 8.75 9.45529 9.16182 10.1323 9.82916L13.1004 12.6321L15.9914 9.74111L17.7591 11.5089L13.1501 16.1179L11.25 14.3234V27.5H8.75V20H6.25ZM7.5 11.25C6.80965 11.25 6.25 11.8097 6.25 12.5V17.5H8.75V12.5C8.75 11.8097 8.19035 11.25 7.5 11.25ZM23.75 6.25H12.5V3.75H25C25.6904 3.75 26.25 4.30965 26.25 5V18.75C26.25 19.4404 25.6904 20 25 20H20.7197L24.2491 27.5H21.4861L17.9568 20H12.5V17.5H23.75V6.25Z" />
</svg>
