<svg width="15" height="14" viewBox="0 0 15 14" fill="none" xmlns="http://www.w3.org/2000/svg">
  <path fill="black" d="M11.0007 10.9223V9.66683L14.334 11.6668L11.0007 13.6668V12.2732C8.94892 11.98 7.16818 10.6391 6.33592 8.69703L6.33398 8.69256L6.33205 8.69703C5.3866 10.9031 3.21737 12.3335 0.817204 12.3335H0.333984V11.0002H0.817204C2.684 11.0002 4.37118 9.88763 5.10655 8.17176L5.60867 7.00016L5.10655 5.82856C4.37118 4.11268 2.684 3.00016 0.817204 3.00016H0.333984V1.66683H0.817204C3.21737 1.66683 5.3866 3.09721 6.33205 5.30332L6.33398 5.30777L6.33592 5.30332C7.16818 3.36123 8.94892 2.02031 11.0007 1.72717V0.333496L14.334 2.3335L11.0007 4.3335V3.07806C9.48505 3.35858 8.18312 4.37796 7.56145 5.82856L7.05932 7.00016L7.56145 8.17176C8.18312 9.62236 9.48505 10.6418 11.0007 10.9223Z" />
</svg>
