<svg width="32" height="32" viewBox="0 0 32 32" fill="none" xmlns="http://www.w3.org/2000/svg">
  <path fill="black" d="M5.33333 15.1124L0 12.0013L16 2.66797L32 12.0013V23.3346H29.3333V13.5569L26.6667 15.1124V24.0164L26.3699 24.3832C23.9276 27.4012 20.1891 29.3346 16 29.3346C11.8109 29.3346 8.07239 27.4012 5.63017 24.3832L5.33333 24.0164V15.1124ZM8 16.668V23.0569C9.95628 25.2733 12.8148 26.668 16 26.668C19.1852 26.668 22.0437 25.2733 24 23.0569V16.668L16 21.3346L8 16.668ZM5.29236 12.0013L16 18.2474L26.7076 12.0013L16 5.75518L5.29236 12.0013Z" />
</svg>