
<svg width="30" height="30" viewBox="0 0 30 30" fill="none" xmlns="http://www.w3.org/2000/svg">
<path d="M16.4003 21.2785L11.1516 18.4155C10.2392 19.3906 8.94076 20 7.5 20C4.73857 20 2.5 17.7614 2.5 15C2.5 12.2386 4.73857 10 7.5 10C8.94069 10 10.2391 10.6093 11.1515 11.5843L16.4003 8.72141C16.3021 8.33051 16.25 7.92134 16.25 7.5C16.25 4.73857 18.4886 2.5 21.25 2.5C24.0114 2.5 26.25 4.73857 26.25 7.5C26.25 10.2614 24.0114 12.5 21.25 12.5C19.8092 12.5 18.5109 11.8906 17.5984 10.9156L12.3497 13.7785C12.4479 14.1694 12.5 14.5786 12.5 15C12.5 15.4214 12.4479 15.8305 12.3498 16.2214L17.5985 19.0844C18.5109 18.1094 19.8092 17.5 21.25 17.5C24.0114 17.5 26.25 19.7386 26.25 22.5C26.25 25.2614 24.0114 27.5 21.25 27.5C18.4886 27.5 16.25 25.2614 16.25 22.5C16.25 22.0786 16.3021 21.6694 16.4003 21.2785ZM7.5 17.5C8.88071 17.5 10 16.3807 10 15C10 13.6193 8.88071 12.5 7.5 12.5C6.11929 12.5 5 13.6193 5 15C5 16.3807 6.11929 17.5 7.5 17.5ZM21.25 10C22.6308 10 23.75 8.88071 23.75 7.5C23.75 6.11929 22.6308 5 21.25 5C19.8692 5 18.75 6.11929 18.75 7.5C18.75 8.88071 19.8692 10 21.25 10ZM21.25 25C22.6308 25 23.75 23.8808 23.75 22.5C23.75 21.1192 22.6308 20 21.25 20C19.8692 20 18.75 21.1192 18.75 22.5C18.75 23.8808 19.8692 25 21.25 25Z" fill="#6A6AF4"/>
</svg>
