<svg width="25" height="25" viewBox="0 0 25 25" fill="none" xmlns="http://www.w3.org/2000/svg">
<path d="M8.33594 1.5625C8.33594 0.987203 7.86956 0.520833 7.29427 0.520833C6.71898 0.520833 6.2526 0.987203 6.2526 1.5625V2.60417C6.2526 2.61131 6.25304 2.61755 6.25345 2.62336C6.25662 2.66868 6.25798 2.68816 6.03686 2.90926L6.01591 2.93019C5.73801 3.20742 5.21094 3.73324 5.21094 4.6875V5.72917C5.21094 6.30446 5.67731 6.77083 6.2526 6.77083C6.8279 6.77083 7.29427 6.30446 7.29427 5.72917V4.6875C7.29427 4.68035 7.29383 4.67411 7.29343 4.6683C7.29026 4.62299 7.2889 4.60351 7.51001 4.38241L7.53097 4.36148C7.80887 4.08425 8.33594 3.55843 8.33594 2.60417V1.5625ZM19.7943 1.5625C19.7943 0.987203 19.3279 0.520833 18.7526 0.520833C18.1773 0.520833 17.7109 0.987203 17.7109 1.5625V2.60417C17.7109 2.61131 17.7114 2.61755 17.7118 2.62336C17.7149 2.66868 17.7164 2.68816 17.4952 2.90926L17.4743 2.93019C17.1964 3.20742 16.6693 3.73324 16.6693 4.6875V5.72917C16.6693 6.30446 17.1356 6.77083 17.7109 6.77083C18.2863 6.77083 18.7526 6.30446 18.7526 5.72917V4.6875C18.7526 4.68035 18.7522 4.67411 18.7518 4.6683C18.7486 4.62299 18.7472 4.60351 18.9683 4.38241L18.9893 4.36148C19.2672 4.08425 19.7943 3.55843 19.7943 2.60417V1.5625ZM13.0234 0.520833C13.5988 0.520833 14.0651 0.987203 14.0651 1.5625V2.60417C14.0651 3.55843 13.538 4.08425 13.2601 4.36148L13.2392 4.38241C13.018 4.60351 13.0195 4.62299 13.0226 4.6683C13.023 4.67411 13.0234 4.68035 13.0234 4.6875V5.72917C13.0234 6.30446 12.5571 6.77083 11.9818 6.77083C11.4065 6.77083 10.9401 6.30446 10.9401 5.72917V4.6875C10.9401 3.73324 11.4672 3.20742 11.7451 2.93019L11.766 2.90926C11.9872 2.68816 11.9857 2.66868 11.9826 2.62336C11.9822 2.61755 11.9818 2.61131 11.9818 2.60417V1.5625C11.9818 0.987203 12.4481 0.520833 13.0234 0.520833ZM4.16927 10.4167H20.8359C20.8359 15.0191 17.105 18.75 12.5026 18.75C7.90023 18.75 4.16927 15.0191 4.16927 10.4167ZM3.1276 8.33333C2.55231 8.33333 2.08594 8.7997 2.08594 9.375V10.4167C2.08594 14.6881 4.65697 18.3592 8.33594 19.9666V20.8333C8.33594 21.4086 8.80231 21.875 9.3776 21.875H15.6276C16.2029 21.875 16.6693 21.4086 16.6693 20.8333V19.9666C20.3482 18.3592 22.9193 14.6881 22.9193 10.4167V9.375C22.9193 8.79971 22.4529 8.33333 21.8776 8.33333H3.1276Z" fill="#6A6AF4"/>
</svg>
