<svg width="25" height="25" viewBox="0 0 25 25" fill="none" xmlns="http://www.w3.org/2000/svg">
<path fill-rule="evenodd" clip-rule="evenodd" d="M10.3863 18.75H11.4561V13.5417H13.5394V18.75H14.6092C14.7467 17.4979 15.3852 16.4646 16.4217 15.3365C16.5394 15.2094 17.2883 14.4333 17.3769 14.3229C19.4223 11.7676 19.1497 8.06696 16.752 5.83886C14.3543 3.61076 10.6436 3.60996 8.24497 5.83704C5.84628 8.06412 5.57214 11.7646 7.61647 14.3208C7.70605 14.4323 8.45709 15.2094 8.57272 15.3354C9.61022 16.4646 10.2488 17.4979 10.3863 18.75ZM10.4144 20.8333V21.875H14.5811V20.8333H10.4144ZM5.99147 15.625C3.26394 12.2172 3.62817 7.28214 6.82645 4.31169C10.0247 1.34124 14.9732 1.34204 18.1705 4.31351C21.3679 7.28498 21.7305 12.2202 19.0019 15.6271C18.356 16.4313 16.6644 17.7083 16.6644 19.2708V21.875C16.6644 23.0256 15.7316 23.9583 14.5811 23.9583H10.4144C9.26379 23.9583 8.33105 23.0256 8.33105 21.875V19.2708C8.33105 17.7083 6.63834 16.4313 5.99147 15.625Z" fill="#6A6AF4"/>
</svg>
