<svg width="100%" height="100%" viewBox="0 0 33 41" fill="none" xmlns="http://www.w3.org/2000/svg">
<path d="M17.2331 14.6907L17.219 14.6988L22.2688 23.4522C22.946 24.4901 23.3412 25.7259 23.3412 27.0543C23.3412 28.3122 22.9884 29.4887 22.3753 30.4919L32.6647 27.1728L16.5686 0.445312L12.6923 6.899L17.2331 14.6907Z" fill="#000"></path>
<path d="M8.58009 40.4521L16.6639 33.6954C16.6572 33.6954 16.6497 33.6954 16.643 33.6954C12.9438 33.6954 9.94562 30.7223 9.94562 27.055C9.94562 25.7303 10.3385 24.4975 11.0127 23.461L15.7895 15.1656L11.8194 8.35331L0.516418 27.1735L8.56669 40.4521H8.58009Z" fill="#000"></path>
<path d="M20.081 32.7545C20.081 32.7545 20.0803 32.7545 20.0795 32.7552L10.8877 40.4521H24.5281L31.4413 29.1694L20.081 32.7552V32.7545Z" fill="#000"></path>
</svg>