<?xml version="1.0" encoding="utf-8"?>
<!-- Generator: Adobe Illustrator 23.0.0, SVG Export Plug-In . SVG Version: 6.00 Build 0)  -->
<svg version="1.1" id="Layer_1" xmlns="http://www.w3.org/2000/svg"
	xmlns:xlink="http://www.w3.org/1999/xlink" x="0px" y="0px"
	viewBox="0 0 364.29 50.355" enable-background="new 0 0 364.29 50.355" xml:space="preserve"
	fill="#000000ff">
<g>
	<path d="M36.612,10.365c0,4.895-3.921,8.863-8.756,8.863c-4.835,0-8.756-3.969-8.756-8.863s3.921-8.863,8.756-8.863
		C32.691,1.502,36.612,5.47,36.612,10.365"/>
	<path d="M39.28,23.816c1.204,7.582,1.905,10.877-0.062,13.507c-1.904,2.547-12.156-1.047-16.126-1.851
		c-0.808-0.163-1.224-0.097-1.224-0.097l-4.803,1.23l-5.894-0.997c-0.051-0.028-0.404,0.327,0.336,0.924
		c1.856,1.498,6.568,3.69,10.12,1.206c0.73-0.511,2.965,0.282,4.388,0.663c6.388,1.708,11.643,3.456,14.485,1.593
		c4.303-2.82,0.504-15.976,0.019-17.391C40.126,23.028,39.712,23.432,39.28,23.816z"/>
	<path d="M17.23,34.019l-2.745-5.043c-0.04-0.072,0.017-0.157,0.097-0.145l14.525,2.118c0.108,0.015,0.192,0.107,0.2,0.216
		l0.016,0.229c0.008,0.11-0.064,0.208-0.17,0.23L17.48,34.137C17.382,34.158,17.279,34.11,17.23,34.019"/>
	<path d="M16.191,34.39l-8.327-1.284c-0.076-0.012-0.142-0.061-0.176-0.132L0.024,18.408c-0.082-0.169,0.056-0.355,0.238-0.319
		l7.995,1.112c0.071,0.014,0.132,0.06,0.165,0.125l7.995,14.738C16.502,34.23,16.372,34.417,16.191,34.39"/>
	<g>
		<path d="M50.623,34.583c-1.567-16.592-8.448-21.059-9.887-21.615c-0.126,0.644-0.299,1.271-0.513,1.877
			c0.001,0.001,0.001,0.001,0.002,0.002c2.525,1.665,6.767,5.925,8.139,19.767v0.101c0.088,1.51,0.162,2.842,0.186,4.25
			c0.781-0.58,1.539-1.191,2.269-1.834C50.711,35.994,50.773,36.178,50.623,34.583z"/>
	</g>
</g>
<g>
	<g>
		<path d="M95.097,25.542c0,1.764-0.216,3.465-0.648,5.103c-0.432,1.638-1.125,3.087-2.079,4.347
			c-0.954,1.261-2.187,2.268-3.699,3.024c-1.512,0.756-3.348,1.134-5.508,1.134s-3.987-0.36-5.481-1.08
			c-1.494-0.72-2.709-1.692-3.645-2.916c-0.937-1.224-1.62-2.654-2.052-4.293c-0.432-1.638-0.648-3.356-0.648-5.157
			c0-1.799,0.251-3.51,0.756-5.13c0.503-1.62,1.26-3.032,2.268-4.239c1.007-1.206,2.258-2.168,3.753-2.889
			c1.493-0.72,3.249-1.08,5.265-1.08c2.124,0,3.924,0.36,5.4,1.08c1.476,0.721,2.681,1.683,3.618,2.889
			c0.936,1.207,1.62,2.601,2.052,4.185C94.881,22.104,95.097,23.778,95.097,25.542z M90.291,25.542c0-1.116-0.1-2.223-0.299-3.321
			c-0.199-1.098-0.551-2.087-1.057-2.97c-0.506-0.882-1.21-1.593-2.113-2.133c-0.904-0.54-2.078-0.81-3.523-0.81
			c-1.374,0-2.521,0.27-3.442,0.81s-1.654,1.251-2.195,2.133c-0.542,0.882-0.932,1.872-1.166,2.97
			c-0.235,1.099-0.352,2.206-0.352,3.321c0,1.116,0.099,2.25,0.298,3.402c0.199,1.152,0.569,2.187,1.111,3.105
			c0.542,0.918,1.265,1.674,2.168,2.268c0.903,0.594,2.06,0.891,3.469,0.891c1.445,0,2.638-0.297,3.578-0.891
			c0.939-0.594,1.662-1.35,2.167-2.268c0.506-0.918,0.858-1.953,1.057-3.105C90.191,27.792,90.291,26.658,90.291,25.542z"/>
		<path d="M99.201,12.797c0.828,0,1.575,0.208,2.241,0.621c0.666,0.414,1.071,1.107,1.215,2.079c0.504-0.756,1.26-1.467,2.268-2.133
			c1.007-0.666,2.178-0.999,3.51-0.999c0.396,0,0.818,0.037,1.269,0.108c0.45,0.073,0.872,0.189,1.269,0.351
			c0.396,0.162,0.72,0.387,0.972,0.675c0.251,0.289,0.378,0.667,0.378,1.134c0,0.576-0.144,1.197-0.432,1.863
			c-0.289,0.667-0.577,1.215-0.864,1.647c-0.468-0.432-0.972-0.765-1.512-0.999c-0.54-0.234-1.225-0.351-2.052-0.351
			c-0.612,0-1.197,0.1-1.755,0.297c-0.559,0.198-1.053,0.468-1.485,0.81c-0.432,0.342-0.775,0.729-1.026,1.161
			c-0.252,0.432-0.378,0.882-0.378,1.35v17.928h-4.59V12.852h0.378c0.108,0,0.216-0.009,0.324-0.027
			C99.039,12.807,99.128,12.797,99.201,12.797z"/>
		<path d="M135.542,38.339h-4.482v-2.201c-0.289,0.292-0.648,0.621-1.08,0.985c-0.432,0.365-0.945,0.693-1.539,0.985
			c-0.594,0.292-1.269,0.539-2.025,0.739c-0.756,0.201-1.585,0.301-2.484,0.301c-1.404,0-2.754-0.235-4.05-0.702
			s-2.439-1.215-3.429-2.241c-0.99-1.026-1.773-2.376-2.349-4.05c-0.577-1.674-0.864-3.717-0.864-6.129
			c0-2.376,0.297-4.428,0.891-6.156c0.594-1.728,1.385-3.141,2.376-4.239c0.99-1.098,2.142-1.917,3.456-2.457
			c1.313-0.54,2.673-0.81,4.077-0.81c1.62,0,2.997,0.27,4.131,0.81c1.134,0.54,2.061,1.153,2.781,1.836V0.053h0.324
			c0.072,0,0.17-0.008,0.297-0.027C131.699,0.009,131.816,0,131.924,0c1.007,0,1.863,0.252,2.565,0.756
			c0.702,0.504,1.053,1.44,1.053,2.808V38.339z M118.046,25.461c0,1.4,0.108,2.692,0.325,3.877s0.597,2.217,1.139,3.096
			c0.542,0.879,1.255,1.562,2.142,2.046c0.886,0.484,1.979,0.727,3.281,0.727c0.867,0,1.672-0.107,2.413-0.323
			c0.741-0.215,1.383-0.484,1.925-0.808c0.542-0.323,0.958-0.7,1.247-1.13c0.289-0.431,0.434-0.862,0.434-1.293v-12.6h0.054
			c-0.218-0.215-0.498-0.484-0.841-0.808c-0.343-0.323-0.777-0.628-1.301-0.915c-0.524-0.287-1.13-0.53-1.817-0.728
			c-0.687-0.197-1.464-0.296-2.331-0.296c-2.061,0-3.688,0.772-4.88,2.315C118.643,20.167,118.046,22.446,118.046,25.461z"/>
		<path d="M144.506,15.157c0.72-0.73,1.674-1.378,2.862-1.943c1.188-0.565,2.7-0.849,4.536-0.849c1.404,0,2.727,0.235,3.969,0.702
			c1.242,0.468,2.339,1.215,3.294,2.241c0.953,1.026,1.709,2.358,2.268,3.996c0.558,1.639,0.837,3.645,0.837,6.021
			c0,2.7-0.333,4.941-0.999,6.723c-0.667,1.782-1.531,3.195-2.592,4.239c-1.062,1.044-2.241,1.782-3.537,2.214
			s-2.557,0.648-3.78,0.648c-1.044,0-1.953-0.108-2.727-0.324c-0.774-0.216-1.449-0.478-2.025-0.783
			c-0.576-0.306-1.044-0.629-1.404-0.972c-0.36-0.342-0.63-0.639-0.81-0.891v2.16h-4.482V0.053h0.324
			c0.072,0,0.17-0.008,0.297-0.027C140.663,0.009,140.78,0,140.888,0c1.008,0,1.863,0.253,2.565,0.757
			c0.702,0.505,1.053,1.444,1.053,2.816V15.157z M157.358,25.623c0-1.292-0.117-2.512-0.351-3.661
			c-0.234-1.148-0.612-2.136-1.134-2.961c-0.522-0.825-1.225-1.481-2.106-1.965c-0.883-0.484-1.971-0.728-3.267-0.728
			c-1.764,0-3.205,0.377-4.32,1.131c-1.116,0.754-1.674,1.651-1.674,2.692v12.115c0.216,0.288,0.504,0.602,0.864,0.943
			c0.359,0.341,0.8,0.655,1.323,0.942c0.521,0.287,1.116,0.538,1.782,0.753c0.666,0.216,1.377,0.323,2.133,0.323
			c2.232,0,3.915-0.825,5.049-2.477C156.792,31.08,157.358,28.71,157.358,25.623z"/>
		<path d="M188.732,25.542c0,1.764-0.216,3.465-0.648,5.103c-0.432,1.638-1.125,3.087-2.079,4.347
			c-0.954,1.261-2.187,2.268-3.699,3.024c-1.512,0.756-3.348,1.134-5.508,1.134s-3.987-0.36-5.481-1.08
			c-1.494-0.72-2.709-1.692-3.645-2.916c-0.937-1.224-1.62-2.654-2.052-4.293c-0.432-1.638-0.648-3.356-0.648-5.157
			c0-1.799,0.251-3.51,0.756-5.13c0.503-1.62,1.26-3.032,2.268-4.239c1.007-1.206,2.258-2.168,3.753-2.889
			c1.493-0.72,3.249-1.08,5.265-1.08c2.124,0,3.924,0.36,5.4,1.08c1.476,0.721,2.681,1.683,3.618,2.889
			c0.936,1.207,1.62,2.601,2.052,4.185C188.516,22.104,188.732,23.778,188.732,25.542z M183.926,25.542
			c0-1.116-0.1-2.223-0.299-3.321c-0.199-1.098-0.551-2.087-1.057-2.97c-0.506-0.882-1.21-1.593-2.113-2.133
			c-0.904-0.54-2.078-0.81-3.523-0.81c-1.374,0-2.521,0.27-3.442,0.81s-1.654,1.251-2.195,2.133
			c-0.542,0.882-0.932,1.872-1.166,2.97c-0.235,1.099-0.352,2.206-0.352,3.321c0,1.116,0.099,2.25,0.298,3.402
			c0.199,1.152,0.569,2.187,1.111,3.105c0.542,0.918,1.265,1.674,2.168,2.268c0.903,0.594,2.06,0.891,3.469,0.891
			c1.445,0,2.638-0.297,3.578-0.891c0.939-0.594,1.662-1.35,2.167-2.268c0.506-0.918,0.858-1.953,1.057-3.105
			C183.826,27.792,183.926,26.658,183.926,25.542z"/>
		<path d="M212.87,36.557c0,2.196-0.189,4.149-0.567,5.859c-0.378,1.709-1.035,3.159-1.971,4.347
			c-0.937,1.188-2.196,2.097-3.78,2.727c-1.584,0.629-3.583,0.945-5.994,0.945c-1.693,0-3.168-0.162-4.428-0.486
			c-1.26-0.324-2.304-0.72-3.132-1.188c-0.648-0.396-1.107-0.774-1.377-1.134c-0.27-0.36-0.405-0.738-0.405-1.134
			c0-0.468,0.207-0.99,0.621-1.566c0.414-0.576,0.783-1.044,1.107-1.404c0.072,0.108,0.306,0.314,0.702,0.621
			c0.396,0.305,0.926,0.639,1.593,0.999c0.666,0.359,1.449,0.675,2.349,0.945c0.899,0.27,1.89,0.405,2.97,0.405
			c1.728,0,3.105-0.245,4.131-0.731c1.026-0.488,1.817-1.175,2.376-2.061c0.558-0.886,0.918-1.943,1.08-3.171
			c0.162-1.229,0.243-2.566,0.243-4.012v-0.379c-0.289,0.292-0.648,0.621-1.08,0.985c-0.432,0.365-0.945,0.693-1.539,0.985
			c-0.594,0.292-1.269,0.539-2.025,0.739c-0.756,0.201-1.585,0.301-2.484,0.301c-1.404,0-2.754-0.235-4.05-0.702
			s-2.439-1.215-3.429-2.241c-0.99-1.026-1.773-2.376-2.349-4.05c-0.577-1.674-0.864-3.717-0.864-6.129
			c0-2.376,0.288-4.428,0.864-6.156c0.575-1.728,1.35-3.141,2.322-4.239c0.972-1.098,2.106-1.917,3.402-2.457
			c1.296-0.54,2.664-0.81,4.104-0.81c1.692,0,3.114,0.262,4.266,0.783c1.152,0.522,2.106,1.18,2.862,1.971
			c0.18-0.791,0.594-1.377,1.242-1.755s1.277-0.567,1.89-0.567c0.18,0,0.342,0.009,0.486,0.027c0.144,0.019,0.288,0.027,0.432,0.027
			c0.144,0.036,0.288,0.054,0.432,0.054V36.557z M195.374,25.461c0,1.4,0.108,2.692,0.325,3.877s0.597,2.217,1.139,3.096
			c0.542,0.879,1.255,1.562,2.142,2.046c0.886,0.484,1.979,0.727,3.281,0.727c0.867,0,1.672-0.107,2.413-0.323
			c0.741-0.215,1.383-0.484,1.925-0.808c0.542-0.323,0.958-0.7,1.247-1.13c0.289-0.431,0.434-0.862,0.434-1.293v-12.6h0.054
			c-0.218-0.215-0.498-0.484-0.841-0.808c-0.343-0.323-0.777-0.628-1.301-0.915c-0.524-0.287-1.13-0.53-1.817-0.728
			c-0.687-0.197-1.464-0.296-2.331-0.296c-2.061,0-3.688,0.772-4.88,2.315C195.97,20.167,195.374,22.446,195.374,25.461z"/>
		<path d="M229.016,35.208c1.043,0,1.952-0.108,2.727-0.324c0.773-0.216,1.439-0.486,1.998-0.81
			c0.558-0.324,1.034-0.656,1.431-0.999c0.396-0.342,0.72-0.656,0.972-0.945c0.396,0.504,0.747,1.044,1.053,1.62
			c0.306,0.576,0.459,1.026,0.459,1.35c0,0.292-0.09,0.592-0.27,0.902s-0.486,0.629-0.918,0.958
			c-0.828,0.621-1.89,1.142-3.186,1.561c-1.296,0.419-2.862,0.629-4.698,0.629c-1.692,0-3.286-0.243-4.779-0.729
			c-1.495-0.486-2.805-1.269-3.931-2.349c-1.127-1.08-2.019-2.492-2.673-4.239c-0.656-1.746-0.983-3.879-0.983-6.399
			c0-2.268,0.333-4.23,0.999-5.886c0.666-1.655,1.539-3.015,2.619-4.077c1.08-1.062,2.313-1.844,3.699-2.349
			c1.385-0.504,2.816-0.756,4.293-0.756c1.836,0,3.41,0.307,4.725,0.918c1.314,0.613,2.385,1.431,3.213,2.457
			c0.828,1.026,1.439,2.214,1.836,3.564c0.396,1.35,0.594,2.746,0.594,4.185c0,0.505-0.009,1.018-0.027,1.539
			c-0.019,0.522-0.063,1.018-0.135,1.485h-17.01c0.108,2.612,0.801,4.714,2.079,6.306C224.38,34.412,226.351,35.208,229.016,35.208z
			 M233.605,23.057c0-0.972-0.099-1.871-0.296-2.7c-0.198-0.828-0.529-1.557-0.995-2.187c-0.466-0.629-1.084-1.125-1.854-1.485
			c-0.771-0.36-1.712-0.54-2.823-0.54c-1.864,0-3.396,0.612-4.597,1.836c-1.202,1.224-1.873,2.916-2.017,5.076H233.605z"/>
		<path d="M243.271,12.797c0.828,0,1.574,0.208,2.241,0.621c0.666,0.414,1.071,1.125,1.215,2.133
			c0.828-0.828,1.952-1.566,3.375-2.214c1.421-0.648,3.105-0.972,5.049-0.972c2.448,0,4.32,0.54,5.616,1.62
			c1.296,1.08,2.141,2.43,2.538,4.05c0.18,0.721,0.288,1.521,0.324,2.403c0.036,0.882,0.054,1.737,0.054,2.565v15.336h-4.59V23.166
			c0-0.684-0.009-1.341-0.027-1.971c-0.019-0.629-0.117-1.215-0.297-1.755c-0.252-0.936-0.775-1.656-1.566-2.16
			c-0.792-0.503-1.963-0.756-3.51-0.756c-2.052,0-3.69,0.405-4.914,1.215c-1.224,0.81-1.836,1.684-1.836,2.619v17.982h-4.59V12.852
			h0.27c0.072,0,0.17-0.009,0.297-0.027C243.045,12.807,243.163,12.797,243.271,12.797z"/>
		<path d="M300.348,32.453c0,0.864,0.035,1.539,0.108,2.025c0.072,0.486,0.207,0.846,0.405,1.08c0.198,0.234,0.468,0.387,0.81,0.459
			c0.342,0.072,0.783,0.108,1.323,0.108v2.16c-0.324,0.108-0.721,0.198-1.188,0.27c-0.468,0.072-0.955,0.108-1.458,0.108
			c-1.13,0-2.114-0.226-2.953-0.675c-0.838-0.45-1.331-1.25-1.476-2.403c-0.898,0.9-1.974,1.666-3.23,2.295
			c-1.255,0.629-2.906,0.945-4.951,0.945c-0.933,0-1.875-0.108-2.826-0.324c-0.951-0.216-1.812-0.612-2.583-1.188
			c-0.771-0.576-1.408-1.35-1.91-2.322c-0.503-0.972-0.753-2.214-0.753-3.726c0-1.871,0.475-3.402,1.426-4.59
			c0.951-1.188,2.126-2.124,3.525-2.808c1.399-0.683,2.897-1.151,4.494-1.404c1.596-0.251,3.059-0.396,4.387-0.432
			c0.322,0,0.699,0,1.13,0c0.43,0,0.807,0.019,1.13,0.054v-0.81c0-1.62-0.387-2.853-1.161-3.699
			c-0.775-0.845-2.26-1.269-4.455-1.269c-1.62,0-2.989,0.208-4.104,0.621c-1.116,0.415-2.196,0.981-3.24,1.701h-0.54
			c-0.289-0.467-0.531-0.972-0.729-1.512c-0.198-0.54-0.297-0.972-0.297-1.296c0-0.467,0.288-0.909,0.864-1.323
			c0.575-0.414,1.323-0.783,2.241-1.107c0.918-0.324,1.935-0.575,3.051-0.756c1.115-0.18,2.214-0.27,3.294-0.27
			c1.836,0,3.368,0.198,4.598,0.594c1.229,0.396,2.227,0.99,2.992,1.782c0.765,0.792,1.302,1.782,1.611,2.97
			c0.31,1.188,0.465,2.557,0.465,4.104V32.453z M295.812,25.542h-1.559c-1.147,0-2.312,0.072-3.494,0.216
			c-1.183,0.145-2.258,0.415-3.225,0.81c-0.968,0.396-1.756,0.945-2.365,1.647c-0.609,0.702-0.914,1.629-0.914,2.781
			c0,1.08,0.322,2.035,0.967,2.862c0.645,0.829,1.846,1.242,3.602,1.242c0.932,0,1.818-0.135,2.661-0.405
			c0.842-0.27,1.585-0.603,2.23-0.999c0.645-0.396,1.156-0.828,1.532-1.296c0.376-0.467,0.564-0.918,0.564-1.35V25.542z"/>
		<path d="M309.892,38.568l-4.535,0.238L317.22,7.902c0.186-0.49,0.496-0.963,0.93-1.418c0.434-0.456,1.091-0.706,1.97-0.752
			c0.351-0.019,0.677-0.019,0.978-0.003c0.3,0.017,0.54,0.052,0.719,0.106c0.214,0.053,0.41,0.091,0.588,0.113L309.892,38.568z"/>
		<path d="M337.067,13.823c0.72,0.396,1.206,0.766,1.458,1.107c0.251,0.343,0.378,0.675,0.378,0.999
			c0,0.396-0.099,0.856-0.297,1.377c-0.198,0.522-0.441,1.036-0.729,1.539l-0.756,0.054c-0.613-0.756-1.503-1.413-2.673-1.971
			c-1.17-0.558-2.422-0.837-3.753-0.837c-0.469,0-0.981,0.045-1.539,0.135c-0.559,0.09-1.08,0.252-1.566,0.486
			c-0.486,0.234-0.891,0.567-1.215,0.999c-0.324,0.432-0.486,0.972-0.486,1.62c0,1.152,0.513,1.98,1.539,2.484
			c1.026,0.504,2.295,0.937,3.807,1.296c1.08,0.252,2.124,0.567,3.132,0.945c1.007,0.378,1.898,0.864,2.673,1.458
			c0.774,0.594,1.385,1.342,1.836,2.241c0.45,0.9,0.675,2.017,0.675,3.348c0,1.332-0.27,2.493-0.81,3.483
			c-0.54,0.991-1.261,1.818-2.16,2.484c-0.9,0.667-1.953,1.17-3.159,1.512c-1.207,0.342-2.457,0.513-3.753,0.513
			c-1.26,0-2.395-0.1-3.402-0.297c-1.008-0.198-1.854-0.441-2.538-0.729c-0.9-0.359-1.53-0.729-1.89-1.107s-0.54-0.765-0.54-1.161
			c0-0.467,0.125-0.953,0.376-1.458c0.25-0.503,0.574-1.08,0.969-1.728c0.25,0.216,0.6,0.486,1.049,0.81
			c0.448,0.324,0.985,0.63,1.613,0.918c0.627,0.289,1.318,0.532,2.07,0.729c0.753,0.198,1.56,0.297,2.421,0.297
			c0.646,0,1.273-0.062,1.882-0.189c0.609-0.125,1.156-0.332,1.64-0.621c0.484-0.288,0.878-0.684,1.184-1.188
			c0.305-0.504,0.457-1.134,0.457-1.89s-0.162-1.377-0.484-1.863c-0.322-0.486-0.752-0.891-1.291-1.215
			c-0.539-0.324-1.139-0.584-1.802-0.783c-0.663-0.197-1.335-0.369-2.017-0.513c-1.04-0.216-2.035-0.495-2.985-0.837
			c-0.95-0.342-1.793-0.801-2.528-1.377c-0.735-0.576-1.327-1.296-1.774-2.16c-0.449-0.864-0.672-1.908-0.672-3.132
			c0-1.188,0.251-2.241,0.756-3.159c0.504-0.918,1.188-1.674,2.052-2.268c0.864-0.594,1.845-1.043,2.943-1.35
			c1.098-0.305,2.241-0.459,3.429-0.459c1.368,0,2.619,0.145,3.753,0.432C335.474,13.086,336.383,13.428,337.067,13.823z"/>
	</g>
</g>
</svg>