<svg width="16" height="16" viewBox="0 0 16 16" fill="none" xmlns="http://www.w3.org/2000/svg">
<path d="M5.33337 4.66669V7.33335L1.33337 4.00002L5.33337 0.666687V3.33335H8.66671C10.0812 3.33335 11.4378 3.89526 12.4379 4.89545C13.4381 5.89564 14 7.2522 14 8.66669C14 10.0812 13.4381 11.4377 12.4379 12.4379C11.4378 13.4381 10.0812 14 8.66671 14H2.66671V12.6667H8.66671C9.72757 12.6667 10.745 12.2453 11.4951 11.4951C12.2453 10.745 12.6667 9.72755 12.6667 8.66669C12.6667 7.60582 12.2453 6.58841 11.4951 5.83826C10.745 5.08811 9.72757 4.66669 8.66671 4.66669H5.33337Z" fill="#000091"/>
</svg>
