<svg width="21" height="21" viewBox="0 0 21 21" fill="none" xmlns="http://www.w3.org/2000/svg">
<path fill-rule="evenodd" clip-rule="evenodd" d="M10.4987 0.083374C16.2518 0.083374 20.9154 4.74692 20.9154 10.5C20.9154 16.2532 16.2518 20.9167 10.4987 20.9167C8.78763 20.9193 7.10249 20.4984 5.59351 19.6917L0.0820429 20.9167L1.30705 15.4052C0.500317 13.8963 0.0794785 12.2111 0.0820429 10.5C0.0820429 4.74692 4.7456 0.083374 10.4987 0.083374ZM10.4987 2.16671C5.89635 2.16671 2.16539 5.89767 2.16539 10.5C2.16539 11.8896 2.50393 13.2271 3.14455 14.423L3.5081 15.1032L2.8258 18.173L5.8956 17.4907L6.57581 17.8552C7.78263 18.5002 9.13038 18.8362 10.4987 18.8334C15.1011 18.8334 18.8321 15.1024 18.8321 10.5C18.8321 5.89767 15.1011 2.16671 10.4987 2.16671Z" fill="#6A6AF4"/>
</svg>
