<svg width="30" height="30" viewBox="0 0 30 30" fill="none" xmlns="http://www.w3.org/2000/svg">
    <path
        d="M6.25 15.625C6.25 16.0168 6.82626 16.698 8.16309 17.3664C9.89256 18.2311 12.346 18.75 15 18.75C17.654 18.75 20.1074 18.2311 21.8369 17.3664C23.1737 16.698 23.75 16.0168 23.75 15.625V12.9109C21.6875 14.1853 18.5341 15 15 15C11.4659 15 8.31245 14.1853 6.25 12.9109V15.625ZM23.75 19.1609C21.6875 20.4352 18.5341 21.25 15 21.25C11.4659 21.25 8.31245 20.4352 6.25 19.1609V21.875C6.25 22.2668 6.82626 22.948 8.16309 23.6164C9.89256 24.4811 12.346 25 15 25C17.654 25 20.1074 24.4811 21.8369 23.6164C23.1737 22.948 23.75 22.2668 23.75 21.875V19.1609ZM3.75 21.875V9.375C3.75 6.2684 8.7868 3.75 15 3.75C21.2132 3.75 26.25 6.2684 26.25 9.375V21.875C26.25 24.9816 21.2132 27.5 15 27.5C8.7868 27.5 3.75 24.9816 3.75 21.875ZM15 12.5C17.654 12.5 20.1074 11.9812 21.8369 11.1164C23.1737 10.448 23.75 9.76678 23.75 9.375C23.75 8.98322 23.1737 8.302 21.8369 7.63359C20.1074 6.76885 17.654 6.25 15 6.25C12.346 6.25 9.89256 6.76885 8.16309 7.63359C6.82626 8.302 6.25 8.98322 6.25 9.375C6.25 9.76678 6.82626 10.448 8.16309 11.1164C9.89256 11.9812 12.346 12.5 15 12.5Z"
        fill="#6A6AF4" />
</svg>