<svg width="21" height="21" viewBox="0 0 21 21" fill="none" xmlns="http://www.w3.org/2000/svg">
<path fill-rule="evenodd" clip-rule="evenodd" d="M4.49349 4.72192C1.75609 7.56309 1.3862 11.9345 3.6073 15.1953C5.82839 18.456 10.0317 19.7123 13.6779 18.2052C13.7977 17.424 13.5352 16.674 13.4279 16.4115C13.1883 15.8282 12.3987 14.8313 11.081 13.449C10.7289 13.0792 10.7518 12.7948 10.8779 11.9521L10.8914 11.8573C10.9768 11.2802 11.1206 10.9386 13.0633 10.6302C14.0508 10.474 14.3102 10.8677 14.6695 11.4146L14.7904 11.5938C15.132 12.0938 15.3852 12.2084 15.7674 12.3813C15.9393 12.4594 16.1529 12.5584 16.4393 12.7198C17.1185 13.1084 17.1185 13.5469 17.1185 14.5073V14.6167C17.1185 15.024 17.0789 15.3823 17.0164 15.6938C18.6367 13.6603 19.2152 10.9872 18.5808 8.4657C17.9464 5.94421 16.1717 3.86319 13.782 2.83858C13.206 3.22712 12.4154 3.77817 12.1393 4.15629C11.9987 4.349 11.7987 5.33546 11.1497 5.41671C10.981 5.43754 10.7529 5.42296 10.5112 5.40733C9.86328 5.36567 8.97786 5.30837 8.69453 6.07817C8.51432 6.56567 8.48307 7.89067 9.06536 8.57817C9.15911 8.68754 9.17682 8.89067 9.11328 9.11879C9.02995 9.41775 8.86224 9.60004 8.80911 9.63754C8.70911 9.57921 8.50911 9.34691 8.37266 9.18962C8.04661 8.80941 7.63828 8.33546 7.1112 8.18962C6.91953 8.1365 6.70911 8.09275 6.50391 8.049C5.93203 7.92921 5.28516 7.79275 5.13411 7.47192C5.0237 7.2365 5.02474 6.91254 5.02474 6.57087C5.02474 6.1365 5.02474 5.64587 4.81224 5.16983C4.73836 4.99994 4.62979 4.84738 4.49349 4.72192ZM10.4987 20.9167C4.74557 20.9167 0.0820312 16.2532 0.0820312 10.5C0.0820312 4.74692 4.74557 0.083374 10.4987 0.083374C16.2518 0.083374 20.9154 4.74692 20.9154 10.5C20.9154 16.2532 16.2518 20.9167 10.4987 20.9167Z" fill="#6A6AF4"/>
</svg>
