<svg width="20" height="21" viewBox="0 0 20 21" fill="none" xmlns="http://www.w3.org/2000/svg">
<path fill-rule="evenodd" clip-rule="evenodd" d="M4.2487 0.083374C7.05078 0.083374 9.48203 1.66358 10.7039 3.98025C11.9299 2.25317 13.9466 1.12504 16.2279 1.12504H19.8737V3.72921C19.8737 7.46879 16.8424 10.5 13.1029 10.5H11.5404V11.5417H16.7487V18.8334C16.7487 19.9844 15.8164 20.9167 14.6654 20.9167H6.33203C5.18099 20.9167 4.2487 19.9844 4.2487 18.8334V11.5417H9.45703V9.45837H7.3737C3.34661 9.45837 0.0820312 6.19379 0.0820312 2.16671V0.083374H4.2487ZM14.6654 13.625H6.33203V18.8334H14.6654V13.625ZM17.7904 3.20837H16.2279C13.6393 3.20837 11.5404 5.30733 11.5404 7.89587V8.41671H13.1029C15.6914 8.41671 17.7904 6.31775 17.7904 3.72921V3.20837ZM4.2487 2.16671H2.16536C2.16536 5.04275 4.49766 7.37504 7.3737 7.37504H9.45703C9.45703 4.499 7.12474 2.16671 4.2487 2.16671Z" fill="#6A6AF4"/>
</svg>
