<svg width="17" height="18" viewBox="0 0 17 18" fill="none" xmlns="http://www.w3.org/2000/svg">
<path d="M8.50002 2.33317C6.20955 2.33317 4.18759 3.48839 2.98705 5.24984H5.16669V6.9165H0.166687V1.9165H1.83335V3.9993C3.3532 1.97622 5.77305 0.666504 8.50002 0.666504C13.1024 0.666504 16.8334 4.39746 16.8334 8.99984H15.1667C15.1667 5.31794 12.1819 2.33317 8.50002 2.33317ZM1.83335 8.99984C1.83335 12.6818 4.81812 15.6665 8.50002 15.6665C10.7905 15.6665 12.8124 14.5113 14.013 12.7498H11.8334V11.0832H16.8334V16.0832H15.1667V14.0003C13.6469 16.0234 11.227 17.3332 8.50002 17.3332C3.89765 17.3332 0.166687 13.6022 0.166687 8.99984H1.83335Z" fill="#6A6AF4"/>
</svg>
