<svg width="24" height="24" viewBox="0 0 24 24" fill="none" xmlns="http://www.w3.org/2000/svg">
<path d="M20.0843 15.1998L21.2864 15.9211C21.5232 16.0632 21.5999 16.3703 21.4579 16.6071C21.4156 16.6775 21.3568 16.7364 21.2864 16.7786L12.5154 22.0411C12.1988 22.2312 11.8031 22.2312 11.4865 22.0411L2.71548 16.7786C2.47869 16.6365 2.40191 16.3294 2.54398 16.0926C2.58621 16.0222 2.6451 15.9633 2.71548 15.9211L3.91757 15.1998L12.001 20.0498L20.0843 15.1998ZM20.0843 10.4998L21.2864 11.2211C21.5232 11.3632 21.5999 11.6703 21.4579 11.9071C21.4156 11.9775 21.3568 12.0364 21.2864 12.0786L12.001 17.6498L2.71548 12.0786C2.47869 11.9365 2.40191 11.6294 2.54398 11.3926C2.58621 11.3222 2.6451 11.2633 2.71548 11.2211L3.91757 10.4998L12.001 15.3498L20.0843 10.4998ZM12.5154 1.30852L21.2864 6.57108C21.5232 6.71315 21.5999 7.02028 21.4579 7.25707C21.4156 7.32745 21.3568 7.38635 21.2864 7.42857L12.001 12.9998L2.71548 7.42857C2.47869 7.2865 2.40191 6.97937 2.54398 6.74258C2.58621 6.6722 2.6451 6.61331 2.71548 6.57108L11.4865 1.30852C11.8031 1.11852 12.1988 1.11852 12.5154 1.30852ZM12.001 3.33221L5.8882 6.99983L12.001 10.6675L18.1137 6.99983L12.001 3.33221Z" fill="#000091"/>
</svg>
