<svg width="854" height="441" viewBox="0 0 854 441" fill="none" xmlns="http://www.w3.org/2000/svg">
<rect width="854" height="441" fill="#FCFCFD"/>
<rect x="40.5" y="40.5" width="371" height="350" rx="6.5" fill="white"/>
<rect x="40.5" y="40.5" width="371" height="350" rx="6.5" stroke="#E5E5E5"/>
<circle cx="73" cy="86" r="13" fill="#A96AFE"/>
<path d="M97.06 95V81H100.6L104.02 86.88L107.44 81H110.98V95H108.14V84.96L105.02 90.2H103.02L99.9 84.96V95H97.06ZM119.211 84.52C122.491 84.52 124.731 86.94 124.731 89.96C124.731 92.98 122.491 95.4 119.211 95.4C115.931 95.4 113.691 92.98 113.691 89.96C113.691 86.94 115.931 84.52 119.211 84.52ZM119.251 93C120.871 93 122.091 91.7 122.091 89.96C122.091 88.2 120.871 86.92 119.251 86.92C117.571 86.92 116.331 88.2 116.331 89.96C116.331 91.72 117.571 93 119.251 93ZM126.425 89.96C126.425 87.02 128.365 84.52 131.545 84.52C132.905 84.52 133.885 84.94 134.665 85.72V80H137.225V95H134.665V94.2C133.885 94.98 132.905 95.4 131.545 95.4C128.365 95.4 126.425 92.9 126.425 89.96ZM129.085 89.96C129.085 91.72 130.185 93 131.905 93C133.045 93 133.985 92.52 134.665 91.6V88.32C133.985 87.4 133.045 86.92 131.905 86.92C130.185 86.92 129.085 88.2 129.085 89.96ZM143.49 83.32L141.09 80H143.85L145.91 83.32H143.49ZM149.55 93.36C148.61 94.62 147.05 95.4 145.15 95.4C141.57 95.4 139.55 92.9 139.55 89.96C139.55 86.98 141.43 84.52 144.73 84.52C147.53 84.52 149.37 86.42 149.37 89.06C149.37 89.62 149.29 90.14 149.21 90.48H142.15C142.39 92.36 143.55 93.12 145.13 93.12C146.23 93.12 147.19 92.64 147.73 91.92L149.55 93.36ZM144.67 86.6C143.37 86.6 142.51 87.32 142.23 88.64H146.87C146.83 87.62 146.09 86.6 144.67 86.6ZM151.852 95V80H154.392V95H151.852ZM166.718 93.36C165.778 94.62 164.218 95.4 162.318 95.4C158.738 95.4 156.718 92.9 156.718 89.96C156.718 86.98 158.598 84.52 161.898 84.52C164.698 84.52 166.538 86.42 166.538 89.06C166.538 89.62 166.458 90.14 166.378 90.48H159.318C159.558 92.36 160.718 93.12 162.298 93.12C163.398 93.12 164.358 92.64 164.898 91.92L166.718 93.36ZM161.838 86.6C160.538 86.6 159.678 87.32 159.398 88.64H164.038C163.998 87.62 163.258 86.6 161.838 86.6ZM173.191 95L178.491 81H182.211L187.511 95H184.491L183.151 91.36H177.551L176.211 95H173.191ZM178.431 88.94H182.271L180.351 83.68L178.431 88.94Z" fill="#3A3A3A"/>
<rect x="304.5" y="341.5" width="39" height="39" rx="19.5" fill="#F5F5FE"/>
<rect x="304.5" y="341.5" width="39" height="39" rx="19.5" stroke="#6A6AF4"/>
<path fill-rule="evenodd" clip-rule="evenodd" d="M315.669 358.498H318.169V368.498H315.669C315.209 368.498 314.836 368.125 314.836 367.665V359.331C314.836 358.871 315.209 358.498 315.669 358.498ZM320.08 357.421L325.413 352.087C325.56 351.94 325.792 351.924 325.958 352.048L326.669 352.581C327.073 352.885 327.255 353.401 327.13 353.89L326.169 357.665H331.503C332.423 357.665 333.169 358.411 333.169 359.331V361.085C333.169 361.303 333.127 361.518 333.044 361.72L330.465 367.982C330.336 368.295 330.032 368.498 329.694 368.498H320.669C320.209 368.498 319.836 368.125 319.836 367.665V358.01C319.836 357.789 319.924 357.577 320.08 357.421Z" fill="#6A6AF4"/>
<rect x="352.5" y="341.5" width="39" height="39" rx="19.5" fill="white"/>
<rect x="352.5" y="341.5" width="39" height="39" rx="19.5" stroke="#E5E5E5"/>
<path fill-rule="evenodd" clip-rule="evenodd" d="M380.336 353.5C380.796 353.5 381.169 353.873 381.169 354.333V362.667C381.169 363.127 380.796 363.5 380.336 363.5H377.434C377.164 363.5 376.91 363.631 376.753 363.852L372.209 370.291C372.091 370.459 371.867 370.515 371.683 370.423L370.171 369.667C369.294 369.229 368.842 368.239 369.083 367.289L369.836 364.333H364.503C363.582 364.333 362.836 363.587 362.836 362.667V360.913C362.836 360.696 362.878 360.48 362.961 360.278L365.541 354.017C365.669 353.704 365.973 353.5 366.311 353.5H380.336ZM376.169 355.167H366.869L364.503 360.913V362.667H369.836C370.35 362.667 370.836 362.904 371.152 363.31C371.467 363.717 371.578 364.246 371.451 364.744L370.698 367.701C370.65 367.891 370.74 368.089 370.916 368.177L371.467 368.452L375.392 362.892C375.6 362.597 375.867 362.355 376.169 362.177V355.167Z" fill="#666666"/>
<path d="M75.8332 356.001V353.501C75.8332 353.041 76.2063 352.668 76.6665 352.668H86.6665C87.1267 352.668 87.4998 353.041 87.4998 353.501V365.168C87.4998 365.628 87.1267 366.001 86.6665 366.001H84.1665V368.501C84.1665 368.961 83.7916 369.335 83.3275 369.335H73.3389C72.8755 369.335 72.5 368.964 72.5 368.501L72.5022 356.835C72.5022 356.375 72.8772 356.001 73.3412 356.001H75.8332ZM74.1687 357.668L74.1668 367.668H82.4998V357.668H74.1687ZM77.4998 356.001H84.1665V364.335H85.8332V354.335H77.4998V356.001Z" fill="#666666"/>
<rect x="60" y="128" width="332" height="22" rx="2" fill="#F3F5F9"/>
<rect x="60" y="162" width="332" height="22" rx="2" fill="#F3F5F9"/>
<rect x="60" y="196" width="332" height="22" rx="2" fill="#F3F5F9"/>
<rect x="60" y="230" width="332" height="22" rx="2" fill="#F3F5F9"/>
<rect x="60" y="264" width="332" height="22" rx="2" fill="#F3F5F9"/>
<rect x="442.5" y="40.5" width="371" height="350" rx="6.5" fill="white"/>
<rect x="442.5" y="40.5" width="371" height="350" rx="6.5" stroke="#E5E5E5"/>
<path d="M499.06 95V81H502.6L506.02 86.88L509.44 81H512.98V95H510.14V84.96L507.02 90.2H505.02L501.9 84.96V95H499.06ZM521.211 84.52C524.491 84.52 526.731 86.94 526.731 89.96C526.731 92.98 524.491 95.4 521.211 95.4C517.931 95.4 515.691 92.98 515.691 89.96C515.691 86.94 517.931 84.52 521.211 84.52ZM521.251 93C522.871 93 524.091 91.7 524.091 89.96C524.091 88.2 522.871 86.92 521.251 86.92C519.571 86.92 518.331 88.2 518.331 89.96C518.331 91.72 519.571 93 521.251 93ZM528.425 89.96C528.425 87.02 530.365 84.52 533.545 84.52C534.905 84.52 535.885 84.94 536.665 85.72V80H539.225V95H536.665V94.2C535.885 94.98 534.905 95.4 533.545 95.4C530.365 95.4 528.425 92.9 528.425 89.96ZM531.085 89.96C531.085 91.72 532.185 93 533.905 93C535.045 93 535.985 92.52 536.665 91.6V88.32C535.985 87.4 535.045 86.92 533.905 86.92C532.185 86.92 531.085 88.2 531.085 89.96ZM545.49 83.32L543.09 80H545.85L547.91 83.32H545.49ZM551.55 93.36C550.61 94.62 549.05 95.4 547.15 95.4C543.57 95.4 541.55 92.9 541.55 89.96C541.55 86.98 543.43 84.52 546.73 84.52C549.53 84.52 551.37 86.42 551.37 89.06C551.37 89.62 551.29 90.14 551.21 90.48H544.15C544.39 92.36 545.55 93.12 547.13 93.12C548.23 93.12 549.19 92.64 549.73 91.92L551.55 93.36ZM546.67 86.6C545.37 86.6 544.51 87.32 544.23 88.64H548.87C548.83 87.62 548.09 86.6 546.67 86.6ZM553.852 95V80H556.392V95H553.852ZM568.718 93.36C567.778 94.62 566.218 95.4 564.318 95.4C560.738 95.4 558.718 92.9 558.718 89.96C558.718 86.98 560.598 84.52 563.898 84.52C566.698 84.52 568.538 86.42 568.538 89.06C568.538 89.62 568.458 90.14 568.378 90.48H561.318C561.558 92.36 562.718 93.12 564.298 93.12C565.398 93.12 566.358 92.64 566.898 91.92L568.718 93.36ZM563.838 86.6C562.538 86.6 561.678 87.32 561.398 88.64H566.038C565.998 87.62 565.258 86.6 563.838 86.6ZM576.951 95V81H581.071C583.991 81 585.771 82.44 585.771 84.8C585.771 85.94 585.251 86.92 584.271 87.56C585.751 88.22 586.571 89.42 586.571 90.88C586.571 93.44 584.591 95 581.371 95H576.951ZM581.131 83.36H579.791V86.52H581.131C582.211 86.52 582.851 85.94 582.851 84.92C582.851 83.94 582.211 83.36 581.131 83.36ZM581.531 88.88H579.791V92.64H581.531C582.851 92.64 583.651 91.94 583.651 90.76C583.651 89.56 582.851 88.88 581.531 88.88Z" fill="#3A3A3A"/>
<rect x="706.5" y="341.5" width="39" height="39" rx="19.5" fill="white"/>
<rect x="706.5" y="341.5" width="39" height="39" rx="19.5" stroke="#E5E5E5"/>
<path fill-rule="evenodd" clip-rule="evenodd" d="M726.323 351.575L727.834 352.331C728.711 352.769 729.164 353.759 728.922 354.709L728.169 357.666H733.503C734.423 357.666 735.169 358.412 735.169 359.333V361.086C735.169 361.304 735.127 361.52 735.044 361.721L732.465 367.984C732.336 368.296 732.032 368.499 731.694 368.499H717.669C717.209 368.499 716.836 368.126 716.836 367.666V359.333C716.836 358.872 717.209 358.499 717.669 358.499H720.571C720.842 358.499 721.096 358.368 721.252 358.147L725.796 351.708C725.915 351.54 726.138 351.483 726.323 351.575ZM726.538 353.548L722.613 359.108C722.405 359.403 722.138 359.644 721.836 359.823V366.833H731.136L733.503 361.086V359.333H728.169C727.655 359.333 727.169 359.095 726.854 358.689C726.538 358.283 726.427 357.754 726.554 357.255L727.307 354.299C727.355 354.109 727.265 353.91 727.089 353.823L726.538 353.548Z" fill="#666666"/>
<rect x="754.5" y="341.5" width="39" height="39" rx="19.5" fill="#F5F5FE"/>
<rect x="754.5" y="341.5" width="39" height="39" rx="19.5" stroke="#6A6AF4"/>
<path fill-rule="evenodd" clip-rule="evenodd" d="M782.336 363.5H779.836V353.5H782.336C782.796 353.5 783.169 353.873 783.169 354.333V362.667C783.169 363.127 782.796 363.5 782.336 363.5ZM777.925 364.578L772.592 369.911C772.445 370.058 772.213 370.075 772.047 369.95L771.336 369.417C770.932 369.114 770.75 368.597 770.875 368.108L771.836 364.333H766.503C765.582 364.333 764.836 363.587 764.836 362.667V360.913C764.836 360.696 764.878 360.48 764.961 360.278L767.541 354.017C767.669 353.704 767.973 353.5 768.311 353.5H777.336C777.796 353.5 778.169 353.873 778.169 354.333V363.988C778.169 364.209 778.081 364.421 777.925 364.578Z" fill="#6A6AF4"/>
<path d="M477.833 356.001V353.501C477.833 353.041 478.206 352.668 478.667 352.668H488.666C489.127 352.668 489.5 353.041 489.5 353.501V365.168C489.5 365.628 489.127 366.001 488.666 366.001H486.166V368.501C486.166 368.961 485.792 369.335 485.327 369.335H475.339C474.875 369.335 474.5 368.964 474.5 368.501L474.502 356.835C474.502 356.375 474.877 356.001 475.341 356.001H477.833ZM476.169 357.668L476.167 367.668H484.5V357.668H476.169ZM479.5 356.001H486.166V364.335H487.833V354.335H479.5V356.001Z" fill="#666666"/>
<rect x="462" y="128" width="332" height="22" rx="2" fill="#F3F5F9"/>
<rect x="462" y="162" width="332" height="22" rx="2" fill="#F3F5F9"/>
<rect x="462" y="196" width="332" height="22" rx="2" fill="#F3F5F9"/>
<circle cx="475" cy="86" r="13" fill="#FF9575"/>
</svg>
