<svg width="168" height="52" viewBox="0 0 168 52" fill="none" xmlns="http://www.w3.org/2000/svg">
<rect x="0.5" y="0.5" width="167" height="51" rx="5.5" fill="white"/>
<rect x="0.5" y="0.5" width="167" height="51" rx="5.5" stroke="#6A6AF4"/>
<path d="M28.7737 12.9994C28.5179 13.0795 28.2706 13.2223 27.776 13.5079L19.543 18.2612C19.0484 18.5468 18.8011 18.6896 18.6038 18.871C18.2392 19.2063 17.9859 19.6451 17.8778 20.1284C17.8193 20.39 17.8193 20.6756 17.8193 21.2467V30.7534C17.8193 31.3245 17.8193 31.6101 17.8778 31.8717C17.9859 32.355 18.2392 32.7938 18.6038 33.1291C18.8011 33.3105 19.0484 33.4533 19.543 33.7389L27.776 38.4922C28.2706 38.7778 28.518 38.9206 28.7737 39.0007C29.2464 39.1488 29.753 39.1488 30.2257 39.0007C30.4814 38.9205 30.7287 38.7778 31.2234 38.4922L39.4564 33.7389C39.951 33.4533 40.1983 33.3105 40.3956 33.1291C40.7602 32.7938 41.0135 32.355 41.1216 31.8717C41.18 31.6101 41.18 31.3245 41.18 30.7534V21.2467C41.18 20.6756 41.18 20.39 41.1216 20.1284C41.0135 19.6451 40.7602 19.2063 40.3956 18.871C40.1983 18.6896 39.951 18.5468 39.4564 18.2612L31.2234 13.5079C30.7287 13.2223 30.4814 13.0795 30.2257 12.9994C29.753 12.8513 29.2464 12.8513 28.7737 12.9994Z" fill="#000091"/>
<path fill-rule="evenodd" clip-rule="evenodd" d="M32.1683 11.8726L40.4013 16.626C40.4342 16.6449 40.4674 16.664 40.5008 16.6833C40.8928 16.9087 41.3178 17.153 41.6745 17.4811C42.3227 18.0771 42.773 18.8572 42.9651 19.7165C43.0708 20.1895 43.07 20.6797 43.0692 21.1318C43.0691 21.1704 43.0691 21.2087 43.0691 21.2467V30.7534C43.0691 30.7913 43.0691 30.8296 43.0692 30.8682C43.07 31.3203 43.0708 31.8106 42.9651 32.2835C42.773 33.1429 42.3227 33.923 41.6745 34.519C41.3178 34.847 40.8928 35.0914 40.5008 35.3168C40.4674 35.336 40.4342 35.3551 40.4013 35.3741L32.1683 40.1274C32.1354 40.1464 32.1022 40.1656 32.0688 40.185C31.6777 40.4117 31.2536 40.6576 30.7911 40.8025C29.9509 41.0658 29.0501 41.0658 28.2098 40.8025C27.7474 40.6576 27.3233 40.4117 26.9321 40.185C26.8987 40.1656 26.8656 40.1464 26.8327 40.1274L18.5997 35.3741C18.5668 35.3551 18.5336 35.336 18.5002 35.3168C18.1082 35.0914 17.6832 34.847 17.3265 34.519C16.6783 33.923 16.2279 33.1429 16.0359 32.2835C15.9301 31.8106 15.931 31.3203 15.9318 30.8682C15.9318 30.8296 15.9319 30.7913 15.9319 30.7534V21.2467C15.9319 21.2087 15.9318 21.1704 15.9318 21.1318C15.931 20.6797 15.9301 20.1895 16.0359 19.7165C16.2279 18.8572 16.6783 18.0771 17.3265 17.4811C17.6832 17.153 18.1082 16.9087 18.5002 16.6833C18.5336 16.664 18.5668 16.645 18.5997 16.626L26.8327 11.8726C26.8656 11.8536 26.8987 11.8344 26.9321 11.8151C27.3233 11.5883 27.7474 11.3425 28.2098 11.1976C29.0501 10.9342 29.9509 10.9342 30.7911 11.1976C31.2536 11.3425 31.6777 11.5883 32.0689 11.8151C32.1022 11.8344 32.1354 11.8536 32.1683 11.8726ZM28.7745 12.9994C28.5187 13.0795 28.2714 13.2223 27.7768 13.5079L19.5438 18.2612C19.0492 18.5468 18.8019 18.6896 18.6046 18.871C18.24 19.2063 17.9867 19.645 17.8786 20.1284C17.8201 20.39 17.8201 20.6756 17.8201 21.2467V30.7534C17.8201 31.3245 17.8201 31.6101 17.8786 31.8716C17.9867 32.355 18.24 32.7938 18.6046 33.1291C18.8019 33.3105 19.0492 33.4533 19.5438 33.7389L27.7768 38.4922C28.2714 38.7777 28.5188 38.9205 28.7745 39.0007C29.2472 39.1488 29.7538 39.1488 30.2265 39.0007C30.4822 38.9205 30.7295 38.7777 31.2241 38.4922L39.4572 33.7389C39.9518 33.4533 40.1991 33.3105 40.3964 33.1291C40.761 32.7938 41.0143 32.355 41.1224 31.8716C41.1808 31.6101 41.1808 31.3245 41.1808 30.7534V21.2467C41.1808 20.6756 41.1808 20.39 41.1224 20.1284C41.0143 19.645 40.761 19.2063 40.3964 18.871C40.1991 18.6896 39.9518 18.5468 39.4572 18.2612L31.2242 13.5079C30.7295 13.2223 30.4822 13.0795 30.2265 12.9994C29.7538 12.8513 29.2472 12.8513 28.7745 12.9994Z" fill="#000091"/>
<path d="M21.4765 26.0973L25.3737 19.3841L25.6008 18.9951L22.306 16.6664L19.5437 18.2612C19.0491 18.5468 18.8018 18.6896 18.6045 18.871C18.4328 19.0289 18.2858 19.2097 18.167 19.4073L21.4765 26.0973Z" fill="#FCC63A"/>
<path d="M29.9227 12.9253L41.0711 32.0633C41.0907 32.0003 41.1078 31.9364 41.1223 31.8716C41.1807 31.6101 41.1807 31.3245 41.1807 30.7534V21.2467C41.1807 20.6756 41.1807 20.39 41.1223 20.1284C41.0142 19.645 40.7609 19.2063 40.3963 18.871C40.199 18.6896 39.9517 18.5468 39.4571 18.2612L31.2241 13.5079C30.7294 13.2223 30.4821 13.0795 30.2264 12.9994C30.1264 12.9681 30.025 12.9434 29.9227 12.9253Z" fill="#FCC63A"/>
<path d="M36.5845 16.6031L39.4565 18.2612C39.9511 18.5468 40.1984 18.6896 40.3957 18.871C40.5527 19.0154 40.6891 19.1789 40.8021 19.357L37.5381 26.0366L33.3634 18.8504L36.5845 16.6031Z" fill="#0063CB"/>
<path d="M29.5266 12.8885V39.1116C29.2729 39.1144 29.0188 39.0775 28.7738 39.0007C28.5181 38.9206 28.2708 38.7778 27.7762 38.4922L19.5431 33.7389C19.0485 33.4533 18.8012 33.3105 18.6039 33.1291C18.3027 32.8521 18.0774 32.5045 17.9473 32.1194L29.1346 12.9159C29.2645 12.8962 29.3956 12.887 29.5266 12.8885Z" fill="#0063CB"/>
<path fill-rule="evenodd" clip-rule="evenodd" d="M33.3398 37.2702C32.5767 37.0452 31.8247 36.7866 31.0861 36.4954C30.9559 36.2237 30.8851 35.9293 30.8782 35.6304C30.8712 35.3315 30.9283 35.0343 31.0458 34.7574C31.1104 34.5189 31.2056 34.289 31.33 34.0738C31.3502 34.0545 31.3704 34.0351 31.3704 34.015C31.3757 34.015 31.3809 34.0129 31.3847 34.0093C31.3884 34.0057 31.3906 34.0007 31.3906 33.9956C31.4803 33.845 31.5821 33.7014 31.695 33.566L31.7071 33.5543L31.7233 33.5381L31.7354 33.5265C31.7354 33.5078 31.7541 33.4892 31.7735 33.4699L31.7757 33.4676C31.7859 33.4477 31.8013 33.4329 31.8166 33.4181C31.8316 33.4037 31.8465 33.3893 31.8565 33.3701C31.9986 33.2261 32.1553 33.096 32.324 32.983C32.496 32.9234 32.6721 32.8777 32.8521 32.846C33.507 32.8924 34.1579 32.9776 34.8022 33.0999C34.8814 33.1113 34.9574 33.1376 35.0259 33.1773C35.269 33.223 35.5201 33.2091 35.7567 33.1386C35.9109 33.1116 36.0552 33.0472 36.1761 32.9515C36.2969 32.8558 36.3902 32.7321 36.4471 32.5921C36.5183 32.4672 36.5589 32.3284 36.5659 32.1862C36.5729 32.0441 36.5461 31.9022 36.4875 31.7715C36.3437 31.5586 36.477 31.4339 36.6336 31.3147L36.6885 31.2729C36.758 31.2257 36.821 31.1692 36.8751 31.1057C36.9412 30.9789 36.8872 30.8861 36.8301 30.7878C36.7993 30.7348 36.7675 30.6803 36.7531 30.618C36.7347 30.5826 36.695 30.5715 36.6495 30.5587C36.5955 30.5436 36.5334 30.5262 36.4891 30.4631C36.7733 30.3462 37.1795 30.1303 36.997 29.7997C36.8751 29.624 36.6926 29.312 36.9162 29.1362C37.0244 29.0773 37.1502 29.0463 37.2713 29.0165C37.4685 28.9679 37.6531 28.9224 37.7286 28.7646C37.7684 28.6172 37.7676 28.4623 37.7263 28.3152C37.6849 28.1681 37.6045 28.0338 37.4928 27.9255L37.4322 27.8418C37.372 27.7615 37.3152 27.6789 37.2619 27.5941C37.1335 27.3899 36.9911 27.1941 36.8355 27.0081C36.6578 26.7668 36.5144 26.5038 36.4091 26.2262C36.3321 26.0419 36.3685 25.8727 36.4057 25.6993C36.4275 25.5982 36.4495 25.4956 36.4495 25.3878C36.4615 24.8241 36.3722 24.2626 36.1855 23.728C36.1427 23.6131 36.1108 23.4948 36.0791 23.3773C36.0354 23.2153 35.9921 23.055 35.9214 22.9074C35.9061 22.7442 35.8428 22.5885 35.7389 22.4584C35.7189 22.4189 35.7085 22.3756 35.7085 22.3318C35.7085 22.2879 35.7189 22.2447 35.7389 22.2052C35.9045 22.093 36.0611 21.9691 36.2065 21.8336C36.2513 21.739 36.2596 21.6323 36.23 21.5324C36.2005 21.4324 36.1349 21.3458 36.045 21.2878C35.8862 21.2176 35.8308 21.3235 35.7718 21.4362C35.7327 21.511 35.692 21.5888 35.6186 21.62H35.4967C35.4638 21.5406 35.5112 21.4996 35.5739 21.4454C35.5883 21.433 35.6034 21.4199 35.6186 21.4055C35.6186 21.3668 35.6186 21.2886 35.5782 21.2886C35.4167 21.2886 35.2738 21.2491 35.2326 21.1717C34.8434 20.7067 34.3212 20.3607 33.7299 20.1761C33.8817 20.221 34.0383 20.2466 34.1974 20.2536C34.4703 20.3085 34.7546 20.2814 35.0098 20.1761C35.1428 20.1335 35.2005 19.9571 35.253 19.7967C35.2729 19.736 35.292 19.6776 35.3142 19.6296C35.3306 19.5445 35.3282 19.4571 35.3072 19.373C35.2862 19.2888 35.247 19.2098 35.1922 19.1411C35.0088 18.8855 34.7558 18.6831 34.4607 18.5558C34.274 18.4721 34.0911 18.381 33.9124 18.2826C33.8502 18.2407 33.7819 18.2078 33.7097 18.185C31.3155 17.0354 26.3865 18.0302 26.011 18.185H26.0038C25.6578 18.2813 25.3205 18.4042 24.9952 18.5527C24.5474 18.7121 24.143 18.9666 23.8123 19.2971C23.4815 19.6276 23.2331 20.0255 23.0855 20.461C22.6244 20.7514 22.2528 21.1548 22.0091 21.6292C21.9291 21.7727 21.8403 21.9123 21.7523 22.051C21.4601 22.511 21.1751 22.9597 21.2371 23.4981C21.2908 23.899 21.3718 24.2741 21.4559 24.6633C21.4984 24.8602 21.5418 25.0607 21.5827 25.2701C21.6175 25.4807 21.6716 25.6881 21.7442 25.8894C21.78 25.9839 21.7841 26.0901 21.7881 26.1943C21.7932 26.3256 21.7982 26.4538 21.8662 26.5513C21.886 26.5894 21.895 26.6297 21.9039 26.6694C21.9221 26.7509 21.9398 26.8301 22.0495 26.8827V27.0375C22.0602 27.0478 22.0681 27.0581 22.0755 27.0677C22.0956 27.0941 22.1116 27.1149 22.1714 27.1149V27.2697C22.5227 27.5972 22.8231 27.9711 23.0653 28.3799C23.1461 28.5935 22.6793 28.496 22.5001 28.4186C22.1645 28.2092 21.8575 27.9606 21.586 27.6785C21.5638 27.6993 21.5493 27.7265 21.5448 27.7559C21.5977 27.8451 21.6943 27.9407 21.7898 28.0349C21.9858 28.2286 22.1764 28.417 21.9711 28.5347C21.9008 28.5685 21.8261 28.5506 21.7508 28.5325C21.6533 28.5092 21.5548 28.4856 21.4632 28.5734C21.4367 28.6121 21.4451 28.6592 21.4539 28.7089C21.4585 28.7348 21.4632 28.7614 21.4632 28.7879C21.3292 28.6951 21.1882 28.6857 21.0485 28.6764C20.9552 28.6702 20.8624 28.664 20.7728 28.633C20.6981 28.6151 20.649 28.5431 20.5997 28.4708C20.5424 28.3868 20.4849 28.3025 20.3868 28.3025C19.9052 28.1898 19.4168 28.1053 18.9245 28.0493C18.558 27.9964 18.1892 27.9595 17.8193 27.9387V28.3285C18.1411 28.2694 18.4688 28.2427 18.7969 28.2491C18.9247 28.2295 19.055 28.2295 19.1829 28.2491C18.7205 28.2486 18.2611 28.3131 17.8193 28.4401V29.1465C18.1634 29.2118 18.5035 29.2954 18.8381 29.3971C19.1714 29.5145 19.4912 29.6645 19.7925 29.8446C19.9112 29.953 20.0404 30.0513 20.1785 30.1364C20.276 30.1897 20.3848 30.221 20.4968 30.2277C20.6088 30.2344 20.7209 30.2164 20.8245 30.1752H21.091C21.6695 30.0835 22.2106 29.8411 22.6551 29.4745C22.6551 29.5132 22.6955 29.5132 22.7358 29.5132C22.6726 29.8218 22.5558 30.1181 22.3902 30.3896C22.3908 30.3989 22.3889 30.4106 22.3867 30.4235C22.3799 30.4641 22.3711 30.5166 22.433 30.546H22.4968C22.4629 30.546 22.433 30.5514 22.433 30.5847C22.433 30.6234 22.4635 30.6234 22.4989 30.6234C22.5344 30.6234 22.5748 30.6234 22.5945 30.6621C22.4027 30.6671 22.2204 30.7438 22.0866 30.8758C22.0866 30.9145 22.1674 30.9145 22.2086 30.9145C22.179 30.9523 22.1347 30.9624 22.0924 30.9721C22.0481 30.9822 22.0059 30.9918 21.9849 31.0321C22.0067 31.0531 22.035 31.0667 22.0656 31.0709C22.0253 31.0709 21.9849 31.0709 21.9849 31.1096V31.2272C21.9199 31.2272 21.88 31.2588 21.8383 31.2917C21.8148 31.3103 21.7907 31.3294 21.7612 31.3434C21.8664 31.42 21.9466 31.3968 22.0346 31.3713C22.0817 31.3576 22.131 31.3434 22.1876 31.3434C22.0089 31.4082 21.8444 31.4839 21.6821 31.5585C21.4573 31.6618 21.2369 31.7632 20.9892 31.8311C20.9489 31.8311 20.9489 31.8601 20.9489 31.8891C20.9489 31.9182 20.9489 31.9472 20.9085 31.9472C20.9824 31.9941 21.0341 31.9699 21.0903 31.9436C21.1268 31.9265 21.1652 31.9085 21.2129 31.9085C20.9936 32.03 20.7708 32.1441 20.5446 32.2599C20.226 32.423 19.9005 32.5896 19.568 32.7856C19.5242 32.8274 19.4959 32.8818 19.4873 32.9404H19.3258C19.284 32.9605 19.2746 32.9963 19.264 33.0371C19.2542 33.075 19.2432 33.1172 19.2039 33.1549C19.293 33.2116 19.3914 33.176 19.4832 33.1427C19.5794 33.1079 19.6684 33.0757 19.732 33.1549C19.7723 33.1549 19.6512 33.1936 19.5705 33.1936C19.5503 33.1936 19.5402 33.2129 19.5301 33.2323C19.52 33.2517 19.5099 33.271 19.4897 33.271H19.3654C19.3554 33.2782 19.3455 33.285 19.3357 33.2918C19.266 33.3399 19.2039 33.3828 19.2039 33.4847C19.1748 33.4796 19.145 33.4816 19.1171 33.4903C19.1534 33.5121 19.1916 33.5347 19.232 33.5584C20.0276 33.5334 20.8141 33.3836 21.5601 33.1146C22.1898 32.8071 22.76 32.3986 23.2462 31.9069C23.2681 31.9279 23.2822 31.955 23.2866 31.9844C23.1679 32.3227 22.9393 32.6161 22.6357 32.8204C22.5271 32.8776 22.433 32.9482 22.3443 33.0147C22.2504 33.0852 22.1627 33.151 22.0705 33.1913C21.9507 33.2555 21.8353 33.3268 21.7249 33.4049C21.2145 33.5574 20.6905 33.6643 20.1591 33.7239L19.9128 33.758C19.8232 33.7706 19.7337 33.7837 19.6445 33.7975L20.8084 34.4694C20.9935 34.4672 21.1781 34.4501 21.3607 34.4175C21.5981 34.3533 21.829 34.2689 22.0511 34.1644V34.2418C22.3183 34.1404 22.5551 33.9782 22.7908 33.8168C23.0537 33.6367 23.315 33.4577 23.6152 33.3655C23.6206 33.3655 23.6305 33.3711 23.6436 33.3785C23.6792 33.3987 23.7387 33.4325 23.7977 33.4042C23.944 33.2304 24.1299 33.0912 24.3412 32.9972C24.5524 32.9033 24.7834 32.8571 25.0162 32.8622C25.0162 32.901 25.0162 32.9397 25.0566 32.9397H25.0768C24.9797 33.0173 24.8699 33.0939 24.7587 33.1715C24.7302 33.1915 24.7016 33.2114 24.673 33.2315C24.627 33.2718 24.6674 33.3097 24.7077 33.3097C24.8147 33.2689 24.8987 33.2116 24.9814 33.1553C25.0554 33.1049 25.1283 33.0552 25.2157 33.0186C25.1955 33.038 25.1854 33.067 25.1753 33.096C25.1652 33.1251 25.1551 33.1541 25.1349 33.1735C24.9834 33.2642 24.8407 33.3679 24.7086 33.4831C24.2518 33.8691 23.8241 34.2856 23.4287 34.7295C23.2378 34.9473 23.0299 35.1502 22.8236 35.3515C22.81 35.3648 22.7963 35.3781 22.7827 35.3914C22.7327 35.4364 22.68 35.4787 22.6251 35.5183L27.776 38.4922C28.2706 38.7777 28.5179 38.9205 28.7737 39.0007C29.2464 39.1488 29.753 39.1488 30.2257 39.0007C30.4814 38.9205 30.7287 38.7777 31.2234 38.4922L33.3398 37.2702ZM35.703 26.1685C35.7429 26.1483 35.7767 26.1186 35.8011 26.0822C35.8011 26.048 35.7651 26.0204 35.7312 25.9946C35.6923 25.9648 35.6562 25.9372 35.6808 25.9041C35.9077 25.7501 36.1128 25.5395 36.032 25.3282C36.0064 25.2568 35.8763 25.2299 35.7368 25.201C35.6524 25.1835 35.5646 25.1654 35.4943 25.1362C35.3478 25.0942 35.1917 25.0942 35.0453 25.1362L34.9379 25.1571L34.8313 25.1772C34.6335 25.2105 34.4389 25.2624 34.2515 25.332C33.9842 25.4141 33.7323 25.5372 33.5062 25.6967C33.7799 25.5945 34.0642 25.5232 34.3549 25.4845C34.5713 25.433 34.7957 25.4198 35.017 25.4458C35.0669 25.4575 35.1225 25.4657 35.1757 25.4735C35.2992 25.4916 35.4103 25.5079 35.4103 25.562C35.3635 25.724 35.1987 25.8192 35.0195 25.9227C34.8802 26.0031 34.7322 26.0887 34.6238 26.2146H34.4994C34.4381 26.2524 34.417 26.3135 34.399 26.3658C34.3805 26.4195 34.3653 26.4638 34.3129 26.4638C34.1943 26.4385 34.0703 26.4521 33.9608 26.5026C34.0315 26.5813 34.1215 26.6418 34.2228 26.6787C34.324 26.7156 34.4333 26.7277 34.5406 26.7139C34.5752 26.7246 34.6056 26.7452 34.6278 26.7728C34.65 26.8005 34.663 26.8339 34.665 26.8687C34.6959 26.8656 34.7245 26.8518 34.7457 26.83C34.7853 26.83 34.8265 26.83 34.8265 26.8687V27.0236C34.7934 27.0608 34.7513 27.0897 34.7038 27.1075C34.6563 27.1253 34.605 27.1316 34.5543 27.1257H34.4857C34.4404 27.1249 34.3951 27.129 34.3508 27.1381C34.6488 27.2148 34.9621 27.2148 35.2609 27.1381C35.3825 27.0972 35.3742 26.9741 35.3653 26.842C35.3575 26.7268 35.3493 26.6047 35.4264 26.5242C35.386 26.5242 35.386 26.4954 35.386 26.4666C35.386 26.4377 35.386 26.4089 35.3457 26.4089C35.4164 26.3335 35.4925 26.2629 35.5734 26.1975C35.6185 26.1987 35.6631 26.1887 35.703 26.1685Z" fill="white"/>
<path d="M17.8999 31.9623C18.6108 31.8142 19.3037 31.5943 19.9669 31.3062C19.3124 30.8701 18.5862 30.5437 17.8193 30.3404V30.7534C17.8193 31.3245 17.8193 31.6101 17.8778 31.8716C17.8846 31.902 17.892 31.9323 17.8999 31.9623Z" fill="white"/>
<rect x="21.5" y="35.6" width="15.5746" height="6.39772" rx="1.5" fill="#000091"/>
<path d="M23.5 40.8789V36.7189H24.8728C25.788 36.7189 26.3466 37.1883 26.3466 37.9609C26.3466 38.7275 25.788 39.197 24.8728 39.197H24.3439V40.8789H23.5ZM24.9085 37.4201H24.3439V38.4958H24.9085C25.265 38.4958 25.479 38.2878 25.479 37.949C25.479 37.6341 25.265 37.4201 24.9085 37.4201Z" fill="white"/>
<path d="M27.104 40.8789V36.7189H28.3758C29.291 36.7189 29.8556 37.1883 29.8556 37.9609C29.8556 38.4661 29.6119 38.8405 29.184 39.0366L30.4855 40.8789H29.493L28.3817 39.197H27.9479V40.8789H27.104ZM28.4233 37.4201H27.9479V38.4958H28.4233C28.7799 38.4958 28.9879 38.2878 28.9879 37.949C28.9879 37.6341 28.7799 37.4201 28.4233 37.4201Z" fill="white"/>
<path d="M32.8698 36.6C34.1772 36.6 35.0746 37.6103 35.0746 38.7989C35.0746 39.9874 34.1772 40.9977 32.8698 40.9977C31.5564 40.9977 30.6591 39.9874 30.6591 38.7989C30.6591 37.6103 31.5564 36.6 32.8698 36.6ZM32.8698 40.2073C33.6483 40.2073 34.2069 39.5952 34.2069 38.7989C34.2069 38.0025 33.6483 37.3904 32.8698 37.3904C32.0853 37.3904 31.5267 38.0025 31.5267 38.7989C31.5267 39.5952 32.0853 40.2073 32.8698 40.2073Z" fill="white"/>
<path d="M50.312 24.656L51.292 23.76C51.964 24.628 52.748 25.09 53.658 25.09C54.75 25.09 55.38 24.432 55.38 23.536C55.38 21.324 50.732 21.8 50.732 18.566C50.732 17.11 51.936 15.92 53.644 15.92C55.016 15.92 56.024 16.55 56.752 17.516L55.758 18.384C55.184 17.558 54.498 17.096 53.658 17.096C52.692 17.096 52.076 17.698 52.076 18.538C52.076 20.736 56.71 20.232 56.71 23.494C56.71 25.188 55.408 26.266 53.672 26.266C52.23 26.266 51.166 25.72 50.312 24.656ZM58.94 19.952H57.834L59.024 16.2H60.382L58.94 19.952ZM62.6282 17.11C62.1662 17.11 61.7882 16.732 61.7882 16.27C61.7882 15.822 62.1662 15.444 62.6282 15.444C63.0902 15.444 63.4542 15.822 63.4542 16.27C63.4542 16.732 63.0902 17.11 62.6282 17.11ZM62.0262 26V18.944H63.2162V26H62.0262ZM64.8492 22.472C64.8492 20.414 66.2632 18.664 68.4753 18.664C69.5253 18.664 70.3513 19.07 70.9813 19.784V15.5H72.1713V26H70.9813V25.16C70.3513 25.874 69.5253 26.28 68.4753 26.28C66.2632 26.28 64.8492 24.53 64.8492 22.472ZM66.1092 22.472C66.1092 23.97 67.1172 25.16 68.6153 25.16C69.5952 25.16 70.4633 24.684 70.9813 23.858V21.086C70.4352 20.246 69.5813 19.784 68.6153 19.784C67.1172 19.784 66.1092 20.974 66.1092 22.472ZM80.6718 24.838C80.0138 25.72 78.9638 26.28 77.6478 26.28C75.2678 26.28 73.7978 24.53 73.7978 22.472C73.7978 20.33 75.1698 18.664 77.3538 18.664C79.2718 18.664 80.5178 20.008 80.5178 21.744C80.5178 22.024 80.4758 22.29 80.4338 22.486H75.0158C75.0578 24.18 76.1358 25.202 77.6478 25.202C78.5578 25.202 79.3278 24.782 79.7898 24.152L80.6718 24.838ZM77.3258 19.672C76.1638 19.672 75.3518 20.358 75.0998 21.576H79.3278C79.2858 20.54 78.5718 19.672 77.3258 19.672ZM82.2545 26V18.944H83.4445V19.742C84.0185 19.112 84.7465 18.664 85.7965 18.664C87.3785 18.664 88.5545 19.728 88.5545 21.73V26H87.3645V21.772C87.3645 20.512 86.6505 19.784 85.5585 19.784C84.5365 19.784 83.8925 20.372 83.4445 21.114V26H82.2545ZM91.0758 23.634V20.022H89.7458V18.944H91.0758V17.18H92.2798V18.944H94.7298V20.022H92.2798V23.634C92.2798 24.74 92.8398 25.048 93.6938 25.048C94.1558 25.048 94.4778 24.992 94.7438 24.88V25.944C94.4078 26.084 94.0298 26.14 93.5258 26.14C91.9578 26.14 91.0758 25.356 91.0758 23.634ZM96.8708 17.11C96.4088 17.11 96.0308 16.732 96.0308 16.27C96.0308 15.822 96.4088 15.444 96.8708 15.444C97.3328 15.444 97.6968 15.822 97.6968 16.27C97.6968 16.732 97.3328 17.11 96.8708 17.11ZM96.2688 26V18.944H97.4588V26H96.2688ZM98.7698 18.944H100.1V18.076C100.1 16.578 101.066 15.5 102.606 15.5C103.25 15.5 103.768 15.682 104.16 15.906L103.628 16.9C103.362 16.704 103.04 16.578 102.634 16.578C101.836 16.578 101.304 17.124 101.304 18.048V18.944H103.754V20.022H101.304V26H100.1V20.022H98.7698V18.944ZM105.526 17.11C105.064 17.11 104.686 16.732 104.686 16.27C104.686 15.822 105.064 15.444 105.526 15.444C105.988 15.444 106.352 15.822 106.352 16.27C106.352 16.732 105.988 17.11 105.526 17.11ZM104.924 26V18.944H106.114V26H104.924ZM114.621 24.838C113.963 25.72 112.913 26.28 111.597 26.28C109.217 26.28 107.747 24.53 107.747 22.472C107.747 20.33 109.119 18.664 111.303 18.664C113.221 18.664 114.467 20.008 114.467 21.744C114.467 22.024 114.425 22.29 114.383 22.486H108.965C109.007 24.18 110.085 25.202 111.597 25.202C112.507 25.202 113.277 24.782 113.739 24.152L114.621 24.838ZM111.275 19.672C110.113 19.672 109.301 20.358 109.049 21.576H113.277C113.235 20.54 112.521 19.672 111.275 19.672ZM116.203 26V18.944H117.393V19.826C117.911 19.21 118.555 18.804 119.451 18.804C119.675 18.804 119.885 18.832 120.053 18.888V20.05C119.843 19.994 119.633 19.966 119.353 19.966C118.429 19.966 117.827 20.442 117.393 21.156V26H116.203ZM126.899 26.196C125.513 26.196 124.575 25.426 124.575 24.222C124.575 23.158 125.387 22.402 126.885 22.15L129.265 21.758V21.268C129.265 20.288 128.565 19.728 127.557 19.728C126.745 19.728 126.087 20.106 125.653 20.708L124.757 20.022C125.373 19.182 126.367 18.664 127.599 18.664C129.391 18.664 130.455 19.714 130.455 21.268V26H129.265V25.104C128.733 25.79 127.809 26.196 126.899 26.196ZM125.779 24.18C125.779 24.782 126.269 25.216 127.095 25.216C128.033 25.216 128.803 24.768 129.265 24.012V22.626L127.179 22.976C126.213 23.144 125.779 23.578 125.779 24.18ZM131.43 18.944H132.718L134.972 24.754L137.226 18.944H138.514L135.756 26H134.188L131.43 18.944ZM145.855 24.838C145.197 25.72 144.147 26.28 142.831 26.28C140.451 26.28 138.981 24.53 138.981 22.472C138.981 20.33 140.353 18.664 142.537 18.664C144.455 18.664 145.701 20.008 145.701 21.744C145.701 22.024 145.659 22.29 145.617 22.486H140.199C140.241 24.18 141.319 25.202 142.831 25.202C143.741 25.202 144.511 24.782 144.973 24.152L145.855 24.838ZM142.509 19.672C141.347 19.672 140.535 20.358 140.283 21.576H144.511C144.469 20.54 143.755 19.672 142.509 19.672ZM150.659 25.16C151.527 25.16 152.241 24.74 152.675 24.124L153.613 24.838C152.955 25.72 151.933 26.28 150.645 26.28C148.307 26.28 146.809 24.53 146.809 22.472C146.809 20.414 148.307 18.664 150.645 18.664C151.919 18.664 152.955 19.238 153.613 20.106L152.675 20.82C152.241 20.204 151.527 19.784 150.645 19.784C149.133 19.784 148.055 20.974 148.055 22.472C148.055 23.984 149.133 25.16 150.659 25.16ZM51.354 43V30.4H55.512C58.284 30.4 59.976 31.822 59.976 34.162C59.976 36.484 58.284 37.906 55.512 37.906H53.91V43H51.354ZM55.62 32.524H53.91V35.782H55.62C56.7 35.782 57.348 35.152 57.348 34.126C57.348 33.172 56.7 32.524 55.62 32.524ZM61.3889 43V33.928H63.6749V34.828C64.2689 34.216 65.0429 33.748 66.0689 33.748C66.3749 33.748 66.6449 33.802 66.8609 33.874V36.124C66.5729 36.052 66.2669 35.998 65.8529 35.998C64.7369 35.998 64.0169 36.61 63.6749 37.186V43H61.3889ZM72.2746 33.568C75.2266 33.568 77.2426 35.746 77.2426 38.464C77.2426 41.182 75.2266 43.36 72.2746 43.36C69.3226 43.36 67.3066 41.182 67.3066 38.464C67.3066 35.746 69.3226 33.568 72.2746 33.568ZM72.3106 41.2C73.7686 41.2 74.8666 40.03 74.8666 38.464C74.8666 36.88 73.7686 35.728 72.3106 35.728C70.7986 35.728 69.6826 36.88 69.6826 38.464C69.6826 40.048 70.7986 41.2 72.3106 41.2ZM85.1224 40.966C86.5624 40.966 87.6964 40.264 88.4164 39.238L90.4324 40.786C89.2804 42.352 87.4084 43.36 85.1224 43.36C81.1444 43.36 78.4264 40.3 78.4264 36.7C78.4264 33.1 81.1444 30.04 85.1224 30.04C87.4084 30.04 89.2804 31.066 90.4324 32.596L88.4164 34.162C87.6964 33.136 86.5624 32.434 85.1224 32.434C82.7464 32.434 81.0544 34.288 81.0544 36.7C81.0544 39.112 82.7464 40.966 85.1224 40.966ZM96.1289 33.568C99.0809 33.568 101.097 35.746 101.097 38.464C101.097 41.182 99.0809 43.36 96.1289 43.36C93.1769 43.36 91.1609 41.182 91.1609 38.464C91.1609 35.746 93.1769 33.568 96.1289 33.568ZM96.1649 41.2C97.6229 41.2 98.7209 40.03 98.7209 38.464C98.7209 36.88 97.6229 35.728 96.1649 35.728C94.6529 35.728 93.5369 36.88 93.5369 38.464C93.5369 40.048 94.6529 41.2 96.1649 41.2ZM102.822 43V33.928H105.108V34.648C105.738 34.036 106.584 33.568 107.79 33.568C109.752 33.568 111.318 34.918 111.318 37.6V43H109.014V37.69C109.014 36.484 108.33 35.728 107.214 35.728C106.062 35.728 105.45 36.502 105.108 37.078V43H102.822ZM113.554 43V33.928H115.84V34.648C116.47 34.036 117.316 33.568 118.522 33.568C120.484 33.568 122.05 34.918 122.05 37.6V43H119.746V37.69C119.746 36.484 119.062 35.728 117.946 35.728C116.794 35.728 116.182 36.502 115.84 37.078V43H113.554ZM132.638 41.524C131.792 42.658 130.388 43.36 128.678 43.36C125.456 43.36 123.638 41.11 123.638 38.464C123.638 35.782 125.33 33.568 128.3 33.568C130.82 33.568 132.476 35.278 132.476 37.654C132.476 38.158 132.404 38.626 132.332 38.932H125.978C126.194 40.624 127.238 41.308 128.66 41.308C129.65 41.308 130.514 40.876 131 40.228L132.638 41.524ZM128.246 35.44C127.076 35.44 126.302 36.088 126.05 37.276H130.226C130.19 36.358 129.524 35.44 128.246 35.44ZM138.635 41.2C139.535 41.2 140.255 40.786 140.687 40.156L142.469 41.524C141.623 42.64 140.291 43.36 138.635 43.36C135.503 43.36 133.631 41.11 133.631 38.464C133.631 35.818 135.503 33.568 138.635 33.568C140.291 33.568 141.623 34.288 142.469 35.404L140.687 36.772C140.255 36.142 139.535 35.728 138.599 35.728C137.105 35.728 136.007 36.88 136.007 38.464C136.007 40.066 137.105 41.2 138.635 41.2ZM144.479 39.688V35.98H142.787V33.928H144.479V31.66H146.783V33.928H149.555V35.98H146.783V39.688C146.783 40.696 147.323 41.092 148.223 41.092C148.853 41.092 149.267 41.02 149.573 40.894V42.892C149.123 43.09 148.583 43.18 147.827 43.18C145.559 43.18 144.479 41.902 144.479 39.688Z" fill="#6A6AF4"/>
</svg>
