<svg width="513" height="285" viewBox="0 0 513 285" fill="none" xmlns="http://www.w3.org/2000/svg">
<path d="M21.56 28.96V6.52L15.76 9.8L13.08 5.96L21.72 0.959999H26.96V28.96H21.56Z" fill="#6A6AF4"/>
<path d="M270.32 122V117.12L279.92 107.68C282.08 105.48 283.44 103.96 283.44 101.68C283.44 99.36 281.84 98 279.64 98C276.96 98 275.32 99.64 273.84 102.12L269.44 99.44C271.8 95.6 275.28 93.2 280.16 93.2C285.04 93.2 288.96 96.32 288.96 101.12C288.96 104.96 286.44 107.92 283.68 110.6L276.92 117.12H289.68V122H270.32Z" fill="#6A6AF4"/>
<path d="M138.04 235C138.04 240.32 133.68 243.8 127.84 243.8C122.56 243.8 119.16 241.48 116.88 237.48L121.6 234.56C123.16 237.64 125.04 239 127.8 239C130.52 239 132.56 237.36 132.56 234.76C132.56 232.2 130.56 230.6 127.6 230.6H123V225.8H127.24C129.6 225.8 131.32 224.48 131.32 222.32C131.32 220.2 129.72 219 127.52 219C125.28 219 123.76 220.2 122.6 222.2L118.2 219.48C120.24 216.16 123.4 214.2 127.92 214.2C133.04 214.2 136.84 217.12 136.84 221.72C136.84 224.32 135.72 226.52 133.64 227.96C136.48 229.4 138.04 231.92 138.04 235Z" fill="#6A6AF4"/>
<path d="M43.608 17.956C43.608 20.746 42.312 22.132 39.684 22.132C39.27 22.132 38.928 22.132 38.676 22.06V19.81C38.856 19.846 39.072 19.864 39.324 19.864C40.458 19.864 41.052 19.378 41.052 18.082V6.4H43.608V17.956ZM55.0657 17.524C54.2197 18.658 52.8157 19.36 51.1057 19.36C47.8837 19.36 46.0657 17.11 46.0657 14.464C46.0657 11.782 47.7577 9.568 50.7277 9.568C53.2477 9.568 54.9037 11.278 54.9037 13.654C54.9037 14.158 54.8317 14.626 54.7597 14.932H48.4057C48.6217 16.624 49.6657 17.308 51.0877 17.308C52.0777 17.308 52.9417 16.876 53.4277 16.228L55.0657 17.524ZM50.6737 11.44C49.5037 11.44 48.7297 12.088 48.4777 13.276H52.6537C52.6177 12.358 51.9517 11.44 50.6737 11.44ZM61.3411 14.464C61.3411 11.818 63.0871 9.568 65.9491 9.568C67.1731 9.568 68.0551 9.946 68.7571 10.648V5.5H71.0611V19H68.7571V18.28C68.0551 18.982 67.1731 19.36 65.9491 19.36C63.0871 19.36 61.3411 17.11 61.3411 14.464ZM63.7351 14.464C63.7351 16.048 64.7251 17.2 66.2731 17.2C67.2991 17.2 68.1451 16.768 68.7571 15.94V12.988C68.1451 12.16 67.2991 11.728 66.2731 11.728C64.7251 11.728 63.7351 12.88 63.7351 14.464ZM74.9536 8.344C74.1436 8.344 73.4596 7.66 73.4596 6.85C73.4596 6.04 74.1436 5.356 74.9536 5.356C75.7636 5.356 76.4296 6.04 76.4296 6.85C76.4296 7.66 75.7636 8.344 74.9536 8.344ZM73.8016 19V9.928H76.0876V19H73.8016ZM77.9139 17.686L79.4259 16.318C79.9839 17.02 80.6499 17.524 81.5139 17.524C82.2519 17.524 82.6299 17.092 82.6299 16.552C82.6299 14.968 78.2919 15.562 78.2919 12.376C78.2919 10.774 79.6419 9.568 81.5319 9.568C82.9179 9.568 84.1779 10.234 84.8259 11.116L83.3139 12.448C82.8459 11.872 82.2519 11.404 81.5499 11.404C80.8299 11.404 80.4879 11.8 80.4879 12.268C80.4879 13.816 84.8259 13.276 84.8259 16.408C84.7899 18.316 83.2599 19.36 81.5499 19.36C79.9299 19.36 78.7779 18.712 77.9139 17.686ZM91.2533 17.2C92.1533 17.2 92.8733 16.786 93.3053 16.156L95.0873 17.524C94.2413 18.64 92.9093 19.36 91.2533 19.36C88.1213 19.36 86.2493 17.11 86.2493 14.464C86.2493 11.818 88.1213 9.568 91.2533 9.568C92.9093 9.568 94.2413 10.288 95.0873 11.404L93.3053 12.772C92.8733 12.142 92.1533 11.728 91.2173 11.728C89.7233 11.728 88.6253 12.88 88.6253 14.464C88.6253 16.066 89.7233 17.2 91.2533 17.2ZM102.77 15.076V9.928H105.074V14.968C105.074 17.686 103.49 19.36 100.826 19.36C98.1618 19.36 96.5958 17.686 96.5958 14.968V9.928H98.8998V15.076C98.8998 16.39 99.5838 17.2 100.844 17.2C102.086 17.2 102.77 16.39 102.77 15.076ZM108.321 15.688V11.98H106.629V9.928H108.321V7.66H110.625V9.928H113.397V11.98H110.625V15.688C110.625 16.696 111.165 17.092 112.065 17.092C112.695 17.092 113.109 17.02 113.415 16.894V18.892C112.965 19.09 112.425 19.18 111.669 19.18C109.401 19.18 108.321 17.902 108.321 15.688ZM123.62 17.524C122.774 18.658 121.37 19.36 119.66 19.36C116.438 19.36 114.62 17.11 114.62 14.464C114.62 11.782 116.312 9.568 119.282 9.568C121.802 9.568 123.458 11.278 123.458 13.654C123.458 14.158 123.386 14.626 123.314 14.932H116.96C117.176 16.624 118.22 17.308 119.642 17.308C120.632 17.308 121.496 16.876 121.982 16.228L123.62 17.524ZM119.228 11.44C118.058 11.44 117.284 12.088 117.032 13.276H121.208C121.172 12.358 120.506 11.44 119.228 11.44ZM133.1 19.27C131.282 19.27 130.04 18.226 130.04 16.552C130.04 15.184 131.102 14.158 133.046 13.834L135.818 13.366V13.132C135.818 12.178 135.098 11.566 134.054 11.566C133.172 11.566 132.488 11.98 132.002 12.646L130.328 11.368C131.138 10.252 132.47 9.568 134.126 9.568C136.754 9.568 138.104 11.134 138.104 13.132V19H135.818V18.118C135.242 18.82 134.162 19.27 133.1 19.27ZM132.308 16.444C132.308 17.056 132.794 17.452 133.568 17.452C134.612 17.452 135.368 16.966 135.818 16.246V14.968L133.658 15.328C132.704 15.49 132.308 15.886 132.308 16.444ZM139.338 9.928H141.786L144.144 16.408L146.484 9.928H148.95L145.638 19H142.632L139.338 9.928ZM158.636 17.524C157.79 18.658 156.386 19.36 154.676 19.36C151.454 19.36 149.636 17.11 149.636 14.464C149.636 11.782 151.328 9.568 154.298 9.568C156.818 9.568 158.474 11.278 158.474 13.654C158.474 14.158 158.402 14.626 158.33 14.932H151.976C152.192 16.624 153.236 17.308 154.658 17.308C155.648 17.308 156.512 16.876 156.998 16.228L158.636 17.524ZM154.244 11.44C153.074 11.44 152.3 12.088 152.048 13.276H156.224C156.188 12.358 155.522 11.44 154.244 11.44ZM164.994 17.2C165.894 17.2 166.614 16.786 167.046 16.156L168.828 17.524C167.982 18.64 166.65 19.36 164.994 19.36C161.862 19.36 159.99 17.11 159.99 14.464C159.99 11.818 161.862 9.568 164.994 9.568C166.65 9.568 167.982 10.288 168.828 11.404L167.046 12.772C166.614 12.142 165.894 11.728 164.958 11.728C163.464 11.728 162.366 12.88 162.366 14.464C162.366 16.066 163.464 17.2 164.994 17.2ZM174.738 14.464C174.738 11.818 176.484 9.568 179.346 9.568C180.57 9.568 181.452 9.946 182.154 10.648V5.5H184.458V19H182.154V18.28C181.452 18.982 180.57 19.36 179.346 19.36C176.484 19.36 174.738 17.11 174.738 14.464ZM177.132 14.464C177.132 16.048 178.122 17.2 179.67 17.2C180.696 17.2 181.542 16.768 182.154 15.94V12.988C181.542 12.16 180.696 11.728 179.67 11.728C178.122 11.728 177.132 12.88 177.132 14.464ZM195.55 17.524C194.704 18.658 193.3 19.36 191.59 19.36C188.368 19.36 186.55 17.11 186.55 14.464C186.55 11.782 188.242 9.568 191.212 9.568C193.732 9.568 195.388 11.278 195.388 13.654C195.388 14.158 195.316 14.626 195.244 14.932H188.89C189.106 16.624 190.15 17.308 191.572 17.308C192.562 17.308 193.426 16.876 193.912 16.228L195.55 17.524ZM191.158 11.44C189.988 11.44 189.214 12.088 188.962 13.276H193.138C193.102 12.358 192.436 11.44 191.158 11.44ZM203.492 15.076V9.928H205.796V14.968C205.796 17.686 204.212 19.36 201.548 19.36C198.884 19.36 197.318 17.686 197.318 14.968V9.928H199.622V15.076C199.622 16.39 200.306 17.2 201.566 17.2C202.808 17.2 203.492 16.39 203.492 15.076ZM209.701 19H207.073L210.277 14.338L207.253 9.928H209.863L211.735 12.718L213.607 9.928H216.235L213.193 14.338L216.397 19H213.787L211.735 15.958L209.701 19ZM223.473 19V6.4H226.029V19H223.473ZM228.147 19L232.917 6.4H236.265L241.035 19H238.317L237.111 15.724H232.071L230.865 19H228.147ZM232.863 13.546H236.319L234.591 8.812L232.863 13.546ZM250.082 19.27C248.264 19.27 247.022 18.226 247.022 16.552C247.022 15.184 248.084 14.158 250.028 13.834L252.8 13.366V13.132C252.8 12.178 252.08 11.566 251.036 11.566C250.154 11.566 249.47 11.98 248.984 12.646L247.31 11.368C248.12 10.252 249.452 9.568 251.108 9.568C253.736 9.568 255.086 11.134 255.086 13.132V19H252.8V18.118C252.224 18.82 251.144 19.27 250.082 19.27ZM249.29 16.444C249.29 17.056 249.776 17.452 250.55 17.452C251.594 17.452 252.35 16.966 252.8 16.246V14.968L250.64 15.328C249.686 15.49 249.29 15.886 249.29 16.444ZM257.704 19V9.928H259.99V10.648C260.62 10.036 261.466 9.568 262.672 9.568C264.634 9.568 266.2 10.918 266.2 13.6V19H263.896V13.69C263.896 12.484 263.212 11.728 262.096 11.728C260.944 11.728 260.332 12.502 259.99 13.078V19H257.704ZM273.116 9.568C276.068 9.568 278.084 11.746 278.084 14.464C278.084 17.182 276.068 19.36 273.116 19.36C270.164 19.36 268.148 17.182 268.148 14.464C268.148 11.746 270.164 9.568 273.116 9.568ZM273.152 17.2C274.61 17.2 275.708 16.03 275.708 14.464C275.708 12.88 274.61 11.728 273.152 11.728C271.64 11.728 270.524 12.88 270.524 14.464C270.524 16.048 271.64 17.2 273.152 17.2ZM280.169 19V9.928H282.455V10.648C283.085 10.036 283.931 9.568 285.137 9.568C287.099 9.568 288.665 10.918 288.665 13.6V19H286.361V13.69C286.361 12.484 285.677 11.728 284.561 11.728C283.409 11.728 282.797 12.502 282.455 13.078V19H280.169ZM295.241 21.07C294.611 22.564 293.585 23.5 291.857 23.5C291.155 23.5 290.669 23.392 290.237 23.212V21.196C290.525 21.322 290.957 21.412 291.353 21.412C292.253 21.412 292.811 21.106 293.189 20.188L293.693 18.982L289.877 9.928H292.415L294.899 16.03L297.401 9.928H299.813L295.241 21.07ZM301.245 19V9.928H303.531V10.612C304.143 10.018 304.917 9.568 306.033 9.568C307.185 9.568 308.193 10.072 308.787 11.044C309.435 10.252 310.299 9.568 311.829 9.568C313.701 9.568 315.177 10.864 315.177 13.42V19H312.873V13.51C312.873 12.412 312.279 11.728 311.253 11.728C310.263 11.728 309.723 12.412 309.363 13.024C309.381 13.15 309.381 13.276 309.381 13.42V19H307.077V13.51C307.077 12.412 306.483 11.728 305.457 11.728C304.413 11.728 303.873 12.502 303.531 13.078V19H301.245ZM326.138 17.524C325.292 18.658 323.888 19.36 322.178 19.36C318.956 19.36 317.138 17.11 317.138 14.464C317.138 11.782 318.83 9.568 321.8 9.568C324.32 9.568 325.976 11.278 325.976 13.654C325.976 14.158 325.904 14.626 325.832 14.932H319.478C319.694 16.624 320.738 17.308 322.16 17.308C323.15 17.308 324.014 16.876 324.5 16.228L326.138 17.524ZM321.746 11.44C320.576 11.44 319.802 12.088 319.55 13.276H323.726C323.69 12.358 323.024 11.44 321.746 11.44ZM327.295 17.686L328.807 16.318C329.365 17.02 330.031 17.524 330.895 17.524C331.633 17.524 332.011 17.092 332.011 16.552C332.011 14.968 327.673 15.562 327.673 12.376C327.673 10.774 329.023 9.568 330.913 9.568C332.299 9.568 333.559 10.234 334.207 11.116L332.695 12.448C332.227 11.872 331.633 11.404 330.931 11.404C330.211 11.404 329.869 11.8 329.869 12.268C329.869 13.816 334.207 13.276 334.207 16.408C334.171 18.316 332.641 19.36 330.931 19.36C329.311 19.36 328.159 18.712 327.295 17.686Z" fill="#161616"/>
<path d="M303.608 110.956C303.608 113.746 302.312 115.132 299.684 115.132C299.27 115.132 298.928 115.132 298.676 115.06V112.81C298.856 112.846 299.072 112.864 299.324 112.864C300.458 112.864 301.052 112.378 301.052 111.082V99.4H303.608V110.956ZM315.066 110.524C314.22 111.658 312.816 112.36 311.106 112.36C307.884 112.36 306.066 110.11 306.066 107.464C306.066 104.782 307.758 102.568 310.728 102.568C313.248 102.568 314.904 104.278 314.904 106.654C314.904 107.158 314.832 107.626 314.76 107.932H308.406C308.622 109.624 309.666 110.308 311.088 110.308C312.078 110.308 312.942 109.876 313.428 109.228L315.066 110.524ZM310.674 104.44C309.504 104.44 308.73 105.088 308.478 106.276H312.654C312.618 105.358 311.952 104.44 310.674 104.44ZM321.341 107.464C321.341 104.818 323.087 102.568 325.949 102.568C327.173 102.568 328.055 102.946 328.757 103.648V98.5H331.061V112H328.757V111.28C328.055 111.982 327.173 112.36 325.949 112.36C323.087 112.36 321.341 110.11 321.341 107.464ZM323.735 107.464C323.735 109.048 324.725 110.2 326.273 110.2C327.299 110.2 328.145 109.768 328.757 108.94V105.988C328.145 105.16 327.299 104.728 326.273 104.728C324.725 104.728 323.735 105.88 323.735 107.464ZM338.122 102.568C341.074 102.568 343.09 104.746 343.09 107.464C343.09 110.182 341.074 112.36 338.122 112.36C335.17 112.36 333.154 110.182 333.154 107.464C333.154 104.746 335.17 102.568 338.122 102.568ZM338.158 110.2C339.616 110.2 340.714 109.03 340.714 107.464C340.714 105.88 339.616 104.728 338.158 104.728C336.646 104.728 335.53 105.88 335.53 107.464C335.53 109.048 336.646 110.2 338.158 110.2ZM345.175 112V102.928H347.461V103.648C348.091 103.036 348.937 102.568 350.143 102.568C352.105 102.568 353.671 103.918 353.671 106.6V112H351.367V106.69C351.367 105.484 350.683 104.728 349.567 104.728C348.415 104.728 347.803 105.502 347.461 106.078V112H345.175ZM356.266 112V102.928H358.552V103.648C359.182 103.036 360.028 102.568 361.234 102.568C363.196 102.568 364.762 103.918 364.762 106.6V112H362.458V106.69C362.458 105.484 361.774 104.728 360.658 104.728C359.506 104.728 358.894 105.502 358.552 106.078V112H356.266ZM375.71 110.524C374.864 111.658 373.46 112.36 371.75 112.36C368.528 112.36 366.71 110.11 366.71 107.464C366.71 104.782 368.402 102.568 371.372 102.568C373.892 102.568 375.548 104.278 375.548 106.654C375.548 107.158 375.476 107.626 375.404 107.932H369.05C369.266 109.624 370.31 110.308 371.732 110.308C372.722 110.308 373.586 109.876 374.072 109.228L375.71 110.524ZM371.318 104.44C370.148 104.44 369.374 105.088 369.122 106.276H373.298C373.262 105.358 372.596 104.44 371.318 104.44ZM382.634 112V102.928H384.92V103.612C385.532 103.018 386.306 102.568 387.422 102.568C388.574 102.568 389.582 103.072 390.176 104.044C390.824 103.252 391.688 102.568 393.218 102.568C395.09 102.568 396.566 103.864 396.566 106.42V112H394.262V106.51C394.262 105.412 393.668 104.728 392.642 104.728C391.652 104.728 391.112 105.412 390.752 106.024C390.77 106.15 390.77 106.276 390.77 106.42V112H388.466V106.51C388.466 105.412 387.872 104.728 386.846 104.728C385.802 104.728 385.262 105.502 384.92 106.078V112H382.634ZM403.495 102.568C406.447 102.568 408.463 104.746 408.463 107.464C408.463 110.182 406.447 112.36 403.495 112.36C400.543 112.36 398.527 110.182 398.527 107.464C398.527 104.746 400.543 102.568 403.495 102.568ZM403.531 110.2C404.989 110.2 406.087 109.03 406.087 107.464C406.087 105.88 404.989 104.728 403.531 104.728C402.019 104.728 400.903 105.88 400.903 107.464C400.903 109.048 402.019 110.2 403.531 110.2ZM410.548 112V102.928H412.834V103.648C413.464 103.036 414.31 102.568 415.516 102.568C417.478 102.568 419.044 103.918 419.044 106.6V112H416.74V106.69C416.74 105.484 416.056 104.728 414.94 104.728C413.788 104.728 413.176 105.502 412.834 106.078V112H410.548ZM429.047 112.27C427.229 112.27 425.987 111.226 425.987 109.552C425.987 108.184 427.049 107.158 428.993 106.834L431.765 106.366V106.132C431.765 105.178 431.045 104.566 430.001 104.566C429.119 104.566 428.435 104.98 427.949 105.646L426.275 104.368C427.085 103.252 428.417 102.568 430.073 102.568C432.701 102.568 434.051 104.134 434.051 106.132V112H431.765V111.118C431.189 111.82 430.109 112.27 429.047 112.27ZM428.255 109.444C428.255 110.056 428.741 110.452 429.515 110.452C430.559 110.452 431.315 109.966 431.765 109.246V107.968L429.605 108.328C428.651 108.49 428.255 108.886 428.255 109.444ZM435.285 102.928H437.733L440.091 109.408L442.431 102.928H444.897L441.585 112H438.579L435.285 102.928ZM447.489 101.344C446.679 101.344 445.995 100.66 445.995 99.85C445.995 99.04 446.679 98.356 447.489 98.356C448.299 98.356 448.965 99.04 448.965 99.85C448.965 100.66 448.299 101.344 447.489 101.344ZM446.337 112V102.928H448.623V112H446.337ZM450.449 110.686L451.961 109.318C452.519 110.02 453.185 110.524 454.049 110.524C454.787 110.524 455.165 110.092 455.165 109.552C455.165 107.968 450.827 108.562 450.827 105.376C450.827 103.774 452.177 102.568 454.067 102.568C455.453 102.568 456.713 103.234 457.361 104.116L455.849 105.448C455.381 104.872 454.787 104.404 454.085 104.404C453.365 104.404 453.023 104.8 453.023 105.268C453.023 106.816 457.361 106.276 457.361 109.408C457.325 111.316 455.795 112.36 454.085 112.36C452.465 112.36 451.313 111.712 450.449 110.686Z" fill="#161616"/>
<path d="M148.854 233V220.4H151.41V230.678H156.198V233H148.854ZM166.546 231.524C165.7 232.658 164.296 233.36 162.586 233.36C159.364 233.36 157.546 231.11 157.546 228.464C157.546 225.782 159.238 223.568 162.208 223.568C164.728 223.568 166.384 225.278 166.384 227.654C166.384 228.158 166.312 228.626 166.24 228.932H159.886C160.102 230.624 161.146 231.308 162.568 231.308C163.558 231.308 164.422 230.876 164.908 230.228L166.546 231.524ZM162.154 225.44C160.984 225.44 160.21 226.088 159.958 227.276H164.134C164.098 226.358 163.432 225.44 162.154 225.44ZM167.703 231.686L169.215 230.318C169.773 231.02 170.439 231.524 171.303 231.524C172.041 231.524 172.419 231.092 172.419 230.552C172.419 228.968 168.081 229.562 168.081 226.376C168.081 224.774 169.431 223.568 171.321 223.568C172.707 223.568 173.967 224.234 174.615 225.116L173.103 226.448C172.635 225.872 172.041 225.404 171.339 225.404C170.619 225.404 170.277 225.8 170.277 226.268C170.277 227.816 174.615 227.276 174.615 230.408C174.579 232.316 173.049 233.36 171.339 233.36C169.719 233.36 168.567 232.712 167.703 231.686ZM181.573 233V223.928H183.859V224.612C184.471 224.018 185.245 223.568 186.361 223.568C187.513 223.568 188.521 224.072 189.115 225.044C189.763 224.252 190.627 223.568 192.157 223.568C194.029 223.568 195.505 224.864 195.505 227.42V233H193.201V227.51C193.201 226.412 192.607 225.728 191.581 225.728C190.591 225.728 190.051 226.412 189.691 227.024C189.709 227.15 189.709 227.276 189.709 227.42V233H187.405V227.51C187.405 226.412 186.811 225.728 185.785 225.728C184.741 225.728 184.201 226.502 183.859 227.078V233H181.573ZM202.434 223.568C205.386 223.568 207.402 225.746 207.402 228.464C207.402 231.182 205.386 233.36 202.434 233.36C199.482 233.36 197.466 231.182 197.466 228.464C197.466 225.746 199.482 223.568 202.434 223.568ZM202.47 231.2C203.928 231.2 205.026 230.03 205.026 228.464C205.026 226.88 203.928 225.728 202.47 225.728C200.958 225.728 199.842 226.88 199.842 228.464C199.842 230.048 200.958 231.2 202.47 231.2ZM208.927 228.464C208.927 225.818 210.673 223.568 213.535 223.568C214.759 223.568 215.641 223.946 216.343 224.648V219.5H218.647V233H216.343V232.28C215.641 232.982 214.759 233.36 213.535 233.36C210.673 233.36 208.927 231.11 208.927 228.464ZM211.321 228.464C211.321 230.048 212.311 231.2 213.859 231.2C214.885 231.2 215.731 230.768 216.343 229.94V226.988C215.731 226.16 214.885 225.728 213.859 225.728C212.311 225.728 211.321 226.88 211.321 228.464ZM224.286 222.488L222.126 219.5H224.61L226.464 222.488H224.286ZM229.74 231.524C228.894 232.658 227.49 233.36 225.78 233.36C222.558 233.36 220.74 231.11 220.74 228.464C220.74 225.782 222.432 223.568 225.402 223.568C227.922 223.568 229.578 225.278 229.578 227.654C229.578 228.158 229.506 228.626 229.434 228.932H223.08C223.296 230.624 224.34 231.308 225.762 231.308C226.752 231.308 227.616 230.876 228.102 230.228L229.74 231.524ZM225.348 225.44C224.178 225.44 223.404 226.088 223.152 227.276H227.328C227.292 226.358 226.626 225.44 225.348 225.44ZM231.811 233V219.5H234.097V233H231.811ZM245.191 231.524C244.345 232.658 242.941 233.36 241.231 233.36C238.009 233.36 236.191 231.11 236.191 228.464C236.191 225.782 237.883 223.568 240.853 223.568C243.373 223.568 245.029 225.278 245.029 227.654C245.029 228.158 244.957 228.626 244.885 228.932H238.531C238.747 230.624 239.791 231.308 241.213 231.308C242.203 231.308 243.067 230.876 243.553 230.228L245.191 231.524ZM240.799 225.44C239.629 225.44 238.855 226.088 238.603 227.276H242.779C242.743 226.358 242.077 225.44 240.799 225.44ZM246.347 231.686L247.859 230.318C248.417 231.02 249.083 231.524 249.947 231.524C250.685 231.524 251.063 231.092 251.063 230.552C251.063 228.968 246.725 229.562 246.725 226.376C246.725 224.774 248.075 223.568 249.965 223.568C251.351 223.568 252.611 224.234 253.259 225.116L251.747 226.448C251.279 225.872 250.685 225.404 249.983 225.404C249.263 225.404 248.921 225.8 248.921 226.268C248.921 227.816 253.259 227.276 253.259 230.408C253.223 232.316 251.693 233.36 249.983 233.36C248.363 233.36 247.211 232.712 246.347 231.686ZM259.426 231.686L260.938 230.318C261.496 231.02 262.162 231.524 263.026 231.524C263.764 231.524 264.142 231.092 264.142 230.552C264.142 228.968 259.804 229.562 259.804 226.376C259.804 224.774 261.154 223.568 263.044 223.568C264.43 223.568 265.69 224.234 266.338 225.116L264.826 226.448C264.358 225.872 263.764 225.404 263.062 225.404C262.342 225.404 262 225.8 262 226.268C262 227.816 266.338 227.276 266.338 230.408C266.302 232.316 264.772 233.36 263.062 233.36C261.442 233.36 260.29 232.712 259.426 231.686ZM272.729 223.568C275.681 223.568 277.697 225.746 277.697 228.464C277.697 231.182 275.681 233.36 272.729 233.36C269.777 233.36 267.761 231.182 267.761 228.464C267.761 225.746 269.777 223.568 272.729 223.568ZM272.765 231.2C274.223 231.2 275.321 230.03 275.321 228.464C275.321 226.88 274.223 225.728 272.765 225.728C271.253 225.728 270.137 226.88 270.137 228.464C270.137 230.048 271.253 231.2 272.765 231.2ZM279.782 233V223.928H282.068V224.648C282.698 224.036 283.544 223.568 284.75 223.568C286.712 223.568 288.278 224.918 288.278 227.6V233H285.974V227.69C285.974 226.484 285.29 225.728 284.174 225.728C283.022 225.728 282.41 226.502 282.068 227.078V233H279.782ZM291.45 229.688V225.98H289.758V223.928H291.45V221.66H293.754V223.928H296.526V225.98H293.754V229.688C293.754 230.696 294.294 231.092 295.194 231.092C295.824 231.092 296.238 231.02 296.544 230.894V232.892C296.094 233.09 295.554 233.18 294.798 233.18C292.53 233.18 291.45 231.902 291.45 229.688ZM302.777 228.464C302.777 225.818 304.523 223.568 307.385 223.568C308.609 223.568 309.491 223.946 310.193 224.648V219.5H312.497V233H310.193V232.28C309.491 232.982 308.609 233.36 307.385 233.36C304.523 233.36 302.777 231.11 302.777 228.464ZM305.171 228.464C305.171 230.048 306.161 231.2 307.709 231.2C308.735 231.2 309.581 230.768 310.193 229.94V226.988C309.581 226.16 308.735 225.728 307.709 225.728C306.161 225.728 305.171 226.88 305.171 228.464ZM320.511 222.488H318.315L320.187 219.5H322.671L320.511 222.488ZM323.589 231.524C322.743 232.658 321.339 233.36 319.629 233.36C316.407 233.36 314.589 231.11 314.589 228.464C314.589 225.782 316.281 223.568 319.251 223.568C321.771 223.568 323.427 225.278 323.427 227.654C323.427 228.158 323.355 228.626 323.283 228.932H316.929C317.145 230.624 318.189 231.308 319.611 231.308C320.601 231.308 321.465 230.876 321.951 230.228L323.589 231.524ZM319.197 225.44C318.027 225.44 317.253 226.088 317.001 227.276H321.177C321.141 226.358 320.475 225.44 319.197 225.44ZM325.661 233V223.928H327.947V224.612C328.559 224.018 329.333 223.568 330.449 223.568C331.601 223.568 332.609 224.072 333.203 225.044C333.851 224.252 334.715 223.568 336.245 223.568C338.117 223.568 339.593 224.864 339.593 227.42V233H337.289V227.51C337.289 226.412 336.695 225.728 335.669 225.728C334.679 225.728 334.139 226.412 333.779 227.024C333.797 227.15 333.797 227.276 333.797 227.42V233H331.493V227.51C331.493 226.412 330.899 225.728 329.873 225.728C328.829 225.728 328.289 226.502 327.947 227.078V233H325.661ZM344.758 233.27C342.94 233.27 341.698 232.226 341.698 230.552C341.698 229.184 342.76 228.158 344.704 227.834L347.476 227.366V227.132C347.476 226.178 346.756 225.566 345.712 225.566C344.83 225.566 344.146 225.98 343.66 226.646L341.986 225.368C342.796 224.252 344.128 223.568 345.784 223.568C348.412 223.568 349.762 225.134 349.762 227.132V233H347.476V232.118C346.9 232.82 345.82 233.27 344.758 233.27ZM343.966 230.444C343.966 231.056 344.452 231.452 345.226 231.452C346.27 231.452 347.026 230.966 347.476 230.246V228.968L345.316 229.328C344.362 229.49 343.966 229.886 343.966 230.444ZM351.588 231.686L353.1 230.318C353.658 231.02 354.324 231.524 355.188 231.524C355.926 231.524 356.304 231.092 356.304 230.552C356.304 228.968 351.966 229.562 351.966 226.376C351.966 224.774 353.316 223.568 355.206 223.568C356.592 223.568 357.852 224.234 358.5 225.116L356.988 226.448C356.52 225.872 355.926 225.404 355.224 225.404C354.504 225.404 354.162 225.8 354.162 226.268C354.162 227.816 358.5 227.276 358.5 230.408C358.464 232.316 356.934 233.36 355.224 233.36C353.604 233.36 352.452 232.712 351.588 231.686ZM359.923 228.464C359.923 225.818 361.651 223.568 364.531 223.568C365.755 223.568 366.637 223.964 367.339 224.666V223.928H369.643V237.428H367.339V232.262C366.637 232.964 365.755 233.36 364.531 233.36C361.651 233.36 359.923 231.11 359.923 228.464ZM362.299 228.464C362.299 230.048 363.289 231.2 364.837 231.2C365.899 231.2 366.781 230.732 367.339 229.904V227.024C366.727 226.178 365.863 225.728 364.837 225.728C363.289 225.728 362.299 226.88 362.299 228.464ZM378.36 229.076V223.928H380.664V228.968C380.664 231.686 379.08 233.36 376.416 233.36C373.752 233.36 372.186 231.686 372.186 228.968V223.928H374.49V229.076C374.49 230.39 375.174 231.2 376.434 231.2C377.676 231.2 378.36 230.39 378.36 229.076ZM388.468 222.488H386.272L388.144 219.5H390.628L388.468 222.488ZM391.546 231.524C390.7 232.658 389.296 233.36 387.586 233.36C384.364 233.36 382.546 231.11 382.546 228.464C382.546 225.782 384.238 223.568 387.208 223.568C389.728 223.568 391.384 225.278 391.384 227.654C391.384 228.158 391.312 228.626 391.24 228.932H384.886C385.102 230.624 386.146 231.308 387.568 231.308C388.558 231.308 389.422 230.876 389.908 230.228L391.546 231.524ZM387.154 225.44C385.984 225.44 385.21 226.088 384.958 227.276H389.134C389.098 226.358 388.432 225.44 387.154 225.44ZM392.703 231.686L394.215 230.318C394.773 231.02 395.439 231.524 396.303 231.524C397.041 231.524 397.419 231.092 397.419 230.552C397.419 228.968 393.081 229.562 393.081 226.376C393.081 224.774 394.431 223.568 396.321 223.568C397.707 223.568 398.967 224.234 399.615 225.116L398.103 226.448C397.635 225.872 397.041 225.404 396.339 225.404C395.619 225.404 395.277 225.8 395.277 226.268C395.277 227.816 399.615 227.276 399.615 230.408C399.579 232.316 398.049 233.36 396.339 233.36C394.719 233.36 393.567 232.712 392.703 231.686ZM407.329 228.95L406.861 220.4H409.489L409.021 228.95H407.329ZM408.193 233.216C407.329 233.216 406.609 232.496 406.609 231.65C406.609 230.804 407.311 230.084 408.193 230.084C409.039 230.084 409.759 230.804 409.759 231.65C409.759 232.496 409.039 233.216 408.193 233.216Z" fill="#161616"/>
<path d="M43.83 31.36H42.612L44.194 29.47H45.622L43.83 31.36ZM40.554 42V32.2H45.818V33.32H41.87V36.456H45.258V37.562H41.87V40.88H45.818V42H40.554ZM51.26 41.16C52.128 41.16 52.842 40.74 53.276 40.124L54.214 40.838C53.556 41.72 52.534 42.28 51.246 42.28C48.908 42.28 47.41 40.53 47.41 38.472C47.41 36.414 48.908 34.664 51.246 34.664C52.52 34.664 53.556 35.238 54.214 36.106L53.276 36.82C52.842 36.204 52.128 35.784 51.246 35.784C49.734 35.784 48.656 36.974 48.656 38.472C48.656 39.984 49.734 41.16 51.26 41.16ZM55.8459 42V31.5H57.0359V35.742C57.6099 35.112 58.3379 34.664 59.3879 34.664C60.9699 34.664 62.1459 35.728 62.1459 37.73V42H60.9559V37.772C60.9559 36.512 60.2559 35.784 59.1499 35.784C58.1139 35.784 57.4839 36.386 57.0359 37.114V42H55.8459ZM66.4593 42.196C65.0733 42.196 64.1353 41.426 64.1353 40.222C64.1353 39.158 64.9473 38.402 66.4453 38.15L68.8253 37.758V37.268C68.8253 36.288 68.1253 35.728 67.1173 35.728C66.3053 35.728 65.6473 36.106 65.2133 36.708L64.3173 36.022C64.9333 35.182 65.9273 34.664 67.1593 34.664C68.9513 34.664 70.0153 35.714 70.0153 37.268V42H68.8253V41.104C68.2933 41.79 67.3693 42.196 66.4593 42.196ZM65.3392 40.18C65.3392 40.782 65.8293 41.216 66.6553 41.216C67.5933 41.216 68.3633 40.768 68.8253 40.012V38.626L66.7393 38.976C65.7733 39.144 65.3392 39.578 65.3392 40.18ZM72.4026 42V34.944H73.5926V35.742C74.1666 35.112 74.8946 34.664 75.9446 34.664C77.5266 34.664 78.7026 35.728 78.7026 37.73V42H77.5126V37.772C77.5126 36.512 76.7986 35.784 75.7066 35.784C74.6846 35.784 74.0406 36.372 73.5926 37.114V42H72.4026ZM80.2859 43.274C80.2859 42.56 80.6359 41.986 81.3359 41.496C81.0139 41.244 80.8459 40.866 80.8459 40.488C80.8459 39.928 81.1399 39.466 81.6859 39.116C81.0699 38.654 80.7059 37.94 80.7059 37.156C80.7059 35.798 81.7699 34.65 83.4499 34.65C83.9679 34.65 84.4299 34.762 84.8079 34.944H87.4259V35.98H85.8999C86.0959 36.33 86.1939 36.736 86.1939 37.156C86.1939 38.5 85.1439 39.648 83.4499 39.648C83.0999 39.648 82.7639 39.592 82.4699 39.508C82.1759 39.718 82.0079 39.97 82.0079 40.236C82.0079 40.53 82.1619 40.74 82.5959 40.74H84.6119C86.4739 40.74 87.3419 41.65 87.3419 42.91C87.3419 44.394 85.8579 45.5 83.7439 45.5C81.6579 45.5 80.2859 44.688 80.2859 43.274ZM83.4639 38.71C84.4859 38.71 85.0739 38.01 85.0739 37.156C85.0739 36.288 84.4859 35.588 83.4639 35.588C82.4139 35.588 81.8399 36.288 81.8399 37.156C81.8399 38.024 82.4139 38.71 83.4639 38.71ZM81.4479 43.134C81.4479 43.988 82.3299 44.506 83.7299 44.506C85.2139 44.506 86.1519 43.918 86.1519 42.994C86.1519 42.322 85.7739 41.79 84.5139 41.79H82.2319C81.7419 42.154 81.4479 42.574 81.4479 43.134ZM94.8347 40.838C94.1767 41.72 93.1267 42.28 91.8107 42.28C89.4307 42.28 87.9607 40.53 87.9607 38.472C87.9607 36.33 89.3327 34.664 91.5167 34.664C93.4347 34.664 94.6807 36.008 94.6807 37.744C94.6807 38.024 94.6387 38.29 94.5967 38.486H89.1787C89.2207 40.18 90.2987 41.202 91.8107 41.202C92.7207 41.202 93.4907 40.782 93.9527 40.152L94.8347 40.838ZM91.4887 35.672C90.3267 35.672 89.5147 36.358 89.2627 37.576H93.4907C93.4487 36.54 92.7347 35.672 91.4887 35.672ZM96.0688 42V40.922L100.227 36.022H96.1668V34.944H101.683V36.022L97.5108 40.922H101.781V42H96.0688ZM109.403 42.196C108.017 42.196 107.079 41.426 107.079 40.222C107.079 39.158 107.891 38.402 109.389 38.15L111.769 37.758V37.268C111.769 36.288 111.069 35.728 110.061 35.728C109.249 35.728 108.591 36.106 108.157 36.708L107.261 36.022C107.877 35.182 108.871 34.664 110.103 34.664C111.895 34.664 112.959 35.714 112.959 37.268V42H111.769V41.104C111.237 41.79 110.313 42.196 109.403 42.196ZM108.283 40.18C108.283 40.782 108.773 41.216 109.599 41.216C110.537 41.216 111.307 40.768 111.769 40.012V38.626L109.683 38.976C108.717 39.144 108.283 39.578 108.283 40.18ZM120.26 38.976V34.944H121.45V38.934C121.45 41.048 120.232 42.28 118.314 42.28C116.41 42.28 115.192 41.048 115.192 38.934V34.944H116.382V38.976C116.382 40.362 117.124 41.16 118.328 41.16C119.504 41.16 120.26 40.362 120.26 38.976ZM123.012 41.034L123.852 40.32C124.342 40.936 124.93 41.286 125.644 41.286C126.428 41.286 126.876 40.81 126.876 40.194C126.876 38.612 123.348 39.172 123.348 36.68C123.348 35.574 124.286 34.664 125.644 34.664C126.652 34.664 127.52 35.14 128.01 35.826L127.184 36.526C126.806 35.994 126.274 35.658 125.658 35.658C124.902 35.658 124.496 36.106 124.496 36.652C124.496 38.234 128.038 37.73 128.038 40.138C128.024 41.454 126.974 42.28 125.658 42.28C124.538 42.28 123.656 41.832 123.012 41.034ZM129.164 41.034L130.004 40.32C130.494 40.936 131.082 41.286 131.796 41.286C132.58 41.286 133.028 40.81 133.028 40.194C133.028 38.612 129.5 39.172 129.5 36.68C129.5 35.574 130.438 34.664 131.796 34.664C132.804 34.664 133.672 35.14 134.162 35.826L133.336 36.526C132.958 35.994 132.426 35.658 131.81 35.658C131.054 35.658 130.648 36.106 130.648 36.652C130.648 38.234 134.19 37.73 134.19 40.138C134.176 41.454 133.126 42.28 131.81 42.28C130.69 42.28 129.808 41.832 129.164 41.034ZM136.729 33.11C136.267 33.11 135.889 32.732 135.889 32.27C135.889 31.822 136.267 31.444 136.729 31.444C137.191 31.444 137.555 31.822 137.555 32.27C137.555 32.732 137.191 33.11 136.729 33.11ZM136.127 42V34.944H137.317V42H136.127ZM143.606 42V31.5H144.796V42H143.606ZM150.531 34.664C152.799 34.664 154.353 36.414 154.353 38.472C154.353 40.53 152.799 42.28 150.531 42.28C148.249 42.28 146.709 40.53 146.709 38.472C146.709 36.414 148.249 34.664 150.531 34.664ZM150.545 41.16C152.015 41.16 153.093 39.928 153.093 38.472C153.093 37.002 152.015 35.784 150.545 35.784C149.033 35.784 147.955 37.002 147.955 38.472C147.955 39.942 149.033 41.16 150.545 41.16ZM156.266 42V34.944H157.456V35.742C158.03 35.112 158.758 34.664 159.808 34.664C161.39 34.664 162.566 35.728 162.566 37.73V42H161.376V37.772C161.376 36.512 160.662 35.784 159.57 35.784C158.548 35.784 157.904 36.372 157.456 37.114V42H156.266ZM164.149 43.274C164.149 42.56 164.499 41.986 165.199 41.496C164.877 41.244 164.709 40.866 164.709 40.488C164.709 39.928 165.003 39.466 165.549 39.116C164.933 38.654 164.569 37.94 164.569 37.156C164.569 35.798 165.633 34.65 167.313 34.65C167.831 34.65 168.293 34.762 168.671 34.944H171.289V35.98H169.763C169.959 36.33 170.057 36.736 170.057 37.156C170.057 38.5 169.007 39.648 167.313 39.648C166.963 39.648 166.627 39.592 166.333 39.508C166.039 39.718 165.871 39.97 165.871 40.236C165.871 40.53 166.025 40.74 166.459 40.74H168.475C170.337 40.74 171.205 41.65 171.205 42.91C171.205 44.394 169.721 45.5 167.607 45.5C165.521 45.5 164.149 44.688 164.149 43.274ZM167.327 38.71C168.349 38.71 168.937 38.01 168.937 37.156C168.937 36.288 168.349 35.588 167.327 35.588C166.277 35.588 165.703 36.288 165.703 37.156C165.703 38.024 166.277 38.71 167.327 38.71ZM165.311 43.134C165.311 43.988 166.193 44.506 167.593 44.506C169.077 44.506 170.015 43.918 170.015 42.994C170.015 42.322 169.637 41.79 168.377 41.79H166.095C165.605 42.154 165.311 42.574 165.311 43.134ZM173.256 39.634V36.022H171.926V34.944H173.256V33.18H174.46V34.944H176.91V36.022H174.46V39.634C174.46 40.74 175.02 41.048 175.874 41.048C176.336 41.048 176.658 40.992 176.924 40.88V41.944C176.588 42.084 176.21 42.14 175.706 42.14C174.138 42.14 173.256 41.356 173.256 39.634ZM184.864 40.838C184.206 41.72 183.156 42.28 181.84 42.28C179.46 42.28 177.99 40.53 177.99 38.472C177.99 36.33 179.362 34.664 181.546 34.664C183.464 34.664 184.71 36.008 184.71 37.744C184.71 38.024 184.668 38.29 184.626 38.486H179.208C179.25 40.18 180.328 41.202 181.84 41.202C182.75 41.202 183.52 40.782 183.982 40.152L184.864 40.838ZM181.518 35.672C180.356 35.672 179.544 36.358 179.292 37.576H183.52C183.478 36.54 182.764 35.672 181.518 35.672ZM186.727 42V34.944H187.917V35.714C188.449 35.098 189.149 34.664 190.129 34.664C191.151 34.664 191.991 35.126 192.425 36.022C192.985 35.252 193.727 34.664 194.945 34.664C196.457 34.664 197.563 35.672 197.563 37.59V42H196.373V37.632C196.373 36.456 195.715 35.784 194.707 35.784C193.811 35.784 193.181 36.288 192.719 37.114C192.733 37.268 192.747 37.422 192.747 37.59V42H191.557V37.632C191.557 36.456 190.913 35.784 189.891 35.784C188.925 35.784 188.323 36.386 187.917 37.114V42H186.727ZM199.961 45.444V34.944H201.151V35.784C201.781 35.07 202.607 34.664 203.657 34.664C205.869 34.664 207.283 36.414 207.283 38.472C207.283 40.53 205.869 42.28 203.657 42.28C202.607 42.28 201.781 41.874 201.151 41.16V45.444H199.961ZM203.517 35.784C202.537 35.784 201.683 36.26 201.151 37.1V39.844C201.697 40.698 202.551 41.16 203.517 41.16C205.015 41.16 206.037 39.97 206.037 38.472C206.037 36.974 205.015 35.784 203.517 35.784ZM208.256 41.034L209.096 40.32C209.586 40.936 210.174 41.286 210.888 41.286C211.672 41.286 212.12 40.81 212.12 40.194C212.12 38.612 208.592 39.172 208.592 36.68C208.592 35.574 209.53 34.664 210.888 34.664C211.896 34.664 212.764 35.14 213.254 35.826L212.428 36.526C212.05 35.994 211.518 35.658 210.902 35.658C210.146 35.658 209.74 36.106 209.74 36.652C209.74 38.234 213.282 37.73 213.282 40.138C213.268 41.454 212.218 42.28 210.902 42.28C209.782 42.28 208.9 41.832 208.256 41.034ZM218.39 38.472C218.39 36.414 219.804 34.664 222.016 34.664C223.066 34.664 223.892 35.07 224.522 35.798V34.944H225.712V45.444H224.522V41.146C223.892 41.874 223.066 42.28 222.016 42.28C219.804 42.28 218.39 40.53 218.39 38.472ZM219.636 38.472C219.636 39.97 220.658 41.16 222.142 41.16C223.136 41.16 223.99 40.684 224.522 39.844V37.1C223.976 36.246 223.122 35.784 222.142 35.784C220.658 35.784 219.636 36.974 219.636 38.472ZM233.149 38.976V34.944H234.339V38.934C234.339 41.048 233.121 42.28 231.203 42.28C229.299 42.28 228.081 41.048 228.081 38.934V34.944H229.271V38.976C229.271 40.362 230.013 41.16 231.217 41.16C232.393 41.16 233.149 40.362 233.149 38.976ZM242.956 40.838C242.298 41.72 241.248 42.28 239.932 42.28C237.552 42.28 236.082 40.53 236.082 38.472C236.082 36.33 237.454 34.664 239.638 34.664C241.556 34.664 242.802 36.008 242.802 37.744C242.802 38.024 242.76 38.29 242.718 38.486H237.3C237.342 40.18 238.42 41.202 239.932 41.202C240.842 41.202 241.612 40.782 242.074 40.152L242.956 40.838ZM239.61 35.672C238.448 35.672 237.636 36.358 237.384 37.576H241.612C241.57 36.54 240.856 35.672 239.61 35.672ZM39.196 58.944H40.484L42.738 64.754L44.992 58.944H46.28L43.522 66H41.954L39.196 58.944ZM50.8491 58.664C53.1171 58.664 54.6711 60.414 54.6711 62.472C54.6711 64.53 53.1171 66.28 50.8491 66.28C48.5671 66.28 47.0271 64.53 47.0271 62.472C47.0271 60.414 48.5671 58.664 50.8491 58.664ZM50.8631 65.16C52.3331 65.16 53.4111 63.928 53.4111 62.472C53.4111 61.002 52.3331 59.784 50.8631 59.784C49.3511 59.784 48.2731 61.002 48.2731 62.472C48.2731 63.942 49.3511 65.16 50.8631 65.16ZM61.4982 62.976V58.944H62.6882V62.934C62.6882 65.048 61.4702 66.28 59.5522 66.28C57.6482 66.28 56.4302 65.048 56.4302 62.934V58.944H57.6202V62.976C57.6202 64.362 58.3622 65.16 59.5662 65.16C60.7422 65.16 61.4982 64.362 61.4982 62.976ZM64.2501 65.034L65.0901 64.32C65.5801 64.936 66.1681 65.286 66.8821 65.286C67.6661 65.286 68.1141 64.81 68.1141 64.194C68.1141 62.612 64.5861 63.172 64.5861 60.68C64.5861 59.574 65.5241 58.664 66.8821 58.664C67.8901 58.664 68.7581 59.14 69.2481 59.826L68.4221 60.526C68.0441 59.994 67.5121 59.658 66.8961 59.658C66.1401 59.658 65.7341 60.106 65.7341 60.652C65.7341 62.234 69.2761 61.73 69.2761 64.138C69.2621 65.454 68.2121 66.28 66.8961 66.28C65.7761 66.28 64.8941 65.832 64.2501 65.034ZM74.9866 66V55.5H76.1766V66H74.9866ZM84.9636 64.838C84.3056 65.72 83.2556 66.28 81.9396 66.28C79.5596 66.28 78.0896 64.53 78.0896 62.472C78.0896 60.33 79.4616 58.664 81.6456 58.664C83.5636 58.664 84.8096 60.008 84.8096 61.744C84.8096 62.024 84.7676 62.29 84.7256 62.486H79.3076C79.3496 64.18 80.4276 65.202 81.9396 65.202C82.8496 65.202 83.6196 64.782 84.0816 64.152L84.9636 64.838ZM81.6176 59.672C80.4556 59.672 79.6436 60.358 79.3916 61.576H83.6196C83.5776 60.54 82.8636 59.672 81.6176 59.672ZM89.8438 65.034L90.6838 64.32C91.1738 64.936 91.7618 65.286 92.4758 65.286C93.2598 65.286 93.7078 64.81 93.7078 64.194C93.7078 62.612 90.1798 63.172 90.1798 60.68C90.1798 59.574 91.1178 58.664 92.4758 58.664C93.4838 58.664 94.3518 59.14 94.8418 59.826L94.0158 60.526C93.6378 59.994 93.1058 59.658 92.4898 59.658C91.7338 59.658 91.3278 60.106 91.3278 60.652C91.3278 62.234 94.8698 61.73 94.8698 64.138C94.8558 65.454 93.8058 66.28 92.4898 66.28C91.3698 66.28 90.4878 65.832 89.8438 65.034ZM99.9448 58.664C102.213 58.664 103.767 60.414 103.767 62.472C103.767 64.53 102.213 66.28 99.9448 66.28C97.6628 66.28 96.1228 64.53 96.1228 62.472C96.1228 60.414 97.6628 58.664 99.9448 58.664ZM99.9588 65.16C101.429 65.16 102.507 63.928 102.507 62.472C102.507 61.002 101.429 59.784 99.9588 59.784C98.4468 59.784 97.3688 61.002 97.3688 62.472C97.3688 63.942 98.4468 65.16 99.9588 65.16ZM110.594 62.976V58.944H111.784V62.934C111.784 65.048 110.566 66.28 108.648 66.28C106.744 66.28 105.526 65.048 105.526 62.934V58.944H106.716V62.976C106.716 64.362 107.458 65.16 108.662 65.16C109.838 65.16 110.594 64.362 110.594 62.976ZM114.129 66V55.5H115.319V59.742C115.893 59.112 116.621 58.664 117.671 58.664C119.253 58.664 120.429 59.728 120.429 61.73V66H119.239V61.772C119.239 60.512 118.539 59.784 117.433 59.784C116.397 59.784 115.767 60.386 115.319 61.114V66H114.129ZM124.742 66.196C123.356 66.196 122.418 65.426 122.418 64.222C122.418 63.158 123.23 62.402 124.728 62.15L127.108 61.758V61.268C127.108 60.288 126.408 59.728 125.4 59.728C124.588 59.728 123.93 60.106 123.496 60.708L122.6 60.022C123.216 59.182 124.21 58.664 125.442 58.664C127.234 58.664 128.298 59.714 128.298 61.268V66H127.108V65.104C126.576 65.79 125.652 66.196 124.742 66.196ZM123.622 64.18C123.622 64.782 124.112 65.216 124.938 65.216C125.876 65.216 126.646 64.768 127.108 64.012V62.626L125.022 62.976C124.056 63.144 123.622 63.578 123.622 64.18ZM131.288 57.11C130.826 57.11 130.448 56.732 130.448 56.27C130.448 55.822 130.826 55.444 131.288 55.444C131.75 55.444 132.114 55.822 132.114 56.27C132.114 56.732 131.75 57.11 131.288 57.11ZM130.686 66V58.944H131.876V66H130.686ZM134.797 63.634V60.022H133.467V58.944H134.797V57.18H136.001V58.944H138.451V60.022H136.001V63.634C136.001 64.74 136.561 65.048 137.415 65.048C137.877 65.048 138.199 64.992 138.465 64.88V65.944C138.129 66.084 137.751 66.14 137.247 66.14C135.679 66.14 134.797 65.356 134.797 63.634ZM146.405 64.838C145.747 65.72 144.697 66.28 143.381 66.28C141.001 66.28 139.531 64.53 139.531 62.472C139.531 60.33 140.903 58.664 143.087 58.664C145.005 58.664 146.251 60.008 146.251 61.744C146.251 62.024 146.209 62.29 146.167 62.486H140.749C140.791 64.18 141.869 65.202 143.381 65.202C144.291 65.202 145.061 64.782 145.523 64.152L146.405 64.838ZM143.059 59.672C141.897 59.672 141.085 60.358 140.833 61.576H145.061C145.019 60.54 144.305 59.672 143.059 59.672ZM147.639 66V64.922L151.797 60.022H147.737V58.944H153.253V60.022L149.081 64.922H153.351V66H147.639Z" fill="#666666"/>
<path d="M299.378 126.2H300.778L304.166 134.67L307.554 126.2H308.954L305.034 136H303.298L299.378 126.2ZM313.037 128.664C315.305 128.664 316.859 130.414 316.859 132.472C316.859 134.53 315.305 136.28 313.037 136.28C310.755 136.28 309.215 134.53 309.215 132.472C309.215 130.414 310.755 128.664 313.037 128.664ZM313.051 135.16C314.521 135.16 315.599 133.928 315.599 132.472C315.599 131.002 314.521 129.784 313.051 129.784C311.539 129.784 310.461 131.002 310.461 132.472C310.461 133.942 311.539 135.16 313.051 135.16ZM323.686 132.976V128.944H324.876V132.934C324.876 135.048 323.658 136.28 321.74 136.28C319.836 136.28 318.618 135.048 318.618 132.934V128.944H319.808V132.976C319.808 134.362 320.55 135.16 321.754 135.16C322.93 135.16 323.686 134.362 323.686 132.976ZM326.438 135.034L327.278 134.32C327.768 134.936 328.356 135.286 329.07 135.286C329.854 135.286 330.302 134.81 330.302 134.194C330.302 132.612 326.774 133.172 326.774 130.68C326.774 129.574 327.712 128.664 329.07 128.664C330.078 128.664 330.946 129.14 331.436 129.826L330.61 130.526C330.232 129.994 329.7 129.658 329.084 129.658C328.328 129.658 327.922 130.106 327.922 130.652C327.922 132.234 331.464 131.73 331.464 134.138C331.45 135.454 330.4 136.28 329.084 136.28C327.964 136.28 327.082 135.832 326.438 135.034ZM340.422 135.16C341.29 135.16 342.004 134.74 342.438 134.124L343.376 134.838C342.718 135.72 341.696 136.28 340.408 136.28C338.07 136.28 336.572 134.53 336.572 132.472C336.572 130.414 338.07 128.664 340.408 128.664C341.682 128.664 342.718 129.238 343.376 130.106L342.438 130.82C342.004 130.204 341.29 129.784 340.408 129.784C338.896 129.784 337.818 130.974 337.818 132.472C337.818 133.984 338.896 135.16 340.422 135.16ZM347.955 128.664C350.223 128.664 351.777 130.414 351.777 132.472C351.777 134.53 350.223 136.28 347.955 136.28C345.673 136.28 344.133 134.53 344.133 132.472C344.133 130.414 345.673 128.664 347.955 128.664ZM347.969 135.16C349.439 135.16 350.517 133.928 350.517 132.472C350.517 131.002 349.439 129.784 347.969 129.784C346.457 129.784 345.379 131.002 345.379 132.472C345.379 133.942 346.457 135.16 347.969 135.16ZM353.69 136V128.944H354.88V129.742C355.454 129.112 356.182 128.664 357.232 128.664C358.814 128.664 359.99 129.728 359.99 131.73V136H358.8V131.772C358.8 130.512 358.086 129.784 356.994 129.784C355.972 129.784 355.328 130.372 354.88 131.114V136H353.69ZM362.791 133.634V130.022H361.461V128.944H362.791V127.18H363.995V128.944H366.445V130.022H363.995V133.634C363.995 134.74 364.555 135.048 365.409 135.048C365.871 135.048 366.193 134.992 366.459 134.88V135.944C366.123 136.084 365.745 136.14 365.241 136.14C363.673 136.14 362.791 135.356 362.791 133.634ZM368.264 136V128.944H369.454V129.826C369.972 129.21 370.616 128.804 371.512 128.804C371.736 128.804 371.946 128.832 372.114 128.888V130.05C371.904 129.994 371.694 129.966 371.414 129.966C370.49 129.966 369.888 130.442 369.454 131.156V136H368.264ZM374.43 127.11C373.968 127.11 373.59 126.732 373.59 126.27C373.59 125.822 373.968 125.444 374.43 125.444C374.892 125.444 375.256 125.822 375.256 126.27C375.256 126.732 374.892 127.11 374.43 127.11ZM373.828 136V128.944H375.018V136H373.828ZM384.855 132.472C384.855 134.53 383.441 136.28 381.229 136.28C380.179 136.28 379.353 135.874 378.723 135.16V136H377.533V125.5H378.723V129.784C379.353 129.07 380.179 128.664 381.229 128.664C383.441 128.664 384.855 130.414 384.855 132.472ZM381.089 129.784C380.109 129.784 379.241 130.26 378.723 131.086V133.858C379.269 134.698 380.123 135.16 381.089 135.16C382.587 135.16 383.609 133.97 383.609 132.472C383.609 130.974 382.587 129.784 381.089 129.784ZM391.703 132.976V128.944H392.893V132.934C392.893 135.048 391.675 136.28 389.757 136.28C387.853 136.28 386.635 135.048 386.635 132.934V128.944H387.825V132.976C387.825 134.362 388.567 135.16 389.771 135.16C390.947 135.16 391.703 134.362 391.703 132.976ZM401.511 134.838C400.853 135.72 399.803 136.28 398.487 136.28C396.107 136.28 394.637 134.53 394.637 132.472C394.637 130.33 396.009 128.664 398.193 128.664C400.111 128.664 401.357 130.008 401.357 131.744C401.357 132.024 401.315 132.29 401.273 132.486H395.855C395.897 134.18 396.975 135.202 398.487 135.202C399.397 135.202 400.167 134.782 400.629 134.152L401.511 134.838ZM398.165 129.672C397.003 129.672 396.191 130.358 395.939 131.576H400.167C400.125 130.54 399.411 129.672 398.165 129.672ZM402.745 136V134.922L406.903 130.022H402.843V128.944H408.359V130.022L404.187 134.922H408.457V136H402.745ZM416.078 136.196C414.692 136.196 413.754 135.426 413.754 134.222C413.754 133.158 414.566 132.402 416.064 132.15L418.444 131.758V131.268C418.444 130.288 417.744 129.728 416.736 129.728C415.924 129.728 415.266 130.106 414.832 130.708L413.936 130.022C414.552 129.182 415.546 128.664 416.778 128.664C418.57 128.664 419.634 129.714 419.634 131.268V136H418.444V135.104C417.912 135.79 416.988 136.196 416.078 136.196ZM414.958 134.18C414.958 134.782 415.448 135.216 416.274 135.216C417.212 135.216 417.982 134.768 418.444 134.012V132.626L416.358 132.976C415.392 133.144 414.958 133.578 414.958 134.18ZM422.624 127.11C422.162 127.11 421.784 126.732 421.784 126.27C421.784 125.822 422.162 125.444 422.624 125.444C423.086 125.444 423.45 125.822 423.45 126.27C423.45 126.732 423.086 127.11 422.624 127.11ZM422.022 136V128.944H423.212V136H422.022ZM425.727 136V128.944H426.917V129.742C427.491 129.112 428.219 128.664 429.269 128.664C430.851 128.664 432.027 129.728 432.027 131.73V136H430.837V131.772C430.837 130.512 430.123 129.784 429.031 129.784C428.009 129.784 427.365 130.372 426.917 131.114V136H425.727ZM433.666 135.034L434.506 134.32C434.996 134.936 435.584 135.286 436.298 135.286C437.082 135.286 437.53 134.81 437.53 134.194C437.53 132.612 434.002 133.172 434.002 130.68C434.002 129.574 434.94 128.664 436.298 128.664C437.306 128.664 438.174 129.14 438.664 129.826L437.838 130.526C437.46 129.994 436.928 129.658 436.312 129.658C435.556 129.658 435.15 130.106 435.15 130.652C435.15 132.234 438.692 131.73 438.692 134.138C438.678 135.454 437.628 136.28 436.312 136.28C435.192 136.28 434.31 135.832 433.666 135.034ZM441.231 127.11C440.769 127.11 440.391 126.732 440.391 126.27C440.391 125.822 440.769 125.444 441.231 125.444C441.693 125.444 442.057 125.822 442.057 126.27C442.057 126.732 441.693 127.11 441.231 127.11ZM440.629 136V128.944H441.819V136H440.629ZM450.166 127.824L448.528 125.5H449.858L451.314 127.824H450.166ZM450.026 136.196C448.64 136.196 447.702 135.426 447.702 134.222C447.702 133.158 448.514 132.402 450.012 132.15L452.392 131.758V131.268C452.392 130.288 451.692 129.728 450.684 129.728C449.872 129.728 449.214 130.106 448.78 130.708L447.884 130.022C448.5 129.182 449.494 128.664 450.726 128.664C452.518 128.664 453.582 129.714 453.582 131.268V136H452.392V135.104C451.86 135.79 450.936 136.196 450.026 136.196ZM448.906 134.18C448.906 134.782 449.396 135.216 450.222 135.216C451.16 135.216 451.93 134.768 452.392 134.012V132.626L450.306 132.976C449.34 133.144 448.906 133.578 448.906 134.18ZM300.26 160V149.5H301.45V160H300.26ZM305.182 153.952H304.146L303.978 150.2H305.336L305.182 153.952ZM309.465 160.196C308.079 160.196 307.141 159.426 307.141 158.222C307.141 157.158 307.953 156.402 309.451 156.15L311.831 155.758V155.268C311.831 154.288 311.131 153.728 310.123 153.728C309.311 153.728 308.653 154.106 308.219 154.708L307.323 154.022C307.939 153.182 308.933 152.664 310.165 152.664C311.957 152.664 313.021 153.714 313.021 155.268V160H311.831V159.104C311.299 159.79 310.375 160.196 309.465 160.196ZM308.345 158.18C308.345 158.782 308.835 159.216 309.661 159.216C310.599 159.216 311.369 158.768 311.831 158.012V156.626L309.745 156.976C308.779 157.144 308.345 157.578 308.345 158.18ZM315.408 160V152.944H316.598V153.714C317.13 153.098 317.83 152.664 318.81 152.664C319.832 152.664 320.672 153.126 321.106 154.022C321.666 153.252 322.408 152.664 323.626 152.664C325.138 152.664 326.244 153.672 326.244 155.59V160H325.054V155.632C325.054 154.456 324.396 153.784 323.388 153.784C322.492 153.784 321.862 154.288 321.4 155.114C321.414 155.268 321.428 155.422 321.428 155.59V160H320.238V155.632C320.238 154.456 319.594 153.784 318.572 153.784C317.606 153.784 317.004 154.386 316.598 155.114V160H315.408ZM332.227 151.824H331.065L332.521 149.5H333.865L332.227 151.824ZM334.915 158.838C334.257 159.72 333.207 160.28 331.891 160.28C329.511 160.28 328.041 158.53 328.041 156.472C328.041 154.33 329.413 152.664 331.597 152.664C333.515 152.664 334.761 154.008 334.761 155.744C334.761 156.024 334.719 156.29 334.677 156.486H329.259C329.301 158.18 330.379 159.202 331.891 159.202C332.801 159.202 333.571 158.782 334.033 158.152L334.915 158.838ZM331.569 153.672C330.407 153.672 329.595 154.358 329.343 155.576H333.571C333.529 154.54 332.815 153.672 331.569 153.672ZM336.778 160V149.5H337.968V160H336.778ZM341.085 151.11C340.623 151.11 340.245 150.732 340.245 150.27C340.245 149.822 340.623 149.444 341.085 149.444C341.547 149.444 341.911 149.822 341.911 150.27C341.911 150.732 341.547 151.11 341.085 151.11ZM340.483 160V152.944H341.673V160H340.483ZM347.408 152.664C349.676 152.664 351.23 154.414 351.23 156.472C351.23 158.53 349.676 160.28 347.408 160.28C345.126 160.28 343.586 158.53 343.586 156.472C343.586 154.414 345.126 152.664 347.408 152.664ZM347.422 159.16C348.892 159.16 349.97 157.928 349.97 156.472C349.97 155.002 348.892 153.784 347.422 153.784C345.91 153.784 344.832 155.002 344.832 156.472C344.832 157.942 345.91 159.16 347.422 159.16ZM353.143 160V152.944H354.333V153.826C354.851 153.21 355.495 152.804 356.391 152.804C356.615 152.804 356.825 152.832 356.993 152.888V154.05C356.783 153.994 356.573 153.966 356.293 153.966C355.369 153.966 354.767 154.442 354.333 155.156V160H353.143ZM360.311 160.196C358.925 160.196 357.987 159.426 357.987 158.222C357.987 157.158 358.799 156.402 360.297 156.15L362.677 155.758V155.268C362.677 154.288 361.977 153.728 360.969 153.728C360.157 153.728 359.499 154.106 359.065 154.708L358.169 154.022C358.785 153.182 359.779 152.664 361.011 152.664C362.803 152.664 363.867 153.714 363.867 155.268V160H362.677V159.104C362.145 159.79 361.221 160.196 360.311 160.196ZM359.191 158.18C359.191 158.782 359.681 159.216 360.507 159.216C361.445 159.216 362.215 158.768 362.677 158.012V156.626L360.591 156.976C359.625 157.144 359.191 157.578 359.191 158.18ZM366.66 157.634V154.022H365.33V152.944H366.66V151.18H367.864V152.944H370.314V154.022H367.864V157.634C367.864 158.74 368.424 159.048 369.278 159.048C369.74 159.048 370.062 158.992 370.328 158.88V159.944C369.992 160.084 369.614 160.14 369.11 160.14C367.542 160.14 366.66 159.356 366.66 157.634ZM372.735 151.11C372.273 151.11 371.895 150.732 371.895 150.27C371.895 149.822 372.273 149.444 372.735 149.444C373.197 149.444 373.561 149.822 373.561 150.27C373.561 150.732 373.197 151.11 372.735 151.11ZM372.133 160V152.944H373.323V160H372.133ZM379.058 152.664C381.326 152.664 382.88 154.414 382.88 156.472C382.88 158.53 381.326 160.28 379.058 160.28C376.776 160.28 375.236 158.53 375.236 156.472C375.236 154.414 376.776 152.664 379.058 152.664ZM379.072 159.16C380.542 159.16 381.62 157.928 381.62 156.472C381.62 155.002 380.542 153.784 379.072 153.784C377.56 153.784 376.482 155.002 376.482 156.472C376.482 157.942 377.56 159.16 379.072 159.16ZM384.793 160V152.944H385.983V153.742C386.557 153.112 387.285 152.664 388.335 152.664C389.917 152.664 391.093 153.728 391.093 155.73V160H389.903V155.772C389.903 154.512 389.189 153.784 388.097 153.784C387.075 153.784 386.431 154.372 385.983 155.114V160H384.793ZM396.66 156.472C396.66 154.414 398.074 152.664 400.286 152.664C401.336 152.664 402.162 153.07 402.792 153.784V149.5H403.982V160H402.792V159.16C402.162 159.874 401.336 160.28 400.286 160.28C398.074 160.28 396.66 158.53 396.66 156.472ZM397.92 156.472C397.92 157.97 398.928 159.16 400.426 159.16C401.406 159.16 402.274 158.684 402.792 157.858V155.086C402.246 154.246 401.392 153.784 400.426 153.784C398.928 153.784 397.92 154.974 397.92 156.472ZM412.762 158.838C412.104 159.72 411.054 160.28 409.738 160.28C407.358 160.28 405.888 158.53 405.888 156.472C405.888 154.33 407.26 152.664 409.444 152.664C411.362 152.664 412.608 154.008 412.608 155.744C412.608 156.024 412.566 156.29 412.524 156.486H407.106C407.148 158.18 408.226 159.202 409.738 159.202C410.648 159.202 411.418 158.782 411.88 158.152L412.762 158.838ZM409.416 153.672C408.254 153.672 407.442 154.358 407.19 155.576H411.418C411.376 154.54 410.662 153.672 409.416 153.672ZM413.815 159.034L414.655 158.32C415.145 158.936 415.733 159.286 416.447 159.286C417.231 159.286 417.679 158.81 417.679 158.194C417.679 156.612 414.151 157.172 414.151 154.68C414.151 153.574 415.089 152.664 416.447 152.664C417.455 152.664 418.323 153.14 418.813 153.826L417.987 154.526C417.609 153.994 417.077 153.658 416.461 153.658C415.705 153.658 415.299 154.106 415.299 154.652C415.299 156.234 418.841 155.73 418.841 158.138C418.827 159.454 417.777 160.28 416.461 160.28C415.341 160.28 414.459 159.832 413.815 159.034ZM424.551 160V152.944H425.741V153.714C426.273 153.098 426.973 152.664 427.953 152.664C428.975 152.664 429.815 153.126 430.249 154.022C430.809 153.252 431.551 152.664 432.769 152.664C434.281 152.664 435.387 153.672 435.387 155.59V160H434.197V155.632C434.197 154.456 433.539 153.784 432.531 153.784C431.635 153.784 431.005 154.288 430.543 155.114C430.557 155.268 430.571 155.422 430.571 155.59V160H429.381V155.632C429.381 154.456 428.737 153.784 427.715 153.784C426.749 153.784 426.147 154.386 425.741 155.114V160H424.551ZM441.005 152.664C443.273 152.664 444.827 154.414 444.827 156.472C444.827 158.53 443.273 160.28 441.005 160.28C438.723 160.28 437.183 158.53 437.183 156.472C437.183 154.414 438.723 152.664 441.005 152.664ZM441.019 159.16C442.489 159.16 443.567 157.928 443.567 156.472C443.567 155.002 442.489 153.784 441.019 153.784C439.507 153.784 438.429 155.002 438.429 156.472C438.429 157.942 439.507 159.16 441.019 159.16ZM446.207 156.472C446.207 154.414 447.621 152.664 449.833 152.664C450.883 152.664 451.709 153.07 452.339 153.784V149.5H453.529V160H452.339V159.16C451.709 159.874 450.883 160.28 449.833 160.28C447.621 160.28 446.207 158.53 446.207 156.472ZM447.467 156.472C447.467 157.97 448.475 159.16 449.973 159.16C450.953 159.16 451.821 158.684 452.339 157.858V155.086C451.793 154.246 450.939 153.784 449.973 153.784C448.475 153.784 447.467 154.974 447.467 156.472ZM458.403 151.824L456.765 149.5H458.095L459.551 151.824H458.403ZM462.309 158.838C461.651 159.72 460.601 160.28 459.285 160.28C456.905 160.28 455.435 158.53 455.435 156.472C455.435 154.33 456.807 152.664 458.991 152.664C460.909 152.664 462.155 154.008 462.155 155.744C462.155 156.024 462.113 156.29 462.071 156.486H456.653C456.695 158.18 457.773 159.202 459.285 159.202C460.195 159.202 460.965 158.782 461.427 158.152L462.309 158.838ZM458.963 153.672C457.801 153.672 456.989 154.358 456.737 155.576H460.965C460.923 154.54 460.209 153.672 458.963 153.672ZM464.172 160V149.5H465.362V160H464.172ZM474.149 158.838C473.491 159.72 472.441 160.28 471.125 160.28C468.745 160.28 467.275 158.53 467.275 156.472C467.275 154.33 468.647 152.664 470.831 152.664C472.749 152.664 473.995 154.008 473.995 155.744C473.995 156.024 473.953 156.29 473.911 156.486H468.493C468.535 158.18 469.613 159.202 471.125 159.202C472.035 159.202 472.805 158.782 473.267 158.152L474.149 158.838ZM470.803 153.672C469.641 153.672 468.829 154.358 468.577 155.576H472.805C472.763 154.54 472.049 153.672 470.803 153.672ZM475.201 159.034L476.041 158.32C476.531 158.936 477.119 159.286 477.833 159.286C478.617 159.286 479.065 158.81 479.065 158.194C479.065 156.612 475.537 157.172 475.537 154.68C475.537 153.574 476.475 152.664 477.833 152.664C478.841 152.664 479.709 153.14 480.199 153.826L479.373 154.526C478.995 153.994 478.463 153.658 477.847 153.658C477.091 153.658 476.685 154.106 476.685 154.652C476.685 156.234 480.227 155.73 480.227 158.138C480.213 159.454 479.163 160.28 477.847 160.28C476.727 160.28 475.845 159.832 475.201 159.034ZM485.336 156.472C485.336 154.414 486.75 152.664 488.962 152.664C490.012 152.664 490.838 153.07 491.468 153.784V149.5H492.658V160H491.468V159.16C490.838 159.874 490.012 160.28 488.962 160.28C486.75 160.28 485.336 158.53 485.336 156.472ZM486.596 156.472C486.596 157.97 487.604 159.16 489.102 159.16C490.082 159.16 490.95 158.684 491.468 157.858V155.086C490.922 154.246 490.068 153.784 489.102 153.784C487.604 153.784 486.596 154.974 486.596 156.472ZM495.683 153.952H494.577L495.767 150.2H497.125L495.683 153.952ZM499.288 160V150.2H500.604V160H499.288ZM502.542 160L506.448 150.2H508.212L512.118 160H510.718L509.584 157.116H505.076L503.942 160H502.542ZM505.51 155.982H509.15L507.33 151.348L505.51 155.982Z" fill="#666666"/>
<path d="M147.378 257L151.284 247.2H153.048L156.954 257H155.554L154.42 254.116H149.912L148.778 257H147.378ZM150.346 252.982H153.986L152.166 248.348L150.346 252.982ZM158.828 260.444V249.944H160.018V250.784C160.648 250.07 161.474 249.664 162.524 249.664C164.736 249.664 166.15 251.414 166.15 253.472C166.15 255.53 164.736 257.28 162.524 257.28C161.474 257.28 160.648 256.874 160.018 256.16V260.444H158.828ZM162.384 250.784C161.404 250.784 160.55 251.26 160.018 252.1V254.844C160.564 255.698 161.418 256.16 162.384 256.16C163.882 256.16 164.904 254.97 164.904 253.472C164.904 251.974 163.882 250.784 162.384 250.784ZM168.071 260.444V249.944H169.261V250.784C169.891 250.07 170.717 249.664 171.767 249.664C173.979 249.664 175.393 251.414 175.393 253.472C175.393 255.53 173.979 257.28 171.767 257.28C170.717 257.28 169.891 256.874 169.261 256.16V260.444H168.071ZM171.627 250.784C170.647 250.784 169.793 251.26 169.261 252.1V254.844C169.807 255.698 170.661 256.16 171.627 256.16C173.125 256.16 174.147 254.97 174.147 253.472C174.147 251.974 173.125 250.784 171.627 250.784ZM177.313 257V249.944H178.503V250.826C179.021 250.21 179.665 249.804 180.561 249.804C180.785 249.804 180.995 249.832 181.163 249.888V251.05C180.953 250.994 180.743 250.966 180.463 250.966C179.539 250.966 178.937 251.442 178.503 252.156V257H177.313ZM188.725 255.838C188.067 256.72 187.017 257.28 185.701 257.28C183.321 257.28 181.851 255.53 181.851 253.472C181.851 251.33 183.223 249.664 185.407 249.664C187.325 249.664 188.571 251.008 188.571 252.744C188.571 253.024 188.529 253.29 188.487 253.486H183.069C183.111 255.18 184.189 256.202 185.701 256.202C186.611 256.202 187.381 255.782 187.843 255.152L188.725 255.838ZM185.379 250.672C184.217 250.672 183.405 251.358 183.153 252.576H187.381C187.339 251.54 186.625 250.672 185.379 250.672ZM190.588 257V249.944H191.778V250.742C192.352 250.112 193.08 249.664 194.13 249.664C195.712 249.664 196.888 250.728 196.888 252.73V257H195.698V252.772C195.698 251.512 194.984 250.784 193.892 250.784C192.87 250.784 192.226 251.372 191.778 252.114V257H190.588ZM205.555 255.838C204.897 256.72 203.847 257.28 202.531 257.28C200.151 257.28 198.681 255.53 198.681 253.472C198.681 251.33 200.053 249.664 202.237 249.664C204.155 249.664 205.401 251.008 205.401 252.744C205.401 253.024 205.359 253.29 205.317 253.486H199.899C199.941 255.18 201.019 256.202 202.531 256.202C203.441 256.202 204.211 255.782 204.673 255.152L205.555 255.838ZM202.209 250.672C201.047 250.672 200.235 251.358 199.983 252.576H204.211C204.169 251.54 203.455 250.672 202.209 250.672ZM206.79 257V255.922L210.948 251.022H206.888V249.944H212.404V251.022L208.232 255.922H212.502V257H206.79ZM224.477 255.838C223.819 256.72 222.769 257.28 221.453 257.28C219.073 257.28 217.603 255.53 217.603 253.472C217.603 251.33 218.975 249.664 221.159 249.664C223.077 249.664 224.323 251.008 224.323 252.744C224.323 253.024 224.281 253.29 224.239 253.486H218.821C218.863 255.18 219.941 256.202 221.453 256.202C222.363 256.202 223.133 255.782 223.595 255.152L224.477 255.838ZM221.131 250.672C219.969 250.672 219.157 251.358 218.905 252.576H223.133C223.091 251.54 222.377 250.672 221.131 250.672ZM226.34 257V249.944H227.53V250.742C228.104 250.112 228.832 249.664 229.882 249.664C231.464 249.664 232.64 250.728 232.64 252.73V257H231.45V252.772C231.45 251.512 230.736 250.784 229.644 250.784C228.622 250.784 227.978 251.372 227.53 252.114V257H226.34ZM238.809 260.444V249.944H239.999V250.784C240.629 250.07 241.455 249.664 242.505 249.664C244.717 249.664 246.131 251.414 246.131 253.472C246.131 255.53 244.717 257.28 242.505 257.28C241.455 257.28 240.629 256.874 239.999 256.16V260.444H238.809ZM242.365 250.784C241.385 250.784 240.531 251.26 239.999 252.1V254.844C240.545 255.698 241.399 256.16 242.365 256.16C243.863 256.16 244.885 254.97 244.885 253.472C244.885 251.974 243.863 250.784 242.365 250.784ZM248.051 257V246.5H249.241V257H248.051ZM256.67 253.976V249.944H257.86V253.934C257.86 256.048 256.642 257.28 254.724 257.28C252.82 257.28 251.602 256.048 251.602 253.934V249.944H252.792V253.976C252.792 255.362 253.534 256.16 254.738 256.16C255.914 256.16 256.67 255.362 256.67 253.976ZM259.422 256.034L260.262 255.32C260.752 255.936 261.34 256.286 262.054 256.286C262.838 256.286 263.286 255.81 263.286 255.194C263.286 253.612 259.758 254.172 259.758 251.68C259.758 250.574 260.696 249.664 262.054 249.664C263.062 249.664 263.93 250.14 264.42 250.826L263.594 251.526C263.216 250.994 262.684 250.658 262.068 250.658C261.312 250.658 260.906 251.106 260.906 251.652C260.906 253.234 264.448 252.73 264.448 255.138C264.434 256.454 263.384 257.28 262.068 257.28C260.948 257.28 260.066 256.832 259.422 256.034ZM269.402 256.034L270.242 255.32C270.732 255.936 271.32 256.286 272.034 256.286C272.818 256.286 273.266 255.81 273.266 255.194C273.266 253.612 269.738 254.172 269.738 251.68C269.738 250.574 270.676 249.664 272.034 249.664C273.042 249.664 273.91 250.14 274.4 250.826L273.574 251.526C273.196 250.994 272.664 250.658 272.048 250.658C271.292 250.658 270.886 251.106 270.886 251.652C270.886 253.234 274.428 252.73 274.428 255.138C274.414 256.454 273.364 257.28 272.048 257.28C270.928 257.28 270.046 256.832 269.402 256.034ZM281.279 253.976V249.944H282.469V253.934C282.469 256.048 281.251 257.28 279.333 257.28C277.429 257.28 276.211 256.048 276.211 253.934V249.944H277.401V253.976C277.401 255.362 278.143 256.16 279.347 256.16C280.523 256.16 281.279 255.362 281.279 253.976ZM284.815 257V249.944H286.005V250.826C286.523 250.21 287.167 249.804 288.063 249.804C288.287 249.804 288.497 249.832 288.665 249.888V251.05C288.455 250.994 288.245 250.966 287.965 250.966C287.041 250.966 286.439 251.442 286.005 252.156V257H284.815ZM294.153 257V246.5H295.343V257H294.153ZM304.13 255.838C303.472 256.72 302.422 257.28 301.106 257.28C298.726 257.28 297.256 255.53 297.256 253.472C297.256 251.33 298.628 249.664 300.812 249.664C302.73 249.664 303.976 251.008 303.976 252.744C303.976 253.024 303.934 253.29 303.892 253.486H298.474C298.516 255.18 299.594 256.202 301.106 256.202C302.016 256.202 302.786 255.782 303.248 255.152L304.13 255.838ZM300.784 250.672C299.622 250.672 298.81 251.358 298.558 252.576H302.786C302.744 251.54 302.03 250.672 300.784 250.672ZM305.182 256.034L306.022 255.32C306.512 255.936 307.1 256.286 307.814 256.286C308.598 256.286 309.046 255.81 309.046 255.194C309.046 253.612 305.518 254.172 305.518 251.68C305.518 250.574 306.456 249.664 307.814 249.664C308.822 249.664 309.69 250.14 310.18 250.826L309.354 251.526C308.976 250.994 308.444 250.658 307.828 250.658C307.072 250.658 306.666 251.106 306.666 251.652C306.666 253.234 310.208 252.73 310.208 255.138C310.194 256.454 309.144 257.28 307.828 257.28C306.708 257.28 305.826 256.832 305.182 256.034ZM315.918 257V249.944H317.108V250.714C317.64 250.098 318.34 249.664 319.32 249.664C320.342 249.664 321.182 250.126 321.616 251.022C322.176 250.252 322.918 249.664 324.136 249.664C325.648 249.664 326.754 250.672 326.754 252.59V257H325.564V252.632C325.564 251.456 324.906 250.784 323.898 250.784C323.002 250.784 322.372 251.288 321.91 252.114C321.924 252.268 321.938 252.422 321.938 252.59V257H320.748V252.632C320.748 251.456 320.104 250.784 319.082 250.784C318.116 250.784 317.514 251.386 317.108 252.114V257H315.918ZM332.373 249.664C334.641 249.664 336.195 251.414 336.195 253.472C336.195 255.53 334.641 257.28 332.373 257.28C330.091 257.28 328.551 255.53 328.551 253.472C328.551 251.414 330.091 249.664 332.373 249.664ZM332.387 256.16C333.857 256.16 334.935 254.928 334.935 253.472C334.935 252.002 333.857 250.784 332.387 250.784C330.875 250.784 329.797 252.002 329.797 253.472C329.797 254.942 330.875 256.16 332.387 256.16ZM337.574 253.472C337.574 251.414 338.988 249.664 341.2 249.664C342.25 249.664 343.076 250.07 343.706 250.784V246.5H344.896V257H343.706V256.16C343.076 256.874 342.25 257.28 341.2 257.28C338.988 257.28 337.574 255.53 337.574 253.472ZM338.834 253.472C338.834 254.97 339.842 256.16 341.34 256.16C342.32 256.16 343.188 255.684 343.706 254.858V252.086C343.16 251.246 342.306 250.784 341.34 250.784C339.842 250.784 338.834 251.974 338.834 253.472ZM349.771 248.824L348.133 246.5H349.463L350.919 248.824H349.771ZM353.677 255.838C353.019 256.72 351.969 257.28 350.653 257.28C348.273 257.28 346.803 255.53 346.803 253.472C346.803 251.33 348.175 249.664 350.359 249.664C352.277 249.664 353.523 251.008 353.523 252.744C353.523 253.024 353.481 253.29 353.439 253.486H348.021C348.063 255.18 349.141 256.202 350.653 256.202C351.563 256.202 352.333 255.782 352.795 255.152L353.677 255.838ZM350.331 250.672C349.169 250.672 348.357 251.358 348.105 252.576H352.333C352.291 251.54 351.577 250.672 350.331 250.672ZM355.539 257V246.5H356.729V257H355.539ZM365.516 255.838C364.858 256.72 363.808 257.28 362.492 257.28C360.112 257.28 358.642 255.53 358.642 253.472C358.642 251.33 360.014 249.664 362.198 249.664C364.116 249.664 365.362 251.008 365.362 252.744C365.362 253.024 365.32 253.29 365.278 253.486H359.86C359.902 255.18 360.98 256.202 362.492 256.202C363.402 256.202 364.172 255.782 364.634 255.152L365.516 255.838ZM362.17 250.672C361.008 250.672 360.196 251.358 359.944 252.576H364.172C364.13 251.54 363.416 250.672 362.17 250.672ZM366.568 256.034L367.408 255.32C367.898 255.936 368.486 256.286 369.2 256.286C369.984 256.286 370.432 255.81 370.432 255.194C370.432 253.612 366.904 254.172 366.904 251.68C366.904 250.574 367.842 249.664 369.2 249.664C370.208 249.664 371.076 250.14 371.566 250.826L370.74 251.526C370.362 250.994 369.83 250.658 369.214 250.658C368.458 250.658 368.052 251.106 368.052 251.652C368.052 253.234 371.594 252.73 371.594 255.138C371.58 256.454 370.53 257.28 369.214 257.28C368.094 257.28 367.212 256.832 366.568 256.034ZM147.658 277.472C147.658 275.414 149.072 273.664 151.284 273.664C152.334 273.664 153.16 274.07 153.79 274.784V270.5H154.98V281H153.79V280.16C153.16 280.874 152.334 281.28 151.284 281.28C149.072 281.28 147.658 279.53 147.658 277.472ZM148.918 277.472C148.918 278.97 149.926 280.16 151.424 280.16C152.404 280.16 153.272 279.684 153.79 278.858V276.086C153.244 275.246 152.39 274.784 151.424 274.784C149.926 274.784 148.918 275.974 148.918 277.472ZM158.005 274.952H156.899L158.089 271.2H159.447L158.005 274.952ZM161.611 281V271.2H162.927V281H161.611ZM164.864 281L168.77 271.2H170.534L174.44 281H173.04L171.906 278.116H167.398L166.264 281H164.864ZM167.832 276.982H171.472L169.652 272.348L167.832 276.982ZM186.128 279.838C185.47 280.72 184.42 281.28 183.104 281.28C180.724 281.28 179.254 279.53 179.254 277.472C179.254 275.33 180.626 273.664 182.81 273.664C184.728 273.664 185.974 275.008 185.974 276.744C185.974 277.024 185.932 277.29 185.89 277.486H180.472C180.514 279.18 181.592 280.202 183.104 280.202C184.014 280.202 184.784 279.782 185.246 279.152L186.128 279.838ZM182.782 274.672C181.62 274.672 180.808 275.358 180.556 276.576H184.784C184.742 275.54 184.028 274.672 182.782 274.672ZM188.355 278.634V275.022H187.025V273.944H188.355V272.18H189.559V273.944H192.009V275.022H189.559V278.634C189.559 279.74 190.119 280.048 190.973 280.048C191.435 280.048 191.757 279.992 192.023 279.88V280.944C191.687 281.084 191.309 281.14 190.805 281.14C189.237 281.14 188.355 280.356 188.355 278.634ZM197.602 281V270.5H198.792V281H197.602ZM207.579 279.838C206.921 280.72 205.871 281.28 204.555 281.28C202.175 281.28 200.705 279.53 200.705 277.472C200.705 275.33 202.077 273.664 204.261 273.664C206.179 273.664 207.425 275.008 207.425 276.744C207.425 277.024 207.383 277.29 207.341 277.486H201.923C201.965 279.18 203.043 280.202 204.555 280.202C205.465 280.202 206.235 279.782 206.697 279.152L207.579 279.838ZM204.233 274.672C203.071 274.672 202.259 275.358 202.007 276.576H206.235C206.193 275.54 205.479 274.672 204.233 274.672ZM214.246 277.976V273.944H215.436V277.934C215.436 280.048 214.218 281.28 212.3 281.28C210.396 281.28 209.178 280.048 209.178 277.934V273.944H210.368V277.976C210.368 279.362 211.11 280.16 212.314 280.16C213.49 280.16 214.246 279.362 214.246 277.976ZM217.781 281V273.944H218.971V274.826C219.489 274.21 220.133 273.804 221.029 273.804C221.253 273.804 221.463 273.832 221.631 273.888V275.05C221.421 274.994 221.211 274.966 220.931 274.966C220.007 274.966 219.405 275.442 218.971 276.156V281H217.781ZM222.59 280.034L223.43 279.32C223.92 279.936 224.508 280.286 225.222 280.286C226.006 280.286 226.454 279.81 226.454 279.194C226.454 277.612 222.926 278.172 222.926 275.68C222.926 274.574 223.864 273.664 225.222 273.664C226.23 273.664 227.098 274.14 227.588 274.826L226.762 275.526C226.384 274.994 225.852 274.658 225.236 274.658C224.48 274.658 224.074 275.106 224.074 275.652C224.074 277.234 227.616 276.73 227.616 279.138C227.602 280.454 226.552 281.28 225.236 281.28C224.116 281.28 223.234 280.832 222.59 280.034ZM236.574 280.16C237.442 280.16 238.156 279.74 238.59 279.124L239.528 279.838C238.87 280.72 237.848 281.28 236.56 281.28C234.222 281.28 232.724 279.53 232.724 277.472C232.724 275.414 234.222 273.664 236.56 273.664C237.834 273.664 238.87 274.238 239.528 275.106L238.59 275.82C238.156 275.204 237.442 274.784 236.56 274.784C235.048 274.784 233.97 275.974 233.97 277.472C233.97 278.984 235.048 280.16 236.574 280.16ZM242.983 281.196C241.597 281.196 240.659 280.426 240.659 279.222C240.659 278.158 241.471 277.402 242.969 277.15L245.349 276.758V276.268C245.349 275.288 244.649 274.728 243.641 274.728C242.829 274.728 242.171 275.106 241.737 275.708L240.841 275.022C241.457 274.182 242.451 273.664 243.683 273.664C245.475 273.664 246.539 274.714 246.539 276.268V281H245.349V280.104C244.817 280.79 243.893 281.196 242.983 281.196ZM241.863 279.18C241.863 279.782 242.353 280.216 243.179 280.216C244.117 280.216 244.887 279.768 245.349 279.012V277.626L243.263 277.976C242.297 278.144 241.863 278.578 241.863 279.18ZM248.926 281V273.944H250.116V274.826C250.634 274.21 251.278 273.804 252.174 273.804C252.398 273.804 252.608 273.832 252.776 273.888V275.05C252.566 274.994 252.356 274.966 252.076 274.966C251.152 274.966 250.55 275.442 250.116 276.156V281H248.926ZM256.094 281.196C254.708 281.196 253.77 280.426 253.77 279.222C253.77 278.158 254.582 277.402 256.08 277.15L258.46 276.758V276.268C258.46 275.288 257.76 274.728 256.752 274.728C255.94 274.728 255.282 275.106 254.848 275.708L253.952 275.022C254.568 274.182 255.562 273.664 256.794 273.664C258.586 273.664 259.65 274.714 259.65 276.268V281H258.46V280.104C257.928 280.79 257.004 281.196 256.094 281.196ZM254.974 279.18C254.974 279.782 255.464 280.216 256.29 280.216C257.228 280.216 257.998 279.768 258.46 279.012V277.626L256.374 277.976C255.408 278.144 254.974 278.578 254.974 279.18ZM265.285 280.16C266.153 280.16 266.867 279.74 267.301 279.124L268.239 279.838C267.581 280.72 266.559 281.28 265.271 281.28C262.933 281.28 261.435 279.53 261.435 277.472C261.435 275.414 262.933 273.664 265.271 273.664C266.545 273.664 267.581 274.238 268.239 275.106L267.301 275.82C266.867 275.204 266.153 274.784 265.271 274.784C263.759 274.784 262.681 275.974 262.681 277.472C262.681 278.984 263.759 280.16 265.285 280.16ZM270.25 278.634V275.022H268.92V273.944H270.25V272.18H271.454V273.944H273.904V275.022H271.454V278.634C271.454 279.74 272.014 280.048 272.868 280.048C273.33 280.048 273.652 279.992 273.918 279.88V280.944C273.582 281.084 273.204 281.14 272.7 281.14C271.132 281.14 270.25 280.356 270.25 278.634ZM279.17 272.824H278.008L279.464 270.5H280.808L279.17 272.824ZM281.858 279.838C281.2 280.72 280.15 281.28 278.834 281.28C276.454 281.28 274.984 279.53 274.984 277.472C274.984 275.33 276.356 273.664 278.54 273.664C280.458 273.664 281.704 275.008 281.704 276.744C281.704 277.024 281.662 277.29 281.62 277.486H276.202C276.244 279.18 277.322 280.202 278.834 280.202C279.744 280.202 280.514 279.782 280.976 279.152L281.858 279.838ZM278.512 274.672C277.35 274.672 276.538 275.358 276.286 276.576H280.514C280.472 275.54 279.758 274.672 278.512 274.672ZM283.721 281V273.944H284.911V274.826C285.429 274.21 286.073 273.804 286.969 273.804C287.193 273.804 287.403 273.832 287.571 273.888V275.05C287.361 274.994 287.151 274.966 286.871 274.966C285.947 274.966 285.345 275.442 284.911 276.156V281H283.721ZM289.887 272.11C289.425 272.11 289.047 271.732 289.047 271.27C289.047 270.822 289.425 270.444 289.887 270.444C290.349 270.444 290.713 270.822 290.713 271.27C290.713 271.732 290.349 272.11 289.887 272.11ZM289.285 281V273.944H290.475V281H289.285ZM292.18 280.034L293.02 279.32C293.51 279.936 294.098 280.286 294.812 280.286C295.596 280.286 296.044 279.81 296.044 279.194C296.044 277.612 292.516 278.172 292.516 275.68C292.516 274.574 293.454 273.664 294.812 273.664C295.82 273.664 296.688 274.14 297.178 274.826L296.352 275.526C295.974 274.994 295.442 274.658 294.826 274.658C294.07 274.658 293.664 275.106 293.664 275.652C293.664 277.234 297.206 276.73 297.206 279.138C297.192 280.454 296.142 281.28 294.826 281.28C293.706 281.28 292.824 280.832 292.18 280.034ZM299.604 278.634V275.022H298.274V273.944H299.604V272.18H300.808V273.944H303.258V275.022H300.808V278.634C300.808 279.74 301.368 280.048 302.222 280.048C302.684 280.048 303.006 279.992 303.272 279.88V280.944C302.936 281.084 302.558 281.14 302.053 281.14C300.486 281.14 299.604 280.356 299.604 278.634ZM305.678 272.11C305.216 272.11 304.838 271.732 304.838 271.27C304.838 270.822 305.216 270.444 305.678 270.444C306.14 270.444 306.504 270.822 306.504 271.27C306.504 271.732 306.14 272.11 305.678 272.11ZM305.076 281V273.944H306.266V281H305.076ZM308.179 277.472C308.179 275.414 309.593 273.664 311.805 273.664C312.855 273.664 313.681 274.07 314.311 274.798V273.944H315.501V284.444H314.311V280.146C313.681 280.874 312.855 281.28 311.805 281.28C309.593 281.28 308.179 279.53 308.179 277.472ZM309.425 277.472C309.425 278.97 310.447 280.16 311.931 280.16C312.925 280.16 313.779 279.684 314.311 278.844V276.1C313.765 275.246 312.911 274.784 311.931 274.784C310.447 274.784 309.425 275.974 309.425 277.472ZM322.938 277.976V273.944H324.128V277.934C324.128 280.048 322.91 281.28 320.992 281.28C319.088 281.28 317.87 280.048 317.87 277.934V273.944H319.06V277.976C319.06 279.362 319.802 280.16 321.006 280.16C322.182 280.16 322.938 279.362 322.938 277.976ZM332.745 279.838C332.087 280.72 331.037 281.28 329.721 281.28C327.341 281.28 325.871 279.53 325.871 277.472C325.871 275.33 327.243 273.664 329.427 273.664C331.345 273.664 332.591 275.008 332.591 276.744C332.591 277.024 332.549 277.29 332.507 277.486H327.089C327.131 279.18 328.209 280.202 329.721 280.202C330.631 280.202 331.401 279.782 331.863 279.152L332.745 279.838ZM329.399 274.672C328.237 274.672 327.425 275.358 327.173 276.576H331.401C331.359 275.54 330.645 274.672 329.399 274.672ZM333.797 280.034L334.637 279.32C335.127 279.936 335.715 280.286 336.429 280.286C337.213 280.286 337.661 279.81 337.661 279.194C337.661 277.612 334.133 278.172 334.133 275.68C334.133 274.574 335.071 273.664 336.429 273.664C337.437 273.664 338.305 274.14 338.795 274.826L337.969 275.526C337.591 274.994 337.059 274.658 336.443 274.658C335.687 274.658 335.281 275.106 335.281 275.652C335.281 277.234 338.823 276.73 338.823 279.138C338.809 280.454 337.759 281.28 336.443 281.28C335.323 281.28 334.441 280.832 333.797 280.034Z" fill="#666666"/>
<path d="M6 26.5C7.97844 155.842 219.429 65.1375 258 111.5C296.571 157.862 72.7399 162.165 106 229" stroke="black"/>
<circle cx="5.5" cy="23.5" r="5.5" fill="#6A6AF4"/>
<circle cx="258.5" cy="112.5" r="5.5" fill="#6A6AF4"/>
<circle cx="105.5" cy="230.5" r="5.5" fill="#6A6AF4"/>
</svg>
