<svg width="513" height="280" viewBox="0 0 513 280" fill="none" xmlns="http://www.w3.org/2000/svg">
<path d="M43.608 12.956C43.608 15.746 42.312 17.132 39.684 17.132C39.27 17.132 38.928 17.132 38.676 17.06V14.81C38.856 14.846 39.072 14.864 39.324 14.864C40.458 14.864 41.052 14.378 41.052 13.082V1.4H43.608V12.956ZM55.0657 12.524C54.2197 13.658 52.8157 14.36 51.1057 14.36C47.8837 14.36 46.0657 12.11 46.0657 9.464C46.0657 6.782 47.7577 4.568 50.7277 4.568C53.2477 4.568 54.9037 6.278 54.9037 8.654C54.9037 9.158 54.8317 9.626 54.7597 9.932H48.4057C48.6217 11.624 49.6657 12.308 51.0877 12.308C52.0777 12.308 52.9417 11.876 53.4277 11.228L55.0657 12.524ZM50.6737 6.44C49.5037 6.44 48.7297 7.088 48.4777 8.276H52.6537C52.6177 7.358 51.9517 6.44 50.6737 6.44ZM61.3411 9.464C61.3411 6.818 63.0871 4.568 65.9491 4.568C67.1731 4.568 68.0551 4.946 68.7571 5.648V0.499999H71.0611V14H68.7571V13.28C68.0551 13.982 67.1731 14.36 65.9491 14.36C63.0871 14.36 61.3411 12.11 61.3411 9.464ZM63.7351 9.464C63.7351 11.048 64.7251 12.2 66.2731 12.2C67.2991 12.2 68.1451 11.768 68.7571 10.94V7.988C68.1451 7.16 67.2991 6.728 66.2731 6.728C64.7251 6.728 63.7351 7.88 63.7351 9.464ZM74.9536 3.344C74.1436 3.344 73.4596 2.66 73.4596 1.85C73.4596 1.04 74.1436 0.356 74.9536 0.356C75.7636 0.356 76.4296 1.04 76.4296 1.85C76.4296 2.66 75.7636 3.344 74.9536 3.344ZM73.8016 14V4.928H76.0876V14H73.8016ZM77.9139 12.686L79.4259 11.318C79.9839 12.02 80.6499 12.524 81.5139 12.524C82.2519 12.524 82.6299 12.092 82.6299 11.552C82.6299 9.968 78.2919 10.562 78.2919 7.376C78.2919 5.774 79.6419 4.568 81.5319 4.568C82.9179 4.568 84.1779 5.234 84.8259 6.116L83.3139 7.448C82.8459 6.872 82.2519 6.404 81.5499 6.404C80.8299 6.404 80.4879 6.8 80.4879 7.268C80.4879 8.816 84.8259 8.276 84.8259 11.408C84.7899 13.316 83.2599 14.36 81.5499 14.36C79.9299 14.36 78.7779 13.712 77.9139 12.686ZM91.2533 12.2C92.1533 12.2 92.8733 11.786 93.3053 11.156L95.0873 12.524C94.2413 13.64 92.9093 14.36 91.2533 14.36C88.1213 14.36 86.2493 12.11 86.2493 9.464C86.2493 6.818 88.1213 4.568 91.2533 4.568C92.9093 4.568 94.2413 5.288 95.0873 6.404L93.3053 7.772C92.8733 7.142 92.1533 6.728 91.2173 6.728C89.7233 6.728 88.6253 7.88 88.6253 9.464C88.6253 11.066 89.7233 12.2 91.2533 12.2ZM102.77 10.076V4.928H105.074V9.968C105.074 12.686 103.49 14.36 100.826 14.36C98.1618 14.36 96.5958 12.686 96.5958 9.968V4.928H98.8998V10.076C98.8998 11.39 99.5838 12.2 100.844 12.2C102.086 12.2 102.77 11.39 102.77 10.076ZM108.321 10.688V6.98H106.629V4.928H108.321V2.66H110.625V4.928H113.397V6.98H110.625V10.688C110.625 11.696 111.165 12.092 112.065 12.092C112.695 12.092 113.109 12.02 113.415 11.894V13.892C112.965 14.09 112.425 14.18 111.669 14.18C109.401 14.18 108.321 12.902 108.321 10.688ZM123.62 12.524C122.774 13.658 121.37 14.36 119.66 14.36C116.438 14.36 114.62 12.11 114.62 9.464C114.62 6.782 116.312 4.568 119.282 4.568C121.802 4.568 123.458 6.278 123.458 8.654C123.458 9.158 123.386 9.626 123.314 9.932H116.96C117.176 11.624 118.22 12.308 119.642 12.308C120.632 12.308 121.496 11.876 121.982 11.228L123.62 12.524ZM119.228 6.44C118.058 6.44 117.284 7.088 117.032 8.276H121.208C121.172 7.358 120.506 6.44 119.228 6.44ZM133.1 14.27C131.282 14.27 130.04 13.226 130.04 11.552C130.04 10.184 131.102 9.158 133.046 8.834L135.818 8.366V8.132C135.818 7.178 135.098 6.566 134.054 6.566C133.172 6.566 132.488 6.98 132.002 7.646L130.328 6.368C131.138 5.252 132.47 4.568 134.126 4.568C136.754 4.568 138.104 6.134 138.104 8.132V14H135.818V13.118C135.242 13.82 134.162 14.27 133.1 14.27ZM132.308 11.444C132.308 12.056 132.794 12.452 133.568 12.452C134.612 12.452 135.368 11.966 135.818 11.246V9.968L133.658 10.328C132.704 10.49 132.308 10.886 132.308 11.444ZM139.338 4.928H141.786L144.144 11.408L146.484 4.928H148.95L145.638 14H142.632L139.338 4.928ZM158.636 12.524C157.79 13.658 156.386 14.36 154.676 14.36C151.454 14.36 149.636 12.11 149.636 9.464C149.636 6.782 151.328 4.568 154.298 4.568C156.818 4.568 158.474 6.278 158.474 8.654C158.474 9.158 158.402 9.626 158.33 9.932H151.976C152.192 11.624 153.236 12.308 154.658 12.308C155.648 12.308 156.512 11.876 156.998 11.228L158.636 12.524ZM154.244 6.44C153.074 6.44 152.3 7.088 152.048 8.276H156.224C156.188 7.358 155.522 6.44 154.244 6.44ZM164.994 12.2C165.894 12.2 166.614 11.786 167.046 11.156L168.828 12.524C167.982 13.64 166.65 14.36 164.994 14.36C161.862 14.36 159.99 12.11 159.99 9.464C159.99 6.818 161.862 4.568 164.994 4.568C166.65 4.568 167.982 5.288 168.828 6.404L167.046 7.772C166.614 7.142 165.894 6.728 164.958 6.728C163.464 6.728 162.366 7.88 162.366 9.464C162.366 11.066 163.464 12.2 164.994 12.2ZM174.738 9.464C174.738 6.818 176.484 4.568 179.346 4.568C180.57 4.568 181.452 4.946 182.154 5.648V0.499999H184.458V14H182.154V13.28C181.452 13.982 180.57 14.36 179.346 14.36C176.484 14.36 174.738 12.11 174.738 9.464ZM177.132 9.464C177.132 11.048 178.122 12.2 179.67 12.2C180.696 12.2 181.542 11.768 182.154 10.94V7.988C181.542 7.16 180.696 6.728 179.67 6.728C178.122 6.728 177.132 7.88 177.132 9.464ZM195.55 12.524C194.704 13.658 193.3 14.36 191.59 14.36C188.368 14.36 186.55 12.11 186.55 9.464C186.55 6.782 188.242 4.568 191.212 4.568C193.732 4.568 195.388 6.278 195.388 8.654C195.388 9.158 195.316 9.626 195.244 9.932H188.89C189.106 11.624 190.15 12.308 191.572 12.308C192.562 12.308 193.426 11.876 193.912 11.228L195.55 12.524ZM191.158 6.44C189.988 6.44 189.214 7.088 188.962 8.276H193.138C193.102 7.358 192.436 6.44 191.158 6.44ZM203.492 10.076V4.928H205.796V9.968C205.796 12.686 204.212 14.36 201.548 14.36C198.884 14.36 197.318 12.686 197.318 9.968V4.928H199.622V10.076C199.622 11.39 200.306 12.2 201.566 12.2C202.808 12.2 203.492 11.39 203.492 10.076ZM209.701 14H207.073L210.277 9.338L207.253 4.928H209.863L211.735 7.718L213.607 4.928H216.235L213.193 9.338L216.397 14H213.787L211.735 10.958L209.701 14ZM223.473 14V1.4H226.029V14H223.473ZM228.147 14L232.917 1.4H236.265L241.035 14H238.317L237.111 10.724H232.071L230.865 14H228.147ZM232.863 8.546H236.319L234.591 3.812L232.863 8.546ZM250.082 14.27C248.264 14.27 247.022 13.226 247.022 11.552C247.022 10.184 248.084 9.158 250.028 8.834L252.8 8.366V8.132C252.8 7.178 252.08 6.566 251.036 6.566C250.154 6.566 249.47 6.98 248.984 7.646L247.31 6.368C248.12 5.252 249.452 4.568 251.108 4.568C253.736 4.568 255.086 6.134 255.086 8.132V14H252.8V13.118C252.224 13.82 251.144 14.27 250.082 14.27ZM249.29 11.444C249.29 12.056 249.776 12.452 250.55 12.452C251.594 12.452 252.35 11.966 252.8 11.246V9.968L250.64 10.328C249.686 10.49 249.29 10.886 249.29 11.444ZM257.704 14V4.928H259.99V5.648C260.62 5.036 261.466 4.568 262.672 4.568C264.634 4.568 266.2 5.918 266.2 8.6V14H263.896V8.69C263.896 7.484 263.212 6.728 262.096 6.728C260.944 6.728 260.332 7.502 259.99 8.078V14H257.704ZM273.116 4.568C276.068 4.568 278.084 6.746 278.084 9.464C278.084 12.182 276.068 14.36 273.116 14.36C270.164 14.36 268.148 12.182 268.148 9.464C268.148 6.746 270.164 4.568 273.116 4.568ZM273.152 12.2C274.61 12.2 275.708 11.03 275.708 9.464C275.708 7.88 274.61 6.728 273.152 6.728C271.64 6.728 270.524 7.88 270.524 9.464C270.524 11.048 271.64 12.2 273.152 12.2ZM280.169 14V4.928H282.455V5.648C283.085 5.036 283.931 4.568 285.137 4.568C287.099 4.568 288.665 5.918 288.665 8.6V14H286.361V8.69C286.361 7.484 285.677 6.728 284.561 6.728C283.409 6.728 282.797 7.502 282.455 8.078V14H280.169ZM295.241 16.07C294.611 17.564 293.585 18.5 291.857 18.5C291.155 18.5 290.669 18.392 290.237 18.212V16.196C290.525 16.322 290.957 16.412 291.353 16.412C292.253 16.412 292.811 16.106 293.189 15.188L293.693 13.982L289.877 4.928H292.415L294.899 11.03L297.401 4.928H299.813L295.241 16.07ZM301.245 14V4.928H303.531V5.612C304.143 5.018 304.917 4.568 306.033 4.568C307.185 4.568 308.193 5.072 308.787 6.044C309.435 5.252 310.299 4.568 311.829 4.568C313.701 4.568 315.177 5.864 315.177 8.42V14H312.873V8.51C312.873 7.412 312.279 6.728 311.253 6.728C310.263 6.728 309.723 7.412 309.363 8.024C309.381 8.15 309.381 8.276 309.381 8.42V14H307.077V8.51C307.077 7.412 306.483 6.728 305.457 6.728C304.413 6.728 303.873 7.502 303.531 8.078V14H301.245ZM326.138 12.524C325.292 13.658 323.888 14.36 322.178 14.36C318.956 14.36 317.138 12.11 317.138 9.464C317.138 6.782 318.83 4.568 321.8 4.568C324.32 4.568 325.976 6.278 325.976 8.654C325.976 9.158 325.904 9.626 325.832 9.932H319.478C319.694 11.624 320.738 12.308 322.16 12.308C323.15 12.308 324.014 11.876 324.5 11.228L326.138 12.524ZM321.746 6.44C320.576 6.44 319.802 7.088 319.55 8.276H323.726C323.69 7.358 323.024 6.44 321.746 6.44ZM327.295 12.686L328.807 11.318C329.365 12.02 330.031 12.524 330.895 12.524C331.633 12.524 332.011 12.092 332.011 11.552C332.011 9.968 327.673 10.562 327.673 7.376C327.673 5.774 329.023 4.568 330.913 4.568C332.299 4.568 333.559 5.234 334.207 6.116L332.695 7.448C332.227 6.872 331.633 6.404 330.931 6.404C330.211 6.404 329.869 6.8 329.869 7.268C329.869 8.816 334.207 8.276 334.207 11.408C334.171 13.316 332.641 14.36 330.931 14.36C329.311 14.36 328.159 13.712 327.295 12.686Z" fill="#161616"/>
<path d="M303.608 105.956C303.608 108.746 302.312 110.132 299.684 110.132C299.27 110.132 298.928 110.132 298.676 110.06V107.81C298.856 107.846 299.072 107.864 299.324 107.864C300.458 107.864 301.052 107.378 301.052 106.082V94.4H303.608V105.956ZM315.066 105.524C314.22 106.658 312.816 107.36 311.106 107.36C307.884 107.36 306.066 105.11 306.066 102.464C306.066 99.782 307.758 97.568 310.728 97.568C313.248 97.568 314.904 99.278 314.904 101.654C314.904 102.158 314.832 102.626 314.76 102.932H308.406C308.622 104.624 309.666 105.308 311.088 105.308C312.078 105.308 312.942 104.876 313.428 104.228L315.066 105.524ZM310.674 99.44C309.504 99.44 308.73 100.088 308.478 101.276H312.654C312.618 100.358 311.952 99.44 310.674 99.44ZM321.341 102.464C321.341 99.818 323.087 97.568 325.949 97.568C327.173 97.568 328.055 97.946 328.757 98.648V93.5H331.061V107H328.757V106.28C328.055 106.982 327.173 107.36 325.949 107.36C323.087 107.36 321.341 105.11 321.341 102.464ZM323.735 102.464C323.735 104.048 324.725 105.2 326.273 105.2C327.299 105.2 328.145 104.768 328.757 103.94V100.988C328.145 100.16 327.299 99.728 326.273 99.728C324.725 99.728 323.735 100.88 323.735 102.464ZM338.122 97.568C341.074 97.568 343.09 99.746 343.09 102.464C343.09 105.182 341.074 107.36 338.122 107.36C335.17 107.36 333.154 105.182 333.154 102.464C333.154 99.746 335.17 97.568 338.122 97.568ZM338.158 105.2C339.616 105.2 340.714 104.03 340.714 102.464C340.714 100.88 339.616 99.728 338.158 99.728C336.646 99.728 335.53 100.88 335.53 102.464C335.53 104.048 336.646 105.2 338.158 105.2ZM345.175 107V97.928H347.461V98.648C348.091 98.036 348.937 97.568 350.143 97.568C352.105 97.568 353.671 98.918 353.671 101.6V107H351.367V101.69C351.367 100.484 350.683 99.728 349.567 99.728C348.415 99.728 347.803 100.502 347.461 101.078V107H345.175ZM356.266 107V97.928H358.552V98.648C359.182 98.036 360.028 97.568 361.234 97.568C363.196 97.568 364.762 98.918 364.762 101.6V107H362.458V101.69C362.458 100.484 361.774 99.728 360.658 99.728C359.506 99.728 358.894 100.502 358.552 101.078V107H356.266ZM375.71 105.524C374.864 106.658 373.46 107.36 371.75 107.36C368.528 107.36 366.71 105.11 366.71 102.464C366.71 99.782 368.402 97.568 371.372 97.568C373.892 97.568 375.548 99.278 375.548 101.654C375.548 102.158 375.476 102.626 375.404 102.932H369.05C369.266 104.624 370.31 105.308 371.732 105.308C372.722 105.308 373.586 104.876 374.072 104.228L375.71 105.524ZM371.318 99.44C370.148 99.44 369.374 100.088 369.122 101.276H373.298C373.262 100.358 372.596 99.44 371.318 99.44ZM382.634 107V97.928H384.92V98.612C385.532 98.018 386.306 97.568 387.422 97.568C388.574 97.568 389.582 98.072 390.176 99.044C390.824 98.252 391.688 97.568 393.218 97.568C395.09 97.568 396.566 98.864 396.566 101.42V107H394.262V101.51C394.262 100.412 393.668 99.728 392.642 99.728C391.652 99.728 391.112 100.412 390.752 101.024C390.77 101.15 390.77 101.276 390.77 101.42V107H388.466V101.51C388.466 100.412 387.872 99.728 386.846 99.728C385.802 99.728 385.262 100.502 384.92 101.078V107H382.634ZM403.495 97.568C406.447 97.568 408.463 99.746 408.463 102.464C408.463 105.182 406.447 107.36 403.495 107.36C400.543 107.36 398.527 105.182 398.527 102.464C398.527 99.746 400.543 97.568 403.495 97.568ZM403.531 105.2C404.989 105.2 406.087 104.03 406.087 102.464C406.087 100.88 404.989 99.728 403.531 99.728C402.019 99.728 400.903 100.88 400.903 102.464C400.903 104.048 402.019 105.2 403.531 105.2ZM410.548 107V97.928H412.834V98.648C413.464 98.036 414.31 97.568 415.516 97.568C417.478 97.568 419.044 98.918 419.044 101.6V107H416.74V101.69C416.74 100.484 416.056 99.728 414.94 99.728C413.788 99.728 413.176 100.502 412.834 101.078V107H410.548ZM429.047 107.27C427.229 107.27 425.987 106.226 425.987 104.552C425.987 103.184 427.049 102.158 428.993 101.834L431.765 101.366V101.132C431.765 100.178 431.045 99.566 430.001 99.566C429.119 99.566 428.435 99.98 427.949 100.646L426.275 99.368C427.085 98.252 428.417 97.568 430.073 97.568C432.701 97.568 434.051 99.134 434.051 101.132V107H431.765V106.118C431.189 106.82 430.109 107.27 429.047 107.27ZM428.255 104.444C428.255 105.056 428.741 105.452 429.515 105.452C430.559 105.452 431.315 104.966 431.765 104.246V102.968L429.605 103.328C428.651 103.49 428.255 103.886 428.255 104.444ZM435.285 97.928H437.733L440.091 104.408L442.431 97.928H444.897L441.585 107H438.579L435.285 97.928ZM447.489 96.344C446.679 96.344 445.995 95.66 445.995 94.85C445.995 94.04 446.679 93.356 447.489 93.356C448.299 93.356 448.965 94.04 448.965 94.85C448.965 95.66 448.299 96.344 447.489 96.344ZM446.337 107V97.928H448.623V107H446.337ZM450.449 105.686L451.961 104.318C452.519 105.02 453.185 105.524 454.049 105.524C454.787 105.524 455.165 105.092 455.165 104.552C455.165 102.968 450.827 103.562 450.827 100.376C450.827 98.774 452.177 97.568 454.067 97.568C455.453 97.568 456.713 98.234 457.361 99.116L455.849 100.448C455.381 99.872 454.787 99.404 454.085 99.404C453.365 99.404 453.023 99.8 453.023 100.268C453.023 101.816 457.361 101.276 457.361 104.408C457.325 106.316 455.795 107.36 454.085 107.36C452.465 107.36 451.313 106.712 450.449 105.686Z" fill="#161616"/>
<path d="M148.854 228V215.4H151.41V225.678H156.198V228H148.854ZM166.546 226.524C165.7 227.658 164.296 228.36 162.586 228.36C159.364 228.36 157.546 226.11 157.546 223.464C157.546 220.782 159.238 218.568 162.208 218.568C164.728 218.568 166.384 220.278 166.384 222.654C166.384 223.158 166.312 223.626 166.24 223.932H159.886C160.102 225.624 161.146 226.308 162.568 226.308C163.558 226.308 164.422 225.876 164.908 225.228L166.546 226.524ZM162.154 220.44C160.984 220.44 160.21 221.088 159.958 222.276H164.134C164.098 221.358 163.432 220.44 162.154 220.44ZM167.703 226.686L169.215 225.318C169.773 226.02 170.439 226.524 171.303 226.524C172.041 226.524 172.419 226.092 172.419 225.552C172.419 223.968 168.081 224.562 168.081 221.376C168.081 219.774 169.431 218.568 171.321 218.568C172.707 218.568 173.967 219.234 174.615 220.116L173.103 221.448C172.635 220.872 172.041 220.404 171.339 220.404C170.619 220.404 170.277 220.8 170.277 221.268C170.277 222.816 174.615 222.276 174.615 225.408C174.579 227.316 173.049 228.36 171.339 228.36C169.719 228.36 168.567 227.712 167.703 226.686ZM181.573 228V218.928H183.859V219.612C184.471 219.018 185.245 218.568 186.361 218.568C187.513 218.568 188.521 219.072 189.115 220.044C189.763 219.252 190.627 218.568 192.157 218.568C194.029 218.568 195.505 219.864 195.505 222.42V228H193.201V222.51C193.201 221.412 192.607 220.728 191.581 220.728C190.591 220.728 190.051 221.412 189.691 222.024C189.709 222.15 189.709 222.276 189.709 222.42V228H187.405V222.51C187.405 221.412 186.811 220.728 185.785 220.728C184.741 220.728 184.201 221.502 183.859 222.078V228H181.573ZM202.434 218.568C205.386 218.568 207.402 220.746 207.402 223.464C207.402 226.182 205.386 228.36 202.434 228.36C199.482 228.36 197.466 226.182 197.466 223.464C197.466 220.746 199.482 218.568 202.434 218.568ZM202.47 226.2C203.928 226.2 205.026 225.03 205.026 223.464C205.026 221.88 203.928 220.728 202.47 220.728C200.958 220.728 199.842 221.88 199.842 223.464C199.842 225.048 200.958 226.2 202.47 226.2ZM208.927 223.464C208.927 220.818 210.673 218.568 213.535 218.568C214.759 218.568 215.641 218.946 216.343 219.648V214.5H218.647V228H216.343V227.28C215.641 227.982 214.759 228.36 213.535 228.36C210.673 228.36 208.927 226.11 208.927 223.464ZM211.321 223.464C211.321 225.048 212.311 226.2 213.859 226.2C214.885 226.2 215.731 225.768 216.343 224.94V221.988C215.731 221.16 214.885 220.728 213.859 220.728C212.311 220.728 211.321 221.88 211.321 223.464ZM224.286 217.488L222.126 214.5H224.61L226.464 217.488H224.286ZM229.74 226.524C228.894 227.658 227.49 228.36 225.78 228.36C222.558 228.36 220.74 226.11 220.74 223.464C220.74 220.782 222.432 218.568 225.402 218.568C227.922 218.568 229.578 220.278 229.578 222.654C229.578 223.158 229.506 223.626 229.434 223.932H223.08C223.296 225.624 224.34 226.308 225.762 226.308C226.752 226.308 227.616 225.876 228.102 225.228L229.74 226.524ZM225.348 220.44C224.178 220.44 223.404 221.088 223.152 222.276H227.328C227.292 221.358 226.626 220.44 225.348 220.44ZM231.811 228V214.5H234.097V228H231.811ZM245.191 226.524C244.345 227.658 242.941 228.36 241.231 228.36C238.009 228.36 236.191 226.11 236.191 223.464C236.191 220.782 237.883 218.568 240.853 218.568C243.373 218.568 245.029 220.278 245.029 222.654C245.029 223.158 244.957 223.626 244.885 223.932H238.531C238.747 225.624 239.791 226.308 241.213 226.308C242.203 226.308 243.067 225.876 243.553 225.228L245.191 226.524ZM240.799 220.44C239.629 220.44 238.855 221.088 238.603 222.276H242.779C242.743 221.358 242.077 220.44 240.799 220.44ZM246.347 226.686L247.859 225.318C248.417 226.02 249.083 226.524 249.947 226.524C250.685 226.524 251.063 226.092 251.063 225.552C251.063 223.968 246.725 224.562 246.725 221.376C246.725 219.774 248.075 218.568 249.965 218.568C251.351 218.568 252.611 219.234 253.259 220.116L251.747 221.448C251.279 220.872 250.685 220.404 249.983 220.404C249.263 220.404 248.921 220.8 248.921 221.268C248.921 222.816 253.259 222.276 253.259 225.408C253.223 227.316 251.693 228.36 249.983 228.36C248.363 228.36 247.211 227.712 246.347 226.686ZM259.426 226.686L260.938 225.318C261.496 226.02 262.162 226.524 263.026 226.524C263.764 226.524 264.142 226.092 264.142 225.552C264.142 223.968 259.804 224.562 259.804 221.376C259.804 219.774 261.154 218.568 263.044 218.568C264.43 218.568 265.69 219.234 266.338 220.116L264.826 221.448C264.358 220.872 263.764 220.404 263.062 220.404C262.342 220.404 262 220.8 262 221.268C262 222.816 266.338 222.276 266.338 225.408C266.302 227.316 264.772 228.36 263.062 228.36C261.442 228.36 260.29 227.712 259.426 226.686ZM272.729 218.568C275.681 218.568 277.697 220.746 277.697 223.464C277.697 226.182 275.681 228.36 272.729 228.36C269.777 228.36 267.761 226.182 267.761 223.464C267.761 220.746 269.777 218.568 272.729 218.568ZM272.765 226.2C274.223 226.2 275.321 225.03 275.321 223.464C275.321 221.88 274.223 220.728 272.765 220.728C271.253 220.728 270.137 221.88 270.137 223.464C270.137 225.048 271.253 226.2 272.765 226.2ZM279.782 228V218.928H282.068V219.648C282.698 219.036 283.544 218.568 284.75 218.568C286.712 218.568 288.278 219.918 288.278 222.6V228H285.974V222.69C285.974 221.484 285.29 220.728 284.174 220.728C283.022 220.728 282.41 221.502 282.068 222.078V228H279.782ZM291.45 224.688V220.98H289.758V218.928H291.45V216.66H293.754V218.928H296.526V220.98H293.754V224.688C293.754 225.696 294.294 226.092 295.194 226.092C295.824 226.092 296.238 226.02 296.544 225.894V227.892C296.094 228.09 295.554 228.18 294.798 228.18C292.53 228.18 291.45 226.902 291.45 224.688ZM302.777 223.464C302.777 220.818 304.523 218.568 307.385 218.568C308.609 218.568 309.491 218.946 310.193 219.648V214.5H312.497V228H310.193V227.28C309.491 227.982 308.609 228.36 307.385 228.36C304.523 228.36 302.777 226.11 302.777 223.464ZM305.171 223.464C305.171 225.048 306.161 226.2 307.709 226.2C308.735 226.2 309.581 225.768 310.193 224.94V221.988C309.581 221.16 308.735 220.728 307.709 220.728C306.161 220.728 305.171 221.88 305.171 223.464ZM320.511 217.488H318.315L320.187 214.5H322.671L320.511 217.488ZM323.589 226.524C322.743 227.658 321.339 228.36 319.629 228.36C316.407 228.36 314.589 226.11 314.589 223.464C314.589 220.782 316.281 218.568 319.251 218.568C321.771 218.568 323.427 220.278 323.427 222.654C323.427 223.158 323.355 223.626 323.283 223.932H316.929C317.145 225.624 318.189 226.308 319.611 226.308C320.601 226.308 321.465 225.876 321.951 225.228L323.589 226.524ZM319.197 220.44C318.027 220.44 317.253 221.088 317.001 222.276H321.177C321.141 221.358 320.475 220.44 319.197 220.44ZM325.661 228V218.928H327.947V219.612C328.559 219.018 329.333 218.568 330.449 218.568C331.601 218.568 332.609 219.072 333.203 220.044C333.851 219.252 334.715 218.568 336.245 218.568C338.117 218.568 339.593 219.864 339.593 222.42V228H337.289V222.51C337.289 221.412 336.695 220.728 335.669 220.728C334.679 220.728 334.139 221.412 333.779 222.024C333.797 222.15 333.797 222.276 333.797 222.42V228H331.493V222.51C331.493 221.412 330.899 220.728 329.873 220.728C328.829 220.728 328.289 221.502 327.947 222.078V228H325.661ZM344.758 228.27C342.94 228.27 341.698 227.226 341.698 225.552C341.698 224.184 342.76 223.158 344.704 222.834L347.476 222.366V222.132C347.476 221.178 346.756 220.566 345.712 220.566C344.83 220.566 344.146 220.98 343.66 221.646L341.986 220.368C342.796 219.252 344.128 218.568 345.784 218.568C348.412 218.568 349.762 220.134 349.762 222.132V228H347.476V227.118C346.9 227.82 345.82 228.27 344.758 228.27ZM343.966 225.444C343.966 226.056 344.452 226.452 345.226 226.452C346.27 226.452 347.026 225.966 347.476 225.246V223.968L345.316 224.328C344.362 224.49 343.966 224.886 343.966 225.444ZM351.588 226.686L353.1 225.318C353.658 226.02 354.324 226.524 355.188 226.524C355.926 226.524 356.304 226.092 356.304 225.552C356.304 223.968 351.966 224.562 351.966 221.376C351.966 219.774 353.316 218.568 355.206 218.568C356.592 218.568 357.852 219.234 358.5 220.116L356.988 221.448C356.52 220.872 355.926 220.404 355.224 220.404C354.504 220.404 354.162 220.8 354.162 221.268C354.162 222.816 358.5 222.276 358.5 225.408C358.464 227.316 356.934 228.36 355.224 228.36C353.604 228.36 352.452 227.712 351.588 226.686ZM359.923 223.464C359.923 220.818 361.651 218.568 364.531 218.568C365.755 218.568 366.637 218.964 367.339 219.666V218.928H369.643V232.428H367.339V227.262C366.637 227.964 365.755 228.36 364.531 228.36C361.651 228.36 359.923 226.11 359.923 223.464ZM362.299 223.464C362.299 225.048 363.289 226.2 364.837 226.2C365.899 226.2 366.781 225.732 367.339 224.904V222.024C366.727 221.178 365.863 220.728 364.837 220.728C363.289 220.728 362.299 221.88 362.299 223.464ZM378.36 224.076V218.928H380.664V223.968C380.664 226.686 379.08 228.36 376.416 228.36C373.752 228.36 372.186 226.686 372.186 223.968V218.928H374.49V224.076C374.49 225.39 375.174 226.2 376.434 226.2C377.676 226.2 378.36 225.39 378.36 224.076ZM388.468 217.488H386.272L388.144 214.5H390.628L388.468 217.488ZM391.546 226.524C390.7 227.658 389.296 228.36 387.586 228.36C384.364 228.36 382.546 226.11 382.546 223.464C382.546 220.782 384.238 218.568 387.208 218.568C389.728 218.568 391.384 220.278 391.384 222.654C391.384 223.158 391.312 223.626 391.24 223.932H384.886C385.102 225.624 386.146 226.308 387.568 226.308C388.558 226.308 389.422 225.876 389.908 225.228L391.546 226.524ZM387.154 220.44C385.984 220.44 385.21 221.088 384.958 222.276H389.134C389.098 221.358 388.432 220.44 387.154 220.44ZM392.703 226.686L394.215 225.318C394.773 226.02 395.439 226.524 396.303 226.524C397.041 226.524 397.419 226.092 397.419 225.552C397.419 223.968 393.081 224.562 393.081 221.376C393.081 219.774 394.431 218.568 396.321 218.568C397.707 218.568 398.967 219.234 399.615 220.116L398.103 221.448C397.635 220.872 397.041 220.404 396.339 220.404C395.619 220.404 395.277 220.8 395.277 221.268C395.277 222.816 399.615 222.276 399.615 225.408C399.579 227.316 398.049 228.36 396.339 228.36C394.719 228.36 393.567 227.712 392.703 226.686ZM407.329 223.95L406.861 215.4H409.489L409.021 223.95H407.329ZM408.193 228.216C407.329 228.216 406.609 227.496 406.609 226.65C406.609 225.804 407.311 225.084 408.193 225.084C409.039 225.084 409.759 225.804 409.759 226.65C409.759 227.496 409.039 228.216 408.193 228.216Z" fill="#161616"/>
<path d="M43.83 26.36H42.612L44.194 24.47H45.622L43.83 26.36ZM40.554 37V27.2H45.818V28.32H41.87V31.456H45.258V32.562H41.87V35.88H45.818V37H40.554ZM51.26 36.16C52.128 36.16 52.842 35.74 53.276 35.124L54.214 35.838C53.556 36.72 52.534 37.28 51.246 37.28C48.908 37.28 47.41 35.53 47.41 33.472C47.41 31.414 48.908 29.664 51.246 29.664C52.52 29.664 53.556 30.238 54.214 31.106L53.276 31.82C52.842 31.204 52.128 30.784 51.246 30.784C49.734 30.784 48.656 31.974 48.656 33.472C48.656 34.984 49.734 36.16 51.26 36.16ZM55.8459 37V26.5H57.0359V30.742C57.6099 30.112 58.3379 29.664 59.3879 29.664C60.9699 29.664 62.1459 30.728 62.1459 32.73V37H60.9559V32.772C60.9559 31.512 60.2559 30.784 59.1499 30.784C58.1139 30.784 57.4839 31.386 57.0359 32.114V37H55.8459ZM66.4593 37.196C65.0733 37.196 64.1353 36.426 64.1353 35.222C64.1353 34.158 64.9473 33.402 66.4453 33.15L68.8253 32.758V32.268C68.8253 31.288 68.1253 30.728 67.1173 30.728C66.3053 30.728 65.6473 31.106 65.2133 31.708L64.3173 31.022C64.9333 30.182 65.9273 29.664 67.1593 29.664C68.9513 29.664 70.0153 30.714 70.0153 32.268V37H68.8253V36.104C68.2933 36.79 67.3693 37.196 66.4593 37.196ZM65.3392 35.18C65.3392 35.782 65.8293 36.216 66.6553 36.216C67.5933 36.216 68.3633 35.768 68.8253 35.012V33.626L66.7393 33.976C65.7733 34.144 65.3392 34.578 65.3392 35.18ZM72.4026 37V29.944H73.5926V30.742C74.1666 30.112 74.8946 29.664 75.9446 29.664C77.5266 29.664 78.7026 30.728 78.7026 32.73V37H77.5126V32.772C77.5126 31.512 76.7986 30.784 75.7066 30.784C74.6846 30.784 74.0406 31.372 73.5926 32.114V37H72.4026ZM80.2859 38.274C80.2859 37.56 80.6359 36.986 81.3359 36.496C81.0139 36.244 80.8459 35.866 80.8459 35.488C80.8459 34.928 81.1399 34.466 81.6859 34.116C81.0699 33.654 80.7059 32.94 80.7059 32.156C80.7059 30.798 81.7699 29.65 83.4499 29.65C83.9679 29.65 84.4299 29.762 84.8079 29.944H87.4259V30.98H85.8999C86.0959 31.33 86.1939 31.736 86.1939 32.156C86.1939 33.5 85.1439 34.648 83.4499 34.648C83.0999 34.648 82.7639 34.592 82.4699 34.508C82.1759 34.718 82.0079 34.97 82.0079 35.236C82.0079 35.53 82.1619 35.74 82.5959 35.74H84.6119C86.4739 35.74 87.3419 36.65 87.3419 37.91C87.3419 39.394 85.8579 40.5 83.7439 40.5C81.6579 40.5 80.2859 39.688 80.2859 38.274ZM83.4639 33.71C84.4859 33.71 85.0739 33.01 85.0739 32.156C85.0739 31.288 84.4859 30.588 83.4639 30.588C82.4139 30.588 81.8399 31.288 81.8399 32.156C81.8399 33.024 82.4139 33.71 83.4639 33.71ZM81.4479 38.134C81.4479 38.988 82.3299 39.506 83.7299 39.506C85.2139 39.506 86.1519 38.918 86.1519 37.994C86.1519 37.322 85.7739 36.79 84.5139 36.79H82.2319C81.7419 37.154 81.4479 37.574 81.4479 38.134ZM94.8347 35.838C94.1767 36.72 93.1267 37.28 91.8107 37.28C89.4307 37.28 87.9607 35.53 87.9607 33.472C87.9607 31.33 89.3327 29.664 91.5167 29.664C93.4347 29.664 94.6807 31.008 94.6807 32.744C94.6807 33.024 94.6387 33.29 94.5967 33.486H89.1787C89.2207 35.18 90.2987 36.202 91.8107 36.202C92.7207 36.202 93.4907 35.782 93.9527 35.152L94.8347 35.838ZM91.4887 30.672C90.3267 30.672 89.5147 31.358 89.2627 32.576H93.4907C93.4487 31.54 92.7347 30.672 91.4887 30.672ZM96.0688 37V35.922L100.227 31.022H96.1668V29.944H101.683V31.022L97.5108 35.922H101.781V37H96.0688ZM109.403 37.196C108.017 37.196 107.079 36.426 107.079 35.222C107.079 34.158 107.891 33.402 109.389 33.15L111.769 32.758V32.268C111.769 31.288 111.069 30.728 110.061 30.728C109.249 30.728 108.591 31.106 108.157 31.708L107.261 31.022C107.877 30.182 108.871 29.664 110.103 29.664C111.895 29.664 112.959 30.714 112.959 32.268V37H111.769V36.104C111.237 36.79 110.313 37.196 109.403 37.196ZM108.283 35.18C108.283 35.782 108.773 36.216 109.599 36.216C110.537 36.216 111.307 35.768 111.769 35.012V33.626L109.683 33.976C108.717 34.144 108.283 34.578 108.283 35.18ZM120.26 33.976V29.944H121.45V33.934C121.45 36.048 120.232 37.28 118.314 37.28C116.41 37.28 115.192 36.048 115.192 33.934V29.944H116.382V33.976C116.382 35.362 117.124 36.16 118.328 36.16C119.504 36.16 120.26 35.362 120.26 33.976ZM123.012 36.034L123.852 35.32C124.342 35.936 124.93 36.286 125.644 36.286C126.428 36.286 126.876 35.81 126.876 35.194C126.876 33.612 123.348 34.172 123.348 31.68C123.348 30.574 124.286 29.664 125.644 29.664C126.652 29.664 127.52 30.14 128.01 30.826L127.184 31.526C126.806 30.994 126.274 30.658 125.658 30.658C124.902 30.658 124.496 31.106 124.496 31.652C124.496 33.234 128.038 32.73 128.038 35.138C128.024 36.454 126.974 37.28 125.658 37.28C124.538 37.28 123.656 36.832 123.012 36.034ZM129.164 36.034L130.004 35.32C130.494 35.936 131.082 36.286 131.796 36.286C132.58 36.286 133.028 35.81 133.028 35.194C133.028 33.612 129.5 34.172 129.5 31.68C129.5 30.574 130.438 29.664 131.796 29.664C132.804 29.664 133.672 30.14 134.162 30.826L133.336 31.526C132.958 30.994 132.426 30.658 131.81 30.658C131.054 30.658 130.648 31.106 130.648 31.652C130.648 33.234 134.19 32.73 134.19 35.138C134.176 36.454 133.126 37.28 131.81 37.28C130.69 37.28 129.808 36.832 129.164 36.034ZM136.729 28.11C136.267 28.11 135.889 27.732 135.889 27.27C135.889 26.822 136.267 26.444 136.729 26.444C137.191 26.444 137.555 26.822 137.555 27.27C137.555 27.732 137.191 28.11 136.729 28.11ZM136.127 37V29.944H137.317V37H136.127ZM143.606 37V26.5H144.796V37H143.606ZM150.531 29.664C152.799 29.664 154.353 31.414 154.353 33.472C154.353 35.53 152.799 37.28 150.531 37.28C148.249 37.28 146.709 35.53 146.709 33.472C146.709 31.414 148.249 29.664 150.531 29.664ZM150.545 36.16C152.015 36.16 153.093 34.928 153.093 33.472C153.093 32.002 152.015 30.784 150.545 30.784C149.033 30.784 147.955 32.002 147.955 33.472C147.955 34.942 149.033 36.16 150.545 36.16ZM156.266 37V29.944H157.456V30.742C158.03 30.112 158.758 29.664 159.808 29.664C161.39 29.664 162.566 30.728 162.566 32.73V37H161.376V32.772C161.376 31.512 160.662 30.784 159.57 30.784C158.548 30.784 157.904 31.372 157.456 32.114V37H156.266ZM164.149 38.274C164.149 37.56 164.499 36.986 165.199 36.496C164.877 36.244 164.709 35.866 164.709 35.488C164.709 34.928 165.003 34.466 165.549 34.116C164.933 33.654 164.569 32.94 164.569 32.156C164.569 30.798 165.633 29.65 167.313 29.65C167.831 29.65 168.293 29.762 168.671 29.944H171.289V30.98H169.763C169.959 31.33 170.057 31.736 170.057 32.156C170.057 33.5 169.007 34.648 167.313 34.648C166.963 34.648 166.627 34.592 166.333 34.508C166.039 34.718 165.871 34.97 165.871 35.236C165.871 35.53 166.025 35.74 166.459 35.74H168.475C170.337 35.74 171.205 36.65 171.205 37.91C171.205 39.394 169.721 40.5 167.607 40.5C165.521 40.5 164.149 39.688 164.149 38.274ZM167.327 33.71C168.349 33.71 168.937 33.01 168.937 32.156C168.937 31.288 168.349 30.588 167.327 30.588C166.277 30.588 165.703 31.288 165.703 32.156C165.703 33.024 166.277 33.71 167.327 33.71ZM165.311 38.134C165.311 38.988 166.193 39.506 167.593 39.506C169.077 39.506 170.015 38.918 170.015 37.994C170.015 37.322 169.637 36.79 168.377 36.79H166.095C165.605 37.154 165.311 37.574 165.311 38.134ZM173.256 34.634V31.022H171.926V29.944H173.256V28.18H174.46V29.944H176.91V31.022H174.46V34.634C174.46 35.74 175.02 36.048 175.874 36.048C176.336 36.048 176.658 35.992 176.924 35.88V36.944C176.588 37.084 176.21 37.14 175.706 37.14C174.138 37.14 173.256 36.356 173.256 34.634ZM184.864 35.838C184.206 36.72 183.156 37.28 181.84 37.28C179.46 37.28 177.99 35.53 177.99 33.472C177.99 31.33 179.362 29.664 181.546 29.664C183.464 29.664 184.71 31.008 184.71 32.744C184.71 33.024 184.668 33.29 184.626 33.486H179.208C179.25 35.18 180.328 36.202 181.84 36.202C182.75 36.202 183.52 35.782 183.982 35.152L184.864 35.838ZM181.518 30.672C180.356 30.672 179.544 31.358 179.292 32.576H183.52C183.478 31.54 182.764 30.672 181.518 30.672ZM186.727 37V29.944H187.917V30.714C188.449 30.098 189.149 29.664 190.129 29.664C191.151 29.664 191.991 30.126 192.425 31.022C192.985 30.252 193.727 29.664 194.945 29.664C196.457 29.664 197.563 30.672 197.563 32.59V37H196.373V32.632C196.373 31.456 195.715 30.784 194.707 30.784C193.811 30.784 193.181 31.288 192.719 32.114C192.733 32.268 192.747 32.422 192.747 32.59V37H191.557V32.632C191.557 31.456 190.913 30.784 189.891 30.784C188.925 30.784 188.323 31.386 187.917 32.114V37H186.727ZM199.961 40.444V29.944H201.151V30.784C201.781 30.07 202.607 29.664 203.657 29.664C205.869 29.664 207.283 31.414 207.283 33.472C207.283 35.53 205.869 37.28 203.657 37.28C202.607 37.28 201.781 36.874 201.151 36.16V40.444H199.961ZM203.517 30.784C202.537 30.784 201.683 31.26 201.151 32.1V34.844C201.697 35.698 202.551 36.16 203.517 36.16C205.015 36.16 206.037 34.97 206.037 33.472C206.037 31.974 205.015 30.784 203.517 30.784ZM208.256 36.034L209.096 35.32C209.586 35.936 210.174 36.286 210.888 36.286C211.672 36.286 212.12 35.81 212.12 35.194C212.12 33.612 208.592 34.172 208.592 31.68C208.592 30.574 209.53 29.664 210.888 29.664C211.896 29.664 212.764 30.14 213.254 30.826L212.428 31.526C212.05 30.994 211.518 30.658 210.902 30.658C210.146 30.658 209.74 31.106 209.74 31.652C209.74 33.234 213.282 32.73 213.282 35.138C213.268 36.454 212.218 37.28 210.902 37.28C209.782 37.28 208.9 36.832 208.256 36.034ZM218.39 33.472C218.39 31.414 219.804 29.664 222.016 29.664C223.066 29.664 223.892 30.07 224.522 30.798V29.944H225.712V40.444H224.522V36.146C223.892 36.874 223.066 37.28 222.016 37.28C219.804 37.28 218.39 35.53 218.39 33.472ZM219.636 33.472C219.636 34.97 220.658 36.16 222.142 36.16C223.136 36.16 223.99 35.684 224.522 34.844V32.1C223.976 31.246 223.122 30.784 222.142 30.784C220.658 30.784 219.636 31.974 219.636 33.472ZM233.149 33.976V29.944H234.339V33.934C234.339 36.048 233.121 37.28 231.203 37.28C229.299 37.28 228.081 36.048 228.081 33.934V29.944H229.271V33.976C229.271 35.362 230.013 36.16 231.217 36.16C232.393 36.16 233.149 35.362 233.149 33.976ZM242.956 35.838C242.298 36.72 241.248 37.28 239.932 37.28C237.552 37.28 236.082 35.53 236.082 33.472C236.082 31.33 237.454 29.664 239.638 29.664C241.556 29.664 242.802 31.008 242.802 32.744C242.802 33.024 242.76 33.29 242.718 33.486H237.3C237.342 35.18 238.42 36.202 239.932 36.202C240.842 36.202 241.612 35.782 242.074 35.152L242.956 35.838ZM239.61 30.672C238.448 30.672 237.636 31.358 237.384 32.576H241.612C241.57 31.54 240.856 30.672 239.61 30.672ZM39.196 53.944H40.484L42.738 59.754L44.992 53.944H46.28L43.522 61H41.954L39.196 53.944ZM50.8491 53.664C53.1171 53.664 54.6711 55.414 54.6711 57.472C54.6711 59.53 53.1171 61.28 50.8491 61.28C48.5671 61.28 47.0271 59.53 47.0271 57.472C47.0271 55.414 48.5671 53.664 50.8491 53.664ZM50.8631 60.16C52.3331 60.16 53.4111 58.928 53.4111 57.472C53.4111 56.002 52.3331 54.784 50.8631 54.784C49.3511 54.784 48.2731 56.002 48.2731 57.472C48.2731 58.942 49.3511 60.16 50.8631 60.16ZM61.4982 57.976V53.944H62.6882V57.934C62.6882 60.048 61.4702 61.28 59.5522 61.28C57.6482 61.28 56.4302 60.048 56.4302 57.934V53.944H57.6202V57.976C57.6202 59.362 58.3622 60.16 59.5662 60.16C60.7422 60.16 61.4982 59.362 61.4982 57.976ZM64.2501 60.034L65.0901 59.32C65.5801 59.936 66.1681 60.286 66.8821 60.286C67.6661 60.286 68.1141 59.81 68.1141 59.194C68.1141 57.612 64.5861 58.172 64.5861 55.68C64.5861 54.574 65.5241 53.664 66.8821 53.664C67.8901 53.664 68.7581 54.14 69.2481 54.826L68.4221 55.526C68.0441 54.994 67.5121 54.658 66.8961 54.658C66.1401 54.658 65.7341 55.106 65.7341 55.652C65.7341 57.234 69.2761 56.73 69.2761 59.138C69.2621 60.454 68.2121 61.28 66.8961 61.28C65.7761 61.28 64.8941 60.832 64.2501 60.034ZM74.9866 61V50.5H76.1766V61H74.9866ZM84.9636 59.838C84.3056 60.72 83.2556 61.28 81.9396 61.28C79.5596 61.28 78.0896 59.53 78.0896 57.472C78.0896 55.33 79.4616 53.664 81.6456 53.664C83.5636 53.664 84.8096 55.008 84.8096 56.744C84.8096 57.024 84.7676 57.29 84.7256 57.486H79.3076C79.3496 59.18 80.4276 60.202 81.9396 60.202C82.8496 60.202 83.6196 59.782 84.0816 59.152L84.9636 59.838ZM81.6176 54.672C80.4556 54.672 79.6436 55.358 79.3916 56.576H83.6196C83.5776 55.54 82.8636 54.672 81.6176 54.672ZM89.8438 60.034L90.6838 59.32C91.1738 59.936 91.7618 60.286 92.4758 60.286C93.2598 60.286 93.7078 59.81 93.7078 59.194C93.7078 57.612 90.1798 58.172 90.1798 55.68C90.1798 54.574 91.1178 53.664 92.4758 53.664C93.4838 53.664 94.3518 54.14 94.8418 54.826L94.0158 55.526C93.6378 54.994 93.1058 54.658 92.4898 54.658C91.7338 54.658 91.3278 55.106 91.3278 55.652C91.3278 57.234 94.8698 56.73 94.8698 59.138C94.8558 60.454 93.8058 61.28 92.4898 61.28C91.3698 61.28 90.4878 60.832 89.8438 60.034ZM99.9448 53.664C102.213 53.664 103.767 55.414 103.767 57.472C103.767 59.53 102.213 61.28 99.9448 61.28C97.6628 61.28 96.1228 59.53 96.1228 57.472C96.1228 55.414 97.6628 53.664 99.9448 53.664ZM99.9588 60.16C101.429 60.16 102.507 58.928 102.507 57.472C102.507 56.002 101.429 54.784 99.9588 54.784C98.4468 54.784 97.3688 56.002 97.3688 57.472C97.3688 58.942 98.4468 60.16 99.9588 60.16ZM110.594 57.976V53.944H111.784V57.934C111.784 60.048 110.566 61.28 108.648 61.28C106.744 61.28 105.526 60.048 105.526 57.934V53.944H106.716V57.976C106.716 59.362 107.458 60.16 108.662 60.16C109.838 60.16 110.594 59.362 110.594 57.976ZM114.129 61V50.5H115.319V54.742C115.893 54.112 116.621 53.664 117.671 53.664C119.253 53.664 120.429 54.728 120.429 56.73V61H119.239V56.772C119.239 55.512 118.539 54.784 117.433 54.784C116.397 54.784 115.767 55.386 115.319 56.114V61H114.129ZM124.742 61.196C123.356 61.196 122.418 60.426 122.418 59.222C122.418 58.158 123.23 57.402 124.728 57.15L127.108 56.758V56.268C127.108 55.288 126.408 54.728 125.4 54.728C124.588 54.728 123.93 55.106 123.496 55.708L122.6 55.022C123.216 54.182 124.21 53.664 125.442 53.664C127.234 53.664 128.298 54.714 128.298 56.268V61H127.108V60.104C126.576 60.79 125.652 61.196 124.742 61.196ZM123.622 59.18C123.622 59.782 124.112 60.216 124.938 60.216C125.876 60.216 126.646 59.768 127.108 59.012V57.626L125.022 57.976C124.056 58.144 123.622 58.578 123.622 59.18ZM131.288 52.11C130.826 52.11 130.448 51.732 130.448 51.27C130.448 50.822 130.826 50.444 131.288 50.444C131.75 50.444 132.114 50.822 132.114 51.27C132.114 51.732 131.75 52.11 131.288 52.11ZM130.686 61V53.944H131.876V61H130.686ZM134.797 58.634V55.022H133.467V53.944H134.797V52.18H136.001V53.944H138.451V55.022H136.001V58.634C136.001 59.74 136.561 60.048 137.415 60.048C137.877 60.048 138.199 59.992 138.465 59.88V60.944C138.129 61.084 137.751 61.14 137.247 61.14C135.679 61.14 134.797 60.356 134.797 58.634ZM146.405 59.838C145.747 60.72 144.697 61.28 143.381 61.28C141.001 61.28 139.531 59.53 139.531 57.472C139.531 55.33 140.903 53.664 143.087 53.664C145.005 53.664 146.251 55.008 146.251 56.744C146.251 57.024 146.209 57.29 146.167 57.486H140.749C140.791 59.18 141.869 60.202 143.381 60.202C144.291 60.202 145.061 59.782 145.523 59.152L146.405 59.838ZM143.059 54.672C141.897 54.672 141.085 55.358 140.833 56.576H145.061C145.019 55.54 144.305 54.672 143.059 54.672ZM147.639 61V59.922L151.797 55.022H147.737V53.944H153.253V55.022L149.081 59.922H153.351V61H147.639Z" fill="#666666"/>
<path d="M299.378 121.2H300.778L304.166 129.67L307.554 121.2H308.954L305.034 131H303.298L299.378 121.2ZM313.037 123.664C315.305 123.664 316.859 125.414 316.859 127.472C316.859 129.53 315.305 131.28 313.037 131.28C310.755 131.28 309.215 129.53 309.215 127.472C309.215 125.414 310.755 123.664 313.037 123.664ZM313.051 130.16C314.521 130.16 315.599 128.928 315.599 127.472C315.599 126.002 314.521 124.784 313.051 124.784C311.539 124.784 310.461 126.002 310.461 127.472C310.461 128.942 311.539 130.16 313.051 130.16ZM323.686 127.976V123.944H324.876V127.934C324.876 130.048 323.658 131.28 321.74 131.28C319.836 131.28 318.618 130.048 318.618 127.934V123.944H319.808V127.976C319.808 129.362 320.55 130.16 321.754 130.16C322.93 130.16 323.686 129.362 323.686 127.976ZM326.438 130.034L327.278 129.32C327.768 129.936 328.356 130.286 329.07 130.286C329.854 130.286 330.302 129.81 330.302 129.194C330.302 127.612 326.774 128.172 326.774 125.68C326.774 124.574 327.712 123.664 329.07 123.664C330.078 123.664 330.946 124.14 331.436 124.826L330.61 125.526C330.232 124.994 329.7 124.658 329.084 124.658C328.328 124.658 327.922 125.106 327.922 125.652C327.922 127.234 331.464 126.73 331.464 129.138C331.45 130.454 330.4 131.28 329.084 131.28C327.964 131.28 327.082 130.832 326.438 130.034ZM340.422 130.16C341.29 130.16 342.004 129.74 342.438 129.124L343.376 129.838C342.718 130.72 341.696 131.28 340.408 131.28C338.07 131.28 336.572 129.53 336.572 127.472C336.572 125.414 338.07 123.664 340.408 123.664C341.682 123.664 342.718 124.238 343.376 125.106L342.438 125.82C342.004 125.204 341.29 124.784 340.408 124.784C338.896 124.784 337.818 125.974 337.818 127.472C337.818 128.984 338.896 130.16 340.422 130.16ZM347.955 123.664C350.223 123.664 351.777 125.414 351.777 127.472C351.777 129.53 350.223 131.28 347.955 131.28C345.673 131.28 344.133 129.53 344.133 127.472C344.133 125.414 345.673 123.664 347.955 123.664ZM347.969 130.16C349.439 130.16 350.517 128.928 350.517 127.472C350.517 126.002 349.439 124.784 347.969 124.784C346.457 124.784 345.379 126.002 345.379 127.472C345.379 128.942 346.457 130.16 347.969 130.16ZM353.69 131V123.944H354.88V124.742C355.454 124.112 356.182 123.664 357.232 123.664C358.814 123.664 359.99 124.728 359.99 126.73V131H358.8V126.772C358.8 125.512 358.086 124.784 356.994 124.784C355.972 124.784 355.328 125.372 354.88 126.114V131H353.69ZM362.791 128.634V125.022H361.461V123.944H362.791V122.18H363.995V123.944H366.445V125.022H363.995V128.634C363.995 129.74 364.555 130.048 365.409 130.048C365.871 130.048 366.193 129.992 366.459 129.88V130.944C366.123 131.084 365.745 131.14 365.241 131.14C363.673 131.14 362.791 130.356 362.791 128.634ZM368.264 131V123.944H369.454V124.826C369.972 124.21 370.616 123.804 371.512 123.804C371.736 123.804 371.946 123.832 372.114 123.888V125.05C371.904 124.994 371.694 124.966 371.414 124.966C370.49 124.966 369.888 125.442 369.454 126.156V131H368.264ZM374.43 122.11C373.968 122.11 373.59 121.732 373.59 121.27C373.59 120.822 373.968 120.444 374.43 120.444C374.892 120.444 375.256 120.822 375.256 121.27C375.256 121.732 374.892 122.11 374.43 122.11ZM373.828 131V123.944H375.018V131H373.828ZM384.855 127.472C384.855 129.53 383.441 131.28 381.229 131.28C380.179 131.28 379.353 130.874 378.723 130.16V131H377.533V120.5H378.723V124.784C379.353 124.07 380.179 123.664 381.229 123.664C383.441 123.664 384.855 125.414 384.855 127.472ZM381.089 124.784C380.109 124.784 379.241 125.26 378.723 126.086V128.858C379.269 129.698 380.123 130.16 381.089 130.16C382.587 130.16 383.609 128.97 383.609 127.472C383.609 125.974 382.587 124.784 381.089 124.784ZM391.703 127.976V123.944H392.893V127.934C392.893 130.048 391.675 131.28 389.757 131.28C387.853 131.28 386.635 130.048 386.635 127.934V123.944H387.825V127.976C387.825 129.362 388.567 130.16 389.771 130.16C390.947 130.16 391.703 129.362 391.703 127.976ZM401.511 129.838C400.853 130.72 399.803 131.28 398.487 131.28C396.107 131.28 394.637 129.53 394.637 127.472C394.637 125.33 396.009 123.664 398.193 123.664C400.111 123.664 401.357 125.008 401.357 126.744C401.357 127.024 401.315 127.29 401.273 127.486H395.855C395.897 129.18 396.975 130.202 398.487 130.202C399.397 130.202 400.167 129.782 400.629 129.152L401.511 129.838ZM398.165 124.672C397.003 124.672 396.191 125.358 395.939 126.576H400.167C400.125 125.54 399.411 124.672 398.165 124.672ZM402.745 131V129.922L406.903 125.022H402.843V123.944H408.359V125.022L404.187 129.922H408.457V131H402.745ZM416.078 131.196C414.692 131.196 413.754 130.426 413.754 129.222C413.754 128.158 414.566 127.402 416.064 127.15L418.444 126.758V126.268C418.444 125.288 417.744 124.728 416.736 124.728C415.924 124.728 415.266 125.106 414.832 125.708L413.936 125.022C414.552 124.182 415.546 123.664 416.778 123.664C418.57 123.664 419.634 124.714 419.634 126.268V131H418.444V130.104C417.912 130.79 416.988 131.196 416.078 131.196ZM414.958 129.18C414.958 129.782 415.448 130.216 416.274 130.216C417.212 130.216 417.982 129.768 418.444 129.012V127.626L416.358 127.976C415.392 128.144 414.958 128.578 414.958 129.18ZM422.624 122.11C422.162 122.11 421.784 121.732 421.784 121.27C421.784 120.822 422.162 120.444 422.624 120.444C423.086 120.444 423.45 120.822 423.45 121.27C423.45 121.732 423.086 122.11 422.624 122.11ZM422.022 131V123.944H423.212V131H422.022ZM425.727 131V123.944H426.917V124.742C427.491 124.112 428.219 123.664 429.269 123.664C430.851 123.664 432.027 124.728 432.027 126.73V131H430.837V126.772C430.837 125.512 430.123 124.784 429.031 124.784C428.009 124.784 427.365 125.372 426.917 126.114V131H425.727ZM433.666 130.034L434.506 129.32C434.996 129.936 435.584 130.286 436.298 130.286C437.082 130.286 437.53 129.81 437.53 129.194C437.53 127.612 434.002 128.172 434.002 125.68C434.002 124.574 434.94 123.664 436.298 123.664C437.306 123.664 438.174 124.14 438.664 124.826L437.838 125.526C437.46 124.994 436.928 124.658 436.312 124.658C435.556 124.658 435.15 125.106 435.15 125.652C435.15 127.234 438.692 126.73 438.692 129.138C438.678 130.454 437.628 131.28 436.312 131.28C435.192 131.28 434.31 130.832 433.666 130.034ZM441.231 122.11C440.769 122.11 440.391 121.732 440.391 121.27C440.391 120.822 440.769 120.444 441.231 120.444C441.693 120.444 442.057 120.822 442.057 121.27C442.057 121.732 441.693 122.11 441.231 122.11ZM440.629 131V123.944H441.819V131H440.629ZM450.166 122.824L448.528 120.5H449.858L451.314 122.824H450.166ZM450.026 131.196C448.64 131.196 447.702 130.426 447.702 129.222C447.702 128.158 448.514 127.402 450.012 127.15L452.392 126.758V126.268C452.392 125.288 451.692 124.728 450.684 124.728C449.872 124.728 449.214 125.106 448.78 125.708L447.884 125.022C448.5 124.182 449.494 123.664 450.726 123.664C452.518 123.664 453.582 124.714 453.582 126.268V131H452.392V130.104C451.86 130.79 450.936 131.196 450.026 131.196ZM448.906 129.18C448.906 129.782 449.396 130.216 450.222 130.216C451.16 130.216 451.93 129.768 452.392 129.012V127.626L450.306 127.976C449.34 128.144 448.906 128.578 448.906 129.18ZM300.26 155V144.5H301.45V155H300.26ZM305.182 148.952H304.146L303.978 145.2H305.336L305.182 148.952ZM309.465 155.196C308.079 155.196 307.141 154.426 307.141 153.222C307.141 152.158 307.953 151.402 309.451 151.15L311.831 150.758V150.268C311.831 149.288 311.131 148.728 310.123 148.728C309.311 148.728 308.653 149.106 308.219 149.708L307.323 149.022C307.939 148.182 308.933 147.664 310.165 147.664C311.957 147.664 313.021 148.714 313.021 150.268V155H311.831V154.104C311.299 154.79 310.375 155.196 309.465 155.196ZM308.345 153.18C308.345 153.782 308.835 154.216 309.661 154.216C310.599 154.216 311.369 153.768 311.831 153.012V151.626L309.745 151.976C308.779 152.144 308.345 152.578 308.345 153.18ZM315.408 155V147.944H316.598V148.714C317.13 148.098 317.83 147.664 318.81 147.664C319.832 147.664 320.672 148.126 321.106 149.022C321.666 148.252 322.408 147.664 323.626 147.664C325.138 147.664 326.244 148.672 326.244 150.59V155H325.054V150.632C325.054 149.456 324.396 148.784 323.388 148.784C322.492 148.784 321.862 149.288 321.4 150.114C321.414 150.268 321.428 150.422 321.428 150.59V155H320.238V150.632C320.238 149.456 319.594 148.784 318.572 148.784C317.606 148.784 317.004 149.386 316.598 150.114V155H315.408ZM332.227 146.824H331.065L332.521 144.5H333.865L332.227 146.824ZM334.915 153.838C334.257 154.72 333.207 155.28 331.891 155.28C329.511 155.28 328.041 153.53 328.041 151.472C328.041 149.33 329.413 147.664 331.597 147.664C333.515 147.664 334.761 149.008 334.761 150.744C334.761 151.024 334.719 151.29 334.677 151.486H329.259C329.301 153.18 330.379 154.202 331.891 154.202C332.801 154.202 333.571 153.782 334.033 153.152L334.915 153.838ZM331.569 148.672C330.407 148.672 329.595 149.358 329.343 150.576H333.571C333.529 149.54 332.815 148.672 331.569 148.672ZM336.778 155V144.5H337.968V155H336.778ZM341.085 146.11C340.623 146.11 340.245 145.732 340.245 145.27C340.245 144.822 340.623 144.444 341.085 144.444C341.547 144.444 341.911 144.822 341.911 145.27C341.911 145.732 341.547 146.11 341.085 146.11ZM340.483 155V147.944H341.673V155H340.483ZM347.408 147.664C349.676 147.664 351.23 149.414 351.23 151.472C351.23 153.53 349.676 155.28 347.408 155.28C345.126 155.28 343.586 153.53 343.586 151.472C343.586 149.414 345.126 147.664 347.408 147.664ZM347.422 154.16C348.892 154.16 349.97 152.928 349.97 151.472C349.97 150.002 348.892 148.784 347.422 148.784C345.91 148.784 344.832 150.002 344.832 151.472C344.832 152.942 345.91 154.16 347.422 154.16ZM353.143 155V147.944H354.333V148.826C354.851 148.21 355.495 147.804 356.391 147.804C356.615 147.804 356.825 147.832 356.993 147.888V149.05C356.783 148.994 356.573 148.966 356.293 148.966C355.369 148.966 354.767 149.442 354.333 150.156V155H353.143ZM360.311 155.196C358.925 155.196 357.987 154.426 357.987 153.222C357.987 152.158 358.799 151.402 360.297 151.15L362.677 150.758V150.268C362.677 149.288 361.977 148.728 360.969 148.728C360.157 148.728 359.499 149.106 359.065 149.708L358.169 149.022C358.785 148.182 359.779 147.664 361.011 147.664C362.803 147.664 363.867 148.714 363.867 150.268V155H362.677V154.104C362.145 154.79 361.221 155.196 360.311 155.196ZM359.191 153.18C359.191 153.782 359.681 154.216 360.507 154.216C361.445 154.216 362.215 153.768 362.677 153.012V151.626L360.591 151.976C359.625 152.144 359.191 152.578 359.191 153.18ZM366.66 152.634V149.022H365.33V147.944H366.66V146.18H367.864V147.944H370.314V149.022H367.864V152.634C367.864 153.74 368.424 154.048 369.278 154.048C369.74 154.048 370.062 153.992 370.328 153.88V154.944C369.992 155.084 369.614 155.14 369.11 155.14C367.542 155.14 366.66 154.356 366.66 152.634ZM372.735 146.11C372.273 146.11 371.895 145.732 371.895 145.27C371.895 144.822 372.273 144.444 372.735 144.444C373.197 144.444 373.561 144.822 373.561 145.27C373.561 145.732 373.197 146.11 372.735 146.11ZM372.133 155V147.944H373.323V155H372.133ZM379.058 147.664C381.326 147.664 382.88 149.414 382.88 151.472C382.88 153.53 381.326 155.28 379.058 155.28C376.776 155.28 375.236 153.53 375.236 151.472C375.236 149.414 376.776 147.664 379.058 147.664ZM379.072 154.16C380.542 154.16 381.62 152.928 381.62 151.472C381.62 150.002 380.542 148.784 379.072 148.784C377.56 148.784 376.482 150.002 376.482 151.472C376.482 152.942 377.56 154.16 379.072 154.16ZM384.793 155V147.944H385.983V148.742C386.557 148.112 387.285 147.664 388.335 147.664C389.917 147.664 391.093 148.728 391.093 150.73V155H389.903V150.772C389.903 149.512 389.189 148.784 388.097 148.784C387.075 148.784 386.431 149.372 385.983 150.114V155H384.793ZM396.66 151.472C396.66 149.414 398.074 147.664 400.286 147.664C401.336 147.664 402.162 148.07 402.792 148.784V144.5H403.982V155H402.792V154.16C402.162 154.874 401.336 155.28 400.286 155.28C398.074 155.28 396.66 153.53 396.66 151.472ZM397.92 151.472C397.92 152.97 398.928 154.16 400.426 154.16C401.406 154.16 402.274 153.684 402.792 152.858V150.086C402.246 149.246 401.392 148.784 400.426 148.784C398.928 148.784 397.92 149.974 397.92 151.472ZM412.762 153.838C412.104 154.72 411.054 155.28 409.738 155.28C407.358 155.28 405.888 153.53 405.888 151.472C405.888 149.33 407.26 147.664 409.444 147.664C411.362 147.664 412.608 149.008 412.608 150.744C412.608 151.024 412.566 151.29 412.524 151.486H407.106C407.148 153.18 408.226 154.202 409.738 154.202C410.648 154.202 411.418 153.782 411.88 153.152L412.762 153.838ZM409.416 148.672C408.254 148.672 407.442 149.358 407.19 150.576H411.418C411.376 149.54 410.662 148.672 409.416 148.672ZM413.815 154.034L414.655 153.32C415.145 153.936 415.733 154.286 416.447 154.286C417.231 154.286 417.679 153.81 417.679 153.194C417.679 151.612 414.151 152.172 414.151 149.68C414.151 148.574 415.089 147.664 416.447 147.664C417.455 147.664 418.323 148.14 418.813 148.826L417.987 149.526C417.609 148.994 417.077 148.658 416.461 148.658C415.705 148.658 415.299 149.106 415.299 149.652C415.299 151.234 418.841 150.73 418.841 153.138C418.827 154.454 417.777 155.28 416.461 155.28C415.341 155.28 414.459 154.832 413.815 154.034ZM424.551 155V147.944H425.741V148.714C426.273 148.098 426.973 147.664 427.953 147.664C428.975 147.664 429.815 148.126 430.249 149.022C430.809 148.252 431.551 147.664 432.769 147.664C434.281 147.664 435.387 148.672 435.387 150.59V155H434.197V150.632C434.197 149.456 433.539 148.784 432.531 148.784C431.635 148.784 431.005 149.288 430.543 150.114C430.557 150.268 430.571 150.422 430.571 150.59V155H429.381V150.632C429.381 149.456 428.737 148.784 427.715 148.784C426.749 148.784 426.147 149.386 425.741 150.114V155H424.551ZM441.005 147.664C443.273 147.664 444.827 149.414 444.827 151.472C444.827 153.53 443.273 155.28 441.005 155.28C438.723 155.28 437.183 153.53 437.183 151.472C437.183 149.414 438.723 147.664 441.005 147.664ZM441.019 154.16C442.489 154.16 443.567 152.928 443.567 151.472C443.567 150.002 442.489 148.784 441.019 148.784C439.507 148.784 438.429 150.002 438.429 151.472C438.429 152.942 439.507 154.16 441.019 154.16ZM446.207 151.472C446.207 149.414 447.621 147.664 449.833 147.664C450.883 147.664 451.709 148.07 452.339 148.784V144.5H453.529V155H452.339V154.16C451.709 154.874 450.883 155.28 449.833 155.28C447.621 155.28 446.207 153.53 446.207 151.472ZM447.467 151.472C447.467 152.97 448.475 154.16 449.973 154.16C450.953 154.16 451.821 153.684 452.339 152.858V150.086C451.793 149.246 450.939 148.784 449.973 148.784C448.475 148.784 447.467 149.974 447.467 151.472ZM458.403 146.824L456.765 144.5H458.095L459.551 146.824H458.403ZM462.309 153.838C461.651 154.72 460.601 155.28 459.285 155.28C456.905 155.28 455.435 153.53 455.435 151.472C455.435 149.33 456.807 147.664 458.991 147.664C460.909 147.664 462.155 149.008 462.155 150.744C462.155 151.024 462.113 151.29 462.071 151.486H456.653C456.695 153.18 457.773 154.202 459.285 154.202C460.195 154.202 460.965 153.782 461.427 153.152L462.309 153.838ZM458.963 148.672C457.801 148.672 456.989 149.358 456.737 150.576H460.965C460.923 149.54 460.209 148.672 458.963 148.672ZM464.172 155V144.5H465.362V155H464.172ZM474.149 153.838C473.491 154.72 472.441 155.28 471.125 155.28C468.745 155.28 467.275 153.53 467.275 151.472C467.275 149.33 468.647 147.664 470.831 147.664C472.749 147.664 473.995 149.008 473.995 150.744C473.995 151.024 473.953 151.29 473.911 151.486H468.493C468.535 153.18 469.613 154.202 471.125 154.202C472.035 154.202 472.805 153.782 473.267 153.152L474.149 153.838ZM470.803 148.672C469.641 148.672 468.829 149.358 468.577 150.576H472.805C472.763 149.54 472.049 148.672 470.803 148.672ZM475.201 154.034L476.041 153.32C476.531 153.936 477.119 154.286 477.833 154.286C478.617 154.286 479.065 153.81 479.065 153.194C479.065 151.612 475.537 152.172 475.537 149.68C475.537 148.574 476.475 147.664 477.833 147.664C478.841 147.664 479.709 148.14 480.199 148.826L479.373 149.526C478.995 148.994 478.463 148.658 477.847 148.658C477.091 148.658 476.685 149.106 476.685 149.652C476.685 151.234 480.227 150.73 480.227 153.138C480.213 154.454 479.163 155.28 477.847 155.28C476.727 155.28 475.845 154.832 475.201 154.034ZM485.336 151.472C485.336 149.414 486.75 147.664 488.962 147.664C490.012 147.664 490.838 148.07 491.468 148.784V144.5H492.658V155H491.468V154.16C490.838 154.874 490.012 155.28 488.962 155.28C486.75 155.28 485.336 153.53 485.336 151.472ZM486.596 151.472C486.596 152.97 487.604 154.16 489.102 154.16C490.082 154.16 490.95 153.684 491.468 152.858V150.086C490.922 149.246 490.068 148.784 489.102 148.784C487.604 148.784 486.596 149.974 486.596 151.472ZM495.683 148.952H494.577L495.767 145.2H497.125L495.683 148.952ZM499.288 155V145.2H500.604V155H499.288ZM502.542 155L506.448 145.2H508.212L512.118 155H510.718L509.584 152.116H505.076L503.942 155H502.542ZM505.51 150.982H509.15L507.33 146.348L505.51 150.982Z" fill="#666666"/>
<path d="M147.378 252L151.284 242.2H153.048L156.954 252H155.554L154.42 249.116H149.912L148.778 252H147.378ZM150.346 247.982H153.986L152.166 243.348L150.346 247.982ZM158.828 255.444V244.944H160.018V245.784C160.648 245.07 161.474 244.664 162.524 244.664C164.736 244.664 166.15 246.414 166.15 248.472C166.15 250.53 164.736 252.28 162.524 252.28C161.474 252.28 160.648 251.874 160.018 251.16V255.444H158.828ZM162.384 245.784C161.404 245.784 160.55 246.26 160.018 247.1V249.844C160.564 250.698 161.418 251.16 162.384 251.16C163.882 251.16 164.904 249.97 164.904 248.472C164.904 246.974 163.882 245.784 162.384 245.784ZM168.071 255.444V244.944H169.261V245.784C169.891 245.07 170.717 244.664 171.767 244.664C173.979 244.664 175.393 246.414 175.393 248.472C175.393 250.53 173.979 252.28 171.767 252.28C170.717 252.28 169.891 251.874 169.261 251.16V255.444H168.071ZM171.627 245.784C170.647 245.784 169.793 246.26 169.261 247.1V249.844C169.807 250.698 170.661 251.16 171.627 251.16C173.125 251.16 174.147 249.97 174.147 248.472C174.147 246.974 173.125 245.784 171.627 245.784ZM177.313 252V244.944H178.503V245.826C179.021 245.21 179.665 244.804 180.561 244.804C180.785 244.804 180.995 244.832 181.163 244.888V246.05C180.953 245.994 180.743 245.966 180.463 245.966C179.539 245.966 178.937 246.442 178.503 247.156V252H177.313ZM188.725 250.838C188.067 251.72 187.017 252.28 185.701 252.28C183.321 252.28 181.851 250.53 181.851 248.472C181.851 246.33 183.223 244.664 185.407 244.664C187.325 244.664 188.571 246.008 188.571 247.744C188.571 248.024 188.529 248.29 188.487 248.486H183.069C183.111 250.18 184.189 251.202 185.701 251.202C186.611 251.202 187.381 250.782 187.843 250.152L188.725 250.838ZM185.379 245.672C184.217 245.672 183.405 246.358 183.153 247.576H187.381C187.339 246.54 186.625 245.672 185.379 245.672ZM190.588 252V244.944H191.778V245.742C192.352 245.112 193.08 244.664 194.13 244.664C195.712 244.664 196.888 245.728 196.888 247.73V252H195.698V247.772C195.698 246.512 194.984 245.784 193.892 245.784C192.87 245.784 192.226 246.372 191.778 247.114V252H190.588ZM205.555 250.838C204.897 251.72 203.847 252.28 202.531 252.28C200.151 252.28 198.681 250.53 198.681 248.472C198.681 246.33 200.053 244.664 202.237 244.664C204.155 244.664 205.401 246.008 205.401 247.744C205.401 248.024 205.359 248.29 205.317 248.486H199.899C199.941 250.18 201.019 251.202 202.531 251.202C203.441 251.202 204.211 250.782 204.673 250.152L205.555 250.838ZM202.209 245.672C201.047 245.672 200.235 246.358 199.983 247.576H204.211C204.169 246.54 203.455 245.672 202.209 245.672ZM206.79 252V250.922L210.948 246.022H206.888V244.944H212.404V246.022L208.232 250.922H212.502V252H206.79ZM224.477 250.838C223.819 251.72 222.769 252.28 221.453 252.28C219.073 252.28 217.603 250.53 217.603 248.472C217.603 246.33 218.975 244.664 221.159 244.664C223.077 244.664 224.323 246.008 224.323 247.744C224.323 248.024 224.281 248.29 224.239 248.486H218.821C218.863 250.18 219.941 251.202 221.453 251.202C222.363 251.202 223.133 250.782 223.595 250.152L224.477 250.838ZM221.131 245.672C219.969 245.672 219.157 246.358 218.905 247.576H223.133C223.091 246.54 222.377 245.672 221.131 245.672ZM226.34 252V244.944H227.53V245.742C228.104 245.112 228.832 244.664 229.882 244.664C231.464 244.664 232.64 245.728 232.64 247.73V252H231.45V247.772C231.45 246.512 230.736 245.784 229.644 245.784C228.622 245.784 227.978 246.372 227.53 247.114V252H226.34ZM238.809 255.444V244.944H239.999V245.784C240.629 245.07 241.455 244.664 242.505 244.664C244.717 244.664 246.131 246.414 246.131 248.472C246.131 250.53 244.717 252.28 242.505 252.28C241.455 252.28 240.629 251.874 239.999 251.16V255.444H238.809ZM242.365 245.784C241.385 245.784 240.531 246.26 239.999 247.1V249.844C240.545 250.698 241.399 251.16 242.365 251.16C243.863 251.16 244.885 249.97 244.885 248.472C244.885 246.974 243.863 245.784 242.365 245.784ZM248.051 252V241.5H249.241V252H248.051ZM256.67 248.976V244.944H257.86V248.934C257.86 251.048 256.642 252.28 254.724 252.28C252.82 252.28 251.602 251.048 251.602 248.934V244.944H252.792V248.976C252.792 250.362 253.534 251.16 254.738 251.16C255.914 251.16 256.67 250.362 256.67 248.976ZM259.422 251.034L260.262 250.32C260.752 250.936 261.34 251.286 262.054 251.286C262.838 251.286 263.286 250.81 263.286 250.194C263.286 248.612 259.758 249.172 259.758 246.68C259.758 245.574 260.696 244.664 262.054 244.664C263.062 244.664 263.93 245.14 264.42 245.826L263.594 246.526C263.216 245.994 262.684 245.658 262.068 245.658C261.312 245.658 260.906 246.106 260.906 246.652C260.906 248.234 264.448 247.73 264.448 250.138C264.434 251.454 263.384 252.28 262.068 252.28C260.948 252.28 260.066 251.832 259.422 251.034ZM269.402 251.034L270.242 250.32C270.732 250.936 271.32 251.286 272.034 251.286C272.818 251.286 273.266 250.81 273.266 250.194C273.266 248.612 269.738 249.172 269.738 246.68C269.738 245.574 270.676 244.664 272.034 244.664C273.042 244.664 273.91 245.14 274.4 245.826L273.574 246.526C273.196 245.994 272.664 245.658 272.048 245.658C271.292 245.658 270.886 246.106 270.886 246.652C270.886 248.234 274.428 247.73 274.428 250.138C274.414 251.454 273.364 252.28 272.048 252.28C270.928 252.28 270.046 251.832 269.402 251.034ZM281.279 248.976V244.944H282.469V248.934C282.469 251.048 281.251 252.28 279.333 252.28C277.429 252.28 276.211 251.048 276.211 248.934V244.944H277.401V248.976C277.401 250.362 278.143 251.16 279.347 251.16C280.523 251.16 281.279 250.362 281.279 248.976ZM284.815 252V244.944H286.005V245.826C286.523 245.21 287.167 244.804 288.063 244.804C288.287 244.804 288.497 244.832 288.665 244.888V246.05C288.455 245.994 288.245 245.966 287.965 245.966C287.041 245.966 286.439 246.442 286.005 247.156V252H284.815ZM294.153 252V241.5H295.343V252H294.153ZM304.13 250.838C303.472 251.72 302.422 252.28 301.106 252.28C298.726 252.28 297.256 250.53 297.256 248.472C297.256 246.33 298.628 244.664 300.812 244.664C302.73 244.664 303.976 246.008 303.976 247.744C303.976 248.024 303.934 248.29 303.892 248.486H298.474C298.516 250.18 299.594 251.202 301.106 251.202C302.016 251.202 302.786 250.782 303.248 250.152L304.13 250.838ZM300.784 245.672C299.622 245.672 298.81 246.358 298.558 247.576H302.786C302.744 246.54 302.03 245.672 300.784 245.672ZM305.182 251.034L306.022 250.32C306.512 250.936 307.1 251.286 307.814 251.286C308.598 251.286 309.046 250.81 309.046 250.194C309.046 248.612 305.518 249.172 305.518 246.68C305.518 245.574 306.456 244.664 307.814 244.664C308.822 244.664 309.69 245.14 310.18 245.826L309.354 246.526C308.976 245.994 308.444 245.658 307.828 245.658C307.072 245.658 306.666 246.106 306.666 246.652C306.666 248.234 310.208 247.73 310.208 250.138C310.194 251.454 309.144 252.28 307.828 252.28C306.708 252.28 305.826 251.832 305.182 251.034ZM315.918 252V244.944H317.108V245.714C317.64 245.098 318.34 244.664 319.32 244.664C320.342 244.664 321.182 245.126 321.616 246.022C322.176 245.252 322.918 244.664 324.136 244.664C325.648 244.664 326.754 245.672 326.754 247.59V252H325.564V247.632C325.564 246.456 324.906 245.784 323.898 245.784C323.002 245.784 322.372 246.288 321.91 247.114C321.924 247.268 321.938 247.422 321.938 247.59V252H320.748V247.632C320.748 246.456 320.104 245.784 319.082 245.784C318.116 245.784 317.514 246.386 317.108 247.114V252H315.918ZM332.373 244.664C334.641 244.664 336.195 246.414 336.195 248.472C336.195 250.53 334.641 252.28 332.373 252.28C330.091 252.28 328.551 250.53 328.551 248.472C328.551 246.414 330.091 244.664 332.373 244.664ZM332.387 251.16C333.857 251.16 334.935 249.928 334.935 248.472C334.935 247.002 333.857 245.784 332.387 245.784C330.875 245.784 329.797 247.002 329.797 248.472C329.797 249.942 330.875 251.16 332.387 251.16ZM337.574 248.472C337.574 246.414 338.988 244.664 341.2 244.664C342.25 244.664 343.076 245.07 343.706 245.784V241.5H344.896V252H343.706V251.16C343.076 251.874 342.25 252.28 341.2 252.28C338.988 252.28 337.574 250.53 337.574 248.472ZM338.834 248.472C338.834 249.97 339.842 251.16 341.34 251.16C342.32 251.16 343.188 250.684 343.706 249.858V247.086C343.16 246.246 342.306 245.784 341.34 245.784C339.842 245.784 338.834 246.974 338.834 248.472ZM349.771 243.824L348.133 241.5H349.463L350.919 243.824H349.771ZM353.677 250.838C353.019 251.72 351.969 252.28 350.653 252.28C348.273 252.28 346.803 250.53 346.803 248.472C346.803 246.33 348.175 244.664 350.359 244.664C352.277 244.664 353.523 246.008 353.523 247.744C353.523 248.024 353.481 248.29 353.439 248.486H348.021C348.063 250.18 349.141 251.202 350.653 251.202C351.563 251.202 352.333 250.782 352.795 250.152L353.677 250.838ZM350.331 245.672C349.169 245.672 348.357 246.358 348.105 247.576H352.333C352.291 246.54 351.577 245.672 350.331 245.672ZM355.539 252V241.5H356.729V252H355.539ZM365.516 250.838C364.858 251.72 363.808 252.28 362.492 252.28C360.112 252.28 358.642 250.53 358.642 248.472C358.642 246.33 360.014 244.664 362.198 244.664C364.116 244.664 365.362 246.008 365.362 247.744C365.362 248.024 365.32 248.29 365.278 248.486H359.86C359.902 250.18 360.98 251.202 362.492 251.202C363.402 251.202 364.172 250.782 364.634 250.152L365.516 250.838ZM362.17 245.672C361.008 245.672 360.196 246.358 359.944 247.576H364.172C364.13 246.54 363.416 245.672 362.17 245.672ZM366.568 251.034L367.408 250.32C367.898 250.936 368.486 251.286 369.2 251.286C369.984 251.286 370.432 250.81 370.432 250.194C370.432 248.612 366.904 249.172 366.904 246.68C366.904 245.574 367.842 244.664 369.2 244.664C370.208 244.664 371.076 245.14 371.566 245.826L370.74 246.526C370.362 245.994 369.83 245.658 369.214 245.658C368.458 245.658 368.052 246.106 368.052 246.652C368.052 248.234 371.594 247.73 371.594 250.138C371.58 251.454 370.53 252.28 369.214 252.28C368.094 252.28 367.212 251.832 366.568 251.034ZM147.658 272.472C147.658 270.414 149.072 268.664 151.284 268.664C152.334 268.664 153.16 269.07 153.79 269.784V265.5H154.98V276H153.79V275.16C153.16 275.874 152.334 276.28 151.284 276.28C149.072 276.28 147.658 274.53 147.658 272.472ZM148.918 272.472C148.918 273.97 149.926 275.16 151.424 275.16C152.404 275.16 153.272 274.684 153.79 273.858V271.086C153.244 270.246 152.39 269.784 151.424 269.784C149.926 269.784 148.918 270.974 148.918 272.472ZM158.005 269.952H156.899L158.089 266.2H159.447L158.005 269.952ZM161.611 276V266.2H162.927V276H161.611ZM164.864 276L168.77 266.2H170.534L174.44 276H173.04L171.906 273.116H167.398L166.264 276H164.864ZM167.832 271.982H171.472L169.652 267.348L167.832 271.982ZM186.128 274.838C185.47 275.72 184.42 276.28 183.104 276.28C180.724 276.28 179.254 274.53 179.254 272.472C179.254 270.33 180.626 268.664 182.81 268.664C184.728 268.664 185.974 270.008 185.974 271.744C185.974 272.024 185.932 272.29 185.89 272.486H180.472C180.514 274.18 181.592 275.202 183.104 275.202C184.014 275.202 184.784 274.782 185.246 274.152L186.128 274.838ZM182.782 269.672C181.62 269.672 180.808 270.358 180.556 271.576H184.784C184.742 270.54 184.028 269.672 182.782 269.672ZM188.355 273.634V270.022H187.025V268.944H188.355V267.18H189.559V268.944H192.009V270.022H189.559V273.634C189.559 274.74 190.119 275.048 190.973 275.048C191.435 275.048 191.757 274.992 192.023 274.88V275.944C191.687 276.084 191.309 276.14 190.805 276.14C189.237 276.14 188.355 275.356 188.355 273.634ZM197.602 276V265.5H198.792V276H197.602ZM207.579 274.838C206.921 275.72 205.871 276.28 204.555 276.28C202.175 276.28 200.705 274.53 200.705 272.472C200.705 270.33 202.077 268.664 204.261 268.664C206.179 268.664 207.425 270.008 207.425 271.744C207.425 272.024 207.383 272.29 207.341 272.486H201.923C201.965 274.18 203.043 275.202 204.555 275.202C205.465 275.202 206.235 274.782 206.697 274.152L207.579 274.838ZM204.233 269.672C203.071 269.672 202.259 270.358 202.007 271.576H206.235C206.193 270.54 205.479 269.672 204.233 269.672ZM214.246 272.976V268.944H215.436V272.934C215.436 275.048 214.218 276.28 212.3 276.28C210.396 276.28 209.178 275.048 209.178 272.934V268.944H210.368V272.976C210.368 274.362 211.11 275.16 212.314 275.16C213.49 275.16 214.246 274.362 214.246 272.976ZM217.781 276V268.944H218.971V269.826C219.489 269.21 220.133 268.804 221.029 268.804C221.253 268.804 221.463 268.832 221.631 268.888V270.05C221.421 269.994 221.211 269.966 220.931 269.966C220.007 269.966 219.405 270.442 218.971 271.156V276H217.781ZM222.59 275.034L223.43 274.32C223.92 274.936 224.508 275.286 225.222 275.286C226.006 275.286 226.454 274.81 226.454 274.194C226.454 272.612 222.926 273.172 222.926 270.68C222.926 269.574 223.864 268.664 225.222 268.664C226.23 268.664 227.098 269.14 227.588 269.826L226.762 270.526C226.384 269.994 225.852 269.658 225.236 269.658C224.48 269.658 224.074 270.106 224.074 270.652C224.074 272.234 227.616 271.73 227.616 274.138C227.602 275.454 226.552 276.28 225.236 276.28C224.116 276.28 223.234 275.832 222.59 275.034ZM236.574 275.16C237.442 275.16 238.156 274.74 238.59 274.124L239.528 274.838C238.87 275.72 237.848 276.28 236.56 276.28C234.222 276.28 232.724 274.53 232.724 272.472C232.724 270.414 234.222 268.664 236.56 268.664C237.834 268.664 238.87 269.238 239.528 270.106L238.59 270.82C238.156 270.204 237.442 269.784 236.56 269.784C235.048 269.784 233.97 270.974 233.97 272.472C233.97 273.984 235.048 275.16 236.574 275.16ZM242.983 276.196C241.597 276.196 240.659 275.426 240.659 274.222C240.659 273.158 241.471 272.402 242.969 272.15L245.349 271.758V271.268C245.349 270.288 244.649 269.728 243.641 269.728C242.829 269.728 242.171 270.106 241.737 270.708L240.841 270.022C241.457 269.182 242.451 268.664 243.683 268.664C245.475 268.664 246.539 269.714 246.539 271.268V276H245.349V275.104C244.817 275.79 243.893 276.196 242.983 276.196ZM241.863 274.18C241.863 274.782 242.353 275.216 243.179 275.216C244.117 275.216 244.887 274.768 245.349 274.012V272.626L243.263 272.976C242.297 273.144 241.863 273.578 241.863 274.18ZM248.926 276V268.944H250.116V269.826C250.634 269.21 251.278 268.804 252.174 268.804C252.398 268.804 252.608 268.832 252.776 268.888V270.05C252.566 269.994 252.356 269.966 252.076 269.966C251.152 269.966 250.55 270.442 250.116 271.156V276H248.926ZM256.094 276.196C254.708 276.196 253.77 275.426 253.77 274.222C253.77 273.158 254.582 272.402 256.08 272.15L258.46 271.758V271.268C258.46 270.288 257.76 269.728 256.752 269.728C255.94 269.728 255.282 270.106 254.848 270.708L253.952 270.022C254.568 269.182 255.562 268.664 256.794 268.664C258.586 268.664 259.65 269.714 259.65 271.268V276H258.46V275.104C257.928 275.79 257.004 276.196 256.094 276.196ZM254.974 274.18C254.974 274.782 255.464 275.216 256.29 275.216C257.228 275.216 257.998 274.768 258.46 274.012V272.626L256.374 272.976C255.408 273.144 254.974 273.578 254.974 274.18ZM265.285 275.16C266.153 275.16 266.867 274.74 267.301 274.124L268.239 274.838C267.581 275.72 266.559 276.28 265.271 276.28C262.933 276.28 261.435 274.53 261.435 272.472C261.435 270.414 262.933 268.664 265.271 268.664C266.545 268.664 267.581 269.238 268.239 270.106L267.301 270.82C266.867 270.204 266.153 269.784 265.271 269.784C263.759 269.784 262.681 270.974 262.681 272.472C262.681 273.984 263.759 275.16 265.285 275.16ZM270.25 273.634V270.022H268.92V268.944H270.25V267.18H271.454V268.944H273.904V270.022H271.454V273.634C271.454 274.74 272.014 275.048 272.868 275.048C273.33 275.048 273.652 274.992 273.918 274.88V275.944C273.582 276.084 273.204 276.14 272.7 276.14C271.132 276.14 270.25 275.356 270.25 273.634ZM279.17 267.824H278.008L279.464 265.5H280.808L279.17 267.824ZM281.858 274.838C281.2 275.72 280.15 276.28 278.834 276.28C276.454 276.28 274.984 274.53 274.984 272.472C274.984 270.33 276.356 268.664 278.54 268.664C280.458 268.664 281.704 270.008 281.704 271.744C281.704 272.024 281.662 272.29 281.62 272.486H276.202C276.244 274.18 277.322 275.202 278.834 275.202C279.744 275.202 280.514 274.782 280.976 274.152L281.858 274.838ZM278.512 269.672C277.35 269.672 276.538 270.358 276.286 271.576H280.514C280.472 270.54 279.758 269.672 278.512 269.672ZM283.721 276V268.944H284.911V269.826C285.429 269.21 286.073 268.804 286.969 268.804C287.193 268.804 287.403 268.832 287.571 268.888V270.05C287.361 269.994 287.151 269.966 286.871 269.966C285.947 269.966 285.345 270.442 284.911 271.156V276H283.721ZM289.887 267.11C289.425 267.11 289.047 266.732 289.047 266.27C289.047 265.822 289.425 265.444 289.887 265.444C290.349 265.444 290.713 265.822 290.713 266.27C290.713 266.732 290.349 267.11 289.887 267.11ZM289.285 276V268.944H290.475V276H289.285ZM292.18 275.034L293.02 274.32C293.51 274.936 294.098 275.286 294.812 275.286C295.596 275.286 296.044 274.81 296.044 274.194C296.044 272.612 292.516 273.172 292.516 270.68C292.516 269.574 293.454 268.664 294.812 268.664C295.82 268.664 296.688 269.14 297.178 269.826L296.352 270.526C295.974 269.994 295.442 269.658 294.826 269.658C294.07 269.658 293.664 270.106 293.664 270.652C293.664 272.234 297.206 271.73 297.206 274.138C297.192 275.454 296.142 276.28 294.826 276.28C293.706 276.28 292.824 275.832 292.18 275.034ZM299.604 273.634V270.022H298.274V268.944H299.604V267.18H300.808V268.944H303.258V270.022H300.808V273.634C300.808 274.74 301.368 275.048 302.222 275.048C302.684 275.048 303.006 274.992 303.272 274.88V275.944C302.936 276.084 302.558 276.14 302.053 276.14C300.486 276.14 299.604 275.356 299.604 273.634ZM305.678 267.11C305.216 267.11 304.838 266.732 304.838 266.27C304.838 265.822 305.216 265.444 305.678 265.444C306.14 265.444 306.504 265.822 306.504 266.27C306.504 266.732 306.14 267.11 305.678 267.11ZM305.076 276V268.944H306.266V276H305.076ZM308.179 272.472C308.179 270.414 309.593 268.664 311.805 268.664C312.855 268.664 313.681 269.07 314.311 269.798V268.944H315.501V279.444H314.311V275.146C313.681 275.874 312.855 276.28 311.805 276.28C309.593 276.28 308.179 274.53 308.179 272.472ZM309.425 272.472C309.425 273.97 310.447 275.16 311.931 275.16C312.925 275.16 313.779 274.684 314.311 273.844V271.1C313.765 270.246 312.911 269.784 311.931 269.784C310.447 269.784 309.425 270.974 309.425 272.472ZM322.938 272.976V268.944H324.128V272.934C324.128 275.048 322.91 276.28 320.992 276.28C319.088 276.28 317.87 275.048 317.87 272.934V268.944H319.06V272.976C319.06 274.362 319.802 275.16 321.006 275.16C322.182 275.16 322.938 274.362 322.938 272.976ZM332.745 274.838C332.087 275.72 331.037 276.28 329.721 276.28C327.341 276.28 325.871 274.53 325.871 272.472C325.871 270.33 327.243 268.664 329.427 268.664C331.345 268.664 332.591 270.008 332.591 271.744C332.591 272.024 332.549 272.29 332.507 272.486H327.089C327.131 274.18 328.209 275.202 329.721 275.202C330.631 275.202 331.401 274.782 331.863 274.152L332.745 274.838ZM329.399 269.672C328.237 269.672 327.425 270.358 327.173 271.576H331.401C331.359 270.54 330.645 269.672 329.399 269.672ZM333.797 275.034L334.637 274.32C335.127 274.936 335.715 275.286 336.429 275.286C337.213 275.286 337.661 274.81 337.661 274.194C337.661 272.612 334.133 273.172 334.133 270.68C334.133 269.574 335.071 268.664 336.429 268.664C337.437 268.664 338.305 269.14 338.795 269.826L337.969 270.526C337.591 269.994 337.059 269.658 336.443 269.658C335.687 269.658 335.281 270.106 335.281 270.652C335.281 272.234 338.823 271.73 338.823 274.138C338.809 275.454 337.759 276.28 336.443 276.28C335.323 276.28 334.441 275.832 333.797 275.034Z" fill="#666666"/>
<path d="M6 21.5C7.97844 150.842 219.429 60.1375 258 106.5C296.571 152.862 72.7399 157.165 106 224" stroke="black"/>
<circle cx="5.5" cy="18.5" r="5.5" fill="#6A6AF4"/>
<circle cx="258.5" cy="107.5" r="5.5" fill="#6A6AF4"/>
<circle cx="105.5" cy="225.5" r="5.5" fill="#6A6AF4"/>
</svg>
