<svg width="73" height="30" viewBox="0 0 73 30" fill="none" xmlns="http://www.w3.org/2000/svg">
<path d="M19.2226 24.6229C20.0985 24.3774 20.9372 23.9292 21.4876 23.1372C22.0309 22.3618 22.1839 21.378 22.1839 20.4314V6.56276C22.1839 6.3172 22.1706 6.07119 22.1409 5.82812C22.576 5.99922 22.9112 6.28195 23.1467 6.6763C23.4246 7.1247 23.5636 7.71519 23.5636 8.44777V22.5343C23.5636 23.5258 23.3204 24.2679 22.8341 24.7605C22.3478 25.2531 21.6152 25.4994 20.6364 25.4994H15.3154C15.4415 25.4773 15.5678 25.4546 15.6944 25.4313C16.8048 25.2328 17.9782 24.9635 19.2137 24.6254L19.2226 24.6229Z" fill="#C0000D"/>
<path fill-rule="evenodd" clip-rule="evenodd" d="M6.43652 22.2412V8.13578C6.43652 7.27688 6.66704 6.62639 7.12806 6.18431C7.5954 5.74224 8.21431 5.49909 8.98479 5.45488C10.1216 5.38542 11.1983 5.29068 12.2151 5.17069C13.2319 5.04438 14.2045 4.89913 15.1328 4.73493C16.0675 4.57073 16.9769 4.38758 17.8611 4.18549C18.7705 3.97076 19.4684 4.07812 19.9547 4.50757C20.4409 4.93702 20.6841 5.62224 20.6841 6.56324V20.4319C20.6841 21.2592 20.542 21.875 20.2578 22.2791C19.9736 22.6896 19.4936 22.9896 18.8179 23.1791C17.618 23.5075 16.4875 23.7664 15.4265 23.9559C14.3655 24.1517 13.3298 24.3001 12.3193 24.4011C11.3089 24.5022 10.2731 24.5811 9.21215 24.6379C8.3343 24.6885 7.65224 24.5053 7.16595 24.0885C6.67967 23.678 6.43652 23.0623 6.43652 22.2412ZM9.90649 10.6968C11.2976 10.6083 12.5724 10.4723 13.7307 10.2887C14.0117 10.2429 14.2923 10.1952 14.5718 10.1457C14.8644 10.0939 15.0759 9.83894 15.0759 9.54253C15.0759 9.15865 14.7285 8.86957 14.3512 8.93392C14.1345 8.97088 13.9167 9.00681 13.6976 9.04171C12.551 9.22442 11.2839 9.35998 9.89642 9.44828C9.68864 9.46168 9.52332 9.52641 9.41706 9.65543C9.31657 9.77746 9.26733 9.92422 9.26733 10.0915C9.26733 10.2616 9.32472 10.4096 9.43926 10.5313L9.44087 10.5329C9.56502 10.6571 9.72277 10.7108 9.90649 10.6968ZM9.90601 13.842C11.2973 13.7535 12.5722 13.6175 13.7307 13.4339C14.8941 13.2442 16.0452 13.0228 17.1834 12.7699C17.4144 12.7186 17.5874 12.6378 17.6739 12.5122C17.759 12.3915 17.801 12.2532 17.801 12.0999C17.801 11.927 17.7352 11.778 17.607 11.657C17.469 11.5267 17.2761 11.4963 17.0478 11.5433L17.0463 11.5436C15.9617 11.7896 14.8455 12.004 13.6976 12.1869C12.551 12.3696 11.2839 12.5051 9.89642 12.5934C9.68864 12.6068 9.52332 12.6716 9.41706 12.8006C9.31707 12.922 9.26733 13.0654 9.26733 13.2272C9.26733 13.4027 9.32406 13.5542 9.43919 13.6766L9.4425 13.6797C9.56625 13.7961 9.72237 13.8491 9.90413 13.8421L9.90601 13.842ZM9.90635 16.9871C11.2975 16.8922 12.5723 16.7531 13.7306 16.5695C14.8942 16.3861 16.0451 16.1679 17.1834 15.915C17.4149 15.8635 17.5881 15.7793 17.6745 15.647C17.7587 15.5272 17.801 15.3924 17.801 15.245C17.801 15.072 17.7352 14.9231 17.607 14.802C17.469 14.6717 17.2761 14.6414 17.0478 14.6884L17.0467 14.6886C15.962 14.9283 14.8456 15.1396 13.6976 15.3225C12.5509 15.5052 11.2838 15.6439 9.89621 15.7385C9.68853 15.752 9.52328 15.8167 9.41706 15.9457C9.31707 16.0671 9.26733 16.2105 9.26733 16.3723C9.26733 16.5478 9.32406 16.6993 9.43919 16.8216L9.4425 16.8248C9.56625 16.9412 9.72237 16.9942 9.90413 16.9872L9.90635 16.9871ZM13.7307 19.6928C12.5724 19.8763 11.2976 20.0123 9.90651 20.1009C9.72278 20.1149 9.56503 20.0611 9.44087 19.937L9.43929 19.9354C9.32475 19.8137 9.26733 19.6656 9.26733 19.4956C9.26733 19.3283 9.31657 19.1815 9.41706 19.0595C9.52332 18.9305 9.6887 18.8657 9.89649 18.8523C11.284 18.764 12.551 18.6285 13.6976 18.4458C13.9167 18.4109 14.1345 18.3749 14.3512 18.338C14.7285 18.2736 15.0759 18.5627 15.0759 18.9466C15.0759 19.243 14.8644 19.4979 14.5718 19.5497C14.2923 19.5992 14.0117 19.647 13.7307 19.6928Z" fill="#000091"/>
<path d="M31.6995 22.5V10.95H36.237C39.9 10.95 42.375 13.6065 42.375 16.725C42.375 19.8435 39.9 22.5 36.237 22.5H31.6995ZM36.27 13.0785H34.0425V20.3715H36.27C38.415 20.3715 39.966 18.771 39.966 16.725C39.966 14.6625 38.415 13.0785 36.27 13.0785ZM48.0324 13.854C50.7384 13.854 52.5864 15.8505 52.5864 18.342C52.5864 20.8335 50.7384 22.83 48.0324 22.83C45.3264 22.83 43.4784 20.8335 43.4784 18.342C43.4784 15.8505 45.3264 13.854 48.0324 13.854ZM48.0654 20.85C49.4019 20.85 50.4084 19.7775 50.4084 18.342C50.4084 16.89 49.4019 15.834 48.0654 15.834C46.6794 15.834 45.6564 16.89 45.6564 18.342C45.6564 19.794 46.6794 20.85 48.0654 20.85ZM58.2413 20.85C59.0663 20.85 59.7263 20.4705 60.1223 19.893L61.7558 21.147C60.9803 22.17 59.7593 22.83 58.2413 22.83C55.3703 22.83 53.6543 20.7675 53.6543 18.342C53.6543 15.9165 55.3703 13.854 58.2413 13.854C59.7593 13.854 60.9803 14.514 61.7558 15.537L60.1223 16.791C59.7263 16.2135 59.0663 15.834 58.2083 15.834C56.8388 15.834 55.8323 16.89 55.8323 18.342C55.8323 19.8105 56.8388 20.85 58.2413 20.85ZM62.1513 21.2955L63.5373 20.0415C64.0488 20.685 64.6593 21.147 65.4513 21.147C66.1278 21.147 66.4743 20.751 66.4743 20.256C66.4743 18.804 62.4978 19.3485 62.4978 16.428C62.4978 14.9595 63.7353 13.854 65.4678 13.854C66.7383 13.854 67.8933 14.4645 68.4873 15.273L67.1013 16.494C66.6723 15.966 66.1278 15.537 65.4843 15.537C64.8243 15.537 64.5108 15.9 64.5108 16.329C64.5108 17.748 68.4873 17.253 68.4873 20.124C68.4543 21.873 67.0518 22.83 65.4843 22.83C63.9993 22.83 62.9433 22.236 62.1513 21.2955Z" fill="#000091"/>
</svg>
