<svg width="72" height="72" viewBox="0 0 72 72" fill="none" xmlns="http://www.w3.org/2000/svg">
<rect width="72" height="72" rx="36" fill="#ECECFE"/>
<path fill-rule="evenodd" clip-rule="evenodd" d="M13.0807 33.3776H16.2057V45.8776H13.0807C12.5054 45.8776 12.0391 45.4112 12.0391 44.8359V34.4192C12.0391 33.8439 12.5054 33.3776 13.0807 33.3776ZM18.5943 32.0307L25.2609 25.364C25.4441 25.1803 25.7346 25.1594 25.9422 25.3151L26.8307 25.9817C27.3353 26.3605 27.5626 27.0057 27.4068 27.6171L26.2057 32.3359H32.8724C34.023 32.3359 34.9557 33.2686 34.9557 34.4192V36.6109C34.956 36.8831 34.9029 37.1528 34.7995 37.4046L31.5755 45.2328C31.4147 45.6231 31.0341 45.8776 30.612 45.8776H19.3307C18.7554 45.8776 18.2891 45.4112 18.2891 44.8359V32.7671C18.2891 32.4909 18.3989 32.226 18.5943 32.0307Z" fill="#6A6AF4"/>
<path fill-rule="evenodd" clip-rule="evenodd" d="M58.9141 39.625H55.7891V27.125H58.9141C59.4894 27.125 59.9557 27.5914 59.9557 28.1667V38.5833C59.9557 39.1586 59.4894 39.625 58.9141 39.625ZM53.4005 40.9719L46.7339 47.6385C46.5507 47.8223 46.2602 47.8431 46.0526 47.6875L45.1641 47.0208C44.6594 46.642 44.4322 45.9969 44.588 45.3854L45.7891 40.6667H39.1224C37.9718 40.6667 37.0391 39.7339 37.0391 38.5833V36.3917C37.0388 36.1194 37.0919 35.8497 37.1953 35.5979L40.4203 27.7708C40.5807 27.3805 40.9608 27.1254 41.3828 27.125H52.6641C53.2394 27.125 53.7057 27.5914 53.7057 28.1667V40.2354C53.7057 40.5117 53.5959 40.7766 53.4005 40.9719Z" fill="#6A6AF4"/>
</svg>
