<svg width="25" height="25" viewBox="0 0 25 25" fill="none" xmlns="http://www.w3.org/2000/svg">
<path d="M13.5443 21.875V23.9583H11.4609V21.875H3.1276C2.55231 21.875 2.08594 21.4086 2.08594 20.8333V4.16667C2.08594 3.59138 2.55231 3.125 3.1276 3.125H9.3776C10.6221 3.125 11.7392 3.67057 12.5026 4.5356C13.266 3.67057 14.3831 3.125 15.6276 3.125H21.8776C22.4529 3.125 22.9193 3.59138 22.9193 4.16667V20.8333C22.9193 21.4086 22.4529 21.875 21.8776 21.875H13.5443ZM20.8359 19.7917V5.20833H15.6276C14.477 5.20833 13.5443 6.14107 13.5443 7.29167V19.7917H20.8359ZM11.4609 19.7917V7.29167C11.4609 6.14107 10.5282 5.20833 9.3776 5.20833H4.16927V19.7917H11.4609Z" fill="#6A6AF4"/>
</svg>
