<svg width="25" height="25" viewBox="0 0 25 25" fill="none" xmlns="http://www.w3.org/2000/svg">
<path fill-rule="evenodd" clip-rule="evenodd" d="M12.5026 2.08333C18.2558 2.08333 22.9193 6.74687 22.9193 12.5C22.9193 18.2531 18.2558 22.9167 12.5026 22.9167C10.7915 22.9192 9.1064 22.4984 7.59742 21.6917L2.08595 22.9167L3.31096 17.4052C2.50422 15.8962 2.08338 14.2111 2.08595 12.5C2.08595 6.74687 6.7495 2.08333 12.5026 2.08333ZM12.5026 4.16666C7.90026 4.16666 4.16929 7.89762 4.16929 12.5C4.16929 13.8896 4.50784 15.2271 5.14846 16.4229L5.512 17.1031L4.82971 20.1729L7.8995 19.4906L8.57971 19.8552C9.78653 20.5001 11.1343 20.8362 12.5026 20.8333C17.105 20.8333 20.836 17.1024 20.836 12.5C20.836 7.89762 17.105 4.16666 12.5026 4.16666Z" fill="#6A6AF4"/>
</svg>
