<svg width="793" height="763" viewBox="0 0 793 763" fill="none" xmlns="http://www.w3.org/2000/svg">
  <circle cx="281" cy="482" r="231" fill="#6A6AF4"/>
  <circle cx="512" cy="482" r="231" fill="#FF9575"/>
  <circle cx="397" cy="281" r="231" fill="#FFCC00"/>
  <path d="M511.997 251C554.277 251 593.904 262.359 627.993 282.191C627.352 409.221 524.177 512 396.997 512C354.716 512 315.089 500.641 281 480.808C281.642 353.778 384.817 251 511.997 251Z" fill="#FFCC00"/>
  <path d="M280.998 251C408.371 251 511.664 354.09 511.995 481.386C478.132 500.861 438.866 512 396.998 512C269.625 512 166.331 408.909 166 281.613C199.863 262.138 239.13 251 280.998 251Z" fill="#6A6AF4"/>
  <path d="M396.5 282C465.546 321.941 512 396.593 512 482.096C512 567.598 465.546 642.249 396.5 682.19C327.454 642.249 281 567.598 281 482.096C281 396.593 327.454 321.941 396.5 282Z" fill="#FF9575"/>
  <path d="M396.494 282C462.708 320.303 508.144 390.529 511.76 471.633C511.903 474.867 511.98 478.118 511.988 481.385C507.165 484.158 502.233 486.763 497.199 489.19C496.182 489.681 495.161 490.165 494.136 490.641C491.287 491.963 488.406 493.229 485.495 494.438C484.462 494.866 483.426 495.287 482.386 495.701C480.004 496.649 477.603 497.559 475.184 498.43C474.136 498.807 473.084 499.175 472.029 499.537C471.285 499.793 470.54 500.045 469.792 500.293C468.782 500.628 467.77 500.956 466.754 501.277C465.97 501.525 465.185 501.769 464.397 502.009C463.347 502.329 462.293 502.642 461.236 502.947C460.491 503.163 459.744 503.374 458.995 503.582C457.924 503.88 456.85 504.17 455.772 504.453C450.823 505.752 445.808 506.89 440.734 507.862C439.647 508.071 438.557 508.272 437.464 508.465C436.678 508.604 435.891 508.738 435.103 508.869C434.012 509.05 432.92 509.224 431.824 509.39C431.082 509.502 430.338 509.611 429.593 509.716C428.433 509.88 427.271 510.035 426.105 510.182C422.823 510.594 419.519 510.938 416.194 511.212C415.105 511.302 414.014 511.384 412.92 511.458C407.658 511.816 402.349 511.999 396.996 511.999H396.988C395.1 511.999 393.218 511.976 391.341 511.931C391.183 511.927 391.024 511.924 390.866 511.92C389.082 511.873 387.304 511.805 385.53 511.719C385.313 511.708 385.097 511.698 384.88 511.687C383.141 511.597 381.407 511.487 379.678 511.359C379.512 511.347 379.346 511.335 379.181 511.322C369.656 510.596 360.293 509.292 351.126 507.445C350.917 507.403 350.708 507.362 350.5 507.319C335.019 504.156 320.102 499.444 305.918 493.353C305.786 493.296 305.655 493.238 305.523 493.182C297.076 489.535 288.89 485.4 281 480.81C281.463 395.845 327.795 321.741 396.494 282Z" fill="#F3F5F9"/>
</svg>
    