<?xml version="1.0" encoding="UTF-8" standalone="no"?>
<svg
   width="899.76874"
   height="217.89917"
   viewBox="0 0 899.76876 217.89918"
   fill="none"
   version="1.1"
   id="svg2"
   sodipodi:docname="peren.svg"
   inkscape:version="1.4 (e7c3feb100, 2024-10-09)"
   xmlns:inkscape="http://www.inkscape.org/namespaces/inkscape"
   xmlns:sodipodi="http://sodipodi.sourceforge.net/DTD/sodipodi-0.dtd"
   xmlns="http://www.w3.org/2000/svg"
   xmlns:svg="http://www.w3.org/2000/svg">
  <defs
     id="defs2" />
  <sodipodi:namedview
     id="namedview2"
     pagecolor="#ffffff"
     bordercolor="#000000"
     borderopacity="0.25"
     inkscape:showpageshadow="2"
     inkscape:pageopacity="0.0"
     inkscape:pagecheckerboard="0"
     inkscape:deskcolor="#d1d1d1"
     showguides="true"
     inkscape:zoom="1.0451097"
     inkscape:cx="612.85433"
     inkscape:cy="132.52197"
     inkscape:window-width="1920"
     inkscape:window-height="1052"
     inkscape:window-x="0"
     inkscape:window-y="0"
     inkscape:window-maximized="1"
     inkscape:current-layer="svg2">
    <inkscape:page
       x="0"
       y="0"
       width="899.76874"
       height="217.89919"
       id="page2"
       margin="0"
       bleed="0" />
  </sodipodi:namedview>
  <text
     x="286.08954"
     y="92.298508"
     font-family="Arial, sans-serif"
     font-size="60px"
     font-weight="bold"
     fill="#161616"
     id="text1">PEReN</text>
  <text
     x="287.22266"
     y="151.63293"
     font-family="Arial, sans-serif"
     font-size="30px"
     fill="#3a3a3a"
     id="text2">Pôle d’expertise de la régulation numérique</text>
  <rect
     width="223.94125"
     height="75.714851"
     x="30.399464"
     y="42.958012"
     id="rect6"
     style="fill:#ffffff;stroke:none;stroke-width:0.145606" />
  <path
     d="m 209.22755,174.79227 c -0.12361,-0.0504 -0.13125,-0.18526 -0.0274,-0.48306 0.13149,-0.37723 0.19211,-0.40669 0.69762,-0.3389 0.45845,0.0615 0.59335,0.0175 0.78492,-0.25598 0.36834,-0.52586 0.084,-0.90523 -0.58439,-0.77984 -0.51268,0.0962 -0.52068,0.0904 -0.4219,-0.30307 0.31363,-1.24971 0.34343,-1.18087 -0.59121,-1.3662 -1.11254,-0.22062 -2.17712,-0.84384 -2.99477,-1.75329 -1.22779,-1.36556 -1.65358,-2.74698 -1.53121,-4.96766 0.0624,-1.13126 0.15872,-1.57232 0.51542,-2.35901 1.09163,-2.4075 3.58501,-3.63515 6.93642,-3.4152 0.72556,0.0476 1.64689,0.17117 2.0473,0.27456 l 0.72801,0.18797 0.0418,1.34685 0.0418,1.34685 h -0.44226 c -0.26085,0 -0.44228,-0.076 -0.44228,-0.18523 0,-0.37824 -0.89164,-1.25361 -1.52219,-1.49443 -0.81389,-0.31082 -2.39288,-0.23996 -3.18384,0.14288 -1.80789,0.87503 -2.63211,3.14653 -2.08247,5.73884 0.25535,1.20441 0.67732,2.01235 1.48398,2.84155 0.76456,0.78597 1.53587,1.10323 2.69152,1.1071 1.22224,0.005 2.07794,-0.48702 2.61611,-1.50149 0.36565,-0.68926 0.49607,-0.77382 0.84876,-0.5503 0.16417,0.10403 0.16572,0.34368 0.009,1.44941 l -0.18752,1.32479 -0.66441,0.22958 c -0.36541,0.12628 -1.20493,0.26904 -1.86563,0.31725 -1.13918,0.0831 -1.20122,0.10535 -1.20122,0.43005 0,0.25922 0.0806,0.34238 0.3316,0.34238 0.48628,0 0.94247,0.37661 1.0502,0.86699 0.12511,0.56978 -0.28037,1.41271 -0.8118,1.68753 -0.3844,0.19877 -1.88223,0.27734 -2.27028,0.11908 z m -86.62966,-0.61279 c -1.26051,-0.37161 -2.3476,-0.93219 -3.65516,-1.88484 l -1.12963,-0.82302 -1.74726,-0.0896 c -1.93737,-0.0994 -2.61431,-0.31564 -3.86756,-1.23561 -2.76078,-2.0266 -2.86101,-7.18374 -0.1884,-9.69384 2.01196,-1.88963 5.55148,-2.28006 8.09924,-0.89339 3.43955,1.87202 3.80471,7.39457 0.68022,10.28729 -0.48485,0.44889 -0.95972,0.81643 -1.05526,0.81674 -0.2976,0.001 3.12422,1.87279 4.12475,2.25633 1.1054,0.42376 2.39693,0.48038 3.34303,0.14658 0.68824,-0.24283 0.80588,-0.21373 0.92136,0.22791 0.0675,0.25797 -0.0503,0.36663 -0.74685,0.68922 -1.09802,0.5085 -3.39882,0.60299 -4.77848,0.19625 z m -4.26964,-4.49987 c 2.43813,-1.27369 2.9023,-5.35256 0.90555,-7.95734 -1.85049,-2.414 -5.09382,-2.04856 -6.3129,0.71129 -1.10145,2.49356 0.15523,6.34861 2.40219,7.36905 0.90942,0.41301 2.07006,0.36551 3.00516,-0.123 z m -76.521207,1.50899 c -0.668764,-0.29189 -1.402477,-1.19987 -2.56194,-3.17044 -1.7813,-3.02741 -2.115151,-3.47097 -2.612478,-3.47097 h -0.431393 l 0.003,1.63806 c 0.0054,2.98972 0.305951,4.01284 1.248526,4.24941 0.252151,0.0633 0.350207,0.18905 0.350207,0.44914 v 0.36124 H 34.818053 31.83314 v -0.34295 c 0,-0.25973 0.111229,-0.37485 0.458403,-0.47442 0.252116,-0.0723 0.596112,-0.31595 0.764426,-0.54143 0.298683,-0.40013 0.306028,-0.54577 0.306028,-6.06722 0,-5.52149 -0.0073,-5.66708 -0.306028,-6.06708 -0.168314,-0.2254 -0.51231,-0.46898 -0.764426,-0.54129 -0.334979,-0.0961 -0.458403,-0.21751 -0.458403,-0.45107 0,-0.31819 0.01642,-0.32003 3.698262,-0.41477 3.918673,-0.10083 4.782199,-0.0262 5.886728,0.50844 0.964915,0.46711 1.769184,1.88246 1.771429,3.11734 0.0024,1.41377 -1.048818,3.01049 -2.436168,3.69976 l -0.726219,0.36081 1.605099,2.40569 c 1.888321,2.83019 2.481345,3.58623 3.039273,3.87475 0.520844,0.26933 0.570876,0.85682 0.08408,0.98727 -0.585649,0.15695 -2.500316,0.0854 -2.948508,-0.11027 z m -3.643418,-8.11426 c 1.951956,-0.54191 2.610747,-3.25434 1.133528,-4.66704 -0.694413,-0.66407 -1.431816,-0.90512 -2.372964,-0.77568 l -0.722957,0.0994 v 2.75284 2.75284 l 0.691623,-6e-4 c 0.380395,-4.3e-4 0.952243,-0.0731 1.27077,-0.16159 z m 33.548206,8.11529 c -0.798022,-0.28517 -1.550456,-0.79299 -1.948796,-1.31524 -0.723913,-0.9491 -0.799933,-1.44812 -0.808784,-5.3091 -0.0093,-4.03555 -0.08517,-4.47893 -0.825863,-4.82308 -0.297554,-0.13826 -0.471194,-0.32528 -0.473141,-0.50962 -0.003,-0.27991 0.09297,-0.29121 2.47219,-0.29121 2.469886,0 2.475266,5.9e-4 2.475218,0.32761 -3.5e-5,0.2201 -0.08729,0.32761 -0.26588,0.32761 -0.146206,0 -0.424675,0.16906 -0.618823,0.37569 l -0.352995,0.37568 v 3.95608 c 0,3.72312 0.01779,3.99003 0.302486,4.53272 0.443982,0.84638 1.32964,1.28174 2.468626,1.21349 1.225438,-0.0734 1.888308,-0.50802 2.377597,-1.55882 0.375451,-0.80632 0.378926,-0.84626 0.381601,-4.38744 0.0024,-3.17093 -0.02621,-3.61786 -0.253954,-3.96544 -0.141155,-0.21545 -0.419629,-0.43263 -0.618823,-0.48262 -0.226144,-0.0568 -0.362169,-0.19435 -0.362169,-0.36633 0,-0.25656 0.134622,-0.27543 1.965673,-0.27543 1.831051,0 1.965672,0.0189 1.965672,0.27543 0,0.1715 -0.135767,0.3095 -0.359809,0.36573 -0.670502,0.16828 -0.724039,0.48042 -0.803409,4.68435 l -0.07443,3.94225 -0.438332,0.85648 c -0.51735,1.01087 -1.355265,1.70979 -2.433828,2.03008 -0.909813,0.27019 -3.039668,0.28213 -3.77003,0.0211 z m 56.786139,0 c -0.80689,-0.28835 -1.55177,-0.79471 -1.96393,-1.33508 -0.68634,-0.89984 -0.78475,-1.56528 -0.79366,-5.3669 -0.009,-3.95261 -0.0875,-4.4024 -0.82586,-4.74544 -0.29755,-0.13826 -0.47119,-0.32528 -0.47314,-0.50962 -0.003,-0.27991 0.093,-0.29121 2.4722,-0.29121 2.44648,0 2.47526,0.004 2.47522,0.31749 -4e-5,0.21333 -0.10274,0.33274 -0.31306,0.36401 -0.17215,0.0256 -0.45062,0.23137 -0.61882,0.45729 -0.2866,0.38495 -0.30885,0.62484 -0.35389,3.81571 -0.0553,3.92023 0.0541,4.74698 0.71832,5.42635 1.20162,1.22904 3.69915,0.88574 4.40692,-0.60578 0.44576,-0.93936 0.56017,-2.11618 0.50535,-5.19777 -0.0581,-3.26282 -0.15546,-3.66961 -0.92499,-3.86274 -0.22615,-0.0568 -0.36218,-0.19435 -0.36218,-0.36633 0,-0.25656 0.13463,-0.27543 1.96568,-0.27543 1.82629,0 1.96567,0.0194 1.96567,0.27355 0,0.16517 -0.16891,0.34351 -0.42635,0.45014 -0.23449,0.0971 -0.4765,0.28527 -0.53779,0.41808 -0.0613,0.13281 -0.14791,2.01559 -0.19247,4.18395 l -0.081,3.94247 -0.43833,0.85626 c -0.51736,1.01065 -1.35544,1.70963 -2.43383,2.02987 -0.90981,0.27019 -3.03967,0.28213 -3.77003,0.0211 z m 46.08855,-0.006 c -0.58201,-0.2534 -1.27425,-1.11625 -2.3454,-2.92339 -1.38324,-2.33378 -1.54042,-2.54431 -1.90081,-2.54629 -0.32241,-0.002 -0.32761,0.0271 -0.32761,1.82294 0,2.17717 0.18178,2.7909 0.86715,2.92798 0.34463,0.0689 0.44329,0.1656 0.44329,0.43447 v 0.34581 h -2.4753 -2.47528 v -0.34581 c 0,-0.26887 0.0986,-0.36553 0.44322,-0.43447 0.82954,-0.1659 0.8883,-0.5602 0.83849,-5.62859 l -0.0442,-4.48854 -0.35299,-0.37551 c -0.19414,-0.20654 -0.47267,-0.37552 -0.61885,-0.37552 -0.16482,0 -0.2658,-0.10594 -0.2658,-0.27879 0,-0.2402 0.14774,-0.29263 1.06799,-0.37887 0.58744,-0.055 2.20907,-0.075 3.60376,-0.0445 2.26736,0.0498 2.59987,0.0895 3.14228,0.37558 0.96348,0.50824 1.5047,1.4993 1.5047,2.75544 0,1.19322 -0.68413,2.24123 -1.92595,2.95049 -0.39647,0.22641 -0.65253,0.45386 -0.56911,0.50543 0.0834,0.0515 0.72682,0.95995 1.42982,2.01865 1.38001,2.07833 2.14702,3.01695 2.46544,3.01695 0.28067,0 0.25583,0.676 -0.0286,0.78525 -0.41319,0.15857 -2.01571,0.0817 -2.47613,-0.11876 z m -2.69111,-6.84951 c 0.57878,-0.29929 1.14711,-1.0191 1.25383,-1.58799 0.13705,-0.73047 -0.18447,-1.69406 -0.74008,-2.21806 -0.51446,-0.48523 -1.0115,-0.62437 -1.87161,-0.52396 l -0.52485,0.0613 v 2.24096 2.24095 h 0.73524 c 0.40441,0 0.92072,-0.0959 1.14747,-0.21318 z m 64.8124,6.82431 c -0.43618,-0.11723 -0.8192,-0.23931 -0.85116,-0.27126 -0.0317,-0.032 -0.13842,-0.68523 -0.23665,-1.45172 l -0.17856,-1.39362 h 0.41086 c 0.22597,0 0.41085,0.0543 0.41085,0.12065 0,0.37882 0.95554,1.49466 1.5096,1.76288 1.49754,0.72496 3.2961,0.0425 3.29485,-1.25032 0,-0.84836 -0.41276,-1.35543 -1.81571,-2.23487 -1.96853,-1.23398 -2.72867,-1.88556 -3.12125,-2.6755 -0.39139,-0.78758 -0.46132,-2.01322 -0.16596,-2.90834 0.19504,-0.59084 1.10979,-1.47312 1.87985,-1.81308 0.77525,-0.34225 3.20157,-0.33121 4.20644,0.0191 l 0.76444,0.26652 v 1.29874 1.29875 h -0.421 c -0.32684,0 -0.44132,-0.0808 -0.51173,-0.36134 -0.15263,-0.60811 -0.9332,-1.36745 -1.58651,-1.54337 -1.74769,-0.4706 -3.14753,1.32244 -2.05033,2.62635 0.20954,0.24902 1.15941,0.98039 2.11095,1.62527 1.84299,1.24915 2.5239,1.92934 2.75201,2.74928 0.50205,1.80425 -0.33178,3.39785 -2.12993,4.07062 -0.96486,0.361 -3.05211,0.39287 -4.27106,0.0652 z M 45.956799,170.85252 c 0,-0.25811 0.08153,-0.33548 0.35345,-0.33548 0.208401,0 0.47728,-0.15744 0.65522,-0.38365 0.290764,-0.36965 0.301782,-0.5507 0.301782,-4.96016 0,-3.20007 -0.05094,-4.67216 -0.169389,-4.89455 -0.216923,-0.40729 -0.56264,-0.67154 -0.886255,-0.67742 -0.173491,-0.003 -0.254808,-0.1208 -0.254808,-0.36864 v -0.36402 h 4.368166 4.368167 v 1.53852 1.53854 l -0.382282,-0.0461 c -0.287927,-0.0347 -0.422686,-0.1685 -0.546021,-0.54207 -0.28705,-0.86947 -0.766348,-1.09098 -2.49948,-1.15513 l -1.522808,-0.0564 v 2.0737 2.07371 l 1.171161,-0.0678 c 1.276407,-0.0739 1.919182,-0.38378 2.005886,-0.96707 0.03433,-0.23091 0.148888,-0.31294 0.436816,-0.3128 l 0.390289,1.5e-4 v 1.89269 1.89268 l -0.400417,-2e-5 c -0.322976,-1e-5 -0.400412,-0.066 -0.400412,-0.34147 0,-0.65019 -0.485521,-0.8912 -1.90795,-0.94708 l -1.295373,-0.0509 v 2.04471 c 0,2.46448 0.02263,2.49804 1.685138,2.49804 1.639561,0 2.494261,-0.41524 2.922155,-1.41966 0.216261,-0.50764 0.720402,-0.65263 0.874348,-0.25147 0.101585,0.26474 -0.308758,1.9741 -0.61696,2.5701 l -0.218124,0.4218 -4.21615,-0.0337 -4.216149,-0.0337 v -0.33548 z m 11.211623,0.0467 c 0,-0.26633 0.09857,-0.36553 0.428897,-0.4316 0.768241,-0.15364 0.804722,-0.36924 0.854007,-5.04681 0.0513,-4.87027 -0.01099,-5.30898 -0.806532,-5.67861 -0.331796,-0.15416 -0.470998,-0.31884 -0.473219,-0.55985 l -0.003,-0.34144 3.312529,0.0604 c 3.581603,0.0653 3.873783,0.12189 4.844521,0.93871 1.066853,0.8977 1.343422,2.68313 0.621175,4.01013 -0.629941,1.15741 -1.719045,1.77202 -3.455253,1.9499 l -0.909474,0.0932 -0.225965,-0.56381 -0.225971,-0.5638 0.538037,-0.0787 c 0.683568,-0.1 1.425875,-0.53288 1.819018,-1.06081 0.223601,-0.30025 0.303723,-0.61513 0.296414,-1.16485 -0.01887,-1.41776 -0.815866,-2.28484 -2.206137,-2.40013 l -0.78679,-0.0652 0.04545,4.86016 c 0.04951,5.30047 0.07295,5.44942 0.882655,5.61534 0.301388,0.0618 0.400412,0.16758 0.400412,0.42787 v 0.34581 h -2.475262 -2.475296 v -0.34581 z m 24.170512,-0.0532 c 0,-0.22551 0.08654,-0.32902 0.275083,-0.32902 0.151289,0 0.429763,-0.12518 0.618824,-0.27816 l 0.343736,-0.27817 0.0441,-4.51308 c 0.04938,-5.05211 -0.0068,-5.4335 -0.842381,-5.749 -0.262171,-0.099 -0.439359,-0.2704 -0.439359,-0.42513 0,-0.23572 0.201821,-0.2626 2.22048,-0.29569 4.249176,-0.0697 5.138466,-0.022 5.829556,0.31257 0.895804,0.43366 1.314367,1.0615 1.388213,2.08233 0.03317,0.45881 0.0199,0.99536 -0.02955,1.19231 -0.143449,0.57154 -0.822131,1.26949 -1.572495,1.61713 l -0.693601,0.32136 0.587502,0.17602 c 1.403781,0.42058 2.298793,1.88847 2.113373,3.46612 -0.156507,1.33159 -0.727935,2.08043 -2.053595,2.6912 -0.69624,0.32077 -0.882217,0.33548 -4.258962,0.33681 l -3.530934,0.002 v -0.329 z m 6.42151,-1.09635 c 0.742101,-0.49575 1.036681,-1.17086 0.954021,-2.18635 -0.124374,-1.52774 -1.191431,-2.43372 -2.866452,-2.43372 h -0.889922 l 0.04689,2.19728 c 0.04493,2.10618 0.06114,2.2088 0.39063,2.47529 0.502851,0.4067 1.717828,0.37973 2.364837,-0.0525 z m -0.601291,-6.05029 c 0.893926,-0.34256 1.364381,-1.04244 1.27137,-1.89135 -0.124985,-1.14068 -1.044153,-1.7746 -2.573146,-1.7746 h -0.878305 v 1.96567 1.96567 l 0.764425,-0.008 c 0.42044,-0.005 1.057482,-0.12023 1.415656,-0.25748 z m 5.973872,7.15493 c -3.7e-5,-0.23533 0.10025,-0.32991 0.385971,-0.36401 0.217009,-0.0259 0.519807,-0.22606 0.691626,-0.45717 0.294837,-0.3966 0.30561,-0.56858 0.30561,-4.87779 0,-3.57989 -0.04086,-4.53895 -0.205798,-4.8307 -0.257155,-0.45488 -0.591973,-0.71738 -0.922643,-0.7234 -0.165803,-0.003 -0.254818,-0.11906 -0.254818,-0.33224 0,-0.32761 0,-0.32761 2.620899,-0.32761 2.620899,0 2.620899,0 2.620899,0.32761 0,0.22741 -0.08658,0.32761 -0.28309,0.32761 -0.1557,0 -0.466927,0.15806 -0.691619,0.35125 l -0.408536,0.35123 -0.04229,4.59216 -0.04222,4.59215 0.372611,0.24415 c 0.294957,0.19327 0.610285,0.23039 1.512927,0.17814 1.385546,-0.0802 2.034416,-0.4231 2.420396,-1.27905 0.25681,-0.5695 0.52854,-0.7078 0.91215,-0.46426 0.144,0.0914 0.12053,0.36045 -0.11015,1.26242 -0.16124,0.63044 -0.39444,1.30082 -0.51823,1.48974 l -0.22507,0.3435 -4.069293,-0.0429 -4.06929,-0.0429 z m 10.192335,0.0449 c 0,-0.26887 0.0986,-0.36554 0.44326,-0.43447 0.80398,-0.1608 0.86726,-0.55795 0.86665,-5.43967 -4.4e-4,-4.05407 -0.0192,-4.36701 -0.2867,-4.80576 -0.15739,-0.25812 -0.45199,-0.51093 -0.65468,-0.5618 -0.25079,-0.063 -0.36853,-0.19213 -0.36853,-0.40433 0,-0.30647 0.0425,-0.31183 2.47529,-0.31183 2.43278,0 2.47529,0.005 2.47529,0.31183 0,0.21076 -0.11738,0.3413 -0.36216,0.40273 -0.1992,0.05 -0.47767,0.2671 -0.61883,0.48246 -0.23098,0.35241 -0.25664,0.83636 -0.25664,4.83908 0,4.94371 0.0593,5.34028 0.82173,5.49276 0.31738,0.0635 0.4159,0.16511 0.4159,0.429 v 0.34581 h -2.47529 -2.47529 z m 34.79971,-0.0263 c 0,-0.23952 0.11094,-0.34167 0.44326,-0.40813 0.80424,-0.16085 0.86719,-0.55679 0.86719,-5.45455 0,-4.2904 -0.005,-4.35823 -0.33262,-4.84606 -0.18294,-0.27211 -0.47778,-0.51569 -0.65522,-0.54127 -0.23182,-0.0335 -0.32261,-0.14612 -0.32261,-0.40042 v -0.35388 h 4.29536 4.29537 v 1.52885 c 0,1.51472 -0.003,1.52886 -0.34781,1.52886 -0.28143,0 -0.36584,-0.0961 -0.44229,-0.5036 -0.16237,-0.86549 -0.75712,-1.15611 -2.49787,-1.22054 l -1.47313,-0.0545 -0.0948,0.69125 c -0.0521,0.38019 -0.0947,1.31381 -0.0947,2.07471 v 1.38345 l 1.23871,-0.0773 c 1.36381,-0.0851 1.90358,-0.32512 2.05089,-0.91204 0.0651,-0.25953 0.18958,-0.36217 0.43913,-0.36217 h 0.34822 v 1.89287 1.89287 h -0.36401 c -0.24785,0 -0.3655,-0.0813 -0.36865,-0.25481 -0.013,-0.72071 -0.70599,-1.05565 -2.18384,-1.05565 h -1.18838 l 0.0504,2.05036 c 0.061,2.48377 0.0461,2.46342 1.79461,2.46342 1.54316,0 2.34568,-0.36968 2.76577,-1.27405 0.21157,-0.45549 0.37263,-0.61883 0.61022,-0.61883 0.17754,0 0.36708,0.0717 0.42121,0.15926 0.1327,0.21471 -0.51317,2.58157 -0.77625,2.84465 -0.17364,0.17363 -0.91299,0.20393 -4.34369,0.17799 l -4.13444,-0.0312 z m 16.01663,0.0344 c 0,-0.23873 0.13568,-0.3988 0.46281,-0.54602 0.25452,-0.11456 0.59855,-0.39331 0.76445,-0.61945 0.29243,-0.3987 0.30157,-0.57754 0.30157,-5.89702 0,-6.17097 -0.0114,-6.24531 -1.01669,-6.57707 -0.39837,-0.13146 -0.51214,-0.24741 -0.51214,-0.52174 v -0.35273 h 5.09617 5.09617 v 1.82007 1.82008 h -0.43677 c -0.3558,0 -0.43696,-0.0608 -0.43737,-0.32762 0,-0.53583 -0.54923,-1.27481 -1.13111,-1.52446 -0.34433,-0.14773 -1.1418,-0.25771 -2.18088,-0.30077 l -1.63806,-0.0679 v 2.49361 2.49362 l 1.20122,-0.008 c 1.60109,-0.0109 2.14906,-0.20963 2.4873,-0.90181 0.21755,-0.44523 0.34523,-0.54603 0.69165,-0.54603 h 0.42482 v 2.19331 2.19331 l -0.46753,-0.0456 c -0.32109,-0.0314 -0.49207,-0.13682 -0.54599,-0.33683 -0.23093,-0.85644 -1.12203,-1.23765 -2.89302,-1.23765 h -0.93093 l 0.0591,2.58449 c 0.0677,2.94949 0.19182,3.38053 1.06381,3.69587 0.38255,0.13832 0.511,0.26895 0.511,0.51954 v 0.33477 h -2.98485 -2.98493 v -0.33774 z m 23.29687,-0.0263 c 0,-0.26607 0.0778,-0.36401 0.28915,-0.36401 0.44615,0 0.95572,-0.90742 2.06324,-3.67418 1.48302,-3.70495 2.88937,-7.47216 2.88937,-7.73982 0,-0.18302 0.15168,-0.23378 0.69165,-0.23146 l 0.69165,0.003 1.96392,5.03376 c 2.13264,5.46624 2.52575,6.31589 3.02302,6.53406 0.20089,0.0881 0.32761,0.27118 0.32761,0.47322 0,0.32932 0,0.32948 -2.47529,0.32948 h -2.47529 v -0.34581 c 0,-0.26706 0.0986,-0.36553 0.43295,-0.4324 0.62578,-0.12516 0.66352,-0.54869 0.17712,-1.98829 l -0.41814,-1.23765 h -1.72052 -1.72052 l -0.34588,1.01924 c -0.43576,1.2842 -0.4105,2.16321 0.0641,2.23062 0.23714,0.0337 0.32761,0.14427 0.32761,0.40041 v 0.35388 h -1.89286 -1.89286 v -0.36401 z m 6.69785,-5.09853 c 0,-0.22153 -1.0696,-3.12817 -1.15111,-3.12817 -0.0532,0 -0.20155,0.27847 -0.32988,0.61882 -0.12834,0.34035 -0.40166,1.0611 -0.60733,1.60165 l -0.37395,0.98284 h 1.23113 c 0.67714,0 1.23114,-0.0338 1.23114,-0.0752 z m 6.26102,5.11673 c 0,-0.26028 0.099,-0.3661 0.4004,-0.42785 0.78768,-0.16142 0.82309,-0.36652 0.88424,-5.12804 0.0632,-4.91216 0,-5.32519 -0.84524,-5.64473 -0.26222,-0.099 -0.4394,-0.27041 -0.4394,-0.42514 0,-0.2333 0.16416,-0.25925 1.63805,-0.25898 l 1.63811,3e-4 0.9464,1.19782 c 0.52056,0.65881 1.86379,2.28168 2.98492,3.60639 1.12114,1.32471 2.18871,2.6038 2.37239,2.84242 l 0.33389,0.43385 -0.0472,-3.28937 c -0.0513,-3.58425 -0.13281,-3.95399 -0.91368,-4.14998 -0.22615,-0.0568 -0.36218,-0.19434 -0.36218,-0.36632 0,-0.25657 0.13466,-0.27543 1.96565,-0.27543 1.84503,0 1.96572,0.0173 1.96572,0.28109 0,0.1761 -0.11692,0.29846 -0.31303,0.32761 -0.17217,0.0256 -0.45063,0.2314 -0.61879,0.45736 -0.29573,0.39724 -0.30731,0.58883 -0.35043,5.78782 l -0.0448,5.37698 h -0.63474 c -0.57424,0 -0.68072,-0.059 -1.11618,-0.61882 -0.38494,-0.49485 -6.55351,-8.13499 -6.78909,-8.40872 -0.0347,-0.04 -0.0341,1.56526 0,3.56734 0.0709,4.05977 0.15956,4.54545 0.85503,4.68454 0.32164,0.0643 0.42017,0.16515 0.42017,0.42985 v 0.34581 h -1.96566 -1.96572 v -0.34583 z m 25.48097,-0.0182 c 0,-0.21631 0.0834,-0.36401 0.20549,-0.36401 0.28772,0 0.82745,-0.68325 1.2128,-1.53545 0.53596,-1.18513 3.02786,-7.61723 3.45538,-8.91914 l 0.39694,-1.20863 0.65092,0.0438 0.65086,0.0438 1.93174,4.95059 c 1.06249,2.72282 2.04843,5.17992 2.19103,5.46021 0.32558,0.63981 0.7995,1.16484 1.05145,1.16484 0.10886,0 0.19306,0.15879 0.19306,0.36402 v 0.36401 h -2.47535 -2.47528 v -0.36401 c 0,-0.25347 0.0796,-0.36402 0.2621,-0.36402 0.70466,0 0.77,-0.61533 0.23558,-2.21998 l -0.37598,-1.12894 h -1.70875 -1.70876 l -0.30987,0.98283 c -0.5853,1.85641 -0.55753,2.36609 0.12899,2.36609 0.19455,0 0.27338,0.10498 0.27338,0.36402 v 0.36401 h -1.89286 -1.89287 z m 6.17807,-6.51585 c -0.27529,-0.82085 -0.53954,-1.59074 -0.5872,-1.71086 -0.0519,-0.13047 -0.3429,0.42652 -0.723,1.38325 -0.35,0.88092 -0.63838,1.65081 -0.64083,1.71087 0,0.0601 0.54809,0.1092 1.2235,0.1092 h 1.22802 z m 6.63521,6.51585 c 0,-0.2848 0.0743,-0.36401 0.34147,-0.36401 0.18775,0 0.46627,-0.13783 0.61879,-0.30628 0.25821,-0.28511 0.28031,-0.61992 0.32014,-4.84139 0.0233,-2.4943 0.007,-4.68072 -0.0382,-4.85868 -0.10373,-0.41488 -0.63815,-0.91406 -0.97847,-0.91406 -0.17647,0 -0.26378,-0.10846 -0.26384,-0.32762 -5e-5,-0.3269 0.006,-0.32761 2.47523,-0.32761 2.38058,0 2.47529,0.0112 2.47535,0.29207 6e-5,0.18215 -0.15855,0.36227 -0.42131,0.47858 -0.23176,0.1026 -0.48896,0.3643 -0.57161,0.58157 -0.21218,0.55797 -0.33287,5.10152 -0.20071,7.55608 0.0922,1.71206 0.15777,2.11633 0.38381,2.3661 0.14994,0.16568 0.39348,0.30124 0.54127,0.30124 0.18943,0 0.26861,0.10726 0.26861,0.36401 v 0.36401 h -2.47528 -2.4753 z m 16.30783,-0.0262 c 0,-0.2606 0.0808,-0.33784 0.35341,-0.33784 0.20841,0 0.47732,-0.15743 0.65522,-0.38365 0.29076,-0.36964 0.30181,-0.55071 0.30181,-4.96016 0,-3.20007 -0.0507,-4.67216 -0.16942,-4.89455 -0.21689,-0.40728 -0.5626,-0.67154 -0.8862,-0.67742 -0.17355,-0.003 -0.25482,-0.1208 -0.25482,-0.36865 v -0.36401 h 4.36815 4.36816 v 1.53853 1.53853 l -0.38225,-0.0461 c -0.28796,-0.0347 -0.42268,-0.16848 -0.54606,-0.54205 -0.287,-0.86948 -0.76635,-1.09099 -2.49947,-1.15514 l -1.5228,-0.0564 v 2.05499 2.05499 l 0.91003,-0.008 c 1.26327,-0.0114 1.87931,-0.24832 2.14769,-0.82587 0.15992,-0.34424 0.31584,-0.47085 0.58242,-0.47301 l 0.36404,-0.003 v 1.89269 1.89269 l -0.40046,-2e-5 c -0.32296,-2e-5 -0.40041,-0.066 -0.40041,-0.34146 0,-0.65021 -0.48551,-0.89122 -1.90792,-0.9471 l -1.29539,-0.0509 v 2.04471 c 0,2.46448 0.0227,2.49803 1.68511,2.49803 1.6396,0 2.49428,-0.41523 2.92215,-1.41965 0.2163,-0.50764 0.72044,-0.65263 0.87439,-0.25146 0.10158,0.26473 -0.30874,1.97408 -0.61695,2.5701 l -0.21814,0.4218 -4.21617,-0.0314 -4.21612,-0.0314 z m -195.103225,-13.2855 -0.355868,-0.27352 0.865485,-1.32263 c 0.47602,-0.72743 0.958406,-1.32365 1.071971,-1.3249 0.492346,-0.005 2.06002,0.33138 2.020762,0.43417 -0.07819,0.20472 -2.952009,2.76517 -3.100878,2.76275 -0.08008,-0.002 -0.305748,-0.12545 -0.501472,-0.27587 z m -18.500046,-10.058 H 253.15341 v 1.31045 H 31.396249 Z m 84.398371,-2.97979 c -1.1648,-0.41524 -1.81985,-1.50094 -1.60767,-2.66458 0.14298,-0.78418 0.58688,-1.33291 1.37282,-1.69704 l 0.68775,-0.31864 -0.41845,-0.24016 c -0.23783,-0.13649 -0.41845,-0.36388 -0.41845,-0.52679 0,-0.26348 1.06764,-1.32857 1.33174,-1.32857 0.063,0 -0.0284,-0.24222 -0.20311,-0.53829 -0.74565,-1.26378 -0.14912,-3.09095 1.24302,-3.80736 0.7537,-0.38787 1.00814,-0.40428 3.64712,-0.23523 1.51814,0.0973 1.57465,0.11281 1.49444,0.41171 -0.0458,0.17084 -0.0842,0.35977 -0.0853,0.41983 -0.002,0.0601 -0.25786,0.10921 -0.5706,0.10921 h -0.56861 l 0.0768,0.8465 c 0.16747,1.8469 -1.14599,3.1118 -3.26644,3.14571 -1.10147,0.0176 -1.6346,0.25121 -1.20488,0.52795 0.11946,0.0769 0.83055,0.33836 1.58021,0.58098 2.41062,0.78014 2.8561,1.17273 2.7533,2.42636 -0.10677,1.30206 -1.1541,2.43728 -2.66924,2.89327 -0.86766,0.26113 -2.43496,0.25873 -3.17435,-0.005 z m 3.24197,-0.89897 c 1.18207,-0.58905 1.69415,-1.7115 1.04771,-2.29652 -0.43551,-0.39413 -2.32697,-0.99919 -2.8171,-0.90117 -0.99787,0.19957 -1.93002,1.41618 -1.75798,2.29443 0.23645,1.20699 2.00768,1.66055 3.52737,0.90326 z m 0.38983,-6.58819 c 0.88748,-0.54118 1.23025,-2.07704 0.633,-2.83632 -0.81698,-1.03861 -2.37189,0.119 -2.38639,1.77664 -0.005,0.51508 0.0697,0.69618 0.40301,0.98284 0.49121,0.42252 0.75855,0.43774 1.35038,0.0768 z m 5.52135,3.37873 c -0.63965,-0.13067 -0.98233,-0.55764 -1.05506,-1.31453 -0.18622,-1.93798 1.44426,-4.77832 3.26898,-5.69465 0.94848,-0.4763 2.81937,-0.52436 4.06578,-0.10443 0.11182,0.0377 0.0292,0.53544 -0.25902,1.55918 -0.56358,2.00227 -0.88631,4.00637 -0.70093,4.35275 0.1216,0.22721 0.20786,0.24296 0.59382,0.10841 0.35624,-0.12418 0.47848,-0.11484 0.57915,0.0443 0.20959,0.33131 0.0822,0.45734 -0.74976,0.74179 -1.11856,0.38245 -1.63061,0.3079 -1.79873,-0.26187 l -0.13274,-0.44982 -0.59618,0.33321 c -1.00641,0.56249 -2.3822,0.85588 -3.21531,0.68568 z m 2.51709,-1.30909 c 0.4234,-0.20114 0.86498,-0.51095 0.98129,-0.68848 0.19446,-0.29676 0.78757,-2.48103 1.01914,-3.75314 0.0949,-0.52128 0.0832,-0.53917 -0.4461,-0.68533 -0.97796,-0.27002 -1.9615,0.44314 -2.745,1.9904 -0.82193,1.62314 -1.02917,3.06908 -0.49365,3.44418 0.36357,0.25466 0.58633,0.21397 1.68432,-0.30763 z m 68.93974,1.26631 c -0.65343,-0.15511 -0.88394,-0.38188 -1.06255,-1.04521 -0.27088,-1.00581 0.35586,-2.90842 1.42163,-4.31588 1.27623,-1.68544 2.69469,-2.25431 4.78923,-1.92065 0.55142,0.0878 1.04594,0.20519 1.09891,0.26076 0.0532,0.0556 -0.13101,0.98561 -0.40888,2.06673 -0.27786,1.08111 -0.51775,2.39157 -0.53316,2.9121 l -0.028,0.94643 0.61879,-0.0276 c 0.55525,-0.0247 0.61885,0.007 0.61885,0.30456 0,0.278 -0.13693,0.37358 -0.84011,0.58649 -1.1572,0.35037 -1.69424,0.27547 -1.75407,-0.24466 -0.0251,-0.22023 -0.0726,-0.40041 -0.10505,-0.40041 -0.0323,0 -0.41325,0.15665 -0.84619,0.34813 -0.69655,0.30805 -2.1161,0.69696 -2.39522,0.6562 -0.0562,-0.008 -0.31452,-0.0654 -0.5743,-0.12703 z m 2.43796,-1.24641 c 0.3604,-0.18009 0.76146,-0.44919 0.89135,-0.598 0.32217,-0.36917 0.90048,-2.26956 1.19985,-3.94269 0.0798,-0.44603 0.0556,-0.47639 -0.49572,-0.62487 -0.47177,-0.12704 -0.67421,-0.11112 -1.08895,0.0857 -0.92431,0.43862 -1.84157,1.92662 -2.31722,3.75912 -0.45558,1.7551 0.11245,2.16943 1.81069,1.32075 z m -157.909668,0.91518 c -0.04335,-0.18018 0.216184,-1.53461 0.576805,-3.00982 0.711009,-2.90858 0.705001,-3.14491 -0.07425,-2.92143 -0.385404,0.11053 -0.429231,0.0893 -0.429231,-0.2077 0,-0.2773 0.135398,-0.37032 0.837233,-0.57522 0.460476,-0.13444 1.06656,-0.25948 1.34685,-0.27786 0.479741,-0.0315 0.512358,-0.005 0.556376,0.45497 0.02574,0.26862 -0.225427,1.59954 -0.558108,2.9576 -0.332679,1.35806 -0.565912,2.57072 -0.5183,2.6948 0.06895,0.17969 0.221911,0.2053 0.751641,0.12586 0.633722,-0.095 0.662809,-0.084 0.617144,0.23395 -0.0378,0.26305 -0.217438,0.38671 -0.848753,0.58418 -0.440458,0.13776 -1.110811,0.25449 -1.489682,0.25939 -0.597558,0.008 -0.699304,-0.0345 -0.767722,-0.31872 z m 5.597821,0.0587 -0.331975,-0.26882 1.128022,-4.95566 c 0.62041,-2.72562 1.106534,-5.14364 1.080277,-5.37339 -0.04897,-0.42837 -0.101705,-0.45045 -0.666573,-0.27909 -0.279376,0.0848 -0.32761,0.0453 -0.32761,-0.2676 0,-0.42408 0.511385,-0.62896 1.929275,-0.77292 0.812295,-0.0825 0.837233,-0.0745 0.837233,0.26784 0,0.19407 -0.229333,1.39205 -0.509623,2.66218 -0.28029,1.27014 -0.509617,2.39446 -0.509617,2.4985 0,0.14125 0.160079,0.11835 0.632068,-0.0904 1.62158,-0.71729 3.035117,-0.67937 3.542542,0.0951 0.475113,0.7251 0.229112,2.60161 -0.542707,4.13986 -0.401599,0.8004 -1.59654,2.04609 -2.24555,2.34091 -0.85255,0.38729 -3.538935,0.38967 -4.015762,0.004 z m 3.684485,-0.92329 c 0.730035,-0.51664 1.543864,-2.26261 1.773395,-3.8046 0.229948,-1.54481 -0.791102,-1.85298 -2.421962,-0.73099 -0.344475,0.23699 -0.620871,0.58983 -0.763512,0.9747 -0.263993,0.71227 -0.80784,3.03679 -0.80784,3.45289 0,0.61268 1.409852,0.68127 2.219919,0.108 z m 5.560814,0.7456 c -0.394404,-0.41179 -0.426967,-0.52784 -0.418744,-1.49246 0.02096,-2.45786 1.41823,-4.65765 3.343074,-5.26308 0.960358,-0.30207 1.805164,-0.19969 2.371441,0.28741 0.326583,0.28091 0.392003,0.45647 0.392003,1.05205 0,1.49905 -1.367052,2.63611 -3.334426,2.77345 -0.568559,0.0397 -1.081879,0.1449 -1.140712,0.2338 -0.163919,0.24768 -0.131319,1.08945 0.05596,1.44526 0.363327,0.69027 0.884565,0.70645 2.133007,0.0662 0.777826,-0.39888 0.937857,-0.4376 1.05341,-0.25486 0.257335,0.40695 0.138156,0.53476 -0.9942,1.06614 -0.942945,0.4425 -1.295445,0.53258 -2.084039,0.53258 -0.869122,0 -0.985171,-0.0376 -1.37678,-0.44651 z m 2.607404,-3.49629 c 1.238725,-0.34396 2.055869,-1.66827 1.421072,-2.30307 -0.400292,-0.40029 -0.770457,-0.38715 -1.28475,0.0455 -0.409614,0.34468 -1.075201,1.4368 -1.271845,2.08692 -0.08292,0.27412 -0.04401,0.32748 0.238327,0.3268 0.18559,-4.3e-4 0.589322,-0.0707 0.897196,-0.15624 z m 4.90044,3.89319 c 0,-0.0243 0.261687,-1.15323 0.581528,-2.50891 0.319842,-1.35568 0.581935,-2.75172 0.582425,-3.10231 l 5.97e-4,-0.63742 -0.582424,0.0931 c -0.516264,0.0825 -0.582419,0.0601 -0.582419,-0.19784 0,-0.31934 0.470777,-0.56388 1.652604,-0.85843 0.808545,-0.20152 1.113898,-0.0633 1.113898,0.50418 v 0.3418 l 0.516783,-0.3507 c 0.908972,-0.61686 1.464231,-0.72991 2.123876,-0.43245 0.31596,0.14248 0.5544,0.32981 0.529868,0.41628 -0.395354,1.39356 -0.62025,1.83169 -0.940229,1.83169 -0.286232,0 -0.337427,-0.0746 -0.337427,-0.49179 0,-1.0593 -0.921507,-1.06686 -1.589817,-0.013 -0.416416,0.65661 -0.846931,2.14984 -1.188742,4.12309 -0.101955,0.58859 -0.255615,1.09082 -0.341471,1.11608 -0.256193,0.0754 -1.539343,0.21429 -1.539343,0.16665 z m 7.303908,-0.14032 c -0.160724,-0.19366 -0.07245,-0.71695 0.760095,-4.50585 l 0.343938,-1.56525 h -0.491033 c -0.270067,0 -0.491033,-0.0371 -0.491033,-0.0824 0,-0.22769 0.325986,-0.64565 0.503574,-0.64565 0.354984,0 1.036665,-0.68945 1.322652,-1.33773 0.319697,-0.7247 0.446806,-0.84107 0.922079,-0.84413 0.312807,-0.001 0.336759,0.043 0.25094,0.47099 -0.05219,0.26027 -0.134269,0.71893 -0.182419,1.01924 l -0.08754,0.54602 h 0.673835 c 0.688256,0 0.78959,0.11135 0.585452,0.64332 -0.06355,0.16561 -0.284094,0.23032 -0.78504,0.23032 -0.809417,0 -0.676551,-0.29112 -1.322402,2.89743 -0.474438,2.3423 -0.442417,2.55813 0.345979,2.33202 0.657931,-0.18869 0.710907,-0.17306 0.658726,0.19435 -0.03529,0.24851 -0.222305,0.38631 -0.774554,0.57074 -0.891451,0.29772 -2.017663,0.33633 -2.233248,0.0766 z m 5.873274,-0.18796 c -1.065611,-1.14982 -0.294491,-4.41976 1.401963,-5.94502 0.692185,-0.62233 1.772964,-1.10297 2.480174,-1.10297 0.447691,0 1.434068,0.45876 1.58243,0.73597 0.234678,0.43851 0.161572,1.48597 -0.138001,1.97727 -0.613926,1.00681 -1.937271,1.65492 -3.37909,1.65492 h -0.855321 v 0.76844 c 0,1.49167 0.619909,1.75345 2.24945,0.94989 0.519482,-0.25617 0.97315,-0.43636 1.00815,-0.40042 0.035,0.036 0.08625,0.19639 0.113881,0.35656 0.04031,0.23372 -0.162085,0.399 -1.025289,0.83722 -0.934728,0.47455 -1.207279,0.54603 -2.081829,0.54603 -0.89621,0 -1.044614,-0.0413 -1.356518,-0.37789 z m 2.562882,-3.57572 c 0.769389,-0.26097 1.308954,-0.70175 1.542109,-1.25976 0.196142,-0.46944 0.19069,-0.54124 -0.06748,-0.88839 -0.400179,-0.53812 -0.793102,-0.54148 -1.396171,-0.012 -0.465264,0.4085 -1.257978,1.77805 -1.257978,2.17337 0,0.20312 0.560162,0.19683 1.179521,-0.0133 z m 54.68445,3.85654 c -0.20561,-0.20561 -0.0723,-1.06478 0.62618,-4.03486 0.95017,-4.04048 1.46083,-6.41931 1.46083,-6.80506 0,-0.27609 -0.0597,-0.30304 -0.50962,-0.23003 -0.46376,0.0752 -0.50961,0.0513 -0.50961,-0.26655 0,-0.36428 0.36325,-0.52553 1.81011,-0.80349 0.74722,-0.14355 0.95639,-0.0489 0.95639,0.43306 0,0.21765 -0.49098,2.5203 -1.09108,5.11702 -0.6001,2.59672 -1.09152,4.94316 -1.09204,5.21432 l -0.002,0.49301 0.66517,-0.0912 c 0.62538,-0.0857 0.66239,-0.0719 0.61882,0.23043 -0.0358,0.24866 -0.228,0.37843 -0.84718,0.57211 -0.81796,0.25584 -1.91257,0.34565 -2.08701,0.17121 z m 5.48883,-0.0808 c -0.17866,-0.28906 -0.0765,-0.91962 0.54358,-3.35438 0.32293,-1.268 0.56265,-2.41709 0.53271,-2.55353 -0.0575,-0.26191 -0.0939,-0.26782 -0.72877,-0.11837 -0.33821,0.0796 -0.40041,0.0474 -0.40041,-0.20718 0,-0.3471 0.62149,-0.65547 1.75383,-0.87022 0.80889,-0.15341 1.15828,-0.0749 1.15828,0.26037 0,0.12538 -0.29666,1.4649 -0.65926,2.97671 -0.36259,1.51181 -0.61604,2.81866 -0.56322,2.90413 0.0588,0.0951 0.34652,0.12105 0.74199,0.0669 0.60491,-0.0829 0.64303,-0.0681 0.59964,0.23308 -0.0358,0.24865 -0.228,0.37843 -0.84718,0.5721 -0.94757,0.29639 -1.97692,0.34007 -2.13119,0.0904 z m 5.3778,-0.065 c -0.0513,-0.13354 -0.0122,-0.60858 0.0867,-1.05564 0.32481,-1.4676 1.03483,-4.82626 1.03483,-4.89515 0,-0.0371 -0.20137,-0.0674 -0.4475,-0.0674 -0.63208,0 -0.51417,-0.40698 0.22922,-0.79113 0.44255,-0.2287 0.69778,-0.51931 1.06354,-1.21095 0.41645,-0.7875 0.53655,-0.91003 0.89198,-0.91003 h 0.41074 l -0.19525,0.91005 c -0.10738,0.50051 -0.19754,0.95918 -0.20035,1.01924 -0.003,0.0601 0.3225,0.1092 0.72291,0.1092 0.76067,0 0.77849,0.0153 0.63625,0.54602 -0.0767,0.28624 -0.18297,0.32762 -0.84127,0.32762 h -0.75348 l -0.48969,2.45721 c -0.26934,1.35148 -0.45025,2.56005 -0.40202,2.68573 0.0709,0.18469 0.1797,0.20211 0.56757,0.0909 0.6673,-0.19138 0.70022,-0.18164 0.70022,0.2072 0,0.29594 -0.12007,0.37852 -0.84679,0.58242 -1.12816,0.31655 -2.04501,0.31435 -2.16764,-0.005 z m 5.99624,-0.0869 c -0.36243,-0.31175 -0.42529,-0.48278 -0.47723,-1.29838 -0.11669,-1.83263 0.72225,-3.9016 1.96765,-4.85253 1.37527,-1.0501 2.87733,-1.18952 3.72144,-0.34541 0.39162,0.39157 0.42614,0.50204 0.36296,1.15987 -0.1386,1.44223 -1.52076,2.4898 -3.4121,2.58601 -1.18281,0.0602 -1.30725,0.20227 -1.07524,1.22785 0.25257,1.11643 0.71147,1.23102 2.16889,0.54155 0.96537,-0.4567 1.1877,-0.45642 1.1877,0.002 0,0.46535 -1.74753,1.21295 -2.99617,1.28178 -0.92933,0.0513 -1.07148,0.0216 -1.4479,-0.30224 z m 3.13108,-3.89152 c 0.90799,-0.46321 1.29764,-1.49361 0.78079,-2.0647 -0.65045,-0.71876 -1.85461,0.22258 -2.45251,1.91725 l -0.21971,0.62271 0.65623,-0.09 c 0.36094,-0.0495 0.91678,-0.22286 1.2352,-0.3853 z m 34.80225,4.16758 c 0,-0.0219 0.26169,-1.14915 0.58153,-2.50483 0.31985,-1.35568 0.58195,-2.75172 0.58243,-3.10231 v -0.63742 l -0.58243,0.0931 c -0.51446,0.0823 -0.58236,0.0596 -0.58236,-0.19468 0,-0.35357 0.25618,-0.49678 1.43573,-0.80242 1.02492,-0.26557 1.33074,-0.1633 1.33074,0.44501 v 0.3418 l 0.5168,-0.35071 c 0.90626,-0.61503 1.46463,-0.72973 2.11793,-0.43511 0.31274,0.14102 0.56863,0.29558 0.56863,0.34348 0,0.0479 -0.14684,0.49661 -0.32635,0.99712 -0.26945,0.75143 -0.38362,0.91004 -0.65522,0.91004 -0.27655,0 -0.32893,-0.0783 -0.32893,-0.49179 0,-0.99526 -0.85563,-1.06951 -1.49454,-0.12969 -0.48581,0.71464 -0.73441,1.49023 -1.13261,3.53359 -0.1795,0.92096 -0.36618,1.71516 -0.41486,1.7649 -0.0874,0.0893 -1.61732,0.2973 -1.61732,0.21989 z m 16.7937,-0.17409 c -0.11944,-0.31133 0.0185,-1.20814 0.5808,-3.77637 l 0.47822,-2.18408 -0.40846,-0.0456 c -0.48855,-0.0546 -0.57109,-0.53834 -0.11639,-0.68265 0.51183,-0.16246 1.10298,-0.76281 1.38861,-1.41027 0.31966,-0.7247 0.4468,-0.84107 0.9221,-0.84413 0.31279,-0.002 0.33675,0.043 0.25093,0.47099 -0.052,0.26027 -0.13431,0.71892 -0.18244,1.01923 l -0.0875,0.54602 h 0.67385 c 0.68824,0 0.78958,0.11135 0.58541,0.64332 -0.0636,0.16561 -0.28408,0.23031 -0.78505,0.23031 -0.80941,0 -0.67654,-0.29111 -1.32238,2.89744 -0.47439,2.3423 -0.44239,2.55814 0.346,2.33202 0.6579,-0.18869 0.71088,-0.17306 0.65874,0.19435 -0.0352,0.24851 -0.22232,0.38631 -0.77459,0.57075 -0.96934,0.32372 -2.09089,0.34339 -2.20781,0.0387 z m 5.87482,-0.1491 c -1.10382,-1.10377 -0.34074,-4.40343 1.375,-5.94603 0.69218,-0.62233 1.77295,-1.10297 2.48018,-1.10297 0.44764,0 1.43406,0.45875 1.5824,0.73596 0.23468,0.43851 0.16159,1.48598 -0.13801,1.97728 -0.61676,1.01151 -1.93729,1.65492 -3.39655,1.65492 h -0.87283 l 0.0646,0.8932 c 0.10259,1.41847 0.62375,1.61218 2.21982,0.82512 0.51948,-0.25616 0.97316,-0.43635 1.00815,-0.40041 0.0352,0.036 0.0862,0.19639 0.11388,0.35656 0.0406,0.23372 -0.16208,0.399 -1.02529,0.83722 -0.92627,0.47026 -1.21143,0.54602 -2.05499,0.54602 -0.85958,0 -1.02566,-0.0461 -1.35637,-0.37687 z m 3.05246,-3.79469 c 1.01842,-0.50617 1.47478,-1.67984 0.83993,-2.16024 -0.42173,-0.31908 -0.72748,-0.26531 -1.28739,0.2263 -0.46849,0.41132 -1.24863,1.77608 -1.24863,2.18431 0,0.241 1.00623,0.0924 1.69609,-0.25037 z m 4.41933,4.04637 c 0,-0.0613 0.26592,-1.24213 0.59091,-2.62402 0.32504,-1.38189 0.57072,-2.72099 0.54606,-2.97577 -0.0424,-0.43419 -0.0782,-0.46134 -0.57556,-0.43298 -0.41606,0.0238 -0.54642,-0.0302 -0.60387,-0.24992 -0.0597,-0.22796 0.0665,-0.33176 0.67624,-0.55676 0.41223,-0.15212 0.99526,-0.3211 1.29563,-0.37553 0.56457,-0.10228 0.55502,-0.11012 0.90831,0.7447 0.007,0.0162 0.39581,-0.16393 0.86465,-0.40042 1.00331,-0.50608 1.17153,-0.52006 1.78155,-0.1481 l 0.46054,0.28079 -0.31495,0.9528 c -0.2627,0.79498 -0.36918,0.95338 -0.6425,0.95631 -0.27429,0.003 -0.32761,-0.0747 -0.32761,-0.47699 0,-1.26874 -1.20749,-1.0178 -1.86844,0.38831 -0.16608,0.35327 -0.495,1.57125 -0.731,2.7066 -0.236,1.13536 -0.452,2.08353 -0.48007,2.10703 -0.12815,0.10738 -1.57989,0.20289 -1.57989,0.10395 z m 7.28028,5.8e-4 c 0,-0.0655 0.23379,-1.03071 0.51955,-2.14489 0.31201,-1.21677 0.53004,-2.43283 0.54599,-3.04503 l 0.0263,-1.01923 -0.52797,0.0404 c -0.41503,0.0317 -0.54336,-0.0183 -0.5998,-0.23422 -0.0585,-0.22445 0.0645,-0.31615 0.67355,-0.50169 1.32376,-0.40315 1.63561,-0.43205 1.89227,-0.17539 0.13001,0.13004 0.23643,0.39555 0.23643,0.59004 0,0.19448 0.0268,0.35361 0.0597,0.35361 0.0329,0 0.46525,-0.19178 0.96091,-0.42617 1.17356,-0.55502 2.72903,-0.84614 3.19333,-0.59767 0.30295,0.16215 0.32462,0.2459 0.23612,0.9132 -0.0538,0.40408 -0.28921,1.52797 -0.5236,2.49754 -0.23433,0.96957 -0.44382,1.99218 -0.46544,2.27248 -0.0394,0.50955 -0.0394,0.50961 0.57323,0.49751 0.41868,-0.008 0.6391,0.0571 0.69643,0.20636 0.11543,0.30079 -0.0221,0.3988 -0.935,0.66616 -1.0355,0.30329 -1.9889,0.30568 -2.10415,0.005 -0.0478,-0.12449 0.17456,-1.3937 0.49405,-2.82047 0.64058,-2.8607 0.67737,-3.18633 0.37311,-3.30309 -0.31405,-0.12052 -1.42814,0.42584 -2.09286,1.02643 -0.54719,0.49433 -0.61724,0.64798 -0.95321,2.09128 -0.19946,0.85676 -0.40894,1.87418 -0.46556,2.26095 -0.0567,0.38677 -0.17652,0.72519 -0.26657,0.75206 -0.44161,0.13176 -1.54705,0.19929 -1.54705,0.0945 z m 9.98661,-0.11339 c -0.0501,-0.13093 0.20967,-1.47976 0.57759,-2.99742 0.36798,-1.51765 0.6348,-2.84843 0.59306,-2.95728 -0.0579,-0.15162 -0.18823,-0.16572 -0.55585,-0.0603 -0.26396,0.0757 -0.49667,0.13763 -0.51722,0.13763 -0.0203,0 -0.0376,-0.15184 -0.0376,-0.33742 0,-0.28062 0.12869,-0.37634 0.76444,-0.5686 1.72518,-0.52173 2.2581,-0.43322 2.08385,0.34608 -0.0419,0.18784 -0.34207,1.45103 -0.66687,2.80709 -0.32475,1.35605 -0.554,2.56056 -0.50945,2.6767 0.0619,0.16125 0.2375,0.18969 0.74331,0.12036 0.62237,-0.0853 0.65951,-0.0714 0.61598,0.23084 -0.0897,0.62244 -2.87546,1.1652 -3.09146,0.60231 z m 5.49342,0.002 c -0.0971,-0.25309 0.0209,-0.94827 0.58994,-3.47676 0.62913,-2.79556 0.62011,-2.5481 0.0932,-2.5481 -0.64029,0 -0.53369,-0.4017 0.20991,-0.79113 0.42781,-0.22405 0.69165,-0.52405 1.03305,-1.17454 0.37282,-0.71037 0.5346,-0.88261 0.86549,-0.92168 0.44191,-0.0522 0.44513,-0.0151 0.13323,1.5405 l -0.0949,0.47322 h 0.76182 c 0.63485,0 0.74706,0.0384 0.67343,0.23032 -0.0484,0.12667 -0.0884,0.32323 -0.0884,0.43681 0,0.15266 -0.20412,0.2065 -0.78266,0.2065 h -0.7826 l -0.48078,2.44877 c -0.26443,1.34682 -0.43989,2.5554 -0.38984,2.68573 0.0743,0.19382 0.17826,0.21191 0.57078,0.0993 0.66734,-0.19138 0.70025,-0.18164 0.70025,0.2072 0,0.29593 -0.12009,0.37852 -0.8468,0.58243 -1.11678,0.31334 -2.04514,0.31395 -2.16511,0.001 z m 5.98554,-0.10088 c -0.41695,-0.35893 -0.42555,-0.39545 -0.42555,-1.80622 0,-1.37233 0.0257,-1.49206 0.55006,-2.55254 0.64322,-1.30102 1.38138,-2.00495 2.56797,-2.4489 2.06682,-0.7733 3.55134,0.54038 2.63664,2.33328 -0.51715,1.01375 -1.89662,1.74551 -3.29998,1.75053 -0.84297,0.003 -0.89976,0.0251 -0.9903,0.3859 -0.12176,0.48501 0.0305,1.21635 0.32164,1.54657 0.33107,0.37533 0.90042,0.31253 1.91616,-0.21131 0.75746,-0.39064 0.92544,-0.4319 1.03747,-0.25481 0.25786,0.40763 0.12995,0.56439 -0.84471,1.03535 -0.75041,0.36259 -1.22653,0.48832 -2.01331,0.5317 -0.93434,0.0515 -1.07026,0.0226 -1.45609,-0.30955 z m 3.17141,-3.91966 c 0.98391,-0.55298 1.3123,-1.64057 0.63026,-2.08745 -0.26896,-0.17622 -0.46126,-0.20166 -0.76444,-0.10113 -0.51345,0.17027 -1.24679,1.12211 -1.54997,2.01185 l -0.23397,0.68668 0.66841,-0.0916 c 0.36763,-0.0504 0.92999,-0.23864 1.24971,-0.41835 z m -220.158192,3.8603 c 0.02705,-0.14054 0.179505,-0.27943 0.338753,-0.30864 0.432349,-0.0793 0.810133,-0.46275 1.105162,-1.12174 0.39134,-0.87412 1.5989,-6.95309 1.631553,-8.21335 0.02783,-1.07489 0.02359,-1.08822 -0.439497,-1.38325 -0.903453,-0.57559 -0.662034,-0.66192 1.850866,-0.66192 1.990736,0 2.329687,0.0323 2.329687,0.22204 0,0.13074 -0.181464,0.25835 -0.441265,0.31031 -0.928577,0.18571 -1.281017,1.10235 -2.157694,5.61176 -0.819246,4.21404 -0.811226,4.13261 -0.443241,4.5006 0.279615,0.27961 0.431776,0.30355 1.566742,0.24644 1.526605,-0.0768 2.07812,-0.33374 2.611338,-1.21652 0.420053,-0.69543 0.436773,-0.70713 0.737959,-0.51634 0.167167,0.1059 0.160908,0.24081 -0.0387,0.835 -0.130961,0.3898 -0.386534,0.9708 -0.56795,1.29113 l -0.329837,0.58242 -3.901529,0.0388 c -3.653372,0.0363 -3.898398,0.0225 -3.852321,-0.21674 z m 73.649442,0.0443 c 0,-0.11352 0.24571,-0.32647 0.54602,-0.47321 0.38048,-0.18592 0.64281,-0.46544 0.8653,-0.92203 0.41715,-0.85606 1.67819,-7.05701 1.7013,-8.36591 0.0175,-0.98911 0.007,-1.0198 -0.44972,-1.31045 -0.97715,-0.62192 -0.75627,-0.66163 3.68075,-0.66163 4.07041,0 4.15762,0.006 4.06864,0.28649 -0.05,0.15756 -0.17266,0.73088 -0.27257,1.27404 -0.15409,0.83768 -0.23018,0.99463 -0.50132,1.0341 -0.26004,0.0378 -0.31965,-0.025 -0.31965,-0.33719 0,-0.96659 -0.57355,-1.23819 -2.61474,-1.23819 h -1.40644 l -0.40383,1.85646 c -0.2221,1.02106 -0.43564,1.97114 -0.47452,2.11128 -0.0635,0.22887 0.06,0.25459 1.21318,0.25267 1.44993,-0.002 1.87732,-0.15714 2.30281,-0.83364 0.37862,-0.60197 0.87252,-0.65037 0.75775,-0.0743 -0.0439,0.22022 -0.19581,1.0065 -0.33764,1.74727 -0.2034,1.06236 -0.30959,1.34685 -0.50266,1.34685 -0.15448,0 -0.27642,-0.15821 -0.33056,-0.4289 -0.0473,-0.23638 -0.23517,-0.50927 -0.41861,-0.60794 -0.34942,-0.18797 -2.63917,-0.27173 -2.80876,-0.10275 -0.098,0.0976 -0.5279,2.19611 -0.7165,3.49729 -0.0907,0.62549 -0.0675,0.70393 0.27416,0.92778 0.30013,0.19665 0.62231,0.232 1.64573,0.18053 1.51941,-0.0764 2.05929,-0.31884 2.68418,-1.20539 0.27037,-0.38357 0.52619,-0.60463 0.64635,-0.55852 0.28325,0.10869 0.24976,0.36903 -0.17963,1.3964 -0.63677,1.52359 -0.27399,1.41527 -4.74024,1.41527 -3.27648,0 -3.90878,-0.0334 -3.90878,-0.20642 z m 73.9676,0.003 c 0,-0.11595 0.21295,-0.28341 0.47321,-0.37213 0.91922,-0.31334 1.22301,-1.14377 2.14266,-5.85684 0.79191,-4.05867 0.77256,-4.70783 -0.14948,-5.00046 -0.1641,-0.0521 -0.27291,-0.17104 -0.24185,-0.26435 0.0406,-0.12243 1.18061,-0.18043 4.09554,-0.20837 3.97019,-0.038 4.03744,-0.0338 3.94733,0.25008 -0.0501,0.15884 -0.17337,0.73321 -0.27333,1.27637 -0.15407,0.83767 -0.23015,0.99463 -0.50127,1.03409 -0.26986,0.0393 -0.31967,-0.0231 -0.31967,-0.40041 0,-0.91926 -0.7101,-1.22259 -2.68436,-1.14663 l -1.15553,0.0444 -0.40483,1.89286 c -0.22262,1.04109 -0.40697,1.97478 -0.40972,2.07488 -0.008,0.26878 2.21767,0.24486 2.74826,-0.0295 0.22502,-0.11634 0.49184,-0.41119 0.59288,-0.65522 0.11263,-0.27185 0.28975,-0.44369 0.45731,-0.44369 0.33896,0 0.34117,-0.10564 -0.0394,1.85647 -0.26699,1.37545 -0.36075,1.63806 -0.58481,1.63806 -0.16124,0 -0.26682,-0.10515 -0.26682,-0.26582 0,-0.67945 -1.3612,-1.18464 -2.61927,-0.9721 l -0.55644,0.094 -0.29536,1.6276 c -0.52086,2.87013 -0.49888,3.13012 0.29213,3.45776 0.87063,0.36062 0.36804,0.49861 -1.9656,0.53962 -1.91275,0.0336 -2.28133,0.006 -2.28133,-0.17071 z m -85.413049,-3.13219 c -0.651276,-0.29577 -1.222229,-1.20988 -1.222229,-1.95683 0,-1.15669 1.022417,-2.19108 2.16173,-2.18704 1.362594,0.005 2.204907,0.83715 2.205887,2.17975 0.0015,1.70603 -1.562927,2.68277 -3.145388,1.96412 z m 74.111039,0.0687 c -0.24998,-0.10877 -0.64089,-0.44218 -0.86871,-0.7409 -0.33782,-0.44291 -0.41223,-0.68262 -0.40333,-1.29919 0.0191,-1.33773 0.85115,-2.1605 2.18428,-2.1605 0.6606,0 0.8806,0.0718 1.33158,0.43455 1.00511,0.80846 1.16133,2.1639 0.35926,3.11709 -0.67415,0.80116 -1.67824,1.05148 -2.60308,0.64895 z m -87.051872,-5.17491 c -0.286399,-0.31647 -0.307013,-0.28331 1.347698,-2.16743 l 0.558257,-0.63564 0.829373,0.1856 c 0.456153,0.10209 0.829368,0.22959 0.829368,0.28336 0,0.0982 -3.117627,2.62241 -3.238955,2.62241 -0.03565,0 -0.182246,-0.12973 -0.325741,-0.2883 z m 74.077272,-1.5e-4 -0.32303,-0.26157 1.09914,-1.25383 c 0.60452,-0.6896 1.15476,-1.25382 1.22266,-1.25382 0.35514,0 1.60329,0.35788 1.56895,0.44986 -0.0358,0.0968 -2.74879,2.27833 -3.09838,2.49164 -0.0804,0.0491 -0.29167,-0.0284 -0.46934,-0.17228 z m 96.79346,0.002 -0.35132,-0.26503 1.13732,-1.25274 c 0.62554,-0.68902 1.18981,-1.25276 1.25395,-1.25276 0.28808,0 1.59416,0.3499 1.58788,0.42542 -0.007,0.0787 -2.75595,2.29723 -3.11324,2.51201 -0.0898,0.054 -0.32135,-0.0211 -0.51459,-0.1669 z M 42.738313,131.04264 c -0.591717,-0.59172 -0.01427,-1.7321 0.877101,-1.7321 0.619891,0 0.943572,0.32525 0.943572,0.94814 0,0.9717 -1.141441,1.4632 -1.820673,0.78396 z m 98.262467,0.10369 c -0.35786,-0.27166 -0.33665,-1.17152 0.0363,-1.54457 0.60057,-0.60058 1.74726,-0.20858 1.74726,0.59729 0,0.87277 -1.1072,1.46078 -1.78366,0.94728 z m 96.70329,-0.10369 c -0.60206,-0.60205 -0.0119,-1.7321 0.90491,-1.7321 0.91469,0 1.30655,1.02023 0.64572,1.68108 -0.44854,0.44857 -1.13063,0.47101 -1.55063,0.051 z m -127.56493,-4.16203 c -0.22243,-0.24794 -0.16937,-0.33694 0.88393,-1.48258 l 1.12057,-1.21882 0.83265,0.18635 c 0.45797,0.10249 0.82936,0.22505 0.82533,0.27238 -0.0118,0.13846 -2.93579,2.37829 -3.19231,2.44537 -0.12844,0.0335 -0.34002,-0.0576 -0.47017,-0.2027 z"
     id="path8"
     style="fill:#000000;stroke:none;stroke-width:0.145606"
     inkscape:connector-curvature="0" />
  <path
     d="m 158.54682,118.67287 0.33973,-0.87848 c 0.57562,-1.58695 1.17267,-2.79811 2.03428,-4.12686 0.91272,-1.40759 2.92186,-3.48096 3.7576,-3.87782 1.02714,-0.48774 2.30402,-0.65946 3.88314,-0.52221 1.35594,0.11786 5.52219,0.79911 7.20336,1.17788 1.2795,0.28827 3.15295,0.31586 4.03457,0.0594 1.6986,-0.49413 2.70496,-1.44932 3.18252,-3.02082 0.36637,-1.20554 0.36285,-2.30119 -0.01,-3.03187 -0.50037,-0.98145 -0.41515,-1.23671 0.80081,-2.39949 0.60065,-0.57434 1.09284,-1.10537 1.09385,-1.18008 0.006,-0.38874 -0.82703,-1.949679 -1.04129,-1.953199 -0.13127,-0.002 -0.39062,-0.12703 -0.57634,-0.2775 l -0.33764,-0.27358 0.72192,-0.36907 c 0.98576,-0.50394 1.71688,-1.28759 1.71688,-1.8402 0,-0.23873 -0.2077,-0.824 -0.4615,-1.30057 -0.48717,-0.91457 -0.61747,-1.78842 -0.34319,-2.30124 0.18124,-0.33882 0.49374,-0.48131 2.02878,-0.92503 1.2899,-0.37285 1.75623,-0.75081 1.94016,-1.57242 0.15729,-0.70288 0.08,-1.15464 -0.34206,-1.99912 -0.34367,-0.68757 -2.58165,-4.11623 -3.23358,-4.95386 -0.87606,-1.12562 -1.94321,-3.0703 -2.25887,-4.11623 -0.31113,-1.03098 -0.31316,-1.08942 -0.0862,-2.42213 0.47989,-2.81728 0.19928,-5.15306 -1.16622,-9.70744 -1.01484,-3.384794 -1.28739,-4.206488 -1.60514,-4.839751 -0.57455,-1.144885 -0.49781,-1.412903 0.68095,-2.37792 0.56421,-0.461909 1.08835,-0.956787 1.16479,-1.099715 0.35597,-0.665522 -0.0418,-1.947859 -0.71625,-2.309048 -0.42805,-0.229244 -0.66633,-0.07186 -1.10095,0.727161 -0.32928,0.605399 -0.45833,0.720038 -0.81078,0.720038 -0.57359,0 -0.67421,-0.24062 -0.30785,-0.73646 0.4271,-0.578095 0.3933,-0.670794 -0.27769,-0.760848 -0.50222,-0.0674 -0.76766,-0.263659 -1.85643,-1.372451 -1.45974,-1.486548 -2.44035,-2.17159 -4.39515,-3.070387 -0.89612,-0.412026 -1.2082,-0.607046 -0.87946,-0.549532 0.28031,0.04903 1.27133,0.127402 2.20226,0.174137 2.70145,0.135605 3.35804,-0.221296 3.98764,-2.167357 0.4274,-1.321285 0.6324,-1.932362 -0.3484,-2.854866 l -3.6,-3.385916 h 80.7752 v 75.714864 z"
     id="path10"
     style="fill:#e2011c;fill-opacity:1;stroke:none;stroke-width:0.145606"
     inkscape:connector-curvature="0" />
  <path
     d="m 89.665667,118.67287 c -0.586228,-0.0615 -1.094537,-0.0883 -1.129572,-0.12332 -0.06167,-0.0617 0.600469,-0.48733 3.632746,-2.33533 0.972606,-0.59275 1.37275,-0.91048 1.23764,-0.98273 -0.109817,-0.0587 -0.958786,-0.1518 -1.886609,-0.20686 -1.378427,-0.0818 -1.77787,-0.0583 -2.184076,0.12834 -0.273418,0.12562 -1.364578,0.45606 -2.424804,0.73429 -2.629577,0.69008 -3.514464,1.16385 -4.358804,2.33368 l -0.315479,0.45193 H 30.399469 V 42.958016 H 133.24629 l -1.99273,1.300796 c -1.09707,0.544666 -2.37198,1.301137 -2.83315,1.681047 -1.56436,1.288727 -3.67089,4.220426 -4.1969,5.840901 -0.19333,0.595599 -0.36885,0.818852 -0.96206,1.223713 -0.9052,0.617796 -1.98952,1.79595 -2.88736,3.137234 -1.21914,1.82127 -3.54289,5.92579 -3.99947,7.064423 -0.7083,1.766371 -0.64396,3.111401 0.40137,8.390121 0.46021,2.32394 0.95817,4.68433 1.10659,5.24528 0.14842,0.56095 0.31086,1.51165 0.36098,2.11268 0.0895,1.07311 0.15925,1.30542 0.78747,2.62264 0.17199,0.36061 0.31252,0.76984 0.3123,0.9094 -2.9e-4,0.13957 0.13064,0.33564 0.29081,0.43573 0.16611,0.10381 0.29121,0.33978 0.29121,0.54931 0,0.25241 0.33162,0.73145 1.06002,1.53125 1.66641,1.82976 2.87131,3.54502 2.87131,4.0875 0,0.44554 -0.65356,0.56069 -1.70654,0.30066 -1.23072,-0.30391 -2.23747,-0.96033 -3.79005,-2.4712 -0.66068,-0.64293 -1.20124,-1.0752 -1.20124,-0.96058 0,0.11463 0.45299,0.71239 1.00664,1.32837 1.10111,1.22509 1.27381,1.55934 1.0357,2.00455 -0.2083,0.38948 -0.71512,0.5029 -1.40074,0.31346 -0.79119,-0.21861 -1.2548,0.0861 -1.12431,0.73899 0.08,0.40053 0.0581,0.44765 -0.16817,0.36077 -0.44727,-0.17175 -1.42603,-0.36848 -2.30616,-0.46354 -0.80849,-0.0873 -0.86833,-0.12278 -1.35774,-0.80447 -0.37089,-0.51659 -0.65947,-0.75454 -1.04711,-0.8634 -1.4448,-0.40572 -5.03846,-1.03111 -7.45136,-1.29673 -4.24124,-0.46689 -5.262807,-0.50353 -7.294725,-0.26174 -1.560386,0.18567 -1.984686,0.29464 -2.839295,0.72918 -1.512859,0.76922 -4.135266,3.17956 -4.135266,3.80084 0,0.29148 0.577587,0.18865 1.237647,-0.22033 2.003052,-1.24113 8.864319,-2.9928 12.230819,-3.12251 1.66822,-0.0643 1.57778,0.0156 -0.4238,0.37445 -0.55341,0.0992 -1.86386,0.43494 -2.9121,0.74607 -1.048227,0.31113 -2.855953,0.79056 -4.01716,1.0654 -1.161199,0.27483 -2.471638,0.62915 -2.912094,0.78736 l -0.800832,0.28766 1.237647,0.0135 c 6.306239,0.0689 13.494879,2.07096 16.420419,4.57311 1.25879,1.0766 1.71977,1.20727 3.57139,1.01227 2.53757,-0.26723 5.82206,-1.4787 7.26246,-2.67873 0.62507,-0.52076 1.13925,-0.7278 1.13835,-0.45837 -0.002,0.47591 -0.82962,3.03434 -1.18748,3.66908 -0.39894,0.70761 -0.4216,0.80947 -0.21387,0.96147 0.12779,0.0935 0.19566,0.20672 0.15084,0.25157 -0.0449,0.0449 0.0544,0.12476 0.22067,0.17755 0.47785,0.15176 0.35761,0.29843 -0.40505,0.49402 -0.7435,0.19069 -1.33124,0.524539 -1.33124,0.756189 0,0.0756 0.10215,0.13744 0.227,0.13744 0.37396,0 0.0949,0.26151 -0.39367,0.36888 -0.3345,0.0735 -0.40135,0.1336 -0.25313,0.22754 0.14529,0.0921 0.15069,0.12824 0.0194,0.12986 -0.1001,0.002 -0.182,0.15014 -0.182,0.33092 0,0.22508 -0.1377,0.38968 -0.43682,0.52217 -0.72902,0.32291 -0.52466,0.4973 0.47321,0.40381 0.50053,-0.0469 0.81176,-0.0464 0.69163,0.002 -0.12013,0.0475 -0.93915,0.41821 -1.82006,0.82388 -0.88092,0.40567 -2.02755,0.88724 -2.54809,1.07015 -0.58925,0.20706 -0.96561,0.42512 -0.99725,0.57781 -0.0508,0.24528 0.22276,0.23714 0.91092,-0.0271 0.12756,-0.049 0.23034,-0.0329 0.22839,0.0357 -0.002,0.0687 -1.51846,0.94445 -3.37003,1.94615 -1.85157,1.0017 -3.58413,2.03436 -3.85014,2.2948 -0.26601,0.26045 -0.60636,0.47354 -0.75634,0.47354 -0.15092,0 -0.34815,0.16572 -0.44167,0.37111 -0.28282,0.62112 -0.2243,0.69668 0.44985,0.58086 1.00158,-0.17206 1.46062,-0.16259 1.52713,0.0315 0.036,0.105 -0.0585,0.18212 -0.22313,0.18212 -0.15703,0 -0.36385,0.0945 -0.4596,0.20991 -0.0957,0.11545 -0.34859,0.23019 -0.56188,0.25498 -0.24816,0.0289 -0.49336,0.21206 -0.68097,0.50882 -0.16124,0.25505 -0.42422,0.49741 -0.58438,0.53859 -0.16017,0.0412 0.0691,0.048 0.50961,0.0153 6.5493,-0.4874 7.76948,-0.72992 10.41076,-2.06926 2.25333,-1.14262 4.59246,-2.84119 6.25646,-4.54318 0.47799,-0.48889 0.92027,-0.88889 0.98284,-0.88889 0.22626,0 0.10351,0.81726 -0.23057,1.53518 -0.57819,1.24247 -1.79133,2.38699 -4.28491,4.04252 -1.25785,0.83512 -2.61461,1.62162 -3.01503,1.7478 -1.25105,0.39422 -3.27072,0.81415 -5.38802,1.1203 -6.89779,0.99736 -9.53747,1.75384 -12.152217,3.48264 -0.437618,0.28933 -0.896991,0.50888 -1.020838,0.48789 -0.123847,-0.021 -0.453786,0.15733 -0.73319,0.39627 -0.785866,0.67205 -0.216511,0.55836 1.413388,-0.28222 1.670247,-0.86139 2.453307,-0.99714 1.136297,-0.19698 -1.614881,0.98114 -2.845886,1.59599 -4.051077,1.59599 z m -8.568344,-8.44601 c 0.261796,-0.10946 1.127858,-0.59467 1.924596,-1.07825 0.796723,-0.48358 1.743446,-1.01301 2.103821,-1.17651 0.360368,-0.1635 1.37597,-0.62256 2.256876,-1.02013 1.846371,-0.83328 4.555977,-1.61954 4.711798,-1.36724 0.05474,0.0886 0.458475,0.18623 0.897183,0.21691 0.614032,0.043 0.722235,0.0824 0.470033,0.17146 -0.180187,0.0636 -0.327609,0.17362 -0.327609,0.2444 0,0.2636 1.362662,0.18452 1.936382,-0.11236 0.224926,-0.11638 0.733047,-0.25002 1.12915,-0.29696 0.492493,-0.0584 0.7202,-0.15209 0.7202,-0.29642 0,-0.16475 0.125061,-0.18993 0.5698,-0.11474 0.611959,0.10346 1.9282,-0.14553 5.472807,-1.03527 2.40052,-0.60255 4.21863,-1.20897 5.81546,-1.93969 l 1.1561,-0.52904 -1.1561,-0.74089 c -2.8178,-1.805799 -5.64729,-2.914669 -11.858067,-4.647199 -1.081118,-0.30158 -2.031196,-0.61347 -2.111278,-0.69309 -0.09658,-0.096 -0.04757,-0.10958 0.145613,-0.0403 0.620109,0.22253 1.092034,0.26518 1.092034,0.0987 0,-0.21594 -0.468924,-0.39002 -1.39021,-0.51609 -0.842615,-0.11529 -1.386525,-0.36684 -0.801149,-0.3705 0.905997,-0.005 -0.651502,-0.58016 -2.395205,-0.88348 -1.290911,-0.22456 -1.365263,-0.27263 -0.82608,-0.53394 0.469889,-0.22773 0.975289,-1.08946 0.84232,-1.4362 -0.11287,-0.29434 -0.253658,-0.26398 -0.95188,0.20527 -1.34616,0.90469 -2.580904,2.38619 -3.274799,3.92925 -0.395817,0.88023 -0.258769,0.96099 1.778556,1.0481 1.668288,0.0713 1.694743,0.0778 1.267043,0.30757 -0.240246,0.12909 -0.72216,0.27849 -1.070918,0.332 -1.18451,0.18172 -1.842451,0.74412 -1.255243,1.07296 0.174382,0.0976 0.105187,0.17998 -0.323018,0.38432 -0.479978,0.22903 -0.513731,0.27751 -0.283113,0.40665 0.144014,0.0807 0.562743,0.12268 0.930521,0.0934 0.51113,-0.0406 0.744529,0.0144 0.990594,0.233699 l 0.321903,0.28692 -0.645946,0.40992 c -0.355271,0.22546 -0.757135,0.62014 -0.893007,0.87707 -0.135879,0.25693 -0.62381,0.86822 -1.084284,1.35841 -0.460473,0.49019 -0.837231,0.99721 -0.837231,1.12671 0,0.12949 -0.671602,0.77303 -1.492458,1.43007 -2.207493,1.76702 -3.166906,2.73823 -3.166906,3.20586 0,0.24744 -0.124737,0.47027 -0.343584,0.61376 -0.689146,0.45185 -1.048806,0.97385 -0.670973,0.97385 0.08266,0 0.364473,-0.0896 0.626268,-0.19901 z m 17.032785,-1.70248 c 0.545569,-0.073 1.177325,-0.24221 1.403905,-0.37615 l 0.41195,-0.24351 -0.70261,-0.35035 -0.702613,-0.35037 -0.701292,0.28428 c -0.385707,0.15635 -0.919816,0.367 -1.186908,0.46813 -1.074242,0.40673 -1.214418,0.95347 -0.206009,0.80347 0.380392,-0.0566 1.138008,-0.16256 1.683577,-0.2355 z m -24.652777,-6.62559 c 3.244786,-3.394929 5.534539,-5.408939 8.440982,-7.424449 0.987698,-0.68493 1.683463,-1.08093 1.71785,-0.9777 0.09435,0.28323 0.517439,0.19985 1.206261,-0.23773 0.791528,-0.50282 1.187519,-1.0117 2.175557,-2.79584 1.025026,-1.85094 1.412323,-2.31347 2.891987,-3.45368 0.692109,-0.53333 1.711284,-1.32959 2.264829,-1.76947 0.797673,-0.63387 0.989275,-0.73406 0.923661,-0.48299 -0.05081,0.19446 -0.01568,0.31677 0.09087,0.31677 0.330814,0 1.889429,-0.66569 1.944307,-0.83041 0.08577,-0.2575 -1.497788,-0.5234 -2.669143,-0.44818 -0.899264,0.0578 -1.217766,0.16215 -2.333609,0.76492 -2.622121,1.41644 -4.516269,2.94428 -8.133151,6.56031 -2.60287,2.60226 -4.653324,4.34708 -5.689697,4.84162 -0.337517,0.16105 -0.591699,0.49865 -1.001139,1.32968 -0.795771,1.61514 -2.216522,3.933069 -3.565193,5.816539 -1.274617,1.78003 -1.548194,2.3958 -0.557648,1.25515 0.340353,-0.39194 1.372325,-1.50098 2.293276,-2.46454 z m 32.469939,15.94007 c 3.89695,-0.81048 4.32713,-0.87083 7.06184,-0.99065 3.07077,-0.13456 3.4621,-0.21439 5.30942,-1.08317 0.59186,-0.27835 0.82398,-0.32897 0.90623,-0.19761 0.14317,0.22864 1.14509,-0.3174 3.10308,-1.69114 0.80082,-0.56187 1.93328,-1.27991 2.51657,-1.59563 0.87896,-0.47578 1.14787,-0.55766 1.57067,-0.47829 0.45142,0.0847 0.5851,0.0297 1.16158,-0.47804 1.59784,-1.40742 2.96216,-2.05802 4.3247,-2.06234 0.40515,-0.002 0.54603,0.0587 0.54603,0.23242 0,0.14825 0.0801,0.20337 0.2184,0.15027 0.40594,-0.15588 0.22205,0.0224 -0.82187,0.79681 -1.20867,0.89662 -1.08986,1.16584 0.13891,0.31479 1.1896,-0.82394 1.19258,-0.82517 1.19258,-0.49196 0,0.18986 -0.44778,0.66656 -1.27405,1.35634 -1.8799,1.56938 -3.21104,2.86728 -5.23757,5.10683 l -1.81285,1.94538 h -23.05342 z m 0.0364,-29.660149 c 0.14015,-0.0366 0.36948,-0.0366 0.50962,0 0.14015,0.0366 0.0255,0.0667 -0.25481,0.0667 -0.28028,0 -0.39495,-0.03 -0.25481,-0.0667 z"
     id="path12"
     style="fill:#003189;fill-opacity:1;stroke:none;stroke-width:0.145606"
     inkscape:connector-curvature="0" />
  <path
     d="m 173.90598,82.637871 c -0.63593,-0.0962 -0.30779,-0.33251 0.46167,-0.33251 0.77197,0 1.17883,-0.29653 1.17883,-0.85908 0,-0.2645 -0.0573,-0.30791 -0.30414,-0.22958 -0.21277,0.0676 -0.36428,0.0107 -0.50426,-0.18925 -0.13072,-0.18675 -0.44681,-0.3186 -0.91171,-0.38031 -0.83055,-0.11025 -2.17556,-0.91266 -1.93437,-1.15401 0.0823,-0.0824 0.50993,-0.17973 0.95017,-0.21626 0.75877,-0.063 0.80893,-0.0921 0.96288,-0.55887 0.1152,-0.34937 0.27543,-0.51903 0.5515,-0.58399 0.21402,-0.0504 0.55292,-0.24257 0.75315,-0.42714 0.20017,-0.18458 0.85539,-0.65636 1.45604,-1.0484 1.00976,-0.65911 1.6353,-1.36168 1.41166,-1.58547 -0.23559,-0.23579 -2.42197,-0.49238 -3.45012,-0.40491 -1.19453,0.10159 -3.25263,0.53576 -4.11334,0.86773 -0.88358,0.34075 -0.62531,0.044 0.58863,-0.67633 1.63871,-0.97241 4.79329,-1.87907 6.53794,-1.87907 0.67683,0 2.94161,0.53525 3.21136,0.75897 0.52844,0.4382 -0.0478,1.97649 -1.02809,2.74395 l -0.40931,0.32048 0.33651,0.35906 0.33645,0.35907 -0.34374,0.27902 c -0.18906,0.15346 -0.448,0.27903 -0.5755,0.27903 -0.12743,0 -0.44304,0.20494 -0.70132,0.45543 -0.39747,0.38553 -0.44883,0.51001 -0.33454,0.8109 0.0886,0.233 0.0799,0.45867 -0.0251,0.655 -0.0981,0.18337 -0.12266,0.6003 -0.0633,1.07511 0.12099,0.9693 -0.0538,1.31655 -0.76104,1.51313 -0.52456,0.14578 -2.44525,0.17409 -3.27687,0.0483 z"
     id="path14"
     style="fill:#7f7f7f;stroke:none;stroke-width:0.145606"
     inkscape:connector-curvature="0" />
</svg>
