<?xml version="1.0" encoding="utf-8"?>
<!-- Generator: Adobe Illustrator 19.2.1, SVG Export Plug-In . SVG Version: 6.00 Build 0)  -->
<svg version="1.1" id="layer" xmlns="http://www.w3.org/2000/svg" xmlns:xlink="http://www.w3.org/1999/xlink" x="0px" y="0px"
	 viewBox="0 0 652 652" style="enable-background:new 0 0 652 652;" xml:space="preserve">
<style type="text/css">
	.st0{fill:#ED1844;}
	.st1{fill:#253186;}
</style>
<g>
	<path class="st0" d="M316.9,308.6h34.5V164.8h-34.5V308.6z M452.6,164.8l-0.2,31.7h96.3v-31.7H452.6z M547.7,308.6l0.9-31.7h-96.8
		l-0.2,31.7H547.7z M546.6,251.4v-30.9h-94.3l-0.2,30.9L546.6,251.4z M172.6,308.6h36.7l7-21.4h43.9l6.6,21.4h36.7l-7.8-21.6H180.4
		L172.6,308.6z M218.4,164.8l32.6,92.9h34.1l-33.5-92.9H218.4z M21.1,308.6h35.1v-79.8l-35.1-64.1V308.6z M60.8,439.1
		c-3.2-4.2-5.2-8.9-5.2-35.2c0-26.3,2-31.1,5.2-35.4c2.6-3.4,7.6-6.3,14-6.3v-31.5c-17.4,0-29.4,5.7-39.9,16.2
		c-15,15.2-14.4,35.4-14.4,57c0,21.6-0.6,41.8,14.4,57C45.3,471.4,57.4,477,74.8,477v-31.5C68.4,445.5,63.4,442.5,60.8,439.1
		L60.8,439.1z M201.2,332L201.2,332l-11.8,0v0H201.2z M245.5,344.7c-2.7-2.6-5.7-4.8-9-6.6l-0.2,0.3
		C239.4,340,242.6,342.1,245.5,344.7 M210.9,422.3h-9.6l25.2,53.5h40.7l-30.7-59.7C229.5,420,220.9,422.3,210.9,422.3 M189.4,422.3
		L189.4,422.3l11.8,0l0,0H189.4z"/>
	<path class="st0" d="M236.5,416.2c3.3-1.8,6.3-4,9-6.6c-2.8,2.4-5.9,4.5-9.2,6.2C236.3,415.8,236.5,416.2,236.5,416.2z M154.4,332
		v143.8h35.1V332H154.4z M355.5,424.5c0,5.5-1.4,11.3-5.4,15.4c-3.2,3.4-8.2,5.7-15.6,5.7c-6.4,0-11.2-2.6-13.8-6.1
		c-3.2-4.2-5.2-9.3-5.2-35.6c0-26.3,2-31.1,5.2-35.4c2.6-3.4,7.4-6.3,13.8-6.3c12,0,17.6,5.2,20.4,16.2h35.3
		c-3.4-23.6-19-47.7-55.7-47.7c-17.2,0-29.3,5.7-39.7,16.2c-15,15.2-14.4,35.4-14.4,57c0,21.6-0.6,41.8,14.4,57
		c10.4,10.5,23,16.2,39.7,16.2c15.6,0,29.2-3.4,41.5-16.2c9.3-9.5,13.2-20.9,14.2-38.6h-34.6V424.5L355.5,424.5z M91.5,293.5l2.4-5
		l-2.6,4.7L91.5,293.5z"/>
	<path class="st0" d="M127.3,164.8l-0.6,1.1l-35.3,65.4l-16.8,31.2l16.8,30.7l2.6-4.7l32.7-59.7l35.1-64H127.3z"/>
	<path class="st1" d="M452.1,308.6h34.5v-87.9h-34.5V308.6z M437.3,164.8h-39.8l-22.8,40l-18.2,31.9l18.2,32l22.8,40h39.8
		l-43.4-71.9L437.3,164.8z M251,257.7h-60l-10.6,29.3h115.3l-10.6-29.3H251z M161.7,164.8v143.8h-35.1v-79.8L161.7,164.8z
		 M56.1,165.9l-0.6-1.1H21.1l35.1,64l18.4,33.7l16.8-31.2L56.1,165.9z M114.7,346.9c-10.4-10.5-22.4-16.2-39.9-16.2v31.5
		c6.4,0,11.4,2.8,14,6.3c3.2,4.2,5.2,9.1,5.2,35.4c0,26.3-2,30.9-5.2,35.1c-2.6,3.4-7.6,6.5-14,6.5V477c17.4,0,29.4-5.7,39.9-16.2
		c15-15.2,14.4-35.4,14.4-57C129.1,382.3,129.7,362.1,114.7,346.9L114.7,346.9z M245.5,344.7c-2.8-2.4-5.9-4.5-9.2-6.2l0.2-0.3
		c-7-3.9-15.6-6.1-25.6-6.1h-9.6l0,0h-11.8v31.7h19.8c9.1,0,14.7,6.4,15.2,13.4c0,0.4,0.1,0.7,0.1,1.1c0,7.5-5.6,14.5-15.2,14.5
		h-19.8v29.5h11.8l0,0h9.6c10,0,18.6-2.3,25.6-6.1l-0.2-0.3c3.3-1.7,6.4-3.8,9.2-6.2c9-8.5,13.8-20.3,14-32.5c0-0.4,0-0.7,0-1.1
		C259.6,361.8,253.2,351.5,245.5,344.7L245.5,344.7z M334.5,393v29.3h55.7c0.2-2.9,0.2-6,0.2-9.3v-20L334.5,393L334.5,393z
		 M598.4,267.8c-12.2,0-22.1,9.9-22.1,22.1c0,0.1,0,0.1,0,0.2c0,12.2,9.8,22.3,22.1,22.3c12.3,0,22.1-10.1,22.1-22.3
		c0.1-12.2-9.7-22.2-21.9-22.3C598.5,267.8,598.4,267.8,598.4,267.8z"/>
</g>
</svg>
