<svg width="21" height="22" viewBox="0 0 21 22" fill="none" xmlns="http://www.w3.org/2000/svg">
<path d="M6.33203 1.56254C6.33203 0.987244 5.86566 0.520874 5.29037 0.520874C4.71507 0.520874 4.2487 0.987244 4.2487 1.56254V2.60421C4.2487 2.61135 4.24914 2.61759 4.24954 2.62341C4.25271 2.66872 4.25407 2.6882 4.03296 2.9093L4.012 2.93023C3.7341 3.20746 3.20703 3.73328 3.20703 4.68754V5.72921C3.20703 6.3045 3.67341 6.77087 4.2487 6.77087C4.82399 6.77087 5.29037 6.3045 5.29037 5.72921V4.68754C5.29037 4.68039 5.28993 4.67415 5.28952 4.66834C5.28635 4.62303 5.28499 4.60355 5.5061 4.38245L5.52706 4.36152C5.80496 4.08429 6.33203 3.55847 6.33203 2.60421V1.56254ZM17.7904 1.56254C17.7904 0.987244 17.324 0.520874 16.7487 0.520874C16.1734 0.520874 15.707 0.987244 15.707 1.56254V2.60421C15.707 2.61135 15.7074 2.61759 15.7079 2.62341C15.711 2.66872 15.7124 2.6882 15.4913 2.9093L15.4704 2.93023C15.1924 3.20746 14.6654 3.73328 14.6654 4.68754V5.72921C14.6654 6.3045 15.1317 6.77087 15.707 6.77087C16.2823 6.77087 16.7487 6.3045 16.7487 5.72921V4.68754C16.7487 4.68039 16.7483 4.67415 16.7479 4.66834C16.7447 4.62303 16.7433 4.60355 16.9644 4.38245L16.9854 4.36152C17.2633 4.08429 17.7904 3.55847 17.7904 2.60421V1.56254ZM11.0195 0.520874C11.5948 0.520874 12.0612 0.987244 12.0612 1.56254V2.60421C12.0612 3.55847 11.5341 4.08429 11.2562 4.36152L11.2353 4.38245C11.0141 4.60355 11.0156 4.62303 11.0187 4.66834C11.0191 4.67415 11.0195 4.68039 11.0195 4.68754V5.72921C11.0195 6.3045 10.5532 6.77087 9.97787 6.77087C9.40255 6.77087 8.9362 6.3045 8.9362 5.72921V4.68754C8.9362 3.73328 9.46328 3.20746 9.7412 2.93023L9.76214 2.9093C9.98328 2.6882 9.98182 2.66872 9.9787 2.62341C9.97828 2.61759 9.97787 2.61135 9.97787 2.60421V1.56254C9.97787 0.987244 10.4442 0.520874 11.0195 0.520874ZM2.16536 10.4167H18.832C18.832 15.0191 15.1011 18.75 10.4987 18.75C5.89632 18.75 2.16536 15.0191 2.16536 10.4167ZM1.1237 8.33337C0.548406 8.33337 0.0820312 8.79974 0.0820312 9.37504V10.4167C0.0820312 14.6882 2.65306 18.3592 6.33203 19.9666V20.8334C6.33203 21.4087 6.79841 21.875 7.3737 21.875H13.6237C14.199 21.875 14.6654 21.4087 14.6654 20.8334V19.9666C18.3443 18.3592 20.9154 14.6882 20.9154 10.4167V9.37504C20.9154 8.79975 20.449 8.33337 19.8737 8.33337H1.1237Z" fill="#6A6AF4"/>
</svg>
