<svg width="25" height="25" viewBox="0 0 25 25" fill="none" xmlns="http://www.w3.org/2000/svg">
<path fill-rule="evenodd" clip-rule="evenodd" d="M20.8333 2.08203C21.4083 2.08203 21.875 2.5487 21.875 3.1237V7.03724L19.7917 9.12057V4.16536H5.20833V20.832H19.7917V17.9591L21.875 15.8758V21.8737C21.875 22.4487 21.4083 22.9154 20.8333 22.9154H4.16667C3.59167 22.9154 3.125 22.4487 3.125 21.8737V3.1237C3.125 2.5487 3.59167 2.08203 4.16667 2.08203H20.8333ZM22.6854 9.1737L24.1583 10.6466L16.0562 18.7487L14.5813 18.7466L14.5833 17.2758L22.6854 9.1737ZM13.5417 12.4987V14.582H8.33333V12.4987H13.5417ZM16.6667 8.33203V10.4154H8.33333V8.33203H16.6667Z" fill="#6A6AF4"/>
</svg>
